<?xml version="1.0" standalone="no"?>
<!DOCTYPE svg PUBLIC "-//W3C//DTD SVG 20010904//EN"
 "http://www.w3.org/TR/2001/REC-SVG-20010904/DTD/svg10.dtd">
<svg version="1.0" xmlns="http://www.w3.org/2000/svg"
 width="2143.000000pt" height="2143.000000pt" viewBox="0 0 2143.000000 2143.000000"
 preserveAspectRatio="xMidYMid meet">
<metadata>
Created by potrace 1.11, written by Peter Selinger 2001-2013
</metadata>
<g transform="translate(0.000000,2143.000000) scale(0.100000,-0.100000)"
fill="#000000" stroke="none">
<path d="M9949 18566 c-2 -2 -56 -7 -119 -10 -63 -4 -131 -9 -150 -11 -19 -2
-62 -7 -95 -10 -33 -3 -71 -7 -85 -10 -14 -2 -47 -7 -75 -10 -82 -10 -342 -54
-411 -70 -35 -8 -76 -17 -92 -20 -168 -30 -728 -197 -857 -255 -11 -5 -83 -34
-160 -65 -160 -65 -519 -238 -645 -312 -47 -27 -92 -52 -100 -56 -8 -4 -28
-16 -45 -27 -16 -11 -37 -23 -45 -26 -16 -8 -384 -250 -409 -270 -9 -7 -65
-49 -125 -95 -60 -45 -119 -90 -130 -99 -263 -218 -282 -236 -522 -475 -238
-237 -401 -425 -586 -675 -97 -131 -281 -404 -299 -444 -7 -14 -16 -26 -21
-26 -4 0 -8 -5 -8 -10 0 -6 -20 -43 -44 -83 -74 -123 -272 -500 -282 -537 -1
-5 -16 -41 -56 -130 -11 -25 -26 -58 -33 -75 -7 -16 -20 -46 -29 -67 -9 -20
-16 -41 -16 -47 0 -6 -5 -19 -10 -29 -35 -59 -204 -585 -226 -701 -2 -8 -5
-24 -8 -35 -3 -12 -6 -24 -6 -28 -1 -4 -6 -22 -11 -40 -17 -59 -72 -334 -84
-423 -2 -11 -8 -47 -13 -80 -6 -33 -14 -85 -17 -115 -3 -30 -8 -62 -10 -70 -3
-13 -7 -48 -21 -220 -2 -25 -6 -88 -10 -140 -3 -52 -8 -97 -10 -99 -3 -3 -15
-6 -27 -8 -12 -1 -38 -6 -57 -10 -19 -4 -42 -8 -50 -9 -12 -1 -71 -14 -182
-39 -359 -80 -868 -278 -1228 -478 -300 -166 -710 -456 -858 -606 -20 -21 -82
-81 -138 -133 -523 -496 -915 -1069 -1189 -1740 -15 -37 -27 -69 -26 -73 1 -3
-5 -18 -13 -33 -19 -38 -91 -254 -131 -397 -69 -245 -133 -569 -151 -770 -2
-33 -7 -71 -9 -85 -28 -157 -28 -745 1 -1015 13 -130 28 -248 39 -305 3 -14 7
-41 10 -60 46 -281 176 -728 293 -1004 62 -147 111 -250 131 -274 12 -15 42
-67 68 -117 107 -210 267 -469 285 -463 7 3 32 -25 56 -61 266 -390 668 -809
1068 -1113 307 -232 661 -443 974 -578 41 -18 89 -38 105 -45 175 -78 540
-200 715 -239 96 -22 311 -67 340 -71 20 -3 45 -7 55 -9 78 -14 128 -21 225
-31 36 -4 79 -9 95 -11 139 -18 625 -25 805 -11 133 10 199 16 245 22 22 3 60
8 85 11 45 5 192 29 240 39 14 3 41 8 60 11 247 43 742 195 980 301 224 100
491 240 674 353 141 86 416 284 507 364 59 52 121 102 189 152 261 191 868
654 963 733 17 15 164 132 247 198 86 68 729 600 740 613 3 3 30 25 60 50 47
39 92 77 134 115 6 6 63 55 126 110 63 55 124 109 136 120 11 11 46 43 79 70
32 28 63 55 69 60 13 12 197 176 241 214 114 101 212 187 221 196 6 5 39 35
74 65 34 30 72 64 84 75 12 11 50 45 85 75 35 30 73 64 85 75 12 11 55 49 96
85 40 36 81 72 90 80 9 8 49 44 90 80 41 36 77 68 80 71 3 3 48 43 100 88 52
46 116 102 141 125 25 22 61 55 80 71 60 52 204 180 209 185 3 3 43 39 91 82
59 53 85 83 86 100 0 12 3 37 6 53 3 17 8 55 12 85 3 30 8 66 10 80 2 14 7 44
10 68 3 23 7 60 10 82 3 21 8 54 10 72 2 18 6 49 9 68 3 19 8 55 11 80 3 25 8
56 10 70 2 14 7 50 10 80 3 30 8 66 10 80 7 42 24 168 30 223 2 22 6 51 9 65
3 15 8 50 11 77 7 55 9 75 25 185 17 126 21 158 35 273 l7 57 -29 1 c-15 0
-35 2 -43 3 -8 2 -42 6 -75 11 -33 4 -69 8 -80 10 -11 2 -45 6 -75 9 -30 4
-62 9 -70 11 -8 2 -40 6 -71 10 -31 3 -65 7 -75 9 -11 2 -44 7 -75 10 -31 4
-65 8 -75 10 -11 2 -44 7 -75 10 -31 4 -65 8 -75 10 -11 2 -44 7 -74 10 -30 4
-66 8 -80 10 -83 13 -128 19 -150 21 -14 1 -43 4 -65 8 -22 4 -58 9 -80 12
-22 2 -56 7 -75 10 -19 3 -97 13 -172 23 l-137 19 -23 -21 c-22 -21 -448 -390
-497 -431 -13 -11 -36 -31 -51 -45 -15 -14 -51 -45 -80 -70 -30 -25 -108 -92
-175 -150 -66 -58 -183 -160 -260 -227 -270 -233 -401 -346 -460 -398 -33 -28
-166 -143 -295 -255 -251 -216 -259 -224 -505 -437 -162 -140 -443 -383 -635
-547 -58 -50 -107 -93 -110 -96 -3 -3 -32 -28 -65 -55 -33 -28 -62 -53 -65
-56 -3 -3 -104 -90 -225 -193 -121 -104 -233 -200 -250 -214 -27 -24 -82 -70
-206 -174 -47 -38 -77 -64 -121 -104 -78 -69 -227 -190 -338 -275 -119 -92
-410 -292 -468 -322 -15 -8 -70 -39 -122 -69 -305 -175 -691 -319 -970 -363
-25 -4 -54 -9 -65 -11 -65 -13 -185 -19 -370 -18 -171 0 -235 4 -345 23 -152
26 -296 60 -385 91 -33 12 -67 23 -75 25 -40 8 -267 113 -365 167 -219 121
-396 256 -575 437 -63 65 -124 128 -136 142 -345 418 -545 886 -601 1414 -10
90 -10 406 0 510 19 206 112 574 187 740 99 218 183 367 283 500 313 416 715
713 1207 890 139 50 348 102 359 89 4 -5 20 -43 36 -84 208 -550 542 -1140
912 -1610 21 -28 167 -205 178 -216 5 -7 37 -43 70 -80 77 -89 430 -442 520
-521 104 -91 229 -193 235 -193 3 0 19 12 35 28 17 15 62 54 100 87 39 33 72
62 75 65 3 3 37 32 75 65 39 33 72 62 75 65 3 3 34 30 70 61 36 30 119 102
185 160 260 225 270 234 339 292 27 23 61 53 76 67 15 14 40 36 56 49 55 47
239 206 269 232 17 15 98 86 182 157 l151 130 -61 43 c-78 54 -280 203 -298
221 -8 7 -59 52 -114 99 -181 157 -405 399 -553 597 -31 42 -60 79 -64 80 -5
2 -8 9 -8 17 0 7 -7 18 -15 25 -18 15 -153 229 -213 338 -61 111 -202 402
-202 418 0 3 -8 24 -19 47 -69 154 -178 534 -215 747 -2 14 -7 36 -10 50 -3
14 -7 41 -10 60 -13 97 -18 137 -22 160 -19 123 -26 604 -11 788 7 93 28 259
41 327 2 11 7 40 11 65 31 201 164 643 255 845 92 206 207 421 329 612 54 84
213 301 266 362 12 14 44 51 70 81 68 79 198 212 295 303 70 67 124 112 322
272 37 30 267 184 339 228 70 42 308 171 319 173 3 0 41 17 84 38 242 114 578
224 861 280 125 25 127 26 175 32 25 3 52 7 60 9 8 2 47 7 85 11 39 3 78 8 87
10 114 21 666 20 777 -1 9 -1 45 -6 81 -9 36 -4 75 -8 85 -10 11 -2 40 -7 65
-10 40 -5 320 -62 345 -70 6 -1 24 -6 40 -10 139 -35 434 -134 508 -171 17 -8
34 -15 39 -15 16 0 312 -147 423 -210 61 -35 153 -91 206 -126 86 -56 327
-232 355 -258 6 -6 40 -36 75 -66 181 -155 474 -470 604 -650 22 -30 43 -56
47 -58 5 -2 8 -8 8 -12 0 -5 15 -30 33 -55 77 -111 225 -364 289 -495 173
-355 281 -691 353 -1100 1 -8 6 -37 9 -63 4 -27 9 -58 11 -68 2 -11 7 -55 11
-97 3 -42 8 -86 11 -97 7 -30 12 -481 6 -504 -3 -13 -42 -40 -112 -77 -306
-164 -680 -424 -911 -634 -88 -80 -190 -171 -225 -201 -22 -19 -42 -36 -45
-39 -3 -3 -36 -32 -75 -65 -38 -33 -79 -69 -91 -80 -11 -11 -32 -29 -45 -40
-76 -64 -537 -465 -594 -517 l-40 -37 28 -2 c15 -1 30 -2 35 -3 4 -1 34 -5 67
-10 33 -4 71 -9 85 -11 14 -2 48 -6 75 -10 28 -3 64 -9 81 -11 17 -3 46 -6 65
-9 19 -2 70 -8 114 -14 44 -6 100 -14 125 -17 25 -3 56 -7 70 -9 14 -2 61 -9
105 -14 44 -6 98 -13 120 -16 22 -3 54 -7 70 -9 114 -15 365 -48 390 -51 17
-3 46 -7 65 -10 19 -2 49 -6 65 -9 17 -2 62 -7 100 -11 39 -4 73 -10 77 -14 4
-4 1 -56 -7 -116 -8 -61 -17 -130 -20 -155 -3 -25 -10 -72 -15 -105 -5 -33
-11 -82 -15 -110 -3 -27 -7 -61 -10 -75 -2 -14 -7 -46 -10 -72 -8 -75 -17
-141 -21 -163 -2 -11 -6 -42 -9 -70 -4 -27 -8 -61 -10 -75 -12 -83 -26 -182
-30 -224 -2 -26 -6 -56 -9 -65 -3 -9 -7 -43 -11 -76 -5 -57 -9 -80 -20 -150
-2 -16 -7 -55 -11 -85 l-6 -54 33 30 c19 16 49 43 68 59 19 17 44 39 56 50 96
86 338 300 369 326 15 13 43 38 60 54 31 29 135 121 186 165 25 22 154 137
174 155 6 6 60 53 120 105 59 52 129 114 155 138 100 94 396 270 616 366 118
52 212 86 350 124 61 18 86 23 165 38 188 35 315 48 480 47 112 0 270 -9 320
-17 14 -3 43 -7 65 -10 170 -21 453 -102 630 -178 139 -61 412 -215 483 -273
9 -8 40 -31 68 -52 96 -71 159 -127 263 -232 296 -301 495 -633 626 -1042 15
-46 29 -95 31 -109 3 -14 9 -38 14 -55 11 -35 16 -59 35 -175 27 -165 29 -197
30 -400 0 -239 -10 -346 -49 -535 -121 -583 -459 -1124 -931 -1490 -90 -69
-242 -175 -252 -175 -3 0 -14 -6 -22 -14 -22 -19 -282 -148 -356 -175 -33 -13
-69 -27 -80 -32 -26 -11 -222 -69 -255 -75 -14 -3 -33 -7 -42 -10 -46 -14
-226 -43 -323 -52 -103 -9 -410 -9 -500 0 -580 62 -1109 308 -1525 712 -47 45
-110 111 -140 145 -30 35 -60 69 -65 75 -24 26 -145 197 -191 271 -73 115
-147 266 -199 402 -25 65 -51 130 -58 145 l-12 27 -41 -37 c-23 -20 -195 -170
-384 -332 -189 -162 -348 -299 -354 -305 -24 -22 -222 -193 -245 -211 -13 -10
-28 -24 -35 -29 -6 -6 -112 -98 -236 -205 -275 -237 -363 -313 -370 -320 -3
-3 -51 -44 -107 -93 l-102 -87 45 -81 c261 -471 705 -993 1154 -1355 47 -38
87 -71 90 -74 12 -14 263 -192 340 -242 427 -277 899 -487 1395 -622 143 -39
429 -101 515 -111 30 -4 57 -8 60 -10 3 -1 30 -5 60 -9 30 -3 96 -11 145 -16
262 -31 760 -33 995 -5 19 3 60 7 90 11 104 11 125 14 160 20 48 8 69 12 110
18 19 3 60 10 90 16 30 7 69 14 85 16 17 3 75 17 130 31 55 14 109 27 120 29
40 8 359 106 400 123 11 5 54 21 95 36 304 113 651 290 945 483 119 77 374
262 406 295 8 7 57 49 109 92 164 138 441 420 598 608 146 176 323 430 446
640 60 103 185 346 225 437 14 30 36 82 51 115 15 33 32 74 38 90 6 17 17 44
23 60 7 17 14 35 15 40 2 6 24 69 50 140 84 236 175 589 200 772 3 26 7 50 9
53 2 3 6 34 10 70 4 36 9 67 10 70 2 3 6 37 10 75 3 39 8 77 10 85 25 95 25
812 0 960 -2 14 -7 54 -10 90 -4 36 -8 76 -10 90 -3 14 -9 57 -15 95 -5 39
-12 81 -15 95 -3 14 -9 50 -15 80 -15 83 -16 88 -40 185 -12 50 -24 101 -26
115 -3 14 -9 40 -15 58 -6 18 -12 39 -13 45 -6 28 -31 110 -66 217 -206 624
-544 1218 -964 1695 -123 140 -329 349 -436 441 -24 21 -54 47 -65 58 -91 84
-326 263 -490 373 -338 226 -798 452 -1180 579 -73 24 -344 101 -379 108 -12
3 -50 11 -86 20 -69 16 -249 51 -314 61 -21 3 -48 7 -60 10 -12 2 -46 7 -76
10 -30 3 -73 7 -95 10 -108 12 -138 14 -240 21 -60 4 -169 7 -240 8 -124 1
-131 2 -131 21 -1 34 -16 239 -19 255 -2 8 -6 44 -10 80 -3 36 -8 76 -10 90
-2 14 -7 45 -10 70 -8 59 -14 99 -20 130 -3 14 -7 41 -10 60 -3 19 -8 46 -10
60 -3 14 -7 36 -10 49 -120 637 -368 1312 -680 1856 -31 55 -69 120 -83 145
-14 25 -75 122 -137 215 -329 501 -702 922 -1190 1344 -41 36 -211 170 -260
207 -22 16 -42 31 -45 35 -7 7 -249 175 -320 221 -448 290 -944 526 -1455 691
-354 114 -738 202 -1060 242 -27 3 -79 10 -115 15 -36 5 -101 12 -145 15 -44
4 -96 8 -115 11 -43 6 -765 16 -771 10z"/>
</g>
</svg>
