<?xml version="1.0" encoding="utf-8"?>
<!-- Generator: Adobe Illustrator 18.0.0, SVG Export Plug-In . SVG Version: 6.00 Build 0)  -->
<!DOCTYPE svg PUBLIC "-//W3C//DTD SVG 1.1//EN" "http://www.w3.org/Graphics/SVG/1.1/DTD/svg11.dtd">
<svg version="1.1" id="Layer_1" xmlns="http://www.w3.org/2000/svg" xmlns:xlink="http://www.w3.org/1999/xlink" x="0px" y="0px"
	 viewBox="0 0 102 30" enable-background="new 0 0 102 30" xml:space="preserve">
<rect x="0.5" y="0.5" fill="#D5D5D5" stroke="#898989" stroke-miterlimit="10" width="101" height="29"/>
<rect x="0.5" y="0.5" fill="#FFFFFF" stroke="#898989" stroke-miterlimit="10" width="26.7" height="28.9"/>
<g>
	<path fill="#898989" d="M35.6,18c-0.1,0.3-0.3,0.5-0.5,0.8s-0.5,0.4-0.8,0.5c-0.3,0.1-0.6,0.2-0.9,0.2h-3.1V9.6h3.1
		c0.3,0,0.6,0.1,0.9,0.2s0.6,0.3,0.8,0.5s0.4,0.5,0.5,0.8s0.2,0.6,0.2,0.9v5C35.8,17.4,35.7,17.7,35.6,18z M34.9,12
		c0-0.2,0-0.4-0.1-0.6s-0.2-0.4-0.3-0.5s-0.3-0.3-0.5-0.3s-0.4-0.1-0.6-0.1h-2.2v8.1h2.2c0.2,0,0.4,0,0.6-0.1s0.4-0.2,0.5-0.3
		c0.1-0.1,0.3-0.3,0.3-0.5c0.1-0.2,0.1-0.4,0.1-0.6V12z"/>
	<path fill="#898989" d="M42.5,18.3c-0.1,0.3-0.3,0.5-0.4,0.7c-0.2,0.2-0.4,0.3-0.7,0.4c-0.3,0.1-0.5,0.2-0.8,0.2H40
		c-0.3,0-0.5-0.1-0.8-0.2c-0.3-0.1-0.5-0.3-0.7-0.4c-0.2-0.2-0.3-0.4-0.4-0.7c-0.1-0.3-0.2-0.5-0.2-0.8v-3.2c0-0.3,0.1-0.5,0.2-0.8
		s0.3-0.5,0.4-0.7s0.4-0.3,0.7-0.4s0.5-0.2,0.8-0.2h0.6c0.3,0,0.5,0.1,0.8,0.2s0.5,0.3,0.7,0.4s0.3,0.4,0.4,0.7s0.2,0.5,0.2,0.8v3.2
		C42.6,17.8,42.6,18.1,42.5,18.3z M41.8,14.3c0-0.2,0-0.3-0.1-0.5s-0.2-0.3-0.3-0.4s-0.2-0.2-0.4-0.3s-0.3-0.1-0.5-0.1H40
		c-0.2,0-0.3,0-0.5,0.1s-0.3,0.2-0.4,0.3s-0.2,0.2-0.3,0.4s-0.1,0.3-0.1,0.5v3.3c0,0.2,0,0.3,0.1,0.5c0.1,0.1,0.2,0.3,0.3,0.4
		s0.2,0.2,0.4,0.3c0.1,0.1,0.3,0.1,0.5,0.1h0.6c0.2,0,0.3,0,0.5-0.1c0.1-0.1,0.3-0.2,0.4-0.3s0.2-0.2,0.3-0.4
		c0.1-0.1,0.1-0.3,0.1-0.5V14.3z"/>
	<path fill="#898989" d="M49.2,18.3c-0.1,0.3-0.3,0.5-0.4,0.7c-0.2,0.2-0.4,0.3-0.7,0.4c-0.3,0.1-0.5,0.2-0.8,0.2h-0.6
		c-0.3,0-0.5-0.1-0.8-0.2c-0.3-0.1-0.5-0.3-0.7-0.4c-0.2-0.2-0.3-0.4-0.4-0.7c-0.1-0.3-0.2-0.5-0.2-0.8v-3.2c0-0.3,0.1-0.5,0.2-0.8
		c0.1-0.3,0.3-0.5,0.4-0.7s0.4-0.3,0.7-0.4s0.5-0.2,0.8-0.2h0.6c0.3,0,0.5,0.1,0.8,0.2s0.5,0.3,0.7,0.4s0.3,0.4,0.4,0.7
		c0.1,0.3,0.2,0.5,0.2,0.8v0.3l-0.8,0.1v-0.5c0-0.2,0-0.3-0.1-0.5s-0.2-0.3-0.3-0.4s-0.2-0.2-0.4-0.3c-0.1-0.1-0.3-0.1-0.5-0.1h-0.6
		c-0.2,0-0.3,0-0.5,0.1c-0.1,0.1-0.3,0.2-0.4,0.3s-0.2,0.2-0.3,0.4s-0.1,0.3-0.1,0.5v3.3c0,0.2,0,0.3,0.1,0.5
		c0.1,0.1,0.2,0.3,0.3,0.4s0.2,0.2,0.4,0.3c0.1,0.1,0.3,0.1,0.5,0.1h0.6c0.2,0,0.3,0,0.5-0.1c0.1-0.1,0.3-0.2,0.4-0.3
		s0.2-0.2,0.3-0.4c0.1-0.1,0.1-0.3,0.1-0.5v-0.5l0.8,0.1v0.3C49.3,17.8,49.3,18.1,49.2,18.3z"/>
	<path fill="#898989" d="M51.5,19.4V9.6h0.8v9.8H51.5z M55.4,19.4l-2.9-3.5l2.9-3.5h1.1l-2.9,3.5l2.9,3.5H55.4z"/>
	<path fill="#898989" d="M62.4,18.3c-0.1,0.3-0.3,0.5-0.4,0.7c-0.2,0.2-0.4,0.3-0.7,0.4c-0.3,0.1-0.5,0.2-0.8,0.2H60
		c-0.3,0-0.5-0.1-0.8-0.2c-0.3-0.1-0.5-0.3-0.7-0.4c-0.2-0.2-0.3-0.4-0.4-0.7c-0.1-0.3-0.2-0.5-0.2-0.8v-3.2c0-0.3,0.1-0.5,0.2-0.8
		c0.1-0.3,0.3-0.5,0.4-0.7s0.4-0.3,0.7-0.4s0.5-0.2,0.8-0.2h0.6c0.3,0,0.5,0.1,0.8,0.2s0.5,0.3,0.7,0.4s0.3,0.4,0.4,0.7
		c0.1,0.3,0.2,0.5,0.2,0.8V16h-3.8v1.6c0,0.2,0,0.3,0.1,0.5c0.1,0.1,0.2,0.3,0.3,0.4s0.2,0.2,0.4,0.3c0.1,0.1,0.3,0.1,0.5,0.1h0.6
		c0.2,0,0.3,0,0.5-0.1c0.1-0.1,0.3-0.2,0.4-0.3s0.2-0.2,0.3-0.4c0.1-0.1,0.1-0.3,0.1-0.5v-0.5l0.8,0.1v0.3
		C62.6,17.8,62.6,18.1,62.4,18.3z M61.8,14.3c0-0.2,0-0.3-0.1-0.5s-0.2-0.3-0.3-0.4s-0.2-0.2-0.4-0.3c-0.1-0.1-0.3-0.1-0.5-0.1H60
		c-0.2,0-0.3,0-0.5,0.1c-0.1,0.1-0.3,0.2-0.4,0.3s-0.2,0.2-0.3,0.4s-0.1,0.3-0.1,0.5v1h3V14.3z"/>
</g>
<g>
	<path fill="#1A9BC6" d="M6.9,17.9c-0.4-0.4-0.7-1.1-0.9-1.8c4.8,0,9.4,0,14.1,0c-0.1,0.1-0.1,0.3-0.2,0.4c-1.6,2.1-3.7,3.2-6.3,3.6
		c-1.4,0.2-2.9,0.3-4.3-0.2c-0.8-0.3-1.6-0.8-2.1-1.3 M11.5,17.5c0-0.1,0-0.1,0-0.2c-0.2,0.1-0.3-0.5-0.6-0.1
		c-0.1,0.1,0.1,0.3,0.1,0.5C11.2,17.6,11.3,17.6,11.5,17.5z"/>
	<path fill="#FFFFFF" d="M7.2,18.5l1,0c0,0,1.8-0.4,2-0.4c0,0,1,1.7,1.8,2.2c0.5,0.3-3-0.3-3.1-0.3c-0.1,0-0.8-0.6-0.8-0.6l-0.9-0.7
		L7.2,18.5L7.2,18.5z"/>
	<path fill="#394D55" d="M10.6,17.8c0.1,0-0.1,0.3-0.1,0.3c-2.2,0.5-2,0.4-3.2,0.4c0.6,0.6,1.3,1,2.1,1.3c1.4,0.5,2.8,0.4,4.3,0.2
		c2.6-0.4,4.7-1.5,6.3-3.6c0.1-0.1,0.1-0.2,0.2-0.4c-4.7,0-9.3,0-14.1,0c0.2,0.7,0.5,1.3,0.9,1.8C7,18,7,18,7.2,18
		C7.2,18,8.3,18.3,10.6,17.8z M15.3,8.4c0,0.8,0,1.7,0,2.5c0,0.4,0,0.8,0,1.3c0.6,0,1.3,0,1.9,0c0,0.7,0,1.3,0,2c1,0.1,2,0,2.9-0.5
		c-0.6-1.4-0.5-2.5,0.3-3.3c0.7,0.5,1.2,1.1,1.4,2.1c0.9-0.2,1.7-0.1,2.4,0.4c-0.4,1-1.1,1.4-2.1,1.6c-0.3,0-0.7-0.1-0.8,0.1
		c-0.3,0.3-0.4,0.7-0.6,1.2c0.8,0.1,1.5-0.1,1.9-0.5c0.4,0.3,0.8,0.5,1.1,0.7C23,16,22,16,21,16c-0.2,0-0.4,0.1-0.5,0.3
		c-1.7,2.5-4.1,3.8-7,4.2c-1.5,0.2-3,0.2-4.4-0.4c-1.7-0.7-2.9-1.9-3.3-3.8c0-0.1-0.1-0.2-0.1-0.3c-0.8,0-1.6,0-2.3,0
		c0.4-0.2,0.7-0.5,1.2-0.7c0.3,0.1,0.7,0.3,1.2,0.5c0-0.6,0-1,0-1.5c0.6,0,1.1,0,1.6,0c0-0.7,0-1.3,0-2c0.6,0,1.3,0,1.9,0
		c0-0.7,0-1.2,0-1.9c1.3,0,2.5,0,3.8,0c0-0.7,0-1.3,0-2C13.8,8.4,14.6,8.4,15.3,8.4z M11.8,15.2c1.2,0.8,2.4,0.8,3.6,0
		c1.1,0.7,2.9,0.8,4.1,0.1c0.3,0.1,0.6,0.2,0.9,0.3c0.2-0.4,0.4-0.7,0.5-1.1c0.1-0.3,0.3-0.5,0.7-0.5c0.4,0,0.8-0.1,1.2-0.2
		c0.4-0.1,0.8-0.4,1-1c-0.4-0.1-0.8-0.2-1.2-0.2c-0.4,0-0.8,0.1-1.2,0.2c0-0.9-0.4-1.5-1.1-2c-0.6,0.7-0.5,1.8,0.1,2.9
		c-0.8,0.6-1.7,0.8-2.6,0.8c-3.6,0-7.3,0-10.9,0c-0.3,0-0.7,0-1,0c0,0.4,0,0.8,0,1.3c0.6-0.1,1.2-0.2,1.8-0.4
		C8.8,16,10.9,15.9,11.8,15.2z M13.4,12.3c0.5,0,1.1,0,1.6,0c0-0.5,0-1,0-1.6c-0.5,0-1,0-1.6,0C13.4,11.3,13.4,11.8,13.4,12.3z
		 M9.6,10.7c0,0.5,0,1.1,0,1.6c0.5,0,1.1,0,1.6,0c0-0.5,0-1.1,0-1.6C10.6,10.7,10.1,10.7,9.6,10.7z M11.5,12.3c0.5,0,1.1,0,1.6,0
		c0-0.6,0-1.1,0-1.6c-0.5,0-1.1,0-1.6,0C11.5,11.3,11.5,11.8,11.5,12.3z M15,10.4c0-0.6,0-1.1,0-1.6c-0.5,0-1.1,0-1.6,0
		c0,0.5,0,1.1,0,1.6C14,10.4,14.5,10.4,15,10.4z M13.4,14.2c0.6,0,1.1,0,1.6,0c0-0.6,0-1.1,0-1.6c-0.5,0-1.1,0-1.6,0
		C13.4,13.2,13.4,13.7,13.4,14.2z M7.7,14.2c0.5,0,1.1,0,1.6,0c0-0.5,0-1.1,0-1.6c-0.5,0-1,0-1.6,0C7.7,13.2,7.7,13.7,7.7,14.2z
		 M11.2,12.6c-0.6,0-1.1,0-1.6,0c0,0.5,0,1.1,0,1.6c0.5,0,1.1,0,1.6,0C11.2,13.7,11.2,13.2,11.2,12.6z M13.1,12.6
		c-0.5,0-1.1,0-1.6,0c0,0.5,0,1.1,0,1.6c0.5,0,1,0,1.6,0C13.1,13.7,13.1,13.2,13.1,12.6z M16.9,12.6c-0.5,0-1,0-1.6,0
		c0,0.5,0,1,0,1.6c0.5,0,1,0,1.6,0C16.9,13.7,16.9,13.2,16.9,12.6z"/>
	<path fill="#2CB9EC" d="M11.8,15.2c-0.9,0.7-3.1,0.8-4,0.2c-0.6,0.2-1.1,0.4-1.8,0.4c0-0.5,0-0.8,0-1.3c0.3,0,0.7,0,1,0
		c3.6,0,7.3,0,10.9,0c0.9,0,1.8-0.2,2.6-0.8c-0.7-1.1-0.8-2.2-0.1-2.9c0.6,0.5,1.1,1.1,1.1,2c0.4-0.1,0.8-0.2,1.2-0.2
		c0.4,0,0.7,0.1,1.2,0.2c-0.2,0.5-0.6,0.8-1,1c-0.4,0.1-0.8,0.2-1.2,0.2c-0.4,0-0.6,0.1-0.7,0.5c-0.1,0.3-0.3,0.7-0.5,1.1
		c-0.3-0.1-0.6-0.2-0.9-0.3c-1.2,0.6-3,0.6-4.1-0.1C14.3,16,13.1,16,11.8,15.2z"/>
	<path fill="#2CB9EC" d="M13.4,12.3c0-0.5,0-1,0-1.6c0.5,0,1,0,1.6,0c0,0.5,0,1,0,1.6C14.5,12.3,14,12.3,13.4,12.3z M14.4,10.9
		C14.4,10.9,14.3,10.9,14.4,10.9c-0.1,0.4-0.1,0.9-0.1,1.3c0,0,0.1,0,0.1,0C14.4,11.7,14.4,11.3,14.4,10.9z M13.5,12.1
		C13.6,12.1,13.6,12.1,13.5,12.1c0.1-0.4,0.1-0.8,0.1-1.3c0,0-0.1,0-0.1,0C13.5,11.3,13.5,11.7,13.5,12.1z M13.8,12.1
		C13.8,12.1,13.8,12.1,13.8,12.1c0.1-0.4,0.1-0.8,0.1-1.2c0,0,0,0-0.1,0C13.8,11.3,13.8,11.7,13.8,12.1z M14.6,10.9
		C14.6,10.9,14.6,10.9,14.6,10.9c-0.1,0.4-0.1,0.8-0.1,1.2c0,0,0.1,0,0.1,0C14.6,11.7,14.6,11.3,14.6,10.9z M14.8,12.1
		C14.8,12.1,14.8,12.1,14.8,12.1c0.1-0.4,0.1-0.8,0.1-1.2c0,0,0,0-0.1,0C14.8,11.3,14.8,11.7,14.8,12.1z M14,12.1
		C14.1,12.1,14.1,12.1,14,12.1c0.1-0.4,0.1-0.8,0.1-1.2c0,0,0,0-0.1,0C14,11.3,14,11.7,14,12.1z"/>
	<path fill="#2CB9EC" d="M9.6,10.7c0.5,0,1,0,1.6,0c0,0.5,0,1.1,0,1.6c-0.5,0-1,0-1.6,0C9.6,11.8,9.6,11.3,9.6,10.7z M10.5,12.1
		C10.5,12.1,10.5,12.1,10.5,12.1c0.1-0.4,0.1-0.8,0.1-1.3c0,0-0.1,0-0.1,0C10.5,11.3,10.5,11.7,10.5,12.1z M9.8,12.1
		C9.8,12.1,9.8,12.1,9.8,12.1c0.1-0.4,0.1-0.8,0.1-1.3c0,0-0.1,0-0.1,0C9.8,11.3,9.8,11.7,9.8,12.1z M10,12.1
		C10,12.1,10,12.1,10,12.1c0.1-0.4,0.1-0.8,0.1-1.2c0,0-0.1,0-0.1,0C10,11.3,10,11.7,10,12.1z M10.7,12.1
		C10.8,12.1,10.8,12.1,10.7,12.1c0.1-0.4,0.1-0.8,0.1-1.2c0,0,0,0-0.1,0C10.7,11.3,10.7,11.7,10.7,12.1z M10.3,10.9
		C10.3,10.9,10.3,10.9,10.3,10.9c-0.1,0.4-0.1,0.8-0.1,1.2c0,0,0,0,0.1,0C10.3,11.7,10.3,11.3,10.3,10.9z M11,12.1
		C11,12.1,11,12.1,11,12.1c0.1-0.4,0.1-0.8,0.1-1.2c0,0,0,0-0.1,0C11,11.3,11,11.7,11,12.1z"/>
	<path fill="#2CB9EC" d="M11.5,12.3c0-0.5,0-1.1,0-1.6c0.5,0,1.1,0,1.6,0c0,0.5,0,1.1,0,1.6C12.6,12.3,12.1,12.3,11.5,12.3z
		 M11.9,12.1C11.9,12.1,11.9,12.1,11.9,12.1c0.1-0.4,0.1-0.8,0.1-1.2c0,0,0,0-0.1,0C11.9,11.3,11.9,11.7,11.9,12.1z M12.4,12.1
		C12.4,12.1,12.4,12.1,12.4,12.1c0.1-0.4,0.1-0.8,0.1-1.2c0,0,0,0-0.1,0C12.4,11.3,12.4,11.7,12.4,12.1z M12.6,12.1
		C12.7,12.1,12.7,12.1,12.6,12.1c0.1-0.4,0.1-0.8,0.1-1.2c0,0,0,0-0.1,0C12.6,11.3,12.6,11.7,12.6,12.1z M13,10.9
		C12.9,10.9,12.9,10.9,13,10.9c-0.1,0.4-0.1,0.8-0.1,1.2c0,0,0,0,0.1,0C13,11.7,13,11.3,13,10.9z M12.2,10.9
		C12.2,10.9,12.2,10.9,12.2,10.9c-0.1,0.4-0.1,0.8-0.1,1.2c0,0,0,0,0.1,0C12.2,11.7,12.2,11.3,12.2,10.9z M11.7,10.9
		C11.7,10.9,11.7,10.9,11.7,10.9c-0.1,0.4-0.1,0.8-0.1,1.2c0,0,0,0,0.1,0C11.7,11.7,11.7,11.3,11.7,10.9z"/>
	<path fill="#2CB9EC" d="M15,10.4c-0.5,0-1,0-1.6,0c0-0.5,0-1.1,0-1.6c0.5,0,1,0,1.6,0C15,9.3,15,9.9,15,10.4z M13.5,10.2
		C13.6,10.2,13.6,10.2,13.5,10.2c0.1-0.4,0.1-0.8,0.1-1.2c0,0,0,0-0.1,0C13.5,9.4,13.5,9.8,13.5,10.2z M13.8,10.2
		C13.8,10.2,13.8,10.2,13.8,10.2c0.1-0.4,0.1-0.8,0.1-1.2c0,0,0,0-0.1,0C13.8,9.4,13.8,9.8,13.8,10.2z M14.4,9C14.4,9,14.3,9,14.4,9
		c-0.1,0.4-0.1,0.8-0.1,1.3c0,0,0,0,0.1,0C14.4,9.8,14.4,9.4,14.4,9z M14.6,9C14.6,9,14.6,9,14.6,9c-0.1,0.4-0.1,0.8-0.1,1.2
		c0,0,0,0,0.1,0C14.6,9.8,14.6,9.4,14.6,9z M14.1,9C14.1,9,14.1,9,14.1,9c-0.1,0.4-0.1,0.8-0.1,1.2c0,0,0,0,0.1,0
		C14.1,9.8,14.1,9.4,14.1,9z M14.8,10.2C14.8,10.2,14.8,10.2,14.8,10.2c0.1-0.4,0.1-0.8,0.1-1.2c0,0,0,0-0.1,0
		C14.8,9.4,14.8,9.8,14.8,10.2z"/>
	<path fill="#2CB9EC" d="M13.4,14.2c0-0.5,0-1,0-1.6c0.5,0,1,0,1.6,0c0,0.5,0,1,0,1.6C14.5,14.2,14,14.2,13.4,14.2z M13.9,12.8
		C13.9,12.8,13.8,12.8,13.9,12.8c-0.1,0.4-0.1,0.8-0.1,1.2c0,0,0,0,0.1,0C13.9,13.6,13.9,13.2,13.9,12.8z M13.6,12.8
		C13.6,12.8,13.6,12.8,13.6,12.8c-0.1,0.4-0.1,0.8-0.1,1.2c0,0,0,0,0.1,0C13.6,13.6,13.6,13.2,13.6,12.8z M14.3,14.1
		C14.3,14.1,14.3,14.1,14.3,14.1c0.1-0.4,0.1-0.8,0.1-1.3c0,0-0.1,0-0.1,0C14.3,13.2,14.3,13.6,14.3,14.1z M14.6,14
		C14.6,14,14.6,14,14.6,14c0.1-0.4,0.1-0.8,0.1-1.2c0,0,0,0-0.1,0C14.6,13.2,14.6,13.6,14.6,14z M14.1,12.8
		C14.1,12.8,14.1,12.8,14.1,12.8c-0.1,0.4-0.1,0.8-0.1,1.2c0,0,0,0,0.1,0C14.1,13.6,14.1,13.2,14.1,12.8z M14.9,12.8
		C14.8,12.8,14.8,12.8,14.9,12.8c-0.1,0.4-0.1,0.8-0.1,1.2c0,0,0,0,0.1,0C14.9,13.6,14.9,13.2,14.9,12.8z"/>
	<path fill="#2CB9EC" d="M7.7,14.2c0-0.5,0-1,0-1.6c0.5,0,1,0,1.6,0c0,0.5,0,1,0,1.6C8.8,14.2,8.3,14.2,7.7,14.2z M8.8,14
		C8.9,14,8.9,14,8.8,14c0.1-0.4,0.1-0.8,0.1-1.3c0,0-0.1,0-0.1,0C8.8,13.2,8.8,13.6,8.8,14z M9.1,14C9.1,14,9.1,14,9.1,14
		c0.1-0.4,0.1-0.8,0.1-1.3c0,0-0.1,0-0.1,0C9.1,13.2,9.1,13.6,9.1,14z M8.4,12.8C8.4,12.8,8.4,12.8,8.4,12.8
		c-0.1,0.4-0.1,0.8-0.1,1.3c0,0,0.1,0,0.1,0C8.4,13.6,8.4,13.2,8.4,12.8z M8.2,12.8C8.1,12.8,8.1,12.8,8.2,12.8
		c-0.1,0.4-0.1,0.8-0.1,1.3c0,0,0.1,0,0.1,0C8.2,13.6,8.2,13.2,8.2,12.8z M7.9,12.8C7.9,12.8,7.9,12.8,7.9,12.8
		c-0.1,0.4-0.1,0.8-0.1,1.2c0,0,0,0,0.1,0C7.9,13.6,7.9,13.2,7.9,12.8z M8.7,12.8C8.6,12.8,8.6,12.8,8.7,12.8
		c-0.1,0.4-0.1,0.8-0.1,1.2c0,0,0,0,0.1,0C8.7,13.6,8.7,13.2,8.7,12.8z"/>
	<path fill="#2CB9EC" d="M11.2,12.6c0,0.5,0,1.1,0,1.6c-0.5,0-1.1,0-1.6,0c0-0.5,0-1.1,0-1.6C10.1,12.6,10.6,12.6,11.2,12.6z
		 M9.8,12.8C9.8,12.8,9.8,12.8,9.8,12.8c-0.1,0.4-0.1,0.8-0.1,1.2c0,0,0,0,0.1,0C9.8,13.6,9.8,13.2,9.8,12.8z M10,14
		C10,14,10,14,10,14c0.1-0.4,0.1-0.8,0.1-1.2c0,0,0,0-0.1,0C10,13.2,10,13.6,10,14z M10.6,12.8C10.6,12.8,10.5,12.8,10.6,12.8
		c-0.1,0.4-0.1,0.8-0.1,1.2c0,0,0,0,0.1,0C10.6,13.6,10.6,13.2,10.6,12.8z M10.8,14C10.8,14,10.8,14,10.8,14
		c0.1-0.4,0.1-0.8,0.1-1.2c0,0,0,0-0.1,0C10.8,13.2,10.8,13.6,10.8,14z M10.2,14C10.3,14,10.3,14,10.2,14c0.1-0.4,0.1-0.8,0.1-1.2
		c0,0,0,0-0.1,0C10.2,13.2,10.2,13.6,10.2,14z M11,14C11,14,11,14,11,14c0.1-0.4,0.1-0.8,0.1-1.2c0,0,0,0-0.1,0
		C11,13.2,11,13.6,11,14z"/>
	<path fill="#2CB9EC" d="M13.1,12.6c0,0.5,0,1,0,1.6c-0.5,0-1,0-1.6,0c0-0.5,0-1,0-1.6C12,12.6,12.6,12.6,13.1,12.6z M11.9,14
		C11.9,14,11.9,14,11.9,14c0.1-0.4,0.1-0.8,0.1-1.3c0,0,0,0-0.1,0C11.9,13.2,11.9,13.6,11.9,14z M12.1,14C12.2,14,12.2,14,12.1,14
		c0.1-0.4,0.1-0.8,0.1-1.3c0,0-0.1,0-0.1,0C12.1,13.2,12.1,13.6,12.1,14z M12.5,12.8C12.4,12.8,12.4,12.8,12.5,12.8
		c-0.1,0.4-0.1,0.8-0.1,1.3c0,0,0.1,0,0.1,0C12.5,13.6,12.5,13.2,12.5,12.8z M12.6,14C12.7,14,12.7,14,12.6,14
		c0.1-0.4,0.1-0.8,0.1-1.3c0,0,0,0-0.1,0C12.6,13.2,12.6,13.6,12.6,14z M13,12.8C12.9,12.8,12.9,12.8,13,12.8
		c-0.1,0.4-0.1,0.8-0.1,1.3c0,0,0.1,0,0.1,0C13,13.6,13,13.2,13,12.8z M11.7,14C11.7,14,11.7,14,11.7,14c0.1-0.4,0.1-0.8,0.1-1.2
		c0,0,0,0-0.1,0C11.7,13.2,11.7,13.6,11.7,14z"/>
	<path fill="#2CB9EC" d="M16.9,12.6c0,0.5,0,1,0,1.6c-0.5,0-1,0-1.6,0c0-0.5,0-1,0-1.6C15.9,12.6,16.4,12.6,16.9,12.6z M16.5,14
		C16.5,14,16.5,14,16.5,14c0.1-0.4,0.1-0.8,0.1-1.3c0,0-0.1,0-0.1,0C16.5,13.2,16.5,13.6,16.5,14z M15.4,14C15.5,14,15.5,14,15.4,14
		c0.1-0.4,0.1-0.8,0.1-1.2c0,0-0.1,0-0.1,0C15.4,13.2,15.4,13.6,15.4,14z M15.8,12.8C15.8,12.8,15.7,12.8,15.8,12.8
		c-0.1,0.4-0.1,0.8-0.1,1.2c0,0,0.1,0,0.1,0C15.8,13.6,15.8,13.2,15.8,12.8z M16,12.8C16,12.8,16,12.8,16,12.8
		c-0.1,0.4-0.1,0.8-0.1,1.3c0,0,0.1,0,0.1,0C16,13.6,16,13.2,16,12.8z M16.2,14C16.2,14,16.3,14,16.2,14c0.1-0.4,0.1-0.8,0.1-1.3
		c0,0-0.1,0-0.1,0C16.2,13.2,16.2,13.6,16.2,14z M16.7,14C16.7,14,16.7,14,16.7,14c0.1-0.4,0.1-0.8,0.1-1.3c0,0,0,0-0.1,0
		C16.7,13.2,16.7,13.6,16.7,14z"/>
	<path fill="#394D55" d="M14.4,10.9c0,0.4,0,0.8,0,1.3c0,0-0.1,0-0.1,0C14.3,11.7,14.3,11.3,14.4,10.9
		C14.3,10.9,14.4,10.9,14.4,10.9z"/>
	<path fill="#394D55" d="M13.5,12.1c0-0.4,0-0.8,0-1.2c0,0,0.1,0,0.1,0C13.6,11.3,13.6,11.7,13.5,12.1
		C13.6,12.1,13.6,12.1,13.5,12.1z"/>
	<path fill="#394D55" d="M13.8,12.1c0-0.4,0-0.8,0-1.2c0,0,0,0,0.1,0C13.9,11.3,13.9,11.7,13.8,12.1C13.8,12.1,13.8,12.1,13.8,12.1z
		"/>
	<path fill="#394D55" d="M14.6,10.9c0,0.4,0,0.8,0,1.2c0,0-0.1,0-0.1,0C14.5,11.7,14.5,11.3,14.6,10.9
		C14.6,10.9,14.6,10.9,14.6,10.9z"/>
	<path fill="#394D55" d="M14.8,12.1c0-0.4,0-0.8,0-1.2c0,0,0,0,0.1,0C14.9,11.3,14.9,11.7,14.8,12.1C14.8,12.1,14.8,12.1,14.8,12.1z
		"/>
	<path fill="#394D55" d="M14,12.1c0-0.4,0-0.8,0-1.2c0,0,0,0,0.1,0C14.1,11.3,14.1,11.7,14,12.1C14.1,12.1,14.1,12.1,14,12.1z"/>
	<path fill="#394D55" d="M10.5,12.1c0-0.4,0-0.8,0-1.3c0,0,0.1,0,0.1,0C10.6,11.3,10.6,11.7,10.5,12.1
		C10.5,12.1,10.5,12.1,10.5,12.1z"/>
	<path fill="#394D55" d="M9.8,12.1c0-0.4,0-0.8,0-1.3c0,0,0.1,0,0.1,0C9.8,11.3,9.8,11.7,9.8,12.1C9.8,12.1,9.8,12.1,9.8,12.1z"/>
	<path fill="#394D55" d="M10,12.1c0-0.4,0-0.8,0-1.2c0,0,0.1,0,0.1,0C10,11.3,10,11.7,10,12.1C10,12.1,10,12.1,10,12.1z"/>
	<path fill="#394D55" d="M10.7,12.1c0-0.4,0-0.8,0-1.2c0,0,0,0,0.1,0C10.8,11.3,10.8,11.7,10.7,12.1C10.8,12.1,10.8,12.1,10.7,12.1z
		"/>
	<path fill="#394D55" d="M10.3,10.9c0,0.4,0,0.8,0,1.2c0,0,0,0-0.1,0C10.2,11.7,10.2,11.3,10.3,10.9C10.3,10.9,10.3,10.9,10.3,10.9z
		"/>
	<path fill="#394D55" d="M11,12.1c0-0.4,0-0.8,0-1.2c0,0,0,0,0.1,0C11,11.3,11,11.7,11,12.1C11,12.1,11,12.1,11,12.1z"/>
	<path fill="#394D55" d="M11.9,12.1c0-0.4,0-0.8,0-1.2c0,0,0,0,0.1,0C12,11.3,12,11.7,11.9,12.1C11.9,12.1,11.9,12.1,11.9,12.1z"/>
	<path fill="#394D55" d="M12.4,12.1c0-0.4,0-0.8,0-1.2c0,0,0,0,0.1,0C12.5,11.3,12.5,11.7,12.4,12.1C12.4,12.1,12.4,12.1,12.4,12.1z
		"/>
	<path fill="#394D55" d="M12.6,12.1c0-0.4,0-0.8,0-1.2c0,0,0,0,0.1,0C12.7,11.3,12.7,11.7,12.6,12.1C12.7,12.1,12.7,12.1,12.6,12.1z
		"/>
	<path fill="#394D55" d="M13,10.9c0,0.4,0,0.8,0,1.2c0,0,0,0-0.1,0C12.9,11.7,12.9,11.3,13,10.9C12.9,10.9,12.9,10.9,13,10.9z"/>
	<path fill="#394D55" d="M12.2,10.9c0,0.4,0,0.8,0,1.2c0,0,0,0-0.1,0C12.2,11.7,12.2,11.3,12.2,10.9C12.2,10.9,12.2,10.9,12.2,10.9z
		"/>
	<path fill="#394D55" d="M11.7,10.9c0,0.4,0,0.8,0,1.2c0,0,0,0-0.1,0C11.7,11.7,11.7,11.3,11.7,10.9C11.7,10.9,11.7,10.9,11.7,10.9z
		"/>
	<path fill="#394D55" d="M13.5,10.2c0-0.4,0-0.8,0-1.2c0,0,0,0,0.1,0C13.6,9.4,13.6,9.8,13.5,10.2C13.6,10.2,13.6,10.2,13.5,10.2z"
		/>
	<path fill="#394D55" d="M13.8,10.2c0-0.4,0-0.8,0-1.2c0,0,0,0,0.1,0C13.9,9.4,13.9,9.8,13.8,10.2C13.8,10.2,13.8,10.2,13.8,10.2z"
		/>
	<path fill="#394D55" d="M14.4,9c0,0.4,0,0.8,0,1.3c0,0,0,0-0.1,0C14.3,9.8,14.3,9.4,14.4,9C14.3,9,14.4,9,14.4,9z"/>
	<path fill="#394D55" d="M14.6,9c0,0.4,0,0.8,0,1.2c0,0,0,0-0.1,0C14.6,9.8,14.6,9.4,14.6,9C14.6,9,14.6,9,14.6,9z"/>
	<path fill="#394D55" d="M14.1,9c0,0.4,0,0.8,0,1.2c0,0,0,0-0.1,0C14.1,9.8,14.1,9.4,14.1,9C14.1,9,14.1,9,14.1,9z"/>
	<path fill="#394D55" d="M14.8,10.2c0-0.4,0-0.8,0-1.2c0,0,0,0,0.1,0C14.9,9.4,14.9,9.8,14.8,10.2C14.8,10.2,14.8,10.2,14.8,10.2z"
		/>
	<path fill="#394D55" d="M13.9,12.8c0,0.4,0,0.8,0,1.2c0,0,0,0-0.1,0C13.8,13.6,13.8,13.2,13.9,12.8C13.8,12.8,13.9,12.8,13.9,12.8z
		"/>
	<path fill="#394D55" d="M13.6,12.8c0,0.4,0,0.8,0,1.2c0,0,0,0-0.1,0C13.5,13.6,13.5,13.2,13.6,12.8C13.6,12.8,13.6,12.8,13.6,12.8z
		"/>
	<path fill="#394D55" d="M14.3,14.1c0-0.4,0-0.8,0-1.3c0,0,0.1,0,0.1,0C14.4,13.2,14.4,13.6,14.3,14.1
		C14.3,14.1,14.3,14.1,14.3,14.1z"/>
	<path fill="#394D55" d="M14.6,14c0-0.4,0-0.8,0-1.2c0,0,0,0,0.1,0C14.6,13.2,14.6,13.6,14.6,14C14.6,14,14.6,14,14.6,14z"/>
	<path fill="#394D55" d="M14.1,12.8c0,0.4,0,0.8,0,1.2c0,0,0,0-0.1,0C14.1,13.6,14.1,13.2,14.1,12.8C14.1,12.8,14.1,12.8,14.1,12.8z
		"/>
	<path fill="#394D55" d="M14.9,12.8c0,0.4,0,0.8,0,1.2c0,0,0,0-0.1,0C14.8,13.6,14.8,13.2,14.9,12.8C14.8,12.8,14.8,12.8,14.9,12.8z
		"/>
	<path fill="#394D55" d="M8.8,14c0-0.4,0-0.8,0-1.3c0,0,0.1,0,0.1,0C8.9,13.2,8.9,13.6,8.8,14C8.9,14,8.9,14,8.8,14z"/>
	<path fill="#394D55" d="M9.1,14c0-0.4,0-0.8,0-1.3c0,0,0.1,0,0.1,0C9.1,13.2,9.1,13.6,9.1,14C9.1,14,9.1,14,9.1,14z"/>
	<path fill="#394D55" d="M8.4,12.8c0,0.4,0,0.8,0,1.3c0,0-0.1,0-0.1,0C8.3,13.6,8.3,13.2,8.4,12.8C8.4,12.8,8.4,12.8,8.4,12.8z"/>
	<path fill="#394D55" d="M8.2,12.8c0,0.4,0,0.8,0,1.3c0,0-0.1,0-0.1,0C8.1,13.6,8.1,13.2,8.2,12.8C8.1,12.8,8.1,12.8,8.2,12.8z"/>
	<path fill="#394D55" d="M7.9,12.8c0,0.4,0,0.8,0,1.2c0,0,0,0-0.1,0C7.9,13.6,7.9,13.2,7.9,12.8C7.9,12.8,7.9,12.8,7.9,12.8z"/>
	<path fill="#394D55" d="M8.7,12.8c0,0.4,0,0.8,0,1.2c0,0,0,0-0.1,0C8.6,13.6,8.6,13.2,8.7,12.8C8.6,12.8,8.6,12.8,8.7,12.8z"/>
	<path fill="#394D55" d="M9.8,12.8c0,0.4,0,0.8,0,1.2c0,0,0,0-0.1,0C9.8,13.6,9.8,13.2,9.8,12.8C9.8,12.8,9.8,12.8,9.8,12.8z"/>
	<path fill="#394D55" d="M10,14c0-0.4,0-0.8,0-1.2c0,0,0,0,0.1,0C10.1,13.2,10.1,13.6,10,14C10,14,10,14,10,14z"/>
	<path fill="#394D55" d="M10.6,12.8c0,0.4,0,0.8,0,1.2c0,0,0,0-0.1,0C10.5,13.6,10.5,13.2,10.6,12.8C10.5,12.8,10.6,12.8,10.6,12.8z
		"/>
	<path fill="#394D55" d="M10.8,14c0-0.4,0-0.8,0-1.2c0,0,0,0,0.1,0C10.8,13.2,10.8,13.6,10.8,14C10.8,14,10.8,14,10.8,14z"/>
	<path fill="#394D55" d="M10.2,14c0-0.4,0-0.8,0-1.2c0,0,0,0,0.1,0C10.3,13.2,10.3,13.6,10.2,14C10.3,14,10.3,14,10.2,14z"/>
	<path fill="#394D55" d="M11,14c0-0.4,0-0.8,0-1.2c0,0,0,0,0.1,0C11,13.2,11,13.6,11,14C11,14,11,14,11,14z"/>
	<path fill="#394D55" d="M11.9,14c0-0.4,0-0.8,0-1.3c0,0,0,0,0.1,0C12,13.2,12,13.6,11.9,14C11.9,14,11.9,14,11.9,14z"/>
	<path fill="#394D55" d="M12.1,14c0-0.4,0-0.8,0-1.3c0,0,0.1,0,0.1,0C12.2,13.2,12.2,13.6,12.1,14C12.2,14,12.2,14,12.1,14z"/>
	<path fill="#394D55" d="M12.5,12.8c0,0.4,0,0.8,0,1.3c0,0-0.1,0-0.1,0C12.4,13.6,12.4,13.2,12.5,12.8
		C12.4,12.8,12.4,12.8,12.5,12.8z"/>
	<path fill="#394D55" d="M12.6,14c0-0.4,0-0.8,0-1.3c0,0,0,0,0.1,0C12.7,13.2,12.7,13.6,12.6,14C12.7,14,12.7,14,12.6,14z"/>
	<path fill="#394D55" d="M13,12.8c0,0.4,0,0.8,0,1.3c0,0-0.1,0-0.1,0C12.9,13.6,12.9,13.2,13,12.8C12.9,12.8,12.9,12.8,13,12.8z"/>
	<path fill="#394D55" d="M11.7,14c0-0.4,0-0.8,0-1.2c0,0,0,0,0.1,0C11.7,13.2,11.7,13.6,11.7,14C11.7,14,11.7,14,11.7,14z"/>
	<path fill="#394D55" d="M16.5,14c0-0.4,0-0.8,0-1.3c0,0,0.1,0,0.1,0C16.5,13.2,16.5,13.6,16.5,14C16.5,14,16.5,14,16.5,14z"/>
	<path fill="#394D55" d="M15.4,14c0-0.4,0-0.8,0-1.2c0,0,0.1,0,0.1,0C15.5,13.2,15.5,13.6,15.4,14C15.5,14,15.5,14,15.4,14z"/>
	<path fill="#394D55" d="M15.8,12.8c0,0.4,0,0.8,0,1.2c0,0-0.1,0-0.1,0C15.7,13.6,15.7,13.2,15.8,12.8
		C15.7,12.8,15.8,12.8,15.8,12.8z"/>
	<path fill="#394D55" d="M16,12.8c0,0.4,0,0.8,0,1.3c0,0-0.1,0-0.1,0C15.9,13.6,15.9,13.2,16,12.8C16,12.8,16,12.8,16,12.8z"/>
	<path fill="#394D55" d="M16.2,14c0-0.4,0-0.8,0-1.3c0,0,0.1,0,0.1,0C16.3,13.2,16.3,13.6,16.2,14C16.3,14,16.2,14,16.2,14z"/>
	<path fill="#394D55" d="M16.7,14c0-0.4,0-0.8,0-1.3c0,0,0,0,0.1,0C16.8,13.2,16.8,13.6,16.7,14C16.7,14,16.7,14,16.7,14z"/>
	<circle fill="#FFFFFF" cx="11.1" cy="17.4" r="0.4"/>
	<circle fill="#394D55" cx="11.1" cy="17.4" r="0.3"/>
	<circle fill="#FFFFFF" cx="11.3" cy="17.1" r="0.1"/>
</g>
</svg>
