<?xml version="1.0" encoding="utf-8"?>
<!-- Generator: Adobe Illustrator 18.0.0, SVG Export Plug-In . SVG Version: 6.00 Build 0)  -->
<!DOCTYPE svg PUBLIC "-//W3C//DTD SVG 1.1//EN" "http://www.w3.org/Graphics/SVG/1.1/DTD/svg11.dtd">
<svg version="1.1" id="Layer_1" xmlns="http://www.w3.org/2000/svg" xmlns:xlink="http://www.w3.org/1999/xlink" x="0px" y="0px"
	 viewBox="0 0 583.3 324.3" enable-background="new 0 0 583.3 324.3" xml:space="preserve">
<path opacity="0.73" fill="#ABBBC5" d="M22.9,91.1h51.6c12.2,0,22.1-9.9,22.1-22.1V23c0-12.2-9.9-22.1-22.1-22.1H22.9
	C10.7,0.9,0.8,10.8,0.8,23V69C0.8,81.2,10.7,91.1,22.9,91.1z"/>
<polygon fill="#FFFFFF" points="23.8,68.8 74,68.8 48.8,46.5 "/>
<polygon fill="#FFFFFF" points="23.8,66 42.4,49.5 23.8,33 "/>
<polygon fill="#FFFFFF" points="74,66 55.4,49.5 74,33 "/>
<polygon fill="#FFFFFF" points="29.9,35.6 24.5,31 48.8,11.1 73.4,31.2 68.4,35.6 "/>
<polygon fill="#FFFFFF" points="48.8,43.8 44.2,48.1 31.9,37.7 65.3,37.7 53.8,48.1 "/>
<path opacity="0.43" fill="#ABBBC5" d="M549.9,252.6c0-30-19.6-55.6-47.3-65.8c9.2-16.7,14.5-35.6,14.5-55.6
	C517,62.5,455.9,6.9,380.4,6.9c-39.3,0-74.7,15.1-99.6,39.2c-13-5.3-27.4-8.3-42.4-8.3c-59.3,0-107.4,45.5-107.4,101.7
	c0,9.4,1.3,18.4,3.8,27c-38.5,4.3-68.4,35.3-68.4,72.9c0,22.8,10.9,42.8,28.1,56.3l-57.7,28.5l443.4-0.3l-0.1-1
	C520,320.6,549.9,290.1,549.9,252.6z"/>
<path fill="#F4C278" d="M310.8,323.3c0,0-99,2-103-3.8c-34.3-49.8-7.2-92.2,2.2-100.4c9-7.8,18.6-12.9,37.9-14.6
	c35.2-3,64.4,21.3,70,45C328,291.5,310.8,323.3,310.8,323.3z"/>
<path fill="#C59680" d="M276,218.7c0,0-2.3,5.2-12,3.2c-8.4-1.8-17.8-9.4-17.7-14.7c5.2-15.2,4.6-19.4,4.4-23.2
	c-0.3-5.3-2.6-8-1.8-14.1c1-8,7.6-5.7,7.6-5.7s2.8-6.8,8.4-7.2c4-0.3,27.9,16.2,32.3,13.4c-5.6,21.5-19.3,35.6-19.3,35.6L276,218.7z
	"/>
<path fill="#002441" d="M246.7,176c2.2-2.6-0.1-11,3.8-14.5c3.9-3.5,6.8-0.2,6.8-0.2l-4,6.8c0,0,1.7,0.3,3.9,0
	c2.2-0.3,4.6-5.1,4.6-5.1l4.5,1.1c5.6-2.2,2.6,0.3,5.5,8.3c5.4,15.5,33.7,19.5,34.4,6.4c0.5-8.2,17-14.5,11.6-16.5
	c-14.7-5.3-9.6-17.3-21.4-26.3c-9.2-7-19.9-6.6-24.6-5c-4.7,1.6-5.4,2.6-5.4,2.6s-11.3-6.2-18.5,5.6C239,154,246.7,176,246.7,176z"
	/>
<path fill="#AA7366" d="M278.3,205.6c0,0-4.1,4.7-9.6,4.6c-4.7-0.1-9.7-4.6-11.1-10c-1-3.8-1-6.2-1-6.2s1.1,3.6,2.9,6.6
	c5.7,9.5,16.8,5.6,16.8,5.6L278.3,205.6z"/>
<path fill="#002441" d="M257,214.5c1.1-3.3,2.1-7-0.3-11.8c-3.2-6.8-3.4-14.1,1.7-26.8c2.5-6.2,7-13.4,11.2-12.7
	c3.8,0.6,6.4,6.6,9.9,8.4c10.5,0.3,14.6-8.9,13.2-17.5c-1.7-10.4-21.6-24.7-32-23.8c-22.5,1.8-24.2,24.3-35.7,35.1
	c-6.7,7.7-4.4,15.7-2.4,23.5c0.3,1.1,1.1,2.6,2,3c10.3,4.5,4.3,13.5,20,16.5C247.3,209.3,253.7,214.1,257,214.5z"/>
<path fill="#002441" d="M356.8,121.3H300c-8.6,0-15.6-7-15.6-15.6v0c0-8.6,7-15.6,15.6-15.6h56.7c8.6,0,15.6,7,15.6,15.6v0
	C372.4,114.3,365.4,121.3,356.8,121.3z"/>
<path fill="#002441" d="M316.3,133c-3.8,2-15.6-4.7-15-12.6l1.2-5.5h9.9C312.4,114.9,308.8,124.1,316.3,133z"/>
<circle fill="#FFFFFF" cx="316" cy="105.1" r="1.9"/>
<circle fill="#FFFFFF" cx="327.9" cy="105.1" r="1.9"/>
<circle fill="#FFFFFF" cx="339.7" cy="105.1" r="1.9"/>
<path fill="#F4C278" d="M338.5,324.2L449,287.6c0,0-3.3-18.9-1.3-16.5c7.7,9,16.8,17.4,17.9,10.1c6.4-42.9-1.4-53.2-11.1-61.8
	c-9.3-8.2-30.7-18.9-50.8-20.6c-36.5-3.2-53.7,6.8-63.9,21.9C312.6,261.2,338.5,324.2,338.5,324.2z"/>
<path fill="#9C6A5C" d="M433.5,280c0,0-14,43.2,3.2,44.2c16.5,0.9,27.8-32.9,28.9-43c-2.7,4.8-11-1-15.8-10.9
	c-3.2-6.6-14.8,1.5-14.8,1.5L433.5,280z"/>
<path fill="#B37E72" d="M383.3,214.3c0,0,1.5,5.5,11.4,4.8c8.5-0.6,19-6.8,19.5-12.1c-3.1-15.7-1.9-19.9-1.1-23.6
	c1-5.2,3.7-7.5,3.8-13.7c0.1-8.1-6.7-6.7-6.7-6.7s-1.8-7.1-7.3-8.3c-3.9-0.9-27.5,13.4-31.5,10.1c2,24,11.8,36.7,11.8,36.7
	L383.3,214.3z"/>
<path fill="#002441" d="M412.4,184.6c-1-3.5,4.4-10.9,2.2-16.1c-2.2-5.2-6.1-3.2-6.1-3.2l1,8.6c0,0-1.7-0.4-3.6-1.8
	c-1.9-1.3-2.2-7.2-2.2-7.2l-0.8-7.9c-3.9-4.3-7.4,3.6-12.8,10.4c-5.5,6.9-16,11.5-24.3,5.2c-6.6-5-0.5-13.1-5.3-15.4
	c-4.9-2.3-8.7-8.2-8.2-13.5c0.4-5.1,7.5,2.7,14.7-4c5.5-5.1,4.3-13.5,18.4-17.7c11-3.2,18.5,1.7,22.2,5.4c3.7,3.7,3.4,6.4,3.4,6.4
	s12.7-1.2,14.6,13.7C427.9,166.2,412.4,184.6,412.4,184.6z"/>
<path fill="#9C6A5C" d="M382.2,199.9c0,0,4.6,6.2,10.6,6.8c5.2,0.5,12.3-4,14.3-9.6c4.3-12.1,2.9-20.9,2.9-20.9s-0.4,15.3-6.9,22.3
	c-10.3,11-22.5-1.3-22.5-1.3L382.2,199.9z"/>
<path fill="#E6A95E" d="M439.8,273.6c0,0,18.5,25.2,23.4,17.8c0,0,2.2-8.2,2.4-10.5c-3.1,5.6-21.3-18-25.8-23.8V273.6z"/>
<path fill="none" stroke="#809FA9" stroke-width="2" stroke-linecap="round" stroke-linejoin="round" stroke-miterlimit="10" d="
	M171.5,250.7c0,0-6.7,9.2-6.1,17.1c0.7,9.5,7,14.4,10.9,14.4c5,0.1-4.3-9.9-1.4-17.6"/>
<path fill="#ABBBC5" d="M156,286v7h-1.6c-5.8,0-10.4,5-10.4,10.8v6.1c0,5.8,4.6,10.1,10.4,10.1h1.6v4h32v-38H156z M154.4,314
	c-2.6,0-4.4-1.5-4.4-4.1v-6.1c0-2.6,1.7-5.8,4.4-5.8h1.6v16H154.4z"/>
<polygon fill="#ABBBC5" points="475.7,295.7 507.3,295.7 503.7,324.3 479.2,324.3 "/>
<path fill="#ABBBC5" d="M479.7,289c3.1,10.4,7.2,19,13.7,18.3c6.5-0.6,10-10,10.5-20.8c0.7-13.1-6.9-19.2-13.5-19.4
	C481.7,266.9,476.3,277.3,479.7,289z"/>
<path fill="none" stroke="#809FA9" stroke-width="2" stroke-miterlimit="10" d="M513.2,282c-5.6,8.9-11.1,15.2-16.9,13.4
	c-5.9-1.9-7.1-8.3-5.5-18.7c1.8-11.3,8.5-16.2,16.4-14.6C513.2,263.2,519.2,272.4,513.2,282z"/>
<polygon fill="none" stroke="#809FA9" stroke-width="2" stroke-linecap="round" stroke-linejoin="round" stroke-miterlimit="10" points="
	506.2,306.4 476.9,304.6 475.4,295.7 506.7,300.5 "/>
<path fill="#ABBBC5" d="M486.6,256.6c-0.7,4-1.1,7.3,0,8.1c1.9,1.4,5.2,0.1,7.9-2.9c3.9-4.5,1.9-8.6-0.1-9.8
	C491.8,250.3,487.4,251.8,486.6,256.6z"/>
<g>
	<g>
		<path fill="none" stroke="#809FA9" stroke-width="2" stroke-linecap="round" stroke-linejoin="round" d="M525,239.6
			c0,0.6,0,1.4,0,2c0,0.2,0,0.4,0,0.4"/>
		
			<path fill="none" stroke="#809FA9" stroke-width="1.5" stroke-linecap="round" stroke-linejoin="round" stroke-dasharray="4.685,7.4961" d="
			M525.1,249.7c-0.8,23.8-5.2,46.7-12.6,67.9"/>
		<path fill="none" stroke="#809FA9" stroke-width="1.5" stroke-linecap="round" stroke-linejoin="round" d="M511.2,321.1
			c-0.3,0.8-0.6,1.6-0.9,2.3"/>
	</g>
</g>
<g>
	<g>
		<path fill="none" stroke="#809FA9" stroke-width="1.5" stroke-linecap="round" stroke-linejoin="round" d="M436.3,61.8
			c0.7,0.5,1.3,1,2,1.5"/>
		
			<path fill="none" stroke="#809FA9" stroke-width="1.5" stroke-linecap="round" stroke-linejoin="round" stroke-dasharray="5.0296,8.0474" d="
			M444.7,68.2c6.4,5.2,12.6,10.8,18.4,16.7c8.4,8.7,16.1,18.1,23.1,28.2"/>
		<path fill="none" stroke="#809FA9" stroke-width="1.5" stroke-linecap="round" stroke-linejoin="round" d="M488.4,116.5
			c0.5,0.7,0.9,1.4,1.4,2.1"/>
	</g>
</g>
<g>
	<g>
		<path fill="none" stroke="#809FA9" stroke-width="1.5" stroke-linecap="round" stroke-linejoin="round" d="M263.3,36.4
			c0.8-0.3,1.6-0.6,2.4-0.8"/>
		
			<path fill="none" stroke="#809FA9" stroke-width="1.5" stroke-linecap="round" stroke-linejoin="round" stroke-dasharray="5.039,8.0624" d="
			M273.4,33.2c16.7-4.9,34.3-7.5,52.4-7.5c20.8,0,40.8,3.4,59.7,9.8"/>
		<path fill="none" stroke="#809FA9" stroke-width="1.5" stroke-linecap="round" stroke-linejoin="round" d="M389.3,36.8
			c0.8,0.3,1.6,0.6,2.3,0.9"/>
	</g>
</g>
<g>
	<g>
		<path fill="none" stroke="#809FA9" stroke-width="1.5" stroke-linecap="round" stroke-linejoin="round" d="M158.6,123.8
			c0.4-0.7,0.9-1.4,1.3-2.1"/>
		
			<path fill="none" stroke="#809FA9" stroke-width="1.5" stroke-linecap="round" stroke-linejoin="round" stroke-dasharray="5.5813,8.9301" d="
			M164.7,114.2c4.6-6.8,9.6-13.3,14.9-19.5"/>
		<path fill="none" stroke="#809FA9" stroke-width="1.5" stroke-linecap="round" stroke-linejoin="round" d="M182.5,91.3
			c0.6-0.6,1.1-1.2,1.7-1.9"/>
	</g>
</g>
<g>
	<g>
		<path fill="none" stroke="#809FA9" stroke-width="1.5" stroke-linecap="round" stroke-linejoin="round" d="M141.1,323.1
			c-0.3-0.8-0.6-1.6-0.9-2.3"/>
		
			<path fill="none" stroke="#809FA9" stroke-width="1.5" stroke-linecap="round" stroke-linejoin="round" stroke-dasharray="4.6245,7.3992" d="
			M137.8,313.8c-5.7-17.5-9.4-36-10.8-55.2"/>
		<path fill="none" stroke="#809FA9" stroke-width="1.5" stroke-linecap="round" stroke-linejoin="round" d="M126.7,254.8
			c0-0.8-0.1-1.7-0.1-2.5"/>
	</g>
</g>
<path fill="#B37E72" d="M436,323.9c11-1.9,11.9-21.6,9.5-33.6c-5-24.6-30.9-69.5-30.9-69.5s-3.1-12.2-5.3-17.4
	c-2.3-5.3-3.9-11.1-7.9-12.8c-8.3-3.6-10.9-2.5-10.9-2.5s0.9,3.7,2.7,4.4c6,2.4,7.2,4.7,5.5,9.1c-0.4,1-6.1,2.2-7.4,5.5
	c-2.7,7-1.1,15-0.4,16.8c0.9,2.6,9.7,6.3,9.7,6.3s9.6,62.4,11.8,69.6C414.9,309,421.5,326.4,436,323.9z"/>
<path fill="#9C6A5C" d="M436.3,323.9c11-1.9,13-19.8,10.6-31.8c-2.9-14.1-23.6-54.9-32.3-71.3c0-9.5-9.5-28.7-11.2-29.4
	c-8.3-3.6-12.6-3.4-12.6-3.4s0.9,3.7,2.7,4.4c6,2.4,7.2,4.7,5.5,9.1c-0.4,1-6.1,2.2-7.4,5.5c-2.7,7-1.1,15-0.4,16.8
	c0.9,2.6,9.7,6.3,9.7,6.3s9.6,62.4,11.8,69.6C415.2,309,421.8,326.4,436.3,323.9z"/>
<rect x="327.5" y="242.5" fill="#002441" width="112.6" height="81.7"/>
<path fill="#FFFFFF" d="M399.1,284.9C399.1,284.9,399.1,284.9,399.1,284.9c0-0.1,0-0.2,0-0.2c0-0.3,0-0.6-0.1-0.9c0,0,0,0,0,0
	c0,0,0,0,0,0c-0.1-0.3-0.2-0.7-0.3-1c0,0,0,0,0,0l0,0c0,0,0,0,0,0c0-0.1-0.1-0.2-0.1-0.4l0,0l0,0c-0.2-0.4-0.3-0.7-0.5-1.1
	c0,0,0-0.1-0.1-0.1c0,0-0.1-0.1-0.1-0.1l0,0c0,0,0,0,0,0c0-0.1-0.1-0.1-0.1-0.2l-0.1-0.1c-0.1-0.1-0.1-0.2-0.2-0.2c0,0,0,0,0,0
	c-0.1-0.1-0.2-0.2-0.2-0.3c-0.1-0.1-0.1-0.1-0.2-0.2c0,0-0.1-0.1-0.1-0.1c-0.1-0.1-0.1-0.1-0.2-0.2c0,0,0,0-0.1-0.1
	c-0.1-0.1-0.3-0.2-0.4-0.3c0,0,0,0-0.1,0c-0.1-0.1-0.1-0.1-0.2-0.2c0,0-0.1-0.1-0.1-0.1c-0.1,0-0.1-0.1-0.2-0.1
	c-0.1,0-0.1-0.1-0.2-0.1c-0.1,0-0.2-0.1-0.2-0.1c-0.1,0-0.2-0.1-0.2-0.1c0,0-0.1,0-0.1-0.1c-0.1,0-0.2-0.1-0.3-0.1c0,0,0,0,0,0l0,0
	c0,0,0,0,0,0l-0.1,0l-0.2-0.1c-0.7-0.2-1.4-0.3-2.1-0.3c0,0-0.1,0-0.1,0c-0.3-4.6-4.1-8.3-8.8-8.3c-4.7,0-8.6,3.7-8.8,8.4
	c-0.1,0-0.2,0-0.4,0.1c0,0,0,0,0,0c-1.1,0.3-2.2,0.8-3.1,1.6c0,0,0,0,0,0c-1.3,1.1-2.1,2.7-2.3,4.4c0,0,0,0.1,0,0.1
	c0,0.1,0,0.2,0,0.3c0,0,0,0.1,0,0.1c0,0.1,0,0.3,0,0.4c0,0,0,0.1,0,0.1c0,0.2,0,0.3,0,0.5l0,0c0,0.1,0,0.1,0,0.2
	c0.1,0.8,0.3,1.5,0.6,2.2c0,0,0,0,0,0c0.1,0.3,0.3,0.6,0.5,0.8c0,0,0,0,0,0c1.3,1.9,3.4,3.1,5.8,3.1c1.7,0,3.4-0.6,4.6-1.7
	c1-0.7,2.1-1.6,3.2-2.6l3.2-2.8l0.3-2.5l-2.4-0.3c-2.4,2.1-5.4,4.7-5.6,4.8l0,0l0,0c-1,0.9-2.1,1.6-3.4,1.6c-2,0-3.7-1.6-3.7-3.7
	c0-0.7,0.2-1.4,0.6-2c0.5-0.8,1.4-1.4,2.3-1.6c0.6,1.5,1.5,2.9,2.8,3.9l2.4-2.1c-1.6-1-2.6-2.8-2.6-4.8c0-3.2,2.6-5.7,5.7-5.7
	c3.2,0,5.7,2.6,5.7,5.7c0,0.1,0,0.2,0,0.3c-0.6,0.3-1.2,0.7-1.7,1.2c-0.3,0.3-0.8,0.7-1.4,1.2l2.5,0.3l-0.3,2.3l0.6-0.5c0,0,0,0,0,0
	c0,0,0,0,0,0l1.2-1.1c0,0,0.1-0.1,0.1-0.1v0c0,0,0,0,0,0c0.3-0.2,0.6-0.3,0.9-0.4c0.4-0.1,0.9-0.2,1.3-0.2c0,0,0.1,0,0.1,0
	c0.1,0,0.2,0,0.4,0c0,0,0,0,0,0l0,0c0.7,0.1,1.3,0.4,1.9,0.9c0,0,0,0,0.1,0c0,0,0.1,0.1,0.1,0.1c0,0,0.1,0.1,0.1,0.1
	c0,0.1,0.1,0.1,0.1,0.2c0,0,0.1,0.1,0.1,0.1c0,0.1,0.1,0.1,0.1,0.2c0,0,0,0.1,0.1,0.1c0,0.1,0.1,0.1,0.1,0.2c0,0,0,0.1,0.1,0.1
	c0,0.1,0.1,0.2,0.1,0.3c0,0,0,0.1,0,0.1c0,0.1,0,0.1,0.1,0.2c0,0.1,0,0.1,0,0.2c0,0,0,0.1,0,0.1c0,0.1,0,0.2,0,0.3c0,0,0,0,0,0
	c0,0.1,0,0.2,0,0.3c0,0,0,0,0,0.1c0,0.1,0,0.1,0,0.2c0,0,0,0,0,0c0,0.2,0,0.4-0.1,0.6c0,0,0,0,0,0c-0.1,0.3-0.2,0.6-0.3,0.8l0,0
	c-0.4,0.7-1,1.3-1.8,1.6c-0.2,0.1-0.4,0.2-0.7,0.2l0,0c-0.1,0-0.2,0-0.3,0l-0.1,0c-0.2,0-0.4,0-0.6,0l0,0c-0.1,0-0.2,0-0.3,0
	c0,0,0,0,0,0l0,0c-0.1,0-0.1,0-0.2,0c0,0-0.1,0-0.1,0c0,0-0.1,0-0.1,0c-0.1,0-0.1,0-0.2-0.1l-0.1,0c-0.1,0-0.1-0.1-0.2-0.1l0,0
	c-0.2-0.1-0.3-0.2-0.5-0.3c-0.2-0.2-0.5-0.4-0.7-0.6c-0.1-0.1-0.1-0.1-0.2-0.2l0-0.1c0-0.1-0.1-0.1-0.1-0.2c0,0,0-0.1-0.1-0.1
	c0,0-0.1-0.1-0.1-0.1c0,0-0.1-0.1-0.1-0.1c0,0,0-0.1,0-0.1c0-0.1-0.1-0.1-0.1-0.2l0-0.1c0-0.1-0.1-0.1-0.1-0.2c0,0,0,0,0,0l-2.7,2.3
	c0,0.1,0.1,0.1,0.1,0.2l0,0c0,0,0,0.1,0,0.1c0.1,0.1,0.2,0.2,0.2,0.3c0.1,0.1,0.1,0.2,0.2,0.2l0.1,0.1c0.7,0.8,1.5,1.5,2.5,2l0,0
	c0.1,0.1,0.3,0.1,0.4,0.2l0.1,0c0.1,0,0.2,0.1,0.4,0.1c0,0,0.1,0,0.1,0l0.1,0c0.1,0,0.2,0.1,0.3,0.1c0.1,0,0.1,0,0.2,0l0.1,0
	c0.1,0,0.1,0,0.2,0c0.1,0,0.3,0,0.4,0l0.1,0c0,0,0.1,0,0.1,0c0.2,0,0.4,0,0.6,0h0c0.1,0,0.3,0,0.4,0l0,0c0.1,0,0.2,0,0.3,0l0.1,0
	c0.1,0,0.2,0,0.3,0l0.1,0c0.1,0,0.1,0,0.2,0c0.1,0,0.1,0,0.2,0c0.1,0,0.1,0,0.2,0c0.1,0,0.1,0,0.2-0.1l0.1,0c0.1,0,0.2-0.1,0.3-0.1
	c1.1-0.4,2-1,2.8-1.9l0,0c0-0.1,0.1-0.1,0.1-0.2l0,0c0,0,0,0,0.1-0.1c0,0,0,0,0-0.1l0.1-0.1l0.1-0.1l0,0c0,0,0,0,0,0
	c0.1-0.1,0.1-0.2,0.2-0.2l0.1-0.1c0.2-0.4,0.4-0.8,0.6-1.2c0,0,0,0,0,0c0.1-0.1,0.1-0.3,0.2-0.4c0,0,0-0.1,0-0.1
	c0-0.1,0.1-0.3,0.1-0.4c0,0,0,0,0,0c0-0.2,0.1-0.3,0.1-0.5c0,0,0-0.1,0-0.1c0-0.1,0-0.2,0-0.2l0,0c0-0.2,0-0.3,0-0.5l0-0.1
	c0,0,0-0.1,0-0.1c0,0,0-0.1,0-0.1C399.1,285,399.1,285,399.1,284.9z"/>
<rect x="327.4" y="316.9" fill="#114263" width="112.7" height="7.5"/>
<path fill="#E6A95E" d="M218.1,265.1c0,0-16.5,42.1-21.4,34.8c0,0-4.4-9.9-5.5-24.2c3.1,5.6,22.4-21.3,26.9-27.1V265.1z"/>
<path fill="#C59680" d="M219.7,324c-10.6,1.1-19.4-13.3-23.9-26.9c-7.6-22.9,10.8-73.1,10.8-73.1s-1.1-6.9-0.4-12.4
	s2.2-25.4,4.1-29.2c1.9-3.8,3,2.9,3,2.9s1.7,11.9,2.5,15.8c0.2,1,4.8-0.1,6.9,2.6c4.3,5.7,5,15,4.8,16.8c-0.2,2.6-5.4,11.2-5.4,11.2
	s7.1,55.6,7.1,62.8C229.1,303.7,233.7,322.5,219.7,324z"/>
<path opacity="0.56" fill="#AA7366" d="M213.9,323.4c-10.6,1.1,3.5-12,2.6-23.7c-1.9-24-0.7-69.4-0.7-69.4s2.5-4.4,6.4-9.9
	c1.8-2.6-2.9-17-6.2-19.1c0,0,4.8-0.1,6.9,2.6c4.3,5.7,5,15,4.8,16.8c-0.2,2.6-5.8,10.9-5.8,10.9s7.4,55.8,7.4,63
	C229.4,303.9,228,321.9,213.9,323.4z"/>
<rect x="208.3" y="242.5" fill="#002441" width="112.6" height="81.7"/>
<path fill="#FFFFFF" d="M279.9,286.4C279.9,286.3,279.9,286.3,279.9,286.4c0-0.1,0-0.2,0-0.2c0-0.3,0-0.6-0.1-0.9c0,0,0,0,0,0
	c0,0,0,0,0,0c-0.1-0.3-0.2-0.7-0.3-1c0,0,0,0,0,0l0,0c0,0,0,0,0,0c0-0.1-0.1-0.2-0.1-0.4l0,0l0,0c-0.2-0.4-0.3-0.7-0.5-1.1
	c0,0,0-0.1-0.1-0.1c0,0-0.1-0.1-0.1-0.1c0,0,0,0,0,0c0,0,0,0,0,0c0-0.1-0.1-0.1-0.1-0.2l-0.1-0.1c-0.1-0.1-0.1-0.2-0.2-0.2
	c0,0,0,0,0,0c-0.1-0.1-0.2-0.2-0.2-0.3c-0.1-0.1-0.1-0.1-0.2-0.2c0,0-0.1-0.1-0.1-0.1c-0.1-0.1-0.1-0.1-0.2-0.2c0,0,0,0-0.1-0.1
	c-0.1-0.1-0.3-0.2-0.4-0.3c0,0,0,0-0.1,0c-0.1-0.1-0.1-0.1-0.2-0.2c0,0-0.1-0.1-0.1-0.1c-0.1,0-0.1-0.1-0.2-0.1
	c-0.1,0-0.1-0.1-0.2-0.1c-0.1,0-0.2-0.1-0.2-0.1c-0.1,0-0.2-0.1-0.2-0.1c0,0-0.1,0-0.1-0.1c-0.1,0-0.2-0.1-0.3-0.1c0,0,0,0,0,0l0,0
	c0,0,0,0,0,0l-0.1,0l-0.2-0.1c-0.7-0.2-1.4-0.3-2.1-0.3c0,0-0.1,0-0.1,0c-0.3-4.6-4.1-8.3-8.8-8.3c-4.7,0-8.6,3.7-8.8,8.4
	c-0.1,0-0.2,0-0.4,0.1c0,0,0,0,0,0c-1.1,0.3-2.2,0.8-3.1,1.6c0,0,0,0,0,0c-1.3,1.1-2.1,2.7-2.3,4.4c0,0,0,0.1,0,0.1
	c0,0.1,0,0.2,0,0.3c0,0,0,0.1,0,0.1c0,0.1,0,0.3,0,0.4c0,0,0,0.1,0,0.1c0,0.2,0,0.3,0,0.5c0,0,0,0,0,0c0,0.1,0,0.1,0,0.2
	c0.1,0.8,0.3,1.5,0.6,2.2c0,0,0,0,0,0c0.1,0.3,0.3,0.6,0.5,0.8c0,0,0,0,0,0c1.3,1.9,3.4,3.1,5.8,3.1c1.7,0,3.4-0.6,4.6-1.7
	c1-0.7,2.1-1.6,3.2-2.6l3.2-2.8l0.3-2.5l-2.4-0.3c-2.4,2.1-5.4,4.7-5.6,4.8l0,0l0,0c-1,0.9-2.1,1.6-3.4,1.6c-2,0-3.7-1.6-3.7-3.7
	c0-0.7,0.2-1.4,0.6-2c0.5-0.8,1.4-1.4,2.3-1.6c0.6,1.5,1.5,2.9,2.8,3.9l2.4-2.1c-1.6-1-2.6-2.8-2.6-4.8c0-3.2,2.6-5.7,5.7-5.7
	c3.2,0,5.7,2.6,5.7,5.7c0,0.1,0,0.2,0,0.3c-0.6,0.3-1.2,0.7-1.7,1.2c-0.3,0.3-0.8,0.7-1.4,1.2l2.5,0.3l-0.3,2.3l0.6-0.5c0,0,0,0,0,0
	c0,0,0,0,0,0l1.2-1.1c0,0,0.1-0.1,0.1-0.1v0c0,0,0,0,0,0c0.3-0.2,0.6-0.3,0.9-0.4c0.4-0.1,0.9-0.2,1.3-0.2c0,0,0.1,0,0.1,0
	c0.1,0,0.2,0,0.4,0c0,0,0,0,0,0l0,0c0.7,0.1,1.3,0.4,1.9,0.9c0,0,0,0,0.1,0c0,0,0.1,0.1,0.1,0.1c0,0,0.1,0.1,0.1,0.1
	c0,0.1,0.1,0.1,0.1,0.2c0,0,0.1,0.1,0.1,0.1c0,0.1,0.1,0.1,0.1,0.2c0,0,0,0.1,0.1,0.1c0,0.1,0.1,0.1,0.1,0.2c0,0,0,0.1,0.1,0.1
	c0,0.1,0.1,0.2,0.1,0.3c0,0,0,0.1,0,0.1c0,0.1,0,0.1,0.1,0.2c0,0.1,0,0.1,0,0.2c0,0,0,0.1,0,0.1c0,0.1,0,0.2,0,0.3c0,0,0,0,0,0
	c0,0.1,0,0.2,0,0.3c0,0,0,0,0,0.1c0,0.1,0,0.1,0,0.2c0,0,0,0,0,0c0,0.2,0,0.4-0.1,0.6c0,0,0,0,0,0c-0.1,0.3-0.2,0.6-0.3,0.8l0,0
	c-0.4,0.7-1,1.3-1.8,1.6c-0.2,0.1-0.4,0.2-0.7,0.2l0,0c-0.1,0-0.2,0-0.3,0l-0.1,0c-0.2,0-0.4,0-0.6,0l0,0c-0.1,0-0.2,0-0.3,0
	c0,0,0,0,0,0l0,0c-0.1,0-0.1,0-0.2,0c0,0-0.1,0-0.1,0c0,0-0.1,0-0.1,0c-0.1,0-0.1,0-0.2-0.1l-0.1,0c-0.1,0-0.1-0.1-0.2-0.1l0,0
	c-0.2-0.1-0.3-0.2-0.5-0.3c-0.2-0.2-0.5-0.4-0.7-0.6c-0.1-0.1-0.1-0.1-0.2-0.2l0-0.1c0-0.1-0.1-0.1-0.1-0.2c0,0,0-0.1-0.1-0.1
	c0,0-0.1-0.1-0.1-0.1c0,0-0.1-0.1-0.1-0.1c0,0,0-0.1,0-0.1c0-0.1-0.1-0.1-0.1-0.2l0-0.1c0-0.1-0.1-0.1-0.1-0.2c0,0,0,0,0,0l-2.7,2.3
	c0,0.1,0.1,0.1,0.1,0.2l0,0c0,0,0,0.1,0,0.1c0.1,0.1,0.2,0.2,0.2,0.3c0.1,0.1,0.1,0.2,0.2,0.2l0.1,0.1c0.7,0.8,1.5,1.5,2.5,2l0,0
	c0.1,0.1,0.3,0.1,0.4,0.2l0.1,0c0.1,0,0.2,0.1,0.4,0.1c0,0,0.1,0,0.1,0l0.1,0c0.1,0,0.2,0.1,0.3,0.1c0.1,0,0.1,0,0.2,0l0.1,0
	c0.1,0,0.1,0,0.2,0c0.1,0,0.3,0,0.4,0l0.1,0c0,0,0.1,0,0.1,0c0.2,0,0.4,0,0.6,0h0c0.1,0,0.3,0,0.4,0l0,0c0.1,0,0.2,0,0.3,0l0.1,0
	c0.1,0,0.2,0,0.3,0l0.1,0c0.1,0,0.1,0,0.2,0c0.1,0,0.1,0,0.2,0c0.1,0,0.1,0,0.2,0c0.1,0,0.1,0,0.2-0.1l0.1,0c0.1,0,0.2-0.1,0.3-0.1
	c1.1-0.4,2-1,2.8-1.9l0,0c0-0.1,0.1-0.1,0.1-0.2l0,0c0,0,0,0,0.1-0.1c0,0,0,0,0-0.1l0.1-0.1l0.1-0.1l0,0c0,0,0,0,0,0
	c0.1-0.1,0.1-0.2,0.2-0.2l0.1-0.1c0.2-0.4,0.4-0.8,0.6-1.2c0,0,0,0,0,0c0.1-0.1,0.1-0.3,0.2-0.4c0,0,0-0.1,0-0.1
	c0-0.1,0.1-0.3,0.1-0.4c0,0,0,0,0,0c0-0.2,0.1-0.3,0.1-0.5c0,0,0-0.1,0-0.1c0-0.1,0-0.2,0-0.2l0,0c0-0.2,0-0.3,0-0.5l0-0.1
	c0,0,0-0.1,0-0.1c0,0,0-0.1,0-0.1C279.9,286.4,279.9,286.4,279.9,286.4z"/>
<rect x="208.3" y="317" fill="#114263" width="112.7" height="7.3"/>
<polygon fill="#114263" points="188.4,10.4 232.5,10.4 252.1,31.3 252.1,91.3 188.4,91.3 "/>
<polygon opacity="0.43" fill="#ABBBC5" points="252.1,30.1 232.7,30.1 232.7,9.1 "/>
<polygon opacity="0.63" fill="#002441" points="192.9,10.4 233.9,10.4 252.1,30.2 252.1,87.1 192.9,87.1 "/>
<polygon fill="#114263" points="197.9,1.9 241.8,1.9 261.2,22.9 261.2,82.9 197.9,82.9 "/>
<g>
	<path fill="#BFDAE8" d="M210.4,39.2l1.4,0v1.7h-2c-0.8,0-1.5-0.3-2.1-0.9c-0.6-0.6-0.9-1.3-0.9-2.1v-5.6c0-0.4-0.1-0.7-0.4-0.9
		c-0.3-0.3-0.6-0.4-0.9-0.4h-0.4v-1.7h0.4c0.4,0,0.7-0.1,0.9-0.4c0.3-0.3,0.4-0.6,0.4-0.9v-5.5c0-0.8,0.3-1.5,0.9-2.1
		c0.6-0.6,1.3-0.9,2.1-0.9h2v1.7h-1.3c-0.5,0-0.9,0.2-1.2,0.5s-0.5,0.7-0.5,1.2V28c0,0.5-0.1,1-0.4,1.4c-0.3,0.4-0.6,0.7-1,0.9
		c0.4,0.2,0.7,0.5,1,0.9c0.3,0.4,0.4,0.9,0.4,1.4v5c0,0.5,0.2,0.9,0.5,1.2C209.5,39,209.9,39.2,210.4,39.2z"/>
	<path fill="#BFDAE8" d="M213.9,37.8v-2.5h2.3v2.5H213.9z"/>
	<path fill="#BFDAE8" d="M219.3,37.8v-2.5h2.3v2.5H219.3z"/>
	<path fill="#BFDAE8" d="M224.7,37.8v-2.5h2.3v2.5H224.7z"/>
	<path fill="#BFDAE8" d="M235.5,29.4h0.4v1.7h-0.4c-0.4,0-0.7,0.1-0.9,0.4c-0.3,0.3-0.4,0.6-0.4,0.9v5.6c0,0.8-0.3,1.5-0.9,2.1
		c-0.6,0.6-1.3,0.9-2.1,0.9h-2v-1.7h1.4c0.5,0,0.9-0.2,1.2-0.5c0.3-0.3,0.5-0.7,0.5-1.2v-5c0-0.5,0.1-1,0.4-1.4
		c0.3-0.4,0.6-0.7,1-0.9c-0.4-0.2-0.7-0.5-1-0.9c-0.3-0.4-0.4-0.9-0.4-1.4V23c0-0.5-0.2-0.9-0.5-1.2c-0.3-0.3-0.7-0.5-1.2-0.5h-1.3
		v-1.7h2c0.8,0,1.5,0.3,2.1,0.9c0.6,0.6,0.9,1.3,0.9,2.1v5.5c0,0.4,0.1,0.7,0.4,0.9S235.2,29.4,235.5,29.4z"/>
</g>
<polygon opacity="0.43" fill="#ABBBC5" points="261.2,22.9 241.8,22.9 241.8,1.9 "/>
<g>
	<g>
		<path fill="#114263" d="M210,107.6c-0.8,0-1.5-0.1-2.1-0.4c-0.7-0.3-1.2-0.7-1.7-1.1c-0.5-0.5-0.9-1.1-1.1-1.7
			c-0.3-0.7-0.4-1.4-0.4-2.2c0-0.8,0.1-1.5,0.4-2.2s0.7-1.3,1.1-1.7c0.5-0.5,1.1-0.9,1.7-1.1c0.7-0.3,1.4-0.4,2.1-0.4
			c1.3,0,2.4,0.4,3.3,1.2c0.9,0.8,1.5,1.8,1.8,3h-2.3c-0.2-0.6-0.6-1.1-1.1-1.5c-0.5-0.4-1.1-0.5-1.7-0.5c-0.9,0-1.6,0.3-2.2,0.9
			c-0.6,0.6-0.9,1.4-0.9,2.4c0,0.9,0.3,1.7,0.9,2.4c0.6,0.6,1.3,0.9,2.2,0.9c0.7,0,1.3-0.2,1.8-0.6c0.5-0.4,0.8-0.9,1-1.6h2.3
			c-0.2,1.3-0.8,2.3-1.8,3.1S211.3,107.6,210,107.6z"/>
		<path fill="#114263" d="M222.3,107.6c-0.8,0-1.5-0.1-2.2-0.4c-0.7-0.3-1.3-0.7-1.8-1.1c-0.5-0.5-0.9-1.1-1.2-1.7
			c-0.3-0.7-0.4-1.4-0.4-2.2c0-0.8,0.1-1.5,0.4-2.2c0.3-0.7,0.7-1.3,1.2-1.7c0.5-0.5,1.1-0.9,1.8-1.1c0.7-0.3,1.4-0.4,2.2-0.4
			c0.8,0,1.5,0.1,2.2,0.4c0.7,0.3,1.3,0.7,1.8,1.1c0.5,0.5,0.9,1.1,1.2,1.7c0.3,0.7,0.4,1.4,0.4,2.2c0,0.8-0.1,1.5-0.4,2.2
			c-0.3,0.7-0.7,1.3-1.2,1.7c-0.5,0.5-1.1,0.9-1.8,1.1C223.8,107.4,223.1,107.6,222.3,107.6z M219.9,104.5c0.6,0.6,1.4,1,2.4,1
			c0.9,0,1.7-0.3,2.3-1c0.6-0.6,0.9-1.4,0.9-2.4c0-1-0.3-1.7-0.9-2.4s-1.4-1-2.3-1c-0.9,0-1.7,0.3-2.4,1c-0.6,0.6-1,1.4-1,2.4
			C219,103,219.3,103.8,219.9,104.5z"/>
		<path fill="#114263" d="M234.2,96.8c0.8,0,1.5,0.1,2.1,0.4c0.7,0.3,1.2,0.6,1.7,1.1c0.5,0.5,0.8,1,1.1,1.7
			c0.3,0.6,0.4,1.3,0.4,2.1c0,0.8-0.1,1.5-0.4,2.1c-0.3,0.7-0.6,1.2-1.1,1.7c-0.5,0.5-1,0.8-1.7,1.1c-0.7,0.3-1.4,0.4-2.1,0.4h-4
			V96.8H234.2z M234.1,105.2c0.9,0,1.6-0.3,2.2-0.9c0.6-0.6,0.9-1.3,0.9-2.3s-0.3-1.7-0.9-2.3c-0.6-0.6-1.3-0.9-2.2-0.9h-1.6v6.3
			H234.1z"/>
		<path fill="#114263" d="M244.1,105.2h4.2v2.1h-6.5V96.8h6.3v2.1h-4v2.1h3.6v2.1h-3.6V105.2z"/>
	</g>
</g>
<path fill="#002441" d="M158.1,220.6H96.9c-2.8,0-5.1-2.3-5.1-5.1v-79.7c0-2.8,2.3-5.1,5.1-5.1h61.2c2.8,0,5.1,2.3,5.1,5.1v79.7
	C163.2,218.3,161,220.6,158.1,220.6z"/>
<rect x="96.3" y="134.2" fill="#114263" width="63.5" height="81.4"/>
<rect x="109.4" y="132" opacity="0.68" fill="#002441" width="37" height="10.2"/>
<rect x="113" y="124.6" fill="#114263" width="31.4" height="13.2"/>
<g opacity="0.56">
	<rect x="122" y="152" fill="#BFDAE8" width="33" height="2"/>
</g>
<g opacity="0.56">
	<rect x="122" y="161" fill="#BFDAE8" width="17" height="2"/>
</g>
<g>
	<path fill="#BFDAE8" d="M108.2,161.8c-0.4,0-0.7-0.2-0.9-0.5l-5.5-6.9l1.9-1.5l4.4,5.5l6.2-10.4l2.1,1.2l-7,11.9
		C109,161.5,108.7,161.7,108.2,161.8C108.2,161.8,108.2,161.8,108.2,161.8z"/>
</g>
<g opacity="0.56">
	<rect x="122" y="176" fill="#BFDAE8" width="33" height="2"/>
</g>
<g opacity="0.56">
	<rect x="122" y="184" fill="#BFDAE8" width="17" height="2"/>
</g>
<g>
	<path fill="#BFDAE8" d="M108.6,185.4c-0.4,0-0.7-0.2-0.9-0.5l-5.5-6.9l1.9-1.5l4.4,5.5l6.2-10.4l2.1,1.2l-7,11.9
		C109.4,185.2,109.1,185.4,108.6,185.4C108.6,185.4,108.6,185.4,108.6,185.4z"/>
</g>
<g>
	<path fill="none" stroke="#FFFFFF" stroke-width="2" stroke-linecap="round" stroke-linejoin="round" stroke-miterlimit="10" d="
		M153.5,200.8"/>
	<path fill="none" stroke="#FFFFFF" stroke-width="2" stroke-linecap="round" stroke-linejoin="round" stroke-miterlimit="10" d="
		M122.8,200.8"/>
	<path fill="none" stroke="#FFFFFF" stroke-width="2" stroke-linecap="round" stroke-linejoin="round" stroke-miterlimit="10" d="
		M138.2,209.1"/>
	<path fill="none" stroke="#FFFFFF" stroke-width="2" stroke-linecap="round" stroke-linejoin="round" stroke-miterlimit="10" d="
		M122.8,209.1"/>
	<path fill="none" stroke="#FFFFFF" stroke-width="2" stroke-linecap="round" stroke-linejoin="round" stroke-miterlimit="10" d="
		M115,198.2"/>
	<path fill="none" stroke="#FFFFFF" stroke-width="2" stroke-linecap="round" stroke-linejoin="round" stroke-miterlimit="10" d="
		M103.8,203.2"/>
</g>
<g>
	<path fill="#114263" d="M72.1,239.5l-2.1-3.6h-1.5v3.6h-2.3V229h4.2c1.1,0,1.9,0.3,2.6,1c0.7,0.7,1,1.5,1,2.5
		c0,0.7-0.2,1.3-0.5,1.8c-0.3,0.5-0.8,0.9-1.4,1.2l2.3,4H72.1z M68.5,231.1v2.7h1.8c0.5,0,0.8-0.1,1.1-0.4c0.3-0.3,0.4-0.6,0.4-1
		c0-0.4-0.1-0.7-0.4-1s-0.6-0.4-1.1-0.4H68.5z"/>
	<path fill="#114263" d="M79,237.4h4.2v2.1h-6.5V229H83v2.1h-4v2.1h3.6v2.1H79V237.4z"/>
	<path fill="#114263" d="M96.5,240.6h-2.3l-1.2-1.4c-0.8,0.3-1.6,0.5-2.5,0.5c-0.8,0-1.5-0.1-2.2-0.4c-0.7-0.3-1.3-0.7-1.8-1.1
		c-0.5-0.5-0.9-1.1-1.2-1.7c-0.3-0.7-0.4-1.4-0.4-2.2c0-0.8,0.1-1.5,0.4-2.2c0.3-0.7,0.7-1.3,1.2-1.7c0.5-0.5,1.1-0.9,1.8-1.1
		c0.7-0.3,1.4-0.4,2.2-0.4c0.8,0,1.5,0.1,2.2,0.4c0.7,0.3,1.3,0.7,1.8,1.1c0.5,0.5,0.9,1.1,1.2,1.7c0.3,0.7,0.4,1.4,0.4,2.2
		c0,0.8-0.1,1.5-0.4,2.2c-0.3,0.7-0.7,1.3-1.2,1.8L96.5,240.6z M90.5,237.6c0.3,0,0.6,0,0.9-0.1l-2.1-2.4h2.3l1.3,1.5
		c0.6-0.6,0.8-1.4,0.8-2.3c0-1-0.3-1.7-0.9-2.4s-1.4-1-2.3-1c-0.9,0-1.7,0.3-2.4,1c-0.6,0.6-1,1.4-1,2.4c0,0.9,0.3,1.7,1,2.4
		C88.8,237.3,89.6,237.6,90.5,237.6z"/>
	<path fill="#114263" d="M105.8,238.6c-0.8,0.8-1.9,1.2-3.1,1.2s-2.3-0.4-3.1-1.2c-0.8-0.8-1.2-1.8-1.2-3V229h2.3v6.4
		c0,0.6,0.2,1.2,0.6,1.6c0.4,0.4,0.9,0.6,1.5,0.6s1.1-0.2,1.5-0.6c0.4-0.4,0.6-0.9,0.6-1.6V229h2.3v6.5
		C107,236.8,106.6,237.8,105.8,238.6z"/>
	<path fill="#114263" d="M109.8,239.5V229h2.3v10.5H109.8z"/>
	<path fill="#114263" d="M120.8,239.5l-2.1-3.6h-1.5v3.6h-2.3V229h4.2c1.1,0,1.9,0.3,2.6,1c0.7,0.7,1,1.5,1,2.5
		c0,0.7-0.2,1.3-0.5,1.8c-0.3,0.5-0.8,0.9-1.4,1.2l2.3,4H120.8z M117.3,231.1v2.7h1.8c0.5,0,0.8-0.1,1.1-0.4c0.3-0.3,0.4-0.6,0.4-1
		c0-0.4-0.1-0.7-0.4-1s-0.6-0.4-1.1-0.4H117.3z"/>
	<path fill="#114263" d="M127.8,237.4h4.2v2.1h-6.5V229h6.3v2.1h-4v2.1h3.6v2.1h-3.6V237.4z"/>
	<path fill="#114263" d="M147.3,239.5H145l-1-6.9l-3.1,6.8h-0.6l-3.1-6.8l-1,6.8h-2.3l1.6-10.5h2.3l2.8,6.4l2.8-6.4h2.3L147.3,239.5
		z"/>
	<path fill="#114263" d="M151.9,237.4h4.2v2.1h-6.5V229h6.3v2.1h-4v2.1h3.6v2.1h-3.6V237.4z"/>
	<path fill="#114263" d="M165.2,229h2.2v10.5h-1.9l-4.8-6.6v6.6h-2.2V229h2.1l4.6,6.4V229z"/>
	<path fill="#114263" d="M177.6,229v2.1h-2.9v8.4h-2.3v-8.4h-2.9V229H177.6z"/>
	<path fill="#114263" d="M183.1,239.7c-1.2,0-2.2-0.3-3-1c-0.7-0.6-1.1-1.5-1.1-2.6h2.3c0,0.5,0.2,0.9,0.5,1.1
		c0.3,0.3,0.8,0.4,1.3,0.4c0.5,0,0.8-0.1,1.2-0.3c0.3-0.2,0.5-0.5,0.5-0.9c0-0.1,0-0.3-0.1-0.4c0-0.1-0.1-0.2-0.2-0.3
		c-0.1-0.1-0.2-0.2-0.3-0.2c-0.1-0.1-0.2-0.1-0.4-0.2s-0.4-0.1-0.5-0.1c-0.1,0-0.3-0.1-0.6-0.1c-0.9-0.2-1.5-0.4-1.9-0.6
		c-0.9-0.4-1.5-1.1-1.6-2.1c0-0.1,0-0.3,0-0.5c0-1,0.3-1.8,1-2.3c0.7-0.5,1.6-0.8,2.8-0.8c1.2,0,2.1,0.3,2.8,0.9
		c0.7,0.6,1,1.4,1,2.5h-2.2c0-0.4-0.2-0.8-0.5-1c-0.3-0.2-0.7-0.3-1.1-0.3c-0.4,0-0.8,0.1-1,0.3c-0.3,0.2-0.4,0.4-0.4,0.7
		c0,0.1,0,0.3,0.1,0.4c0.1,0.1,0.2,0.2,0.3,0.3s0.3,0.1,0.5,0.2c0.2,0.1,0.4,0.1,0.5,0.2c0.1,0,0.4,0.1,0.6,0.2
		c0.2,0.1,0.4,0.1,0.6,0.1c0.1,0,0.3,0.1,0.5,0.2c0.2,0.1,0.4,0.1,0.6,0.2c0.1,0.1,0.3,0.1,0.5,0.2c0.2,0.1,0.4,0.2,0.5,0.3
		c0.1,0.1,0.2,0.2,0.4,0.4c0.1,0.2,0.2,0.3,0.3,0.5c0.1,0.2,0.1,0.4,0.2,0.6c0.1,0.2,0.1,0.5,0.1,0.7c0,0.6-0.1,1-0.3,1.5
		c-0.2,0.4-0.5,0.8-0.9,1.1c-0.4,0.3-0.8,0.5-1.3,0.6C184.2,239.6,183.7,239.7,183.1,239.7z"/>
</g>
<g opacity="0.56">
	<rect x="122" y="199" fill="#BFDAE8" width="33" height="2"/>
</g>
<g opacity="0.56">
	<rect x="122" y="207" fill="#BFDAE8" width="17" height="2"/>
</g>
<g>
	<path fill="#BFDAE8" d="M108.6,208.4c-0.4,0-0.7-0.2-0.9-0.5l-5.5-6.9l1.9-1.5l4.4,5.5l6.2-10.4l2.1,1.2l-7,11.9
		C109.4,208.2,109.1,208.4,108.6,208.4C108.6,208.4,108.6,208.4,108.6,208.4z"/>
</g>
<g opacity="0.78">
	<path fill="#BFDAE8" d="M222,55.1v2.3l-7.1,4.5l7.1,4.4v2.3l-10.3-6.5v-0.4L222,55.1z"/>
	<path fill="#BFDAE8" d="M224.3,71.6l7-19.9h2.1l-7,19.9H224.3z"/>
	<path fill="#BFDAE8" d="M235.9,55.1l10.3,6.6v0.4l-10.3,6.5v-2.3l7.1-4.4l-7.1-4.5V55.1z"/>
</g>
<g>
	<g>
		<path fill="#114263" d="M426.7,101.6c-0.8,0-1.5-0.1-2.2-0.4c-0.7-0.3-1.3-0.7-1.8-1.1c-0.5-0.5-0.9-1.1-1.2-1.7
			c-0.3-0.7-0.4-1.4-0.4-2.2c0-0.8,0.1-1.5,0.4-2.2c0.3-0.7,0.7-1.3,1.2-1.7c0.5-0.5,1.1-0.9,1.8-1.1c0.7-0.3,1.4-0.4,2.2-0.4
			c0.8,0,1.5,0.1,2.2,0.4c0.7,0.3,1.3,0.7,1.8,1.1c0.5,0.5,0.9,1.1,1.2,1.7c0.3,0.7,0.4,1.4,0.4,2.2c0,0.8-0.1,1.5-0.4,2.2
			c-0.3,0.7-0.7,1.3-1.2,1.7c-0.5,0.5-1.1,0.9-1.8,1.1C428.2,101.5,427.4,101.6,426.7,101.6z M424.3,98.5c0.6,0.6,1.4,1,2.4,1
			c0.9,0,1.7-0.3,2.3-1c0.6-0.6,0.9-1.4,0.9-2.4c0-1-0.3-1.7-0.9-2.4s-1.4-1-2.3-1c-0.9,0-1.7,0.3-2.4,1c-0.6,0.6-1,1.4-1,2.4
			C423.4,97.1,423.7,97.9,424.3,98.5z"/>
		<path fill="#114263" d="M438.6,90.9c0.7,0,1.3,0.2,1.9,0.5c0.6,0.3,1,0.7,1.3,1.3c0.3,0.6,0.5,1.2,0.5,1.8c0,1-0.4,1.9-1.1,2.6
			c-0.7,0.7-1.6,1-2.6,1h-1.8v3.3h-2.3V90.9H438.6z M438.5,96c0.4,0,0.8-0.1,1.1-0.4c0.3-0.3,0.4-0.6,0.4-1.1s-0.1-0.8-0.4-1.1
			c-0.3-0.3-0.6-0.4-1.1-0.4h-1.7v3H438.5z"/>
		<path fill="#114263" d="M447.9,101.6c-1.2,0-2.2-0.3-3-1c-0.7-0.6-1.1-1.5-1.1-2.6h2.3c0,0.5,0.2,0.9,0.5,1.1
			c0.3,0.3,0.8,0.4,1.3,0.4c0.5,0,0.8-0.1,1.2-0.3c0.3-0.2,0.5-0.5,0.5-0.9c0-0.1,0-0.3-0.1-0.4c0-0.1-0.1-0.2-0.2-0.3
			c-0.1-0.1-0.2-0.2-0.3-0.2c-0.1-0.1-0.2-0.1-0.4-0.2s-0.4-0.1-0.5-0.1c-0.1,0-0.3-0.1-0.6-0.1c-0.9-0.2-1.5-0.4-1.9-0.6
			c-0.9-0.4-1.5-1.1-1.6-2.1c0-0.1,0-0.3,0-0.5c0-1,0.3-1.8,1-2.3c0.7-0.5,1.6-0.8,2.8-0.8c1.2,0,2.1,0.3,2.8,0.9
			c0.7,0.6,1,1.4,1,2.5h-2.2c0-0.4-0.2-0.8-0.5-1c-0.3-0.2-0.7-0.3-1.1-0.3c-0.4,0-0.8,0.1-1,0.3c-0.3,0.2-0.4,0.4-0.4,0.7
			c0,0.1,0,0.3,0.1,0.4c0.1,0.1,0.2,0.2,0.3,0.3s0.3,0.1,0.5,0.2c0.2,0.1,0.4,0.1,0.5,0.2c0.1,0,0.4,0.1,0.6,0.2
			c0.2,0.1,0.4,0.1,0.6,0.1c0.1,0,0.3,0.1,0.5,0.2c0.2,0.1,0.4,0.1,0.6,0.2c0.1,0.1,0.3,0.1,0.5,0.2c0.2,0.1,0.4,0.2,0.5,0.3
			c0.1,0.1,0.2,0.2,0.4,0.4c0.1,0.2,0.2,0.3,0.3,0.5c0.1,0.2,0.1,0.4,0.2,0.6c0.1,0.2,0.1,0.5,0.1,0.7c0,0.6-0.1,1-0.3,1.5
			c-0.2,0.4-0.5,0.8-0.9,1.1c-0.4,0.3-0.8,0.5-1.3,0.6C449,101.5,448.5,101.6,447.9,101.6z"/>
	</g>
</g>
<g>
	<path fill="#114263" d="M490.7,229.5h-2.3l-1-6.9l-3.1,6.8h-0.6l-3.1-6.8l-1,6.8h-2.3l1.6-10.5h2.3l2.8,6.4l2.8-6.4h2.3
		L490.7,229.5z"/>
	<path fill="#114263" d="M497.9,229.7c-0.8,0-1.5-0.1-2.2-0.4c-0.7-0.3-1.3-0.7-1.8-1.1c-0.5-0.5-0.9-1.1-1.2-1.7
		c-0.3-0.7-0.4-1.4-0.4-2.2c0-0.8,0.1-1.5,0.4-2.2c0.3-0.7,0.7-1.3,1.2-1.7c0.5-0.5,1.1-0.9,1.8-1.1c0.7-0.3,1.4-0.4,2.2-0.4
		c0.8,0,1.5,0.1,2.2,0.4c0.7,0.3,1.3,0.7,1.8,1.1c0.5,0.5,0.9,1.1,1.2,1.7c0.3,0.7,0.4,1.4,0.4,2.2c0,0.8-0.1,1.5-0.4,2.2
		c-0.3,0.7-0.7,1.3-1.2,1.7c-0.5,0.5-1.1,0.9-1.8,1.1C499.4,229.6,498.7,229.7,497.9,229.7z M495.5,226.6c0.6,0.6,1.4,1,2.4,1
		c0.9,0,1.7-0.3,2.3-1c0.6-0.6,0.9-1.4,0.9-2.4c0-1-0.3-1.7-0.9-2.4s-1.4-1-2.3-1c-0.9,0-1.7,0.3-2.4,1c-0.6,0.6-1,1.4-1,2.4
		C494.6,225.2,494.9,226,495.5,226.6z"/>
	<path fill="#114263" d="M512.5,219h2.2v10.5h-1.9l-4.8-6.6v6.6h-2.2V219h2.1l4.6,6.4V219z"/>
	<path fill="#114263" d="M517.6,229.5V219h2.3v10.5H517.6z"/>
	<path fill="#114263" d="M530.1,219v2.1h-2.9v8.4h-2.3v-8.4H522V219H530.1z"/>
	<path fill="#114263" d="M536.8,229.7c-0.8,0-1.5-0.1-2.2-0.4c-0.7-0.3-1.3-0.7-1.8-1.1c-0.5-0.5-0.9-1.1-1.2-1.7
		c-0.3-0.7-0.4-1.4-0.4-2.2c0-0.8,0.1-1.5,0.4-2.2c0.3-0.7,0.7-1.3,1.2-1.7c0.5-0.5,1.1-0.9,1.8-1.1c0.7-0.3,1.4-0.4,2.2-0.4
		c0.8,0,1.5,0.1,2.2,0.4c0.7,0.3,1.3,0.7,1.8,1.1c0.5,0.5,0.9,1.1,1.2,1.7c0.3,0.7,0.4,1.4,0.4,2.2c0,0.8-0.1,1.5-0.4,2.2
		c-0.3,0.7-0.7,1.3-1.2,1.7c-0.5,0.5-1.1,0.9-1.8,1.1C538.4,229.6,537.6,229.7,536.8,229.7z M534.5,226.6c0.6,0.6,1.4,1,2.4,1
		c0.9,0,1.7-0.3,2.3-1c0.6-0.6,0.9-1.4,0.9-2.4c0-1-0.3-1.7-0.9-2.4s-1.4-1-2.3-1c-0.9,0-1.7,0.3-2.4,1c-0.6,0.6-1,1.4-1,2.4
		C533.5,225.2,533.9,226,534.5,226.6z"/>
	<path fill="#114263" d="M550.5,229.5l-2.1-3.6H547v3.6h-2.3V219h4.2c1.1,0,1.9,0.3,2.6,1c0.7,0.7,1,1.5,1,2.5
		c0,0.7-0.2,1.3-0.5,1.8c-0.3,0.5-0.8,0.9-1.4,1.2l2.3,4H550.5z M547,221.1v2.7h1.8c0.5,0,0.8-0.1,1.1-0.4c0.3-0.3,0.4-0.6,0.4-1
		c0-0.4-0.1-0.7-0.4-1s-0.6-0.4-1.1-0.4H547z"/>
	<path fill="#114263" d="M555.2,229.5V219h2.3v10.5H555.2z"/>
	<path fill="#114263" d="M567.1,219h2.2v10.5h-1.9l-4.8-6.6v6.6h-2.2V219h2.1l4.6,6.4V219z"/>
	<path fill="#114263" d="M576.9,224h5.6c0,1.1-0.2,2.1-0.7,2.9c-0.5,0.9-1.1,1.6-1.9,2c-0.8,0.5-1.7,0.7-2.8,0.7
		c-0.8,0-1.5-0.1-2.1-0.4c-0.7-0.3-1.2-0.7-1.7-1.1c-0.5-0.5-0.9-1.1-1.1-1.7c-0.3-0.7-0.4-1.4-0.4-2.2c0-0.8,0.1-1.5,0.4-2.2
		c0.3-0.7,0.6-1.3,1.1-1.7c0.5-0.5,1-0.9,1.7-1.1s1.4-0.4,2.2-0.4c0.9,0,1.7,0.2,2.4,0.5c0.7,0.3,1.4,0.8,1.9,1.4
		c0.5,0.6,0.8,1.3,1,2.1H580c-0.2-0.6-0.6-1-1.1-1.3c-0.5-0.3-1.1-0.5-1.8-0.5c-0.9,0-1.7,0.3-2.3,0.9c-0.6,0.6-0.9,1.4-0.9,2.4
		c0,1,0.3,1.8,0.9,2.4c0.6,0.6,1.3,0.9,2.3,0.9c0.7,0,1.3-0.2,1.8-0.5c0.5-0.3,0.9-0.8,1.1-1.3h-3.1V224z"/>
</g>
<path fill="#114263" d="M465.7,36.3c-1.3,0-2.5,0.1-3.7,0.3c-0.2-17.3-14.3-31.2-31.6-31.2c-17.4,0-31.6,14.1-31.6,31.6
	c0,0.1,0,0.2,0,0.3c-9.6,2.8-16.6,11.5-16.6,22c0,12.8,10.4,22.7,23.2,22.7c0.8,0,59.5,0,60.3,0c12.8,0,23.2-10,23.2-22.8
	C488.9,46.4,478.5,36.3,465.7,36.3z"/>
<rect x="113.1" y="124.6" opacity="0.43" fill="#ABBBC5" width="31.4" height="13.2"/>
<path fill="#114263" d="M570.8,193.3h-85.4c-3.7,0-6.8-3-6.8-6.8v-60c0-3.7,3-6.8,6.8-6.8h85.4c3.7,0,6.8,3,6.8,6.8v60
	C577.6,190.3,574.5,193.3,570.8,193.3z"/>
<path opacity="0.58" fill="#002441" d="M415,56.5c-0.1,0.5-0.1,0.5,0.3,0.9c0.4,0.3,2.6,1.9,3,2.1c0.2,0.1,0.4,0.3,0.6,0.4
	c0.1,0.1,0.1,0.3,0.1,0.4c0,0.2,0.1,0.4,0.1,0.6c0,0.1,0,0.2,0,0.2c-0.2,0.3-2.6,3.8-2.7,3.8c-0.1,0.1-0.1,0.2,0,0.4
	c0.3,0.4,0.5,0.9,0.8,1.3c0.4,0.6,0.8,1.2,1.1,1.8c0,0,0.1,0.1,0.1,0.1c0.2,0,0.5-0.1,0.7-0.1c0.4-0.1,3.7-0.6,4.1-0.7
	c0.1,0,0.1,0,0.2,0c0.3,0.2,0.5,0.4,0.8,0.6c0.1,0.1,0.1,0.2,0.2,0.3c0.1,0.3,0.1,0.6,0.2,0.8c0,0.2,0.6,3.3,0.6,3.6
	c0,0.2,0.1,0.3,0.3,0.3c1,0.2,2.1,0.5,3.1,0.7c0.3,0.1,0.5,0,0.7-0.3c0.3-0.4,0.6-0.8,0.8-1.1c0.3-0.4,0.5-0.7,0.8-1.1
	c0.2-0.3,0.5-0.7,0.7-1c0.2-0.3,0.4-0.5,0.8-0.6c0.1,0,0.2,0,0.3-0.1c0.5-0.1,0.8,0.2,1.1,0.4c0.3,0.2,2.6,1.8,3,2.1
	c0.1,0.1,0.3,0.2,0.4,0.3c0.1,0,0.1,0,0.2,0c0.2-0.1,0.4-0.3,0.6-0.4c0.2-0.1,2.2-1.4,2.4-1.5c0.2-0.1,0.3-0.3,0.2-0.5
	c-0.1-0.4-0.2-0.8-0.2-1.2c-0.1-0.6-0.2-1.2-0.3-1.8c-0.1-0.5-0.2-0.9-0.2-1.4c0-0.2,0-0.3,0.2-0.5c0.2-0.2,0.3-0.4,0.4-0.6
	c0.1-0.2,0.3-0.2,0.5-0.2c0.6-0.1,1.1-0.2,1.6-0.3c0.5-0.1,2.5-0.4,2.5-0.4c0.4,0,0.4,0,0.4-0.4c0.1-0.5,0.2-1.1,0.4-1.6
	c0.1-0.6,0.3-1.2,0.4-1.8c0-0.1,0-0.2-0.1-0.2c-0.4-0.3-0.8-0.6-1.2-0.9c-0.3-0.2-0.7-0.5-1-0.7c-0.3-0.2-1.3-1-1.4-1
	c-0.3-0.1-0.3-0.4-0.4-0.6c0-0.2-0.1-0.4-0.1-0.6c0-0.1,0-0.3,0.1-0.4c0.2-0.4,0.5-0.7,0.8-1c0.5-0.6,2-2.5,2-2.9c0-0.1,0-0.2,0-0.2
	c-0.2-0.3-0.4-0.5-0.5-0.8c-0.1-0.2-0.2-0.4-0.3-0.5c-0.1-0.2-0.3-0.5-0.4-0.7c-0.2-0.3-0.4-0.7-0.7-1c-0.1-0.2-0.2-0.2-0.4-0.1
	c-0.3,0.1-3,0.5-3.3,0.5c-0.4,0.1-0.8,0.2-1.2,0.2c-0.1,0-0.3-0.1-0.4-0.2c-0.2-0.1-0.3-0.2-0.5-0.4c-0.1-0.1-0.2-0.2-0.2-0.3
	c-0.1-0.6-0.6-3.6-0.7-4.1c0-0.2,0-0.3-0.1-0.5c-0.1-0.2-0.3-0.3-0.6-0.3c-0.5-0.1-2.5-0.6-3-0.7c-0.2-0.1-0.4,0-0.5,0.2
	c-0.2,0.3-2,2.9-2.2,3.1c-0.2,0.2-0.3,0.5-0.5,0.7c-0.1,0.1-0.3,0.1-0.5,0.2c-0.2,0.1-0.5,0.1-0.7,0.1c-0.1,0-0.2,0-0.3-0.1
	c-0.5-0.3-2.7-1.9-2.8-2c-0.3-0.2-0.7-0.4-1-0.7c-0.1,0-0.2,0-0.3,0c-0.6,0.3-2.9,1.8-3,1.9c-0.2,0.1-0.2,0.2-0.2,0.4
	c0.1,0.5,0.2,0.9,0.3,1.4c0.1,0.8,0.3,1.6,0.4,2.4c0,0.3,0.1,0.6,0.1,0.9c0,0,0,0.1,0,0.1c-0.2,0.3-0.4,0.6-0.6,0.8
	c-0.1,0.1-0.1,0.1-0.2,0.1c-0.7,0.1-1.5,0.3-2.2,0.4c-0.8,0.1-1.6,0.3-2.4,0.4c-0.1,0-0.2,0.1-0.2,0.2
	C415.5,54.4,415.3,55.5,415,56.5z M421.8,56.6c1.1-4.9,6-7.9,10.9-6.8c4.9,1.1,7.9,6,6.8,10.9c-1.1,4.9-6,7.9-10.9,6.8
	S420.7,61.5,421.8,56.6z"/>
<path opacity="0.94" fill="#BFDAE8" d="M413,34c-0.1,0.7-0.2,0.7,0.4,1.1c0.5,0.4,3.3,2.4,3.7,2.7c0.2,0.2,0.5,0.3,0.7,0.5
	c0.1,0.1,0.1,0.3,0.1,0.5c0,0.3,0.1,0.5,0.1,0.8c0,0.1,0,0.2,0,0.3c-0.2,0.4-3.3,4.7-3.3,4.7c-0.1,0.1-0.2,0.3-0.1,0.5
	c0.3,0.5,0.7,1.1,1,1.7c0.5,0.8,0.9,1.5,1.4,2.3c0,0.1,0.1,0.1,0.2,0.1c0.3-0.1,0.6-0.1,0.9-0.2c0.6-0.1,4.7-0.8,5.1-0.8
	c0.1,0,0.2,0,0.2,0c0.3,0.2,0.7,0.5,1,0.7c0.1,0.1,0.2,0.3,0.2,0.4c0.1,0.3,0.1,0.7,0.2,1c0,0.3,0.7,4.1,0.8,4.5
	c0,0.3,0.2,0.4,0.4,0.4c1.3,0.3,2.6,0.6,3.9,0.9c0.4,0.1,0.6,0,0.9-0.3c0.3-0.5,0.7-0.9,1-1.4c0.3-0.5,0.7-0.9,1-1.4
	c0.3-0.4,0.6-0.9,0.9-1.3c0.3-0.4,0.5-0.6,1-0.7c0.1,0,0.2-0.1,0.4-0.1c0.6-0.1,1,0.2,1.4,0.5c0.3,0.2,3.3,2.3,3.7,2.6
	c0.2,0.1,0.3,0.2,0.5,0.3c0.1,0,0.2,0,0.2,0c0.3-0.1,0.5-0.3,0.7-0.5c0.2-0.2,2.8-1.7,3-1.9c0.3-0.1,0.3-0.3,0.3-0.6
	c-0.1-0.5-0.2-1-0.3-1.5c-0.1-0.8-0.2-1.5-0.4-2.3c-0.1-0.6-0.2-1.1-0.3-1.7c0-0.2,0-0.4,0.2-0.6c0.2-0.2,0.4-0.4,0.5-0.7
	c0.1-0.3,0.4-0.3,0.6-0.3c0.7-0.1,1.4-0.3,2.1-0.4c0.6-0.1,3.1-0.6,3.1-0.6c0.5,0,0.5,0,0.6-0.6c0.1-0.7,0.3-1.3,0.5-2
	c0.2-0.7,0.3-1.5,0.5-2.2c0-0.1,0-0.2-0.1-0.2c-0.5-0.4-1-0.8-1.5-1.2c-0.4-0.3-0.8-0.6-1.2-0.9c-0.4-0.3-1.6-1.2-1.8-1.3
	c-0.4-0.1-0.4-0.5-0.5-0.8c-0.1-0.2-0.1-0.5-0.1-0.7c0-0.2,0-0.3,0.1-0.5c0.3-0.4,0.6-0.9,0.9-1.3c0.6-0.8,2.4-3.1,2.5-3.6
	c0-0.1,0-0.2,0-0.3c-0.2-0.3-0.4-0.7-0.7-1c-0.1-0.2-0.2-0.4-0.4-0.7c-0.2-0.3-0.4-0.6-0.6-0.9c-0.3-0.4-0.5-0.9-0.8-1.3
	c-0.1-0.2-0.2-0.3-0.5-0.2c-0.4,0.1-3.8,0.6-4.2,0.7c-0.5,0.1-1,0.2-1.5,0.2c-0.2,0-0.4-0.2-0.5-0.3c-0.2-0.1-0.4-0.3-0.6-0.5
	c-0.1-0.1-0.2-0.2-0.2-0.4c-0.1-0.7-0.8-4.5-0.9-5.1c0-0.2,0-0.4-0.1-0.6c-0.1-0.3-0.4-0.4-0.7-0.4c-0.6-0.1-3.2-0.7-3.8-0.9
	c-0.3-0.1-0.4,0-0.6,0.2c-0.3,0.4-2.5,3.6-2.7,3.9c-0.2,0.3-0.4,0.6-0.6,0.9c-0.1,0.1-0.4,0.2-0.6,0.2c-0.3,0.1-0.6,0.1-0.9,0.2
	c-0.1,0-0.3,0-0.4-0.1c-0.6-0.4-3.3-2.4-3.5-2.5c-0.4-0.3-0.8-0.6-1.3-0.8c-0.1-0.1-0.3,0-0.4,0c-0.7,0.4-3.7,2.3-3.8,2.3
	c-0.2,0.1-0.3,0.3-0.3,0.5c0.1,0.6,0.2,1.1,0.3,1.7c0.2,1,0.3,2,0.5,3c0.1,0.4,0.1,0.7,0.2,1.1c0,0.1,0,0.1,0,0.2
	c-0.2,0.4-0.5,0.7-0.7,1.1c-0.1,0.1-0.2,0.2-0.3,0.2c-0.9,0.2-1.8,0.3-2.7,0.5c-1,0.2-2,0.4-3,0.6c-0.1,0-0.2,0.1-0.2,0.2
	C413.6,31.3,413.3,32.6,413,34z M421.5,34c1.4-6.1,7.5-9.9,13.6-8.5c6.1,1.4,9.9,7.5,8.5,13.6c-1.4,6.1-7.5,9.9-13.6,8.5
	C423.9,46.2,420.1,40.1,421.5,34z"/>
<path opacity="0.6" fill="#ABBBC5" d="M454.2,53.1c0.3,0.4,1.8,2.2,2.1,2.5c0.1,0.2,0.3,0.3,0.4,0.5c0.1,0.1,0,0.3,0,0.4
	c0,0.2,0,0.4-0.1,0.6c0,0.1,0,0.2-0.1,0.2c-0.2,0.2-3.1,2.6-3.2,2.7c-0.1,0.1-0.2,0.2-0.1,0.3c0.1,0.4,0.3,0.9,0.4,1.3
	c0.2,0.6,0.4,1.2,0.6,1.8c0,0,0.1,0.1,0.1,0.1c0.2,0,0.4,0,0.6,0c0.4,0,3.4,0.3,3.6,0.4c0.1,0,0.1,0,0.2,0.1
	c0.2,0.2,0.4,0.4,0.5,0.7c0.1,0.1,0.1,0.2,0.1,0.3c0,0.3,0,0.5-0.1,0.8c0,0.2-0.3,2.9-0.3,3.3c0,0.2,0,0.3,0.2,0.4
	c0.8,0.4,1.7,0.9,2.5,1.3c0.3,0.2,0.4,0.1,0.6-0.1c0.3-0.3,0.7-0.5,1-0.8c0.3-0.3,0.6-0.5,0.9-0.8c0.3-0.2,0.6-0.5,0.8-0.7
	c0.3-0.2,0.4-0.3,0.8-0.3c0.1,0,0.2,0,0.3,0c0.5,0,0.6,0.3,0.8,0.6c0.2,0.2,1.8,2.2,2.1,2.5c0.1,0.1,0.2,0.2,0.3,0.3
	c0,0,0.1,0.1,0.2,0.1c0.2-0.1,0.4-0.1,0.6-0.2c0.2-0.1,2.2-0.7,2.4-0.7c0.2,0,0.3-0.2,0.3-0.4c0-0.4,0-0.7,0.1-1.1
	c0.1-0.6,0.1-1.1,0.2-1.7c0-0.4,0.1-0.8,0.1-1.2c0-0.2,0.1-0.3,0.2-0.4c0.2-0.1,0.4-0.2,0.5-0.4c0.2-0.2,0.3-0.1,0.5-0.1
	c0.5,0,1,0.1,1.5,0.1c0.5,0,2.2,0.2,2.3,0.2c0.3,0.1,0.3,0.1,0.5-0.3c0.2-0.4,0.5-0.9,0.7-1.3c0.3-0.5,0.5-0.9,0.8-1.4
	c0,0,0-0.1,0-0.2c-0.3-0.4-0.5-0.7-0.8-1.1c-0.2-0.3-0.5-0.6-0.7-0.8c-0.2-0.3-0.9-1.1-1-1.2c-0.2-0.2-0.2-0.4-0.2-0.6
	c0-0.2,0-0.4,0-0.5c0-0.1,0.1-0.2,0.1-0.3c0.3-0.2,0.6-0.5,0.9-0.7c0.6-0.4,2.2-1.7,2.3-2c0-0.1,0-0.1,0-0.2
	c-0.1-0.3-0.2-0.5-0.3-0.8c-0.1-0.2-0.1-0.4-0.1-0.5c-0.1-0.2-0.2-0.5-0.2-0.7c-0.1-0.3-0.2-0.7-0.3-1c0-0.2-0.1-0.2-0.3-0.2
	c-0.3,0-2.7-0.3-3-0.3c-0.4,0-0.7,0-1.1-0.1c-0.1,0-0.2-0.2-0.3-0.3c-0.1-0.1-0.2-0.3-0.3-0.4c-0.1-0.1-0.1-0.2-0.1-0.3
	c0-0.5,0.3-3.3,0.4-3.7c0-0.2,0-0.3,0-0.5c0-0.2-0.2-0.3-0.4-0.4c-0.4-0.2-2-1.1-2.4-1.3c-0.2-0.1-0.3-0.1-0.4,0
	c-0.2,0.2-2.4,2-2.6,2.2c-0.2,0.2-0.4,0.4-0.6,0.5c-0.1,0.1-0.3,0.1-0.4,0c-0.2,0-0.4,0-0.6-0.1c-0.1,0-0.2-0.1-0.2-0.1
	c-0.3-0.4-1.8-2.3-1.9-2.4c-0.2-0.3-0.5-0.5-0.7-0.8c-0.1-0.1-0.2-0.1-0.2-0.1c-0.5,0.1-2.9,0.9-3,0.9c-0.2,0-0.3,0.1-0.3,0.3
	c0,0.4-0.1,0.8-0.1,1.2c-0.1,0.7-0.1,1.4-0.2,2.1c0,0.3-0.1,0.5-0.1,0.8c0,0,0,0.1-0.1,0.1c-0.2,0.2-0.5,0.4-0.7,0.6
	c-0.1,0-0.2,0.1-0.2,0.1c-0.7-0.1-1.3-0.1-2-0.2c-0.7-0.1-1.4-0.1-2.2-0.2c-0.1,0-0.2,0-0.2,0.1c-0.5,0.9-0.9,1.7-1.4,2.6
	C454,52.7,453.9,52.7,454.2,53.1z M461.3,55c1.4-3.3,5.2-4.8,8.5-3.4c3.3,1.4,4.8,5.3,3.4,8.6c-1.4,3.3-5.2,4.8-8.5,3.4
	C461.4,62.1,459.9,58.3,461.3,55z"/>
<path opacity="0.43" fill="#ABBBC5" d="M570.4,193.6h-84.6c-4,0-7.2-3.2-7.2-7.2v-5.8h99v5.8C577.6,190.4,574.4,193.6,570.4,193.6z"
	/>
<rect x="483.2" y="124" fill="#002441" width="90.3" height="52.7"/>
<g opacity="0.78">
	<rect x="493" y="143" fill="#BFDAE8" width="3" height="34"/>
</g>
<g opacity="0.78">
	<rect x="501" y="161" fill="#BFDAE8" width="3" height="16"/>
</g>
<g opacity="0.78">
	<rect x="508" y="152" fill="#BFDAE8" width="3" height="25"/>
</g>
<g opacity="0.78">
	<rect x="516" y="159" fill="#BFDAE8" width="3" height="18"/>
</g>
<g opacity="0.78">
	<rect x="524" y="165" fill="#BFDAE8" width="3" height="12"/>
</g>
<g opacity="0.78">
	<rect x="532" y="168" fill="#BFDAE8" width="3" height="9"/>
</g>
<g opacity="0.78">
	<rect x="540" y="156" fill="#BFDAE8" width="3" height="21"/>
</g>
<path opacity="0.94" fill="#BFDAE8" d="M562.5,154l-5.2-7.2c2.3-1.9,3.7-4.7,3.7-7.9c0-5.7-4.6-10.2-10.2-10.2
	c-5.7,0-10.2,4.6-10.2,10.2c0,5.7,4.6,10.2,10.2,10.2c1.5,0,2.9-0.3,4.2-0.9l5.4,7.3L562.5,154z M543.2,139c0-4.2,3.4-7.5,7.5-7.5
	s7.5,3.4,7.5,7.5c0,2.3-1,4.3-2.6,5.7l0,0l-1,0.8c-1.1,0.7-2.5,1.1-3.9,1.1C546.6,146.5,543.2,143.1,543.2,139z"/>
<circle opacity="0.53" fill="#002441" cx="528.3" cy="186.6" r="1.4"/>
<path opacity="0.43" fill="#ABBBC5" d="M389.9,53.8c0.3,0.4,1.8,2.2,2.1,2.5c0.1,0.2,0.3,0.3,0.4,0.5c0.1,0.1,0,0.3,0,0.4
	c0,0.2,0,0.4-0.1,0.6c0,0.1,0,0.2-0.1,0.2c-0.2,0.2-3.1,2.6-3.2,2.7c-0.1,0.1-0.2,0.2-0.1,0.3c0.1,0.4,0.3,0.9,0.4,1.3
	c0.2,0.6,0.4,1.2,0.6,1.8c0,0,0.1,0.1,0.1,0.1c0.2,0,0.4,0,0.6,0c0.4,0,3.4,0.3,3.6,0.4c0.1,0,0.1,0,0.2,0.1
	c0.2,0.2,0.4,0.4,0.5,0.7c0.1,0.1,0.1,0.2,0.1,0.3c0,0.3,0,0.5-0.1,0.8c0,0.2-0.3,2.9-0.3,3.3c0,0.2,0,0.3,0.2,0.4
	c0.8,0.4,1.7,0.9,2.5,1.3c0.3,0.2,0.4,0.1,0.6-0.1c0.3-0.3,0.7-0.5,1-0.8c0.3-0.3,0.6-0.5,0.9-0.8c0.3-0.2,0.6-0.5,0.8-0.7
	c0.3-0.2,0.4-0.3,0.8-0.3c0.1,0,0.2,0,0.3,0c0.5,0,0.6,0.3,0.8,0.6c0.2,0.2,1.8,2.2,2.1,2.5c0.1,0.1,0.2,0.2,0.3,0.3
	c0,0,0.1,0.1,0.2,0.1c0.2-0.1,0.4-0.1,0.6-0.2c0.2-0.1,2.2-0.7,2.4-0.7c0.2,0,0.3-0.2,0.3-0.4c0-0.4,0-0.7,0.1-1.1
	c0.1-0.6,0.1-1.1,0.2-1.7c0-0.4,0.1-0.8,0.1-1.2c0-0.2,0.1-0.3,0.2-0.4c0.2-0.1,0.4-0.2,0.5-0.4c0.2-0.2,0.3-0.1,0.5-0.1
	c0.5,0,1,0.1,1.5,0.1c0.5,0,2.2,0.2,2.3,0.2c0.3,0.1,0.3,0.1,0.5-0.3c0.2-0.4,0.5-0.9,0.7-1.3c0.3-0.5,0.5-0.9,0.8-1.4
	c0,0,0-0.1,0-0.2c-0.3-0.4-0.5-0.7-0.8-1.1c-0.2-0.3-0.5-0.6-0.7-0.8c-0.2-0.3-0.9-1.1-1-1.2c-0.2-0.2-0.2-0.4-0.2-0.6
	c0-0.2,0-0.4,0-0.5c0-0.1,0.1-0.2,0.1-0.3c0.3-0.2,0.6-0.5,0.9-0.7c0.6-0.4,2.2-1.7,2.3-2c0-0.1,0-0.1,0-0.2
	c-0.1-0.3-0.2-0.5-0.3-0.8c-0.1-0.2-0.1-0.4-0.1-0.5c-0.1-0.2-0.2-0.5-0.2-0.7c-0.1-0.3-0.2-0.7-0.3-1c0-0.2-0.1-0.2-0.3-0.2
	c-0.3,0-2.7-0.3-3-0.3c-0.4,0-0.7,0-1.1-0.1c-0.1,0-0.2-0.2-0.3-0.3c-0.1-0.1-0.2-0.3-0.3-0.4c-0.1-0.1-0.1-0.2-0.1-0.3
	c0-0.5,0.3-3.3,0.4-3.7c0-0.2,0-0.3,0-0.5c0-0.2-0.2-0.3-0.4-0.4c-0.4-0.2-2-1.1-2.4-1.3c-0.2-0.1-0.3-0.1-0.4,0
	c-0.2,0.2-2.4,2-2.6,2.2c-0.2,0.2-0.4,0.4-0.6,0.5c-0.1,0.1-0.3,0.1-0.4,0c-0.2,0-0.4,0-0.6-0.1c-0.1,0-0.2-0.1-0.2-0.1
	c-0.3-0.4-1.8-2.3-1.9-2.4c-0.2-0.3-0.5-0.5-0.7-0.8c-0.1-0.1-0.2-0.1-0.2-0.1c-0.5,0.1-2.9,0.9-3,0.9c-0.2,0-0.3,0.1-0.3,0.3
	c0,0.4-0.1,0.8-0.1,1.2c-0.1,0.7-0.1,1.4-0.2,2.1c0,0.3-0.1,0.5-0.1,0.8c0,0,0,0.1-0.1,0.1c-0.2,0.2-0.5,0.4-0.7,0.6
	c-0.1,0-0.2,0.1-0.2,0.1c-0.7-0.1-1.3-0.1-2-0.2c-0.7-0.1-1.4-0.1-2.2-0.2c-0.1,0-0.2,0-0.2,0.1c-0.5,0.9-0.9,1.7-1.4,2.6
	C389.6,53.4,389.6,53.4,389.9,53.8z M397,55.6c1.4-3.3,5.2-4.8,8.5-3.4c3.3,1.4,4.8,5.3,3.4,8.6c-1.4,3.3-5.2,4.8-8.5,3.4
	C397.1,62.8,395.6,59,397,55.6z"/>
<g>
	<path fill="#114263" d="M541,204.1V193h-25v10.9c-1,2.7-3,4.8-5.9,4.8c0,0-0.1,0-0.1,0v3.3h11.1h14.4H546v-3.3
		C544,208.6,542,206.7,541,204.1z"/>
	<path fill="#114263" d="M546.5,208.7L546.5,208.7C546.5,208.7,546.5,208.7,546.5,208.7C546.6,208.7,546.5,208.7,546.5,208.7z"/>
</g>
<polygon opacity="0.12" fill="#ABBBC5" points="573.4,176.7 515.1,124 573.4,124 "/>
</svg>
