<?xml version="1.0" encoding="utf-8"?>
<!-- Generator: Adobe Illustrator 18.0.0, SVG Export Plug-In . SVG Version: 6.00 Build 0)  -->
<!DOCTYPE svg PUBLIC "-//W3C//DTD SVG 1.1//EN" "http://www.w3.org/Graphics/SVG/1.1/DTD/svg11.dtd">
<svg version="1.1" id="Layer_1" xmlns="http://www.w3.org/2000/svg" xmlns:xlink="http://www.w3.org/1999/xlink" x="0px" y="0px"
	 viewBox="0 0 960 560" enable-background="new 0 0 960 560" xml:space="preserve">
<rect x="796.1" y="316.8" fill="#ABBBC5" width="72.9" height="7.4"/>
<rect x="743.7" y="323.9" fill="#376782" width="213.8" height="10.7"/>
<ellipse fill="#ABBBC5" cx="923.1" cy="269.7" rx="26.5" ry="21.4"/>
<circle fill="#668F9E" cx="862.4" cy="282.2" r="13.3"/>
<path fill="#ABBBC5" d="M789.3,317.3h86.6c4.1,0,7.6-3.3,7.6-7.6v-25.8c0-4.1-3.3-7.6-7.6-7.6h-86.6c-4.1,0-7.6,3.3-7.6,7.6v26
	C781.8,314,785.2,317.3,789.3,317.3z"/>
<polygon fill="#ABBBC5" points="944.9,286 902.1,286 906.8,323.9 939.9,323.9 "/>
<polygon fill="none" stroke="#809FA9" stroke-width="2" stroke-linecap="round" stroke-linejoin="round" stroke-miterlimit="10" points="
	903.2,299.7 942.9,298.8 945.4,287 902.9,291.6 "/>
<ellipse fill="none" stroke="#809FA9" stroke-width="2" stroke-miterlimit="10" cx="943.7" cy="269.1" rx="12.7" ry="11.7"/>
<path opacity="0.57" fill="#376782" enable-background="new    " d="M781.8,311c0,4.1,4.1,6.7,8.2,6.7h86.6c4.1,0,7.2-2.6,7.2-6.7
	v-8h-102V311z"/>
<line fill="none" stroke="#809FA9" stroke-width="2" stroke-linecap="round" stroke-linejoin="round" stroke-miterlimit="10" x1="791.6" y1="283.2" x2="819.6" y2="283.2"/>
<line fill="none" stroke="#809FA9" stroke-width="2" stroke-linecap="round" stroke-linejoin="round" stroke-miterlimit="10" x1="791.6" y1="289.8" x2="819.6" y2="289.8"/>
<line fill="none" stroke="#809FA9" stroke-width="2" stroke-linecap="round" stroke-linejoin="round" stroke-miterlimit="10" x1="791.6" y1="296.4" x2="819.6" y2="296.4"/>
<path opacity="0.43" fill="#ABBBC5" enable-background="new    " d="M103.9,526.5h434.2l135-43.1c25.2-20.6,41.3-51.7,41.3-86.6
	c0-57.6-43.9-105.2-100.6-111.8c3.6-13.2,5.6-27.2,5.6-41.5c0-86.1-70.6-155.9-157.7-155.9c-22.2,0-43.3,4.4-62.4,12.7
	c-36.7-37-88.7-60.1-146.5-60.1C141.9,40.3,52,125.7,52,230.8c0,30.6,7.7,59.6,21.2,85.1c-40.7,15.8-70.9,55-70.7,100.9
	C2.5,506.3,103.9,526.5,103.9,526.5z"/>
<circle fill="none" stroke="#809FA9" stroke-width="1.5" stroke-linecap="round" stroke-linejoin="round" stroke-miterlimit="10" stroke-dasharray="5,8" cx="338.7" cy="227.1" r="199.1"/>
<path fill="#114263" d="M757.4,435.9c8.9-19.6,14-41.3,14-64.4c0-86.2-70.1-156.4-156.4-156.4s-156.3,70.9-156.3,157
	c0,19.4,3.8,37.7,10.4,55.8h112.7c-18.8-13.2-31.3-32.4-31.3-55.8c0-35.5,29-64.8,64.5-64.8s64.5,28.8,64.5,64.4
	c0,35.1-28,63.5-62.9,64.5l-156.4,0.3l-76.9,0.5v89.7h225.5h6.4C707.2,521.9,745.7,460.5,757.4,435.9z"/>
<path fill="#114263" d="M958,480.4l-92.3-70.8v28.5h-96c-4.4,9.9-31.9,69.1-98.4,88.9h194.2v29.3L958,480.4z"/>
<path fill="#ABBBC5" d="M920,243.7c3,3.5,5.1,6.3,4.6,7.2c-1,1.6-4.8,1.3-9.1-0.8c-6.3-3.1-6.7-7.2-5.4-8.9
	C911.6,239.3,916.6,239.4,920,243.7z"/>
<path opacity="0.72" fill="#ABBBC5" enable-background="new    " d="M927.4,243.2c-0.5,3.6-1,6.6-2,6.9c-1.8,0.5-3.9-1.5-5.1-4.9
	c-1.8-5.1,0.7-7.9,2.3-8.4C925.1,236.1,927.9,238.8,927.4,243.2z"/>
<path opacity="0.72" fill="#ABBBC5" enable-background="new    " d="M932.5,248.5c-4.1,0.8-7.4,1.3-8.1,0.5
	c-1.2-1.3,0.5-3.8,3.8-5.8c4.9-3.1,8.7-2,9.9-0.7C939.4,244.4,937.5,247.5,932.5,248.5z"/>
<polygon opacity="0.2" fill="#ABBBC5" enable-background="new    " points="865.2,282.2 947.3,183.6 642.7,183.6 "/>
<path fill="#002441" d="M945.7,184.1H644.2c-7.9,0-14.3-6.4-14.3-14.3V18.1c0-7.9,6.4-14.3,14.3-14.3h301.5
	c7.9,0,14.3,6.4,14.3,14.3v151.6C960,177.7,953.6,184.1,945.7,184.1z"/>
<path opacity="0.44" fill="#ABBBC5" enable-background="new    " d="M942.7,172.6H647.8c-3.8,0-6.7-3-6.7-6.7V20.4
	c0-3.8,3-6.7,6.7-6.7h294.9c3.8,0,6.7,3,6.7,6.7v145.5C949.5,169.5,946.5,172.6,942.7,172.6z"/>
<path fill="#FFFFFF" d="M847.3,85.2c0-0.2,0-0.2,0-0.3s0-0.2,0-0.3c0-1-0.2-2.1-0.3-3.1l0,0l0,0c-0.2-1.2-0.5-2.5-1-3.6l0,0l0,0l0,0
	c-0.2-0.5-0.3-0.8-0.5-1.2l0,0l0,0c-0.5-1.3-1.2-2.5-1.8-3.6c0-0.2-0.2-0.2-0.2-0.3c-0.2-0.2-0.2-0.3-0.3-0.5l0,0c0,0,0,0-0.2-0.2
	s-0.2-0.3-0.3-0.5l-0.2-0.3c-0.2-0.3-0.3-0.5-0.7-0.8c0,0,0,0-0.2-0.2c-0.3-0.3-0.5-0.7-0.8-1c-0.2-0.2-0.3-0.5-0.7-0.7
	c-0.2-0.2-0.2-0.2-0.3-0.3c-0.2-0.2-0.5-0.5-0.7-0.7l-0.2-0.2c-0.5-0.5-1-0.8-1.5-1.2l-0.2-0.2c-0.2-0.2-0.5-0.3-0.7-0.5
	s-0.3-0.2-0.3-0.3c-0.2-0.2-0.5-0.3-0.7-0.5s-0.5-0.3-0.7-0.5c-0.3-0.2-0.5-0.3-0.8-0.5s-0.5-0.3-0.8-0.3c-0.2,0-0.3-0.2-0.5-0.2
	c-0.3-0.2-0.7-0.3-1.2-0.5h-0.2h-0.2c0,0,0,0-0.2,0l-0.5-0.2l-0.7-0.2c-2.3-0.7-4.8-1.2-7.2-1.2c-0.2,0-0.2,0-0.3,0
	c-0.8-16-14.2-28.6-30.3-28.6c-16.3,0-29.6,12.8-30.3,29c-0.5,0-0.8,0.2-1.3,0.3l0,0c-3.9,0.8-7.6,2.8-10.5,5.4l0,0
	c-4.3,3.8-7.2,9.2-8.1,15.3c0,0.2,0,0.3,0,0.3c0,0.3-0.2,0.7-0.2,1.2c0,0.2,0,0.3,0,0.5c0,0.5,0,1,0,1.5c0,0.2,0,0.3,0,0.3
	c0,0.5,0,1.2,0.2,1.8l0,0c0,0.2,0,0.5,0,0.7c0.3,2.6,1.2,5.1,2.3,7.4l0,0c0.5,1,1,2,1.6,2.8c0,0,0,0,0.2,0
	c4.4,6.4,11.8,10.7,20.1,10.7c5.9,0,11.5-2.1,16-5.9c3.5-2.5,7.1-5.4,11-8.9l10.9-9.7l1.2-8.4l-8.1-1.2c-8.2,7.2-18.4,16-19.3,16.6
	l0,0l0,0c-3.3,3-7.4,5.6-11.7,5.6c-6.9,0-12.7-5.6-12.7-12.7c0-2.5,0.7-4.9,2-6.9c1.8-2.6,4.6-4.8,8.1-5.4c2,5.3,5.3,9.9,9.5,13.3
	l8.2-7.2c-5.4-3.5-9.1-9.5-9.1-16.5c0-10.9,8.9-19.7,19.7-19.7c10.9,0,19.7,8.9,19.7,19.7c0,0.3,0,0.7,0,1c-2.1,1.2-3.9,2.5-5.8,3.9
	c-1.2,1-2.8,2.5-4.8,4.1l8.6,1.2l-1,7.9l2.1-1.8l0,0l0,0l4.3-3.8c0.2-0.2,0.3-0.2,0.5-0.3l0,0c0,0,0,0,0.2,0c1-0.7,2.1-1.2,3-1.5
	c1.5-0.5,3-0.7,4.4-0.7c0.2,0,0.3,0,0.3,0c0.5,0,0.8,0,1.2,0.2l0,0h0.2c2.3,0.5,4.6,1.5,6.4,3.1l0.2,0.2c0.2,0.2,0.3,0.3,0.5,0.5
	s0.2,0.2,0.3,0.3c0.2,0.2,0.3,0.3,0.5,0.5s0.2,0.2,0.3,0.3c0.2,0.2,0.3,0.5,0.5,0.7s0.2,0.3,0.2,0.3c0.2,0.2,0.3,0.5,0.3,0.7
	s0.2,0.2,0.2,0.3c0.2,0.3,0.2,0.7,0.3,0.8c0,0.2,0,0.2,0.2,0.3c0,0.2,0.2,0.5,0.2,0.7s0.2,0.3,0.2,0.5s0,0.3,0.2,0.5
	c0,0.3,0.2,0.7,0.2,0.8v0.2c0,0.3,0,0.8,0,1.2v0.2c0,0.2,0,0.5,0,0.7v0.2c0,0.7-0.2,1.3-0.3,2v0.2c-0.3,1-0.7,2-1.2,2.8v0.2
	c-1.3,2.5-3.6,4.4-6.1,5.6c-0.7,0.3-1.5,0.5-2.3,0.7h-0.2c-0.3,0-0.7,0.2-1.2,0.2h-0.2c-0.8,0-1.5,0-2.1,0h-0.2
	c-0.3,0-0.7,0-0.8-0.2h-0.2h-0.2c-0.2,0-0.3,0-0.7-0.2c-0.2,0-0.3,0-0.5-0.2c-0.2,0-0.3,0-0.3-0.2c-0.2,0-0.3-0.2-0.7-0.2l-0.2-0.2
	c-0.2-0.2-0.5-0.2-0.7-0.3h-0.2c-0.5-0.3-1.2-0.5-1.6-0.8c-0.8-0.5-1.6-1.2-2.3-2c-0.2-0.2-0.3-0.5-0.5-0.7l-0.2-0.2
	c-0.2-0.2-0.3-0.3-0.3-0.5s-0.2-0.2-0.2-0.3c-0.2-0.2-0.2-0.3-0.3-0.5c-0.2-0.2-0.2-0.3-0.3-0.5c0-0.2-0.2-0.2-0.2-0.3
	c-0.2-0.2-0.2-0.5-0.3-0.7l-0.2-0.2c-0.2-0.3-0.2-0.5-0.3-0.8c0,0,0,0,0-0.2L801,96c0.2,0.2,0.2,0.5,0.3,0.7v0.2
	c0,0.2,0.2,0.2,0.2,0.3c0.3,0.5,0.5,0.8,0.8,1.2c0.2,0.3,0.3,0.5,0.7,0.8l0.2,0.3c2.3,3,5.3,5.3,8.7,6.9l0,0c0.5,0.2,1,0.5,1.5,0.7
	l0.3,0.2c0.5,0.2,0.8,0.3,1.3,0.5c0.2,0,0.3,0.2,0.5,0.2h0.2c0.3,0.2,0.7,0.2,1,0.3c0.3,0,0.5,0.2,0.8,0.2h0.3
	c0.2,0,0.5,0.2,0.7,0.2c0.5,0,0.8,0.2,1.3,0.2h0.2c0.2,0,0.3,0,0.3,0c0.7,0,1.3,0,2,0l0,0c0.5,0,0.8,0,1.3,0h0.2
	c0.3,0,0.8,0,1.2-0.2h0.3c0.3,0,0.7,0,1-0.2l0.5-0.2c0.3,0,0.5-0.2,0.8-0.2c0.2,0,0.3-0.2,0.7-0.2c0.2,0,0.3-0.2,0.5-0.2
	c0.3,0,0.5-0.2,0.8-0.2l0.3-0.2c0.3-0.2,0.7-0.2,1-0.3c3.6-1.3,7.1-3.6,9.7-6.4l0,0c0.2-0.2,0.3-0.3,0.5-0.5v-0.2l0.2-0.2l0.2-0.2
	l0.3-0.3l0.3-0.5l0,0l0,0c0.2-0.3,0.3-0.5,0.7-0.8l0.2-0.3c0.8-1.3,1.5-2.6,2.1-3.9c0,0,0,0,0-0.2c0.2-0.5,0.3-1,0.5-1.5
	c0-0.2,0-0.2,0.2-0.3c0.2-0.5,0.3-1,0.5-1.5V90c0.2-0.5,0.2-1.2,0.3-1.6c0-0.2,0-0.2,0-0.3c0-0.3,0.2-0.5,0.2-0.8l0,0
	c0-0.5,0.2-1.2,0.2-1.6v-0.3c0-0.2,0-0.3,0-0.5s0-0.2,0-0.3C847.3,85.4,847.3,85.2,847.3,85.2z"/>
<g enable-background="new    ">
	<path fill="#FFFFFF" d="M761.4,136.8c0,7.5-5.5,12.8-13.2,12.8h-10.4V124h10.4C756,124,761.4,129.3,761.4,136.8z M754.2,136.8
		c0-3.8-2.5-6.3-6.3-6.3H745v12.7h2.9C751.7,143.2,754.2,140.6,754.2,136.8z"/>
	<path fill="#FFFFFF" d="M781.8,143.5v6.1h-16.7V124h16.4v6.1h-9.4v3.8h8.4v5.8h-8.4v3.8L781.8,143.5L781.8,143.5z"/>
	<path fill="#FFFFFF" d="M811.2,149.6l-2-14.8l-6.8,14.8h-2.1l-6.8-14.8l-2,14.8h-7.2l3.9-25.6h7.1l6,13.9l6.1-13.9h7.1l3.8,25.6
		H811.2z"/>
	<path fill="#FFFFFF" d="M834.3,150.3c-8.2,0-14.1-5.6-14.1-13.5c0-7.8,5.9-13.5,14.1-13.5c8.2,0,14.1,5.6,14.1,13.5
		C848.4,144.7,842.6,150.3,834.3,150.3L834.3,150.3z M834.3,143.7c3.9,0,6.7-2.9,6.7-6.9s-2.8-6.9-6.7-6.9s-6.8,2.9-6.8,6.9
		C827.6,140.8,830.4,143.7,834.3,143.7L834.3,143.7z"/>
</g>
<path fill="#537284" d="M286.9,102.3c10.5-10.4,17-24.9,17-40.8c0-31.6-25.7-57.3-57.3-57.3s-57.3,25.7-57.3,57.3
	s25.8,57.4,57.4,57.4c5.8,0,11.5-0.8,16.8-2.5l25.2,16.6L286.9,102.3z"/>
<g>
	<g>
		<g>
			<defs>
				<circle id="SVGID_1_" cx="132.7" cy="109.9" r="85.3"/>
			</defs>
			<clipPath id="SVGID_2_">
				<use xlink:href="#SVGID_1_"  overflow="visible"/>
			</clipPath>
			<circle clip-path="url(#SVGID_2_)" fill="#ABBBC5" cx="132.7" cy="111.2" r="85.3"/>
		</g>
	</g>
	<g>
		<g>
			<defs>
				<circle id="SVGID_3_" cx="132.7" cy="109.9" r="85.3"/>
			</defs>
			<clipPath id="SVGID_4_">
				<use xlink:href="#SVGID_3_"  overflow="visible"/>
			</clipPath>
			<path clip-path="url(#SVGID_4_)" fill="#F4C278" d="M186.5,209.5l-91-11.4c0,0,0.2-30.6-1.5-28.6c-6.6,7.7-13.3,11.5-14,5.4
				c-5.1-41.6,19.4-69.5,51.5-69.6c31.3-0.2,43.4,9.9,48.7,24.5C192.6,164.9,186.5,209.5,186.5,209.5z"/>
		</g>
	</g>
	<g>
		<g>
			<defs>
				<circle id="SVGID_5_" cx="132.7" cy="109.9" r="85.3"/>
			</defs>
			<clipPath id="SVGID_6_">
				<use xlink:href="#SVGID_5_"  overflow="visible"/>
			</clipPath>
			<path clip-path="url(#SVGID_6_)" fill="#AF7E77" d="M104.8,175.6c0,0,6.4,31.3-8.2,32.1c-14,0.8-16.3-30.8-17.3-39.3
				c2.3,4.1,18.8,1.8,22.9-6.6c2.6-5.6,3.1,1.6,3.1,1.6L104.8,175.6z"/>
		</g>
	</g>
	<g>
		<g>
			<defs>
				<circle id="SVGID_7_" cx="132.7" cy="109.9" r="85.3"/>
			</defs>
			<clipPath id="SVGID_8_">
				<use xlink:href="#SVGID_7_"  overflow="visible"/>
			</clipPath>
			<path clip-path="url(#SVGID_8_)" fill="#C59680" d="M148.3,113.7c0,0-0.7,4.8-9.2,5.3c-7.2,0.3-16.8-3.9-17.8-8.2
				c1-13.7-0.5-17-1.5-20.1c-1.3-4.6-3.8-6.3-4.4-11.5c-0.8-6.9,4.9-6.4,4.9-6.4s1-7.7,5.6-9.4c3.3-1.2,24.5,4.4,27.5,1.3
				c2.3,30.1-6.3,38-6.3,38L148.3,113.7z"/>
		</g>
	</g>
	<g>
		<g>
			<defs>
				<circle id="SVGID_9_" cx="132.7" cy="109.9" r="85.3"/>
			</defs>
			<clipPath id="SVGID_10_">
				<use xlink:href="#SVGID_9_"  overflow="visible"/>
			</clipPath>
			<path clip-path="url(#SVGID_10_)" fill="#9C6A5C" d="M148.8,100.4c0,0-3.8,5.3-8.7,6.4c-4.1,1-10-0.8-13.3-6.1
				c-5.6-8.9-5.1-12.3-5.1-12.3s3.8,9.2,9.2,12.8c10.2,6.9,19.1-3.3,19.1-3.3L148.8,100.4z"/>
		</g>
	</g>
	<g>
		<g>
			<defs>
				<circle id="SVGID_11_" cx="132.7" cy="109.9" r="85.3"/>
			</defs>
			<clipPath id="SVGID_12_">
				<use xlink:href="#SVGID_11_"  overflow="visible"/>
			</clipPath>
			<path clip-path="url(#SVGID_12_)" fill="#002441" d="M107.6,52.5c4.3-5.8,7.4-3.8,7.4-3.8s0-3.3,3-6.7
				c6.7-7.6,40.5-5.8,46.7,22.1c3.8,24-1.6,31.1,9.5,43c0.3,0.3-5.9,0.5-9.5-0.3c-4.9-1-5.6,3.9-10.2,3.5c-8.1-0.8-8.4-6.3-7.4-8.1
				c6.9-11.5,7.1-27.8,5.4-27.8c-6.1-0.2-13.2,0.3-18.8-3.8c-5.4-3.9-7.9-8.2-8.2,0.8c-0.2,5.4-4.8,3.6-4.8,3.6s-3-0.5-3.6,3.3
				c-0.8,4.8,7.1,16.1,4.1,26.8c-5.1-11.8-15-3.3-17.9-7.9c-10.5-16,3.5-20.2,2.6-31.3C105.7,62.2,105.2,55.6,107.6,52.5z"/>
		</g>
	</g>
	<g>
		<g>
			<defs>
				<circle id="SVGID_13_" cx="132.7" cy="109.9" r="85.3"/>
			</defs>
			<clipPath id="SVGID_14_">
				<use xlink:href="#SVGID_13_"  overflow="visible"/>
			</clipPath>
			<path clip-path="url(#SVGID_14_)" fill="#183A56" d="M154.5,145.5l-14.5,1.8c0,0-1.5-1.6-2-2.3s-0.7-1.6-0.2-2.6l11.2-21.6
				c1.2-2.1,3.3-3.6,5.8-3.6l10.2-0.5c0.8,0,1.6,0.5,2.1,1c0.7,0.8,1.6,1.8,1.6,1.8L154.5,145.5z"/>
		</g>
	</g>
	<g>
		<g>
			<defs>
				<circle id="SVGID_15_" cx="132.7" cy="109.9" r="85.3"/>
			</defs>
			<clipPath id="SVGID_16_">
				<use xlink:href="#SVGID_15_"  overflow="visible"/>
			</clipPath>
			<path clip-path="url(#SVGID_16_)" fill="#0F2337" d="M156.4,147.4l-14.3,0.7c-2,0-3.1-2-2.3-3.6l11.2-21.6
				c1.2-2.1,3.3-3.6,5.8-3.6l10.2-0.5c1.8-0.2,3.1,1.8,2.3,3.5L156.4,147.4z"/>
		</g>
	</g>
	<g>
		<g>
			<defs>
				<circle id="SVGID_17_" cx="132.7" cy="109.9" r="85.3"/>
			</defs>
			<clipPath id="SVGID_18_">
				<use xlink:href="#SVGID_17_"  overflow="visible"/>
			</clipPath>
			<path clip-path="url(#SVGID_18_)" fill="#E6A95E" d="M111.9,164.5c0,0-30.6,16-32.8,7.7c0,0-0.5-10.4,0-12.7
				c1.2,6.1,27-4.9,32.8-9.2C111.9,150.3,111.9,164.5,111.9,164.5z"/>
		</g>
	</g>
	<g>
		<g>
			<defs>
				<circle id="SVGID_19_" cx="132.7" cy="109.9" r="85.3"/>
			</defs>
			<clipPath id="SVGID_20_">
				<use xlink:href="#SVGID_19_"  overflow="visible"/>
			</clipPath>
			<path clip-path="url(#SVGID_20_)" fill="#C59680" d="M89.2,206c-4.9-6.7-6.6-19.3,0.3-25.3c22.2-19.4,41.8-34.6,41.8-34.6
				s5.8-13.2,9.7-15s3.6,4.9,6.9,4.6c3.3-0.2,15.8-2.1,15.8-2.1s0.8,2.6-1.5,4.8c-0.7,0.5-8.2,2-8.4,4.6c-0.3,6.3-4.9,10.9-6.3,11.4
				c-1.8,1-11,4.1-11,4.1s-18.8,37.9-23.7,40.7C106.8,203.1,95.8,214.9,89.2,206z"/>
		</g>
	</g>
</g>
<polygon fill="#ABBBC5" points="214.1,121.3 239,166.5 196.8,160.8 "/>
<g>
	<g>
		<g>
			<defs>
				<circle id="SVGID_21_" cx="497.9" cy="81.6" r="77.8"/>
			</defs>
			<clipPath id="SVGID_22_">
				<use xlink:href="#SVGID_21_"  overflow="visible"/>
			</clipPath>
			<circle clip-path="url(#SVGID_22_)" fill="#ABBBC5" cx="497.9" cy="81.6" r="77.8"/>
		</g>
	</g>
	<g>
		<g>
			<defs>
				<circle id="SVGID_23_" cx="497.9" cy="81.6" r="77.8"/>
			</defs>
			<clipPath id="SVGID_24_">
				<use xlink:href="#SVGID_23_"  overflow="visible"/>
			</clipPath>
			<path clip-path="url(#SVGID_24_)" fill="#F4C278" d="M445.7,169.5l76.7,10.4c0,0,6.3-48.7,7.9-46.9c5.9,7.1,14,8.7,14.3,3
				c2.8-35.5-7.2-42.6-14.8-49.2c-7.2-6.4-18.1-11-33.7-12.5c-28.5-2.5-44.6,8.7-49.4,22.1C435.3,128.3,445.7,169.5,445.7,169.5z"/>
		</g>
	</g>
	<g>
		<g>
			<defs>
				<circle id="SVGID_25_" cx="497.9" cy="81.6" r="77.8"/>
			</defs>
			<clipPath id="SVGID_26_">
				<use xlink:href="#SVGID_25_"  overflow="visible"/>
			</clipPath>
			<path clip-path="url(#SVGID_26_)" fill="#CEA291" d="M479.8,83.1c0,0,0.7,4.4,8.4,4.8c6.6,0.3,15.3-3.5,16.3-7.6
				c-1-12.5,0.3-15.5,1.3-18.4c1.3-3.9,3.6-5.4,4.1-10.2c0.8-6.3-4.6-5.8-4.6-5.8s-0.8-7.1-5.1-8.6c-3-1-22.4,4.1-25,1.2
				c-2,27.5,5.8,34.6,5.8,34.6L479.8,83.1z"/>
		</g>
	</g>
	<g>
		<g>
			<defs>
				<circle id="SVGID_27_" cx="497.9" cy="81.6" r="77.8"/>
			</defs>
			<clipPath id="SVGID_28_">
				<use xlink:href="#SVGID_27_"  overflow="visible"/>
			</clipPath>
			<path clip-path="url(#SVGID_28_)" fill="#AF7E77" d="M521.4,139.9c0,0-12.5,28.8,0.8,29.6c12.8,0.7,21.7-25.7,22.5-33.6
				c-2.1,3.8-17.3-1.2-20.9-8.9c-2.5-5.1-3,1.5-3,1.5L521.4,139.9z"/>
		</g>
	</g>
	<g>
		<g>
			<defs>
				<circle id="SVGID_29_" cx="497.9" cy="81.6" r="77.8"/>
			</defs>
			<clipPath id="SVGID_30_">
				<use xlink:href="#SVGID_29_"  overflow="visible"/>
			</clipPath>
			<path clip-path="url(#SVGID_30_)" fill="#E6A95E" d="M523.2,134.6c0,0,15.8,15,19.7,9.2c0,0,1.6-6.4,1.8-8.2
				c-2.5,4.3-18.9-8.1-22.4-12.7L523.2,134.6z"/>
		</g>
	</g>
	<g>
		<g>
			<defs>
				<circle id="SVGID_31_" cx="497.9" cy="81.6" r="77.8"/>
			</defs>
			<clipPath id="SVGID_32_">
				<use xlink:href="#SVGID_31_"  overflow="visible"/>
			</clipPath>
			<path clip-path="url(#SVGID_32_)" fill="#002441" d="M464.3,30.9c11.4,0,10.9-15,25.7-17c8.7-1.2,13.5,1.8,16,4.9s2,5.3,2,5.3
				s5.1-1.8,9.1,3.3c0.7,0.8,3.8,5.8,2.6,9.5c-0.3,1.3-2.6-3.8-2.5-0.8c0.5,14.5-6.1,15.1-12.8,29.1c-1.6,0.2,3.5-9.7,2.8-14
				c-0.5-3.5-3.6-3-3.6-3v3.5c0,1.5,0.2,13.2-4.6,20.7c-2.5,3.9-7.7,6.9-11.7,6.1c-4.6-1-5.8-3.3-7.6-6.3c-1.8-2.8-3.3-8.9-3.3-8.9
				c2.3-0.2,1.8-3.6,7.9-3.9c7.9-0.3,9.7,7.4,14,5.6c2.3-4.8,1.5-23,1.5-23c0.2-3.9-4.6-3.8-7.2,1.8c-3.1,6.6-15.8,6.1-19.3,2.8
				c-3.5-3.1-2.1-6.7-4.6-7.6C464.9,37.5,455.7,30.9,464.3,30.9z"/>
		</g>
	</g>
	<g>
		<g>
			<defs>
				<circle id="SVGID_33_" cx="497.9" cy="81.6" r="77.8"/>
			</defs>
			<clipPath id="SVGID_34_">
				<use xlink:href="#SVGID_33_"  overflow="visible"/>
			</clipPath>
			<path clip-path="url(#SVGID_34_)" fill="#CEA291" d="M518.3,169.8c8.2,0.8,13-13,13.7-22.2c1.5-18.6-8.2-54.6-8.2-54.6
				s0.8-5.3,0.3-9.5c-0.5-4.3-1.8-19.6-3.1-22.5c-1.5-3-2.3,2.1-2.3,2.1s-1.3,9.2-2,12.2c-0.2,0.8-3.8,0-5.3,2
				c-3.3,4.4-3.8,11.7-3.8,13c0.2,2,4.3,8.7,4.3,8.7s-5.4,43-5.4,48.6C506.4,154.7,507.4,168.7,518.3,169.8z"/>
		</g>
	</g>
	<g>
		<g>
			<defs>
				<circle id="SVGID_35_" cx="497.9" cy="81.6" r="77.8"/>
			</defs>
			<clipPath id="SVGID_36_">
				<use xlink:href="#SVGID_35_"  overflow="visible"/>
			</clipPath>
			<path opacity="0.47" clip-path="url(#SVGID_36_)" fill="#AF7E77" enable-background="new    " d="M518.1,170
				c8.2,0.8-2.8-9.2-2-18.3c1.5-18.6,0.5-53.7,0.5-53.7s-2-3.5-4.9-7.6c-1.5-2,2.3-13.2,4.8-14.8c0,0-3.8,0-5.3,2
				c-3.3,4.4-3.8,11.7-3.8,13c0.2,2,4.4,8.4,4.4,8.4s-5.8,43.1-5.8,48.7C506.1,155,507.2,168.8,518.1,170z"/>
		</g>
	</g>
	<g>
		<g>
			<defs>
				<circle id="SVGID_37_" cx="497.9" cy="81.6" r="77.8"/>
			</defs>
			<clipPath id="SVGID_38_">
				<use xlink:href="#SVGID_37_"  overflow="visible"/>
			</clipPath>
			<path clip-path="url(#SVGID_38_)" fill="#E6A95E" d="M441.2,137.2c0,0,15.3,17.3,19.3,11.5c0,0,0.2-11.5,0.3-13.3
				c-7.7,1-18.3-6.4-18.9-12L441.2,137.2z"/>
		</g>
	</g>
</g>
<polygon fill="#ABBBC5" points="424,99.5 407.3,124.9 440.7,129.7 "/>
<path fill="#BE8175" d="M371.5,517.6h15.8l0.3-45.9c0,0-30.3-14.2-26.5,1.6C366.9,497.2,371.5,517.6,371.5,517.6z"/>
<polygon fill="#BE8175" points="295.9,516.1 312.7,512.6 318,473.1 291.5,474.1 "/>
<path fill="#002441" d="M291.8,493.4c0,0,18.9,7.4,25-2.1l9.4-62.7c0,0,17.3-42.6,23.7-72.1c1.3,14.6,6.7,116.5,14.5,130.5l26.2,1.3
	c0,0,7.2-176.8,1.3-192.4c-3.1-8.6-20.1-26.2-20.1-26.2l-54-0.3c0,0-6.1,12.7-12.2,30.9c-5.9,17.8,1.8,98.7-7.2,111.1
	C284.2,430.8,291.8,493.4,291.8,493.4z"/>
<path fill="#376782" d="M316.8,246.8l1.2,23h53.2l42.8-31.4l-25.8,3.6c0,0-14.3-41.3-27.8-57.8c-8.9-10.9-36.7-19.1-51.3-6.7
	c-22.9,19.3-39.2,54.8-41.1,63.2c-3.9,16.5,30.4,31.4,40.5,37c10,5.6,13.8,1.6,13.8,1.6L295.9,245l10-13.7
	C310.7,238.8,316.8,246.8,316.8,246.8z"/>
<path fill="#BE8175" d="M349.7,180.2c0,0-0.3,3.5-7.7,0.3c-6.4-2.6-13.2-12.8-12.2-17c3-3.8-3.8-15.8-2-19.9
	c1.5-3.8,5.9-13.7,6.7-15.1c2.8-4.9,9.7,13.2,11.7,8.7c1.8-4.3,9.2-4.1,9.2-4.1s3.8-7.4,8.4-6.9c3.3,0.3,6.6,9.2,5.1,15.1
	c-6.6,29.6-18.1,29.1-18.1,29.1L349.7,180.2z"/>
<path fill="#002441" d="M326.7,145.1c0.3,1.3,5.4,11.4,4.6,9.4c-3.9-11.4,0.5-14.8,2.6-14.6c3.6,0.2,0.8,4.8,3.8,4.4
	c6.1-0.5,13.7-2.8,18.4-6.3c9.1-6.7,12.2-11.8,9.2-17.6c-4.3-8.6-15-15.8-29-9.2C324.7,116.8,322.9,132.9,326.7,145.1z"/>
<path fill="#002441" d="M367.7,169.5c0,0,4.1-1.2,7.7-10.2c4.8-11.8,5.9-45.1-16.8-46.4l2.8,17.1C361.4,129.8,377.4,132,367.7,169.5
	z"/>
<path fill="#002441" d="M331.5,154.5l-4.6-11.8c-9.4,11.5-15.8,25.2-15,38.8c3,47.9,29.5,36.9,29.5,36.9s-7.7-24.9-9.1-39.7
	C330.8,163.7,331.5,154.5,331.5,154.5z"/>
<path fill="#BE8175" d="M267.4,241.1c4.9-10,18.1-5.3,24.4-0.2c6.3,4.9,35.4,39.7,35.4,39.7s6.9,1.6,10,4.8
	c3.1,3.1,2.3,18.8,1.8,20.9c-0.8,3.3-2.8-0.3-2.8-0.3s-2-5.6-3.9-7.2c-2-1.6-9.4,1.5-10.9,0s-2.5-11.4-2.5-11.4s-40-21.9-44.6-25.3
	C268.8,257.4,263.5,248.8,267.4,241.1z"/>
<path opacity="0.66" fill="#9E635A" enable-background="new    " d="M267.4,241.1c2,6.4,2.6,7.6,18.1,18.8c26,18.8,36.5,26,36.5,26
	s-0.2,12.5,6.7,12.5c-1.3,0-5.8,1.8-7.2,0.3c-1.5-1.5-2.5-11.4-2.5-11.4s-40-21.9-44.6-25.3C268.8,257.4,263.5,248.8,267.4,241.1z"
	/>
<path fill="#BE8175" d="M371.8,269.5c3.9,0.3,18.9-0.7,22.1-1.8c7.6-2.6,46.7-25.3,46.7-25.3s7.1,0.8,11-1s8.6-16.8,8.9-19.1
	c0.3-3.3-2.6-0.5-2.6-0.5s-3.6,3.1-6.1,3.9c-2.3,0.8-7.2,1.2-9.2,1.8c-2,0.8-7.2,5.8-7.2,5.8s-45.1,7.1-50.5,8.9
	c-3.5,1.2-7.1,3.1-9.7,5.9L371.8,269.5z"/>
<path opacity="0.66" fill="#9E635A" enable-background="new    " d="M371.8,269.5c3.9,0.3,18.9-0.7,22.1-1.8
	c7.6-2.6,46.7-25.3,46.7-25.3s-52,27.2-67.5,17.8L371.8,269.5z"/>
<path fill="#002441" d="M341.5,543.6c0,0-17.4,2.1-21.9,1.2c-4.4-0.8-18.4-15-18.4-15s-5.1-1.2-7.6-3.1c-2.5-2,1.2-13.3,1.2-13.3
	c8.9,3.8,5.8-3.8,14.8-4.9c9.1-1.2,7.9,5.6,12,10.9s15,11.8,18.3,16.1C343.2,539.6,341.5,543.6,341.5,543.6z"/>
<path fill="#002441" d="M421.8,526.8H367l0.2-20.6c17.1,7.4,13.3-0.5,21.7-0.8c4.1-0.2,6.9,3.1,10.7,6.7c4.4,4.1,16.3,3.6,19.3,7.6
	C421.8,523.8,421.8,526.8,421.8,526.8z"/>
<polygon fill="#ABC4D6" points="438.8,260.8 502.3,218.9 502.3,169.5 438.8,212.6 "/>
<line fill="none" stroke="#FFFFFF" stroke-width="2" stroke-linecap="round" stroke-linejoin="round" stroke-miterlimit="10" x1="492.1" y1="183.2" x2="492.1" y2="217.8"/>
<path fill="#BE8175" d="M374.3,255.9c2.3-3.1,5.6-5.8,8.9-7.2c5.3-2.5,49-15.1,49-15.1s5.3-7.9,7.1-8.9c1.8-1,8.1-2.5,10.4-3.6
	c1.6-0.8,2.1,0.5,2,1c-1.8,3.3-9.4,6.6-10.9,10.4c-0.8,1.8-1,8.9-5.4,8.9C433.5,241.4,374.3,255.9,374.3,255.9z"/>
<circle fill="#FFFFFF" cx="227.1" cy="59.7" r="3.1"/>
<circle fill="#FFFFFF" cx="246.7" cy="59.7" r="3.1"/>
<circle fill="#FFFFFF" cx="266.1" cy="59.7" r="3.1"/>
<path fill="#537284" d="M124.9,247c-6.9-15-19.7-27.3-36.5-33.4c-33.4-12-70.1,5.4-82.1,38.8s5.4,70.1,38.8,82.1s70.1-5.4,82.1-38.8
	c2.1-6.1,3.5-12.5,3.6-18.6l27.2-20.2L124.9,247z"/>
<g>
	<circle fill="#FFFFFF" cx="45.1" cy="268.9" r="3.5"/>
	<circle fill="#FFFFFF" cx="66.8" cy="268.9" r="3.5"/>
	<circle fill="#FFFFFF" cx="88.4" cy="268.9" r="3.5"/>
</g>
<polygon fill="#ABBBC5" points="164.9,322.5 219.6,317.8 187.3,369.3 "/>
<g>
	<g>
		<g>
			<defs>
				<circle id="SVGID_39_" cx="110.4" cy="383.8" r="91.7"/>
			</defs>
			<clipPath id="SVGID_40_">
				<use xlink:href="#SVGID_39_"  overflow="visible"/>
			</clipPath>
			<circle clip-path="url(#SVGID_40_)" fill="#ABBBC5" cx="110.4" cy="383.8" r="91.7"/>
		</g>
	</g>
	<g>
		<g>
			<defs>
				<circle id="SVGID_41_" cx="110.4" cy="383.8" r="91.7"/>
			</defs>
			<clipPath id="SVGID_42_">
				<use xlink:href="#SVGID_41_"  overflow="visible"/>
			</clipPath>
			<path clip-path="url(#SVGID_42_)" fill="#F4C278" d="M170.2,463.1l-90,26.3c0,0-3.1-43-4.8-40.8c-6.7,7.9-15.6,9.7-16.1,3.3
				c-3.1-39.8,8.2-47.7,16.6-55.1c8.1-7.2,20.2-12.5,37.9-14c31.9-2.8,44.4,13.5,49.7,28.5C176.3,447,170.2,463.1,170.2,463.1z"/>
		</g>
	</g>
	<g>
		<g>
			<defs>
				<circle id="SVGID_43_" cx="110.4" cy="383.8" r="91.7"/>
			</defs>
			<clipPath id="SVGID_44_">
				<use xlink:href="#SVGID_43_"  overflow="visible"/>
			</clipPath>
			<path clip-path="url(#SVGID_44_)" fill="#CEA291" d="M127.4,392.5c0,0-0.8,4.9-9.4,5.3c-7.4,0.3-17.1-3.9-18.1-8.4
				c1-14-0.5-17.4-1.5-20.6c-1.5-4.4-3.9-6.1-4.6-11.5c-1-6.9,5.1-6.6,5.1-6.6s1-7.9,5.6-9.5c3.3-1.2,25,4.6,28,1.3
				c2.3,30.8-6.4,38.8-6.4,38.8L127.4,392.5z"/>
		</g>
	</g>
	<g>
		<g>
			<defs>
				<circle id="SVGID_45_" cx="110.4" cy="383.8" r="91.7"/>
			</defs>
			<clipPath id="SVGID_46_">
				<use xlink:href="#SVGID_45_"  overflow="visible"/>
			</clipPath>
			<path clip-path="url(#SVGID_46_)" fill="#B2491B" d="M143,326.2c-11.5,7.7-15.5-7.7-29-10.7c-7.9-1.8-15,0.3-17.8,3.9
				s-3.1,6.9-3.1,6.9s-3.3-2-7.6,3.9c-2.5,3.3-2.5,9.9-1.6,13.5c2.1,10,7.6,11.2,15,28.5c1.8,0.2-4.4-11-3.6-15.8
				c0.7-3.8,3.6-3.5,3.6-3.5s0.5,0.2,0.7,1.6c0.2,1.5-0.3,4.8,0,9.4c1.5-0.5,3.9-0.5,4.3-6.1c0.3-9.2,0.5-11.8,0.5-11.8
				c-0.2-4.4,2.8-3,8.4,1c11,7.9,23.9-0.3,27.2-5.6C144.2,334.4,143,326.2,143,326.2z"/>
		</g>
	</g>
	<g>
		<g>
			<defs>
				<circle id="SVGID_47_" cx="110.4" cy="383.8" r="91.7"/>
			</defs>
			<clipPath id="SVGID_48_">
				<use xlink:href="#SVGID_47_"  overflow="visible"/>
			</clipPath>
			<path clip-path="url(#SVGID_48_)" fill="#AF7E77" d="M100.2,492.2c0,0-1,5.3-16,6.1c-14.3,0.8-24.2-37.7-25-46.6
				c2.3,4.3,19.3-1.2,23.4-9.9c2.8-5.8,6.9-0.5,6.9-0.5L100.2,492.2z"/>
		</g>
	</g>
	<g>
		<g>
			<defs>
				<circle id="SVGID_49_" cx="110.4" cy="383.8" r="91.7"/>
			</defs>
			<clipPath id="SVGID_50_">
				<use xlink:href="#SVGID_49_"  overflow="visible"/>
			</clipPath>
			<path clip-path="url(#SVGID_50_)" fill="#AF7E77" d="M127.9,379c0,0-3.9,5.4-8.9,6.6c-4.3,1-10.2-0.8-13.7-6.3
				c-5.8-9.1-5.1-12.5-5.1-12.5s3.9,9.4,9.4,13c10.4,7.1,19.6-3.3,19.6-3.3L127.9,379z"/>
		</g>
	</g>
	<g>
		<g>
			<defs>
				<circle id="SVGID_51_" cx="110.4" cy="383.8" r="91.7"/>
			</defs>
			<clipPath id="SVGID_52_">
				<use xlink:href="#SVGID_51_"  overflow="visible"/>
			</clipPath>
			<path clip-path="url(#SVGID_52_)" fill="#B2491B" d="M115,327.6c0.5,1.6,0.7,3.3,0.5,4.9c1,0,2,0,3,0c5.8,0,7.1-1.5,10.9,1.8
				c0.3-0.3,0.3-0.8,0.7-1c10.2-6.3,5.4-12.3,5.4-12.3c-5.8,7.1-10.9-2.8-19.3-5.1c0.3,1.2-0.8,2.6-0.7,3.9
				C116.2,322.9,116.4,324.5,115,327.6z"/>
		</g>
	</g>
	<g>
		<g>
			<defs>
				<circle id="SVGID_53_" cx="110.4" cy="383.8" r="91.7"/>
			</defs>
			<clipPath id="SVGID_54_">
				<use xlink:href="#SVGID_53_"  overflow="visible"/>
			</clipPath>
			
				<path opacity="6.000000e-002" clip-path="url(#SVGID_54_)" fill="none" stroke="#809FA9" stroke-width="2" stroke-miterlimit="10" enable-background="new    " d="
				M159,450.8c0,0,6.3,8.4,8.1,16.3c1.8,7.2,1.5,13.2-5.8,20.4"/>
		</g>
	</g>
	<g>
		<g>
			<defs>
				<circle id="SVGID_55_" cx="110.4" cy="383.8" r="91.7"/>
			</defs>
			<clipPath id="SVGID_56_">
				<use xlink:href="#SVGID_55_"  overflow="visible"/>
			</clipPath>
			<path clip-path="url(#SVGID_56_)" fill="#E6A95E" d="M91.3,447.1c0,0-25,22.1-30.4,14c0,0.5-1.6-7.4-1.8-12.3
				c3.5,6.1,26.3-11,31.4-17.4L91.3,447.1z"/>
		</g>
	</g>
	<g>
		<g>
			<defs>
				<circle id="SVGID_57_" cx="110.4" cy="383.8" r="91.7"/>
			</defs>
			<clipPath id="SVGID_58_">
				<use xlink:href="#SVGID_57_"  overflow="visible"/>
			</clipPath>
			<path clip-path="url(#SVGID_58_)" fill="#CEA291" d="M80.6,497.5c-12-3.8-12-17.9-6.9-27.2c11.5-21.4,40.8-48.9,40.8-48.9
				s4.9-9.5,8.4-13.2c4.1-4.4,23.2-3.9,25.7-3.8c3.8,0.2,0.2,3.1,0.2,3.1s-10.2,2.1-11.7,4.6c-1.3,2.5,1.5,10.4,0.2,12.3
				c-1.2,2-13.2,7.7-13.2,7.7s-7.7,8.7-17.9,52.3C104.2,492.6,92.7,501.3,80.6,497.5z"/>
		</g>
	</g>
	<g>
		<g>
			<defs>
				<circle id="SVGID_59_" cx="110.4" cy="383.8" r="91.7"/>
			</defs>
			<clipPath id="SVGID_60_">
				<use xlink:href="#SVGID_59_"  overflow="visible"/>
			</clipPath>
			<path clip-path="url(#SVGID_60_)" fill="#AF7E77" d="M80.6,497.5c-12-3.8,3.5-6.9,7.7-16.6c12.3-28,26-43.8,30.6-49.9
				c3.5-4.8,15.8-2.8,17.9-13.5c0,0,1,5.9,0.3,7.2c-1,2.1-13.2,7.7-13.2,7.7s-7.7,8.7-17.9,52.3C104.2,492.6,92.7,501.3,80.6,497.5z
				"/>
		</g>
	</g>
	<g>
		<g>
			<defs>
				<circle id="SVGID_61_" cx="110.4" cy="383.8" r="91.7"/>
			</defs>
			<clipPath id="SVGID_62_">
				<use xlink:href="#SVGID_61_"  overflow="visible"/>
			</clipPath>
			<path clip-path="url(#SVGID_62_)" fill="#AF7E77" d="M152.2,469c0,0,18.9,3.9,22.1-6.6c0.5,0.2-2.1-17.1-3.5-23.5
				c-3.1,3.6-12.3,6.4-19.9,9.2L152.2,469z"/>
		</g>
	</g>
	<g>
		<g>
			<defs>
				<circle id="SVGID_63_" cx="110.4" cy="383.8" r="91.7"/>
			</defs>
			<clipPath id="SVGID_64_">
				<use xlink:href="#SVGID_63_"  overflow="visible"/>
			</clipPath>
			<path clip-path="url(#SVGID_64_)" fill="#E6A95E" d="M151.1,450.8c0,0,17,2.3,20.1-8.2c0.5,0.2-1.2-7.7-2.5-14
				c-3.1,3.6-11,7.2-18.6,10L151.1,450.8z"/>
		</g>
	</g>
</g>
<g>
	<path fill="#ABBBC5" d="M251.6,467.4c-0.7,15.6-7.4,27.5-16.1,27.2c-8.7-0.3-16.6-14.6-17.9-30.3c-1.2-15.8,8.6-23.9,17.3-24.2
		C242.4,439.6,252.6,448.1,251.6,467.4z"/>
	<path fill="none" stroke="#809FA9" stroke-width="2" stroke-miterlimit="10" d="M206.4,455.7c9.2,3.8,17.9,2.6,20.2-0.8
		c3.1-4.8,2.1-10.2-5.8-16.1c-7.9-5.9-16.3-6.9-21.4-1.5C195.5,441.4,196.5,451.6,206.4,455.7z"/>
	<polygon fill="#ABBBC5" points="260.5,487.1 216.3,487.1 221.2,526.3 255.6,526.3 	"/>
	
		<polygon fill="none" stroke="#809FA9" stroke-width="2" stroke-linecap="round" stroke-linejoin="round" stroke-miterlimit="10" points="
		217.4,501.3 258.7,500.5 261.2,488.1 217.1,492.9 	"/>
	<path fill="#ABBBC5" d="M259.5,453.7c-3.8,7.1-6.7,13-5.4,15.1c2.5,3.5,9.1,2.5,15.8-2c9.9-6.6,9.2-15.1,6.4-18.3
		C272.9,444.3,264.3,445,259.5,453.7z"/>
	<path opacity="0.72" fill="#ABBBC5" enable-background="new    " d="M236.5,427.2c-0.8,6.1-1.5,11-3.3,11.7c-3,1-6.7-2.5-8.9-8.2
		c-3.3-8.4,1-13.3,4.1-14.2C232.4,415.5,237.3,419.8,236.5,427.2z"/>
</g>
<path fill="none" stroke="#002441" stroke-width="1.7" stroke-miterlimit="10" d="M347.6,151.7h-0.8c-4.1,0-7.6-3.5-7.6-7.6l0,0
	c0-1,0.8-1.8,1.8-1.8h12.7c1,0,1.8,0.8,1.8,1.8l0,0C355.2,148.3,351.7,151.7,347.6,151.7z"/>
<line fill="none" stroke="#002441" stroke-width="2" stroke-miterlimit="10" x1="355.5" y1="146.6" x2="358.8" y2="146.6"/>
<path fill="none" stroke="#002441" stroke-width="1.7" stroke-miterlimit="10" d="M367.5,151.7h-0.8c-4.1,0-7.6-3.5-7.6-7.6l0,0
	c0-1,0.8-1.8,1.8-1.8h12.7c1,0,1.8,0.8,1.8,1.8l0,0C375.2,148.3,371.8,151.7,367.5,151.7z"/>
<line fill="none" stroke="#FFFFFF" stroke-width="2" stroke-linecap="round" stroke-linejoin="round" stroke-miterlimit="10" x1="483.2" y1="189.1" x2="483.2" y2="223.7"/>
<line fill="none" stroke="#FFFFFF" stroke-width="2" stroke-linecap="round" stroke-linejoin="round" stroke-miterlimit="10" x1="475" y1="194.9" x2="475" y2="229.5"/>
<line fill="none" stroke="#FFFFFF" stroke-width="2" stroke-linecap="round" stroke-linejoin="round" stroke-miterlimit="10" x1="466.1" y1="200.7" x2="466.1" y2="235.3"/>
</svg>
