<?xml version="1.0" encoding="utf-8"?>
<!-- Generator: Adobe Illustrator 18.0.0, SVG Export Plug-In . SVG Version: 6.00 Build 0)  -->
<!DOCTYPE svg PUBLIC "-//W3C//DTD SVG 1.1//EN" "http://www.w3.org/Graphics/SVG/1.1/DTD/svg11.dtd">
<svg version="1.1" id="Layer_1" xmlns="http://www.w3.org/2000/svg" xmlns:xlink="http://www.w3.org/1999/xlink" x="0px" y="0px"
	 viewBox="0 0 583.3 324.3" enable-background="new 0 0 583.3 324.3" xml:space="preserve">
<path opacity="0.43" fill="#ABBBC5" d="M85,323.3v0.7h419.3l-54.1-27.6c16.2-13.3,26.6-33.2,26.6-55.7c0-37.2-28.3-67.8-64.8-72
	c2.4-8.5,3.6-17.4,3.6-26.7c0-55.4-45.5-100.4-101.6-100.4c-14.3,0-27.9,2.9-40.2,8.2c-23.6-23.8-57.1-38.7-94.4-38.7
	C108,11.1,50,66,50,133.8c0,19.7,4.9,38.4,13.7,54.9c-26.3,10.2-44.8,35.4-44.8,65C18.9,290.7,48,320.9,85,323.3z"/>
<path fill="#032E4C" d="M315.5,317H155.2c-3.2,0-5.9-2.6-5.9-5.9V198.2c0-3.2,2.6-5.9,5.9-5.9h160.3c3.2,0,5.9,2.6,5.9,5.9v112.9
	C321.3,314.4,318.7,317,315.5,317z"/>
<path opacity="0.24" fill="#ABBBC5" d="M316.6,316.8h-68.9c-3.2,0-5.8-2.6-5.8-5.8v-3.7h79.6v4.7
	C321.4,314.6,319.2,316.8,316.6,316.8z"/>
<g>
	<path fill="#ABBBC5" d="M314,317.5V317h-48v0.3c-1,2.2-2.5,3.9-4.4,3.9c0,0-0.6,0-0.6,0v2.8h8h42.1h6.9v-2.8
		C317,321.2,315,319.6,314,317.5z"/>
	<path fill="#ABBBC5" d="M318.5,321.2L318.5,321.2C318.5,321.2,318.5,321.2,318.5,321.2C318.5,321.2,318.5,321.2,318.5,321.2z"/>
</g>
<g opacity="0.16">
	<path fill="#002441" d="M314,317.4V317h-48v0.2c-1,2.3-2.5,4.3-4.5,4.1c0,0-0.1,0-0.1,0l56.6,0.1C316.9,320.9,315,319.6,314,317.4z
		"/>
	<path fill="#002441" d="M318.5,321.3L318.5,321.3C318.5,321.3,318.5,321.3,318.5,321.3C318.5,321.3,318.5,321.3,318.5,321.3z"/>
</g>
<g>
	<path fill="#ABBBC5" d="M204,317.5V317h-48v0.3c-1,2.2-2.5,3.9-4.4,3.9c0,0-0.6,0-0.6,0v2.8h8h42.1h6.9v-2.8
		C207,321.2,205,319.6,204,317.5z"/>
	<path fill="#ABBBC5" d="M208.5,321.2L208.5,321.2C208.5,321.2,208.5,321.2,208.5,321.2C208.5,321.2,208.5,321.2,208.5,321.2z"/>
</g>
<g opacity="0.16">
	<path fill="#002441" d="M204,317.4V317h-48v0.2c-1,2.3-2.5,4.3-4.5,4.1c0,0-0.1,0-0.1,0l56.6,0.1C206.9,320.9,205,319.6,204,317.4z
		"/>
	<path fill="#002441" d="M208.5,321.3L208.5,321.3C208.5,321.3,208.5,321.3,208.5,321.3C208.5,321.3,208.5,321.3,208.5,321.3z"/>
</g>
<path opacity="0.24" fill="#ABBBC5" d="M224.1,317h-68.9c-3.2,0-5.8-2.6-5.8-5.8v-3.7h79.6v4.7C228.9,314.8,226.7,317,224.1,317z"/>
<path fill="#F4C278" d="M568,324.2l-110.5-36.6c0,0,3.8-12.6,1.8-10.2c-7.7,9-17.9,11.2-18.5,3.8c-3.6-45.6,9.4-54.6,19.1-63.2
	c9.3-8.2,23.3-14.3,43.3-16c36.5-3.2,57.2,11.2,63.3,28.3C581.3,271.3,568,324.2,568,324.2z"/>
<path fill="#CEA291" d="M526.1,215.5c0,0-1.7,5.4-11.5,4.5c-8.5-0.8-18.8-7.3-19.2-12.6c3.5-15.7,2.4-19.8,1.8-23.6
	c-0.9-5.2-3.5-7.6-3.4-13.8c0.1-8.1,6.9-6.5,6.9-6.5s2.5-8.9,8-9.9c4-0.7,26.7,16,30.7,12.7c-2.6,24-12.8,36.3-12.8,36.3
	L526.1,215.5z"/>
<path fill="#B2491B" d="M523.9,184.3c-9-1.2-15.5,3.5-18.5,4.2c-2.1-6.6,2.5-29.8,2.5-29.8c0.3-3.1,2-3.5,4.2-1.9
	c-0.1-0.9-0.1-1.9-0.1-2.8c-2.4-0.4-4-7.1-6.5-7.4c-5.2-0.7-9.5-4.3-14.8-4.8c-1.2-0.1-5.8,3.8-6.4,11.1c-0.9,11,7.5,16.5,13.1,34.4
	c2.1,0.4-3.8-13.4-1.4-18.5c2.4-5.1,6.2-3,6.2-3l-0.6,3.9c-0.4,1.8-3.8,17.2,1,28c2.5,5.5,8.8,10.4,14,10c6.1-0.5,10.8-6.5,10.8-6.5
	s5.2-9.2,5.8-11.4C533.7,188.5,531.7,185.4,523.9,184.3z"/>
<path fill="#AF7E77" d="M470.8,286.3c0,0,16.1,37-1,38c-16.5,0.9-27.8-32.9-28.9-43c2.7,4.8,22.1-1.4,26.8-11.3c3.2-6.6,3.7,2,3.7,2
	L470.8,286.3z"/>
<path fill="#E6A95E" d="M468.5,279.5c0,0-20.3,19.3-25.2,11.9c0,0-2.2-8.2-2.4-10.5c3.1,5.6,24.2-10.4,28.8-16.2L468.5,279.5z"/>
<path fill="#CEA291" d="M496.7,287.8c-8.8-6.5-12.8-17.4-12.1-28c-8.3,8.5-16.3,17.7-20.9,25.5c-6.1,10.3-11.5,29-1.9,34.3
	c12.6,6.9,24.3-7.3,29.7-15c1.3-1.8,4.5-7.5,8.4-14.7C498.8,289.2,497.8,288.5,496.7,287.8z"/>
<rect x="178.3" y="192.5" opacity="0.41" fill="#002441" width="113.6" height="131.5"/>
<path fill="#114263" d="M269.6,314.1H201c-3,0-5.4-2.4-5.4-5.4v-123c0-3,2.4-5.4,5.4-5.4h68.7c3,0,5.4,2.4,5.4,5.4v123
	C275.1,311.6,272.6,314.1,269.6,314.1z"/>
<circle opacity="0.43" fill="#ABBBC5" cx="493.5" cy="111.2" r="15"/>
<circle opacity="0.43" fill="#ABBBC5" cx="440.9" cy="88.8" r="23.4"/>
<rect x="231.6" y="199.3" opacity="0.63" fill="#002441" width="43.6" height="3.2"/>
<rect x="231.8" y="216.9" opacity="0.63" fill="#002441" width="43.6" height="3.2"/>
<rect x="231.6" y="234.6" opacity="0.63" fill="#002441" width="43.6" height="3.2"/>
<rect x="231.8" y="252.3" opacity="0.63" fill="#002441" width="43.6" height="3.2"/>
<g>
	<rect x="149.3" y="206.8" opacity="0.63" fill="#114263" width="46.1" height="3.2"/>
	<rect x="149.4" y="224.4" opacity="0.63" fill="#114263" width="46.1" height="3.2"/>
	<rect x="149.3" y="242.1" opacity="0.63" fill="#114263" width="46.1" height="3.2"/>
	<rect x="149.4" y="259.8" opacity="0.63" fill="#114263" width="46.1" height="3.2"/>
</g>
<g>
	<rect x="275.1" y="206.8" opacity="0.63" fill="#114263" width="46.1" height="3.2"/>
	<rect x="275.2" y="224.4" opacity="0.63" fill="#114263" width="46.1" height="3.2"/>
	<rect x="275.1" y="242.1" opacity="0.63" fill="#114263" width="46.1" height="3.2"/>
	<rect x="275.2" y="259.8" opacity="0.63" fill="#114263" width="46.1" height="3.2"/>
</g>
<path fill="#114263" d="M372.9,35.1c-1.3,0-2.5,0.1-3.7,0.3c-0.2-17.2-14.2-31-31.4-31c-17.3,0-31.4,14.1-31.4,31.4
	c0,0.1,0,0.2,0,0.3c-9.5,2.8-16.5,11.6-16.5,22c0,12.7,10.3,22.9,23,22.9c0.8,0,59.1,0,59.9,0c12.7,0,23-10.2,23-22.9
	C395.9,45.3,385.6,35.1,372.9,35.1z"/>
<path fill="#114263" d="M157.1,70.6c-1.3,0-2.6,0.1-3.8,0.3c-0.2-17.7-14.6-32-32.4-32c-17.9,0-32.4,14.5-32.4,32.4
	c0,0.1,0,0.2,0,0.3c-9.8,2.9-17,11.9-17,22.7c0,13.1,10.6,23.7,23.8,23.7c0.8,0,61.1,0,61.9,0c13.1,0,23.8-10.6,23.8-23.7
	C180.9,81.2,170.2,70.6,157.1,70.6z"/>
<path fill="#114263" d="M86.1,215.6c-1.3,0-2.6,0.1-3.8,0.3c-0.2-17.7-14.6-32-32.4-32c-17.9,0-32.4,14.5-32.4,32.4
	c0,0.1,0,0.2,0,0.3c-9.8,2.9-17,11.9-17,22.7c0,13.1,10.6,23.7,23.8,23.7c0.8,0,61.1,0,61.9,0c13.1,0,23.8-10.6,23.8-23.7
	C109.9,226.2,99.2,215.6,86.1,215.6z"/>
<circle fill="#ABBBC5" cx="236.3" cy="293.3" r="6.8"/>
<path fill="#CEA291" d="M570.2,289.1c-4.2-24.2-27.4-65.3-27.4-65.3s-6.4-28-13-31c-8-3.4-12.1-3.3-12.1-3.3s0.9,3.6,2.5,4.3
	c5.7,2.3,6.9,4.5,5.3,8.8c-0.4,0.9-5.9,2.1-7.1,5.3c-2.6,6.7-1,14.4-0.4,16.1c0.9,2.5,9.3,6.1,9.3,6.1s3.7,24.3,7,43.8
	c1.4,11.4,2.6,21.1,3.3,23.7c2.4,9.1,8.3,26.5,22.5,24.4C570.7,320.3,572.3,300.9,570.2,289.1z"/>
<path fill="#AF7E77" d="M546.5,282.7c-2.7-13.6-8.8-29.3-12.1-53.5c-1.3-5.2-8.6-4.2-12.6-11.6c-1.7-10.8-0.1-12.2-0.5-12.9
	c-1.2,0.7-2.7,1.8-3.2,3.1c-2.6,6.7-1,14.4-0.4,16.1c0.9,2.5,9.3,6.1,9.3,6.1s9.2,60,11.2,66.9c2.6,8.8,8.8,25.8,22.8,23.4
	C571.7,318.5,548.9,294.3,546.5,282.7z"/>
<rect x="466.4" y="242.5" fill="#002441" width="112.6" height="81.7"/>
<path fill="#FFFFFF" d="M538,284.9C538,284.9,538,284.9,538,284.9c0-0.1,0-0.2,0-0.2c0-0.3,0-0.6-0.1-0.9c0,0,0,0,0,0c0,0,0,0,0,0
	c-0.1-0.4-0.2-0.7-0.3-1c0,0,0,0,0,0l0,0c0,0,0,0,0,0c0-0.1-0.1-0.2-0.1-0.4l0,0l0,0c-0.2-0.4-0.3-0.7-0.5-1.1c0,0,0-0.1-0.1-0.1
	c0,0-0.1-0.1-0.1-0.1l0,0c0,0,0,0,0,0c0-0.1-0.1-0.1-0.1-0.2l-0.1-0.1c-0.1-0.1-0.1-0.2-0.2-0.2c0,0,0,0,0,0
	c-0.1-0.1-0.2-0.2-0.2-0.3c-0.1-0.1-0.1-0.1-0.2-0.2c0,0-0.1-0.1-0.1-0.1c-0.1-0.1-0.1-0.1-0.2-0.2c0,0,0,0-0.1-0.1
	c-0.1-0.1-0.3-0.2-0.4-0.3c0,0,0,0-0.1,0c-0.1-0.1-0.1-0.1-0.2-0.2c0,0-0.1-0.1-0.1-0.1c-0.1,0-0.1-0.1-0.2-0.1
	c-0.1,0-0.1-0.1-0.2-0.1c-0.1,0-0.2-0.1-0.2-0.1c-0.1,0-0.2-0.1-0.2-0.1c0,0-0.1,0-0.1-0.1c-0.1,0-0.2-0.1-0.3-0.1c0,0,0,0,0,0l0,0
	c0,0,0,0,0,0l-0.1,0l-0.2-0.1c-0.7-0.2-1.4-0.3-2.1-0.3c0,0-0.1,0-0.1,0c-0.3-4.6-4.1-8.3-8.8-8.3c-4.7,0-8.6,3.7-8.8,8.4
	c-0.1,0-0.2,0-0.4,0.1c0,0,0,0,0,0c-1.1,0.3-2.2,0.8-3.1,1.6c0,0,0,0,0,0c-1.3,1.1-2.1,2.7-2.3,4.4c0,0,0,0.1,0,0.1
	c0,0.1,0,0.2,0,0.3c0,0,0,0.1,0,0.1c0,0.1,0,0.3,0,0.4c0,0,0,0.1,0,0.1c0,0.2,0,0.3,0,0.5l0,0c0,0.1,0,0.1,0,0.2
	c0.1,0.8,0.3,1.5,0.6,2.2c0,0,0,0,0,0c0.1,0.3,0.3,0.6,0.5,0.8c0,0,0,0,0,0c1.3,1.9,3.4,3.1,5.8,3.1c1.7,0,3.4-0.6,4.6-1.7
	c1-0.7,2.1-1.6,3.2-2.6l3.2-2.8l0.3-2.5l-2.4-0.3c-2.4,2.1-5.4,4.7-5.6,4.8l0,0l0,0c-1,0.9-2.1,1.6-3.4,1.6c-2,0-3.7-1.6-3.7-3.7
	c0-0.7,0.2-1.4,0.6-2c0.5-0.8,1.4-1.4,2.3-1.6c0.6,1.5,1.5,2.9,2.8,3.9l2.4-2.1c-1.6-1-2.6-2.8-2.6-4.8c0-3.2,2.6-5.7,5.7-5.7
	s5.7,2.6,5.7,5.7c0,0.1,0,0.2,0,0.3c-0.6,0.3-1.2,0.7-1.7,1.2c-0.3,0.3-0.8,0.7-1.4,1.2l2.5,0.3l-0.3,2.3l0.6-0.5l0,0c0,0,0,0,0,0
	l1.2-1.1c0,0,0.1-0.1,0.1-0.1v0c0,0,0,0,0,0c0.3-0.2,0.6-0.3,0.9-0.4c0.4-0.1,0.9-0.2,1.3-0.2c0,0,0.1,0,0.1,0c0.1,0,0.2,0,0.4,0
	c0,0,0,0,0,0l0,0c0.7,0.1,1.3,0.4,1.9,0.9c0,0,0,0,0.1,0c0,0,0.1,0.1,0.1,0.1c0,0,0.1,0.1,0.1,0.1c0,0.1,0.1,0.1,0.1,0.2
	c0,0,0.1,0.1,0.1,0.1c0,0.1,0.1,0.1,0.1,0.2c0,0,0,0.1,0.1,0.1c0,0.1,0.1,0.1,0.1,0.2c0,0,0,0.1,0.1,0.1c0,0.1,0.1,0.2,0.1,0.3
	c0,0,0,0.1,0,0.1c0,0.1,0,0.1,0.1,0.2c0,0.1,0,0.1,0,0.2c0,0,0,0.1,0,0.1c0,0.1,0,0.2,0,0.3c0,0,0,0,0,0c0,0.1,0,0.2,0,0.3
	c0,0,0,0,0,0.1c0,0.1,0,0.1,0,0.2c0,0,0,0,0,0c0,0.2,0,0.4-0.1,0.6c0,0,0,0,0,0c-0.1,0.3-0.2,0.6-0.3,0.8l0,0
	c-0.4,0.7-1,1.3-1.8,1.6c-0.2,0.1-0.4,0.2-0.7,0.2l0,0c-0.1,0-0.2,0-0.3,0l-0.1,0c-0.2,0-0.4,0-0.6,0l0,0c-0.1,0-0.2,0-0.3,0
	c0,0,0,0,0,0l0,0c-0.1,0-0.1,0-0.2,0c0,0-0.1,0-0.1,0c0,0-0.1,0-0.1,0c-0.1,0-0.1,0-0.2-0.1l-0.1,0c-0.1,0-0.1-0.1-0.2-0.1l0,0
	c-0.2-0.1-0.3-0.2-0.5-0.3c-0.2-0.2-0.5-0.4-0.7-0.6c-0.1-0.1-0.1-0.1-0.2-0.2l0-0.1c0-0.1-0.1-0.1-0.1-0.2c0,0,0-0.1-0.1-0.1
	c0,0-0.1-0.1-0.1-0.1c0,0-0.1-0.1-0.1-0.1c0,0,0-0.1,0-0.1c0-0.1-0.1-0.1-0.1-0.2l0-0.1c0-0.1-0.1-0.1-0.1-0.2c0,0,0,0,0,0l-2.7,2.3
	c0,0.1,0.1,0.1,0.1,0.2l0,0c0,0,0,0.1,0,0.1c0.1,0.1,0.2,0.2,0.2,0.3c0.1,0.1,0.1,0.2,0.2,0.2l0.1,0.1c0.7,0.8,1.5,1.5,2.5,2l0,0
	c0.1,0.1,0.3,0.1,0.4,0.2l0.1,0c0.1,0,0.2,0.1,0.4,0.1c0,0,0.1,0,0.1,0l0.1,0c0.1,0,0.2,0.1,0.3,0.1c0.1,0,0.1,0,0.2,0l0.1,0
	c0.1,0,0.1,0,0.2,0c0.1,0,0.3,0,0.4,0l0.1,0c0,0,0.1,0,0.1,0c0.2,0,0.4,0,0.6,0h0c0.1,0,0.3,0,0.4,0l0,0c0.1,0,0.2,0,0.3,0l0.1,0
	c0.1,0,0.2,0,0.3,0l0.1,0c0.1,0,0.1,0,0.2,0c0.1,0,0.1,0,0.2,0c0.1,0,0.1,0,0.2,0c0.1,0,0.1,0,0.2-0.1l0.1,0c0.1,0,0.2-0.1,0.3-0.1
	c1.1-0.4,2-1,2.8-1.9l0,0c0-0.1,0.1-0.1,0.1-0.2l0,0c0,0,0,0,0.1-0.1c0,0,0,0,0-0.1l0.1-0.1l0.1-0.1l0,0c0,0,0,0,0,0
	c0.1-0.1,0.1-0.2,0.2-0.3l0.1-0.1c0.2-0.4,0.4-0.8,0.6-1.2c0,0,0,0,0,0c0.1-0.1,0.1-0.3,0.2-0.4c0,0,0-0.1,0-0.1
	c0-0.1,0.1-0.3,0.1-0.4c0,0,0,0,0,0c0-0.2,0.1-0.3,0.1-0.5c0,0,0-0.1,0-0.1c0-0.1,0-0.2,0-0.2l0,0c0-0.2,0-0.3,0-0.5l0-0.1
	c0,0,0-0.1,0-0.1c0,0,0-0.1,0-0.1C538,285,538,285,538,284.9z"/>
<rect x="466.4" y="316.9" fill="#114263" width="112.7" height="7.3"/>
<polyline fill="none" stroke="#809FA9" stroke-width="2" stroke-linecap="round" stroke-linejoin="round" stroke-miterlimit="10" stroke-dasharray="5,8" points="
	124,132 124,158 161,158 161,188 "/>
<polyline fill="none" stroke="#809FA9" stroke-width="2" stroke-linecap="round" stroke-linejoin="round" stroke-miterlimit="10" stroke-dasharray="5,8" points="
	342,97 342,136 311,136 311,187 "/>
<polyline fill="none" stroke="#809FA9" stroke-width="2" stroke-linecap="round" stroke-linejoin="round" stroke-miterlimit="10" stroke-dasharray="5,8" points="
	390,215 390,248 346.4,248 323.3,248.1 "/>
<polyline fill="none" stroke="#809FA9" stroke-width="2" stroke-linecap="round" stroke-linejoin="round" stroke-miterlimit="10" stroke-dasharray="5,8" points="
	54,277 54,303 128,303 129.4,228 147.3,227.9 "/>
<g>
	<path opacity="0.72" fill="#ABBBC5" d="M418.5,289.8c-4.2,5.2-12.7,6-8.7,7.3s9.5-0.4,14.6-5.1c4.7-4.2,3-11.8,3-11.8
		S423.5,283.5,418.5,289.8z"/>
	<path fill="#ABBBC5" d="M393.2,289.2c5.4,8.8,17.4,12.2,11.6,13c-5.9,0.8-13.4-3.1-20.2-11.4c-6.2-7.5-3.1-18.2-3.1-18.2
		S386.8,278.6,393.2,289.2z"/>
	<path opacity="0.72" fill="#ABBBC5" d="M395.9,282.9c1.8,10.4,12.2,18.3,6.1,16.7c-6-1.6-11.8-8.2-15.2-18.6
		c-3.1-9.5,4.1-18.2,4.1-18.2S393.7,270.4,395.9,282.9z"/>
	<path fill="#ABBBC5" d="M406.4,289.2c-0.5-4.4-0.8-10,0.7-14.5c4.3-12.3-0.2-20-0.2-20s-8.5,4.9-9.1,15.1
		c-0.6,9.2,1.1,18.8,4.5,23.9C403.6,292.1,405,290.6,406.4,289.2z"/>
	<polygon fill="#ABBBC5" points="417.8,295.7 386.2,295.7 389.8,323.7 414.3,323.7 	"/>
	
		<polygon fill="none" stroke="#809FA9" stroke-width="2" stroke-linecap="round" stroke-linejoin="round" stroke-miterlimit="10" points="
		387.1,305.8 416.5,305.2 418.3,296.4 386.8,299.8 	"/>
	<path fill="none" stroke="#809FA9" stroke-width="2" stroke-miterlimit="10" d="M409,280.8c-2.8,10.3-8.8,14.9-8.8,14.9l6.2-0.7
		c0,0,9.7-4.8,12.9-12.7c4.6-11.3-1.5-16.5-1.5-16.5S412.2,269.3,409,280.8z"/>
</g>
<path fill="#002441" d="M545.1,173.5c-0.4-0.6-1-1-1.7-1.2l-12.3-2.4c-1.5-0.3-2.9,0.7-3.2,2.1l-0.1,0.5l-1.9-0.4l0.1-0.5
	c0.3-1.5-0.7-2.9-2.1-3.2l-12.3-2.4c-1.5-0.3-2.9,0.7-3.2,2.1l-1.1,5.7c-0.1,0.7,0,1.4,0.4,2s1,1,1.7,1.2l12.3,2.4
	c0.2,0,0.4,0.1,0.5,0.1c1.3,0,2.4-0.9,2.7-2.2l0.6-3.3l1.9,0.4l-0.6,3.3c-0.1,0.7,0,1.4,0.4,2s1,1,1.7,1.2l12.3,2.4
	c0.2,0,0.4,0.1,0.5,0.1c1.3,0,2.4-0.9,2.7-2.2l1.1-5.7C545.7,174.8,545.5,174.1,545.1,173.5z M522.9,177c-0.1,0.4-0.5,0.6-0.8,0.6
	l-12.3-2.4c-0.2,0-0.3-0.1-0.5-0.3c-0.1-0.2-0.1-0.3-0.1-0.5l1.1-5.7c0.1-0.3,0.4-0.6,0.7-0.6c0,0,0.1,0,0.1,0l12.3,2.4
	c0.4,0.1,0.6,0.5,0.6,0.8L522.9,177z M542.4,180.9c-0.1,0.4-0.4,0.6-0.8,0.6l-12.3-2.4c-0.2,0-0.3-0.1-0.5-0.3
	c-0.1-0.2-0.1-0.3-0.1-0.5l1.1-5.7c0.1-0.3,0.4-0.6,0.7-0.6c0,0,0.1,0,0.1,0l12.3,2.4c0.2,0,0.3,0.1,0.5,0.3
	c0.1,0.2,0.1,0.3,0.1,0.5L542.4,180.9z"/>
<path opacity="0.78" fill="#BFDAE8" d="M329.3,58.7c0,0-2.2,1.3,1.6,1.7c4.6,0.5,7,0.5,12.1-0.5c0,0,1.3,0.8,3.2,1.6
	C334.8,66.4,320.4,61.2,329.3,58.7 M327.9,52.3c0,0-2.5,1.9,1.3,2.2c4.9,0.5,8.8,0.6,15.6-0.7c0,0,0.9,0.9,2.4,1.5
	C333.4,59.3,318.1,55.6,327.9,52.3"/>
<path opacity="0.78" fill="#BFDAE8" d="M339.7,41.5c2.8,3.2-0.7,6.2-0.7,6.2s7.1-3.7,3.9-8.3c-3.1-4.3-5.4-6.4,7.3-13.8
	C350.2,25.5,330.2,30.5,339.7,41.5"/>
<path opacity="0.78" fill="#BFDAE8" d="M354.8,63.5c0,0,1.7,1.4-1.8,2.4c-6.6,2-27.4,2.6-33.2,0.1c-2.1-0.9,1.8-2.2,3.1-2.4
	c1.3-0.3,2-0.2,2-0.2c-2.3-1.6-15,3.2-6.4,4.6C341.7,71.7,360.9,66.2,354.8,63.5 M330.4,45.7c0,0-10.6,2.5-3.8,3.4
	c2.9,0.4,8.7,0.3,14-0.2c4.4-0.4,8.8-1.2,8.8-1.2s-1.5,0.7-2.7,1.4c-10.8,2.8-31.6,1.5-25.6-1.4C326.3,45.4,330.4,45.7,330.4,45.7
	 M349.4,56.4c10.9-5.7,5.9-11.2,2.4-10.4c-0.9,0.2-1.3,0.3-1.3,0.3s0.3-0.5,0.9-0.7c7-2.5,12.4,7.2-2.3,11.1
	C349.2,56.6,349.4,56.5,349.4,56.4"/>
<path opacity="0.78" fill="#BFDAE8" d="M342.8,13.6c0,0,6.1,6.1-5.8,15.4c-9.5,7.5-2.2,11.7,0,16.6c-5.5-5-9.6-9.4-6.9-13.5
	C334.2,26.1,345.3,23.2,342.8,13.6"/>
<path opacity="0.78" fill="#BFDAE8" d="M331.5,71.8c10.5,0.7,26.6-0.4,27-5.3c0,0-0.7,1.9-8.7,3.4c-9,1.7-20,1.5-26.6,0.4
	C323.2,70.2,324.6,71.3,331.5,71.8"/>
<polyline fill="none" stroke="#809FA9" stroke-width="2" stroke-linecap="round" stroke-linejoin="round" stroke-miterlimit="10" points="
	116.5,134.3 123.7,124.2 132,133.9 "/>
<polyline fill="none" stroke="#809FA9" stroke-width="2" stroke-linecap="round" stroke-linejoin="round" stroke-miterlimit="10" points="
	334.5,98.3 341.7,88.2 350,97.9 "/>
<polyline fill="none" stroke="#809FA9" stroke-width="2" stroke-linecap="round" stroke-linejoin="round" stroke-miterlimit="10" points="
	382.5,216.3 389.7,206.2 398,215.9 "/>
<polyline fill="none" stroke="#809FA9" stroke-width="2" stroke-linecap="round" stroke-linejoin="round" stroke-miterlimit="10" points="
	46.5,277.3 53.7,269.2 62,278.9 "/>
<path opacity="0.78" fill="#BFDAE8" d="M123.7,59.1c0.9,0.1,1.8,0.2,2.7,0.3c2.8,0.3,5.6,0.8,8.3,1.8c1.2,0.4,2.3,1,3.2,1.9
	c1.2,1.2,1.1,2.6-0.2,3.7c-1.2,1-2.6,1.6-4.1,2.1c-4.7,1.5-9.5,1.8-14.4,1.6c-2.8-0.1-5.6-0.5-8.3-1.2c-1.7-0.4-3.4-1-4.9-2.1
	c-0.5-0.3-0.9-0.8-1.2-1.3c-0.6-1-0.4-1.9,0.4-2.8c0.9-1,2.1-1.5,3.3-2c3.3-1.3,6.8-1.7,10.3-1.9c0.2,0,0.3-0.1,0.5-0.1
	C120.7,59.1,122.2,59.1,123.7,59.1z"/>
<path opacity="0.78" fill="#BFDAE8" d="M104.4,88.6c0.2,0.3,0.4,0.5,0.6,0.8c1.1,1.2,2.5,2,4,2.7c3.2,1.3,6.5,1.9,9.9,2.1
	c3.5,0.2,6.9,0,10.4-0.7c2.3-0.5,4.6-1.2,6.7-2.5c0.9-0.6,1.7-1.2,2.3-2.1c0.1-0.1,0.1-0.2,0.2-0.3c0.4,0.5,0.5,1.1,0.5,1.7
	c0,1.9,0,3.8,0,5.6c0,1.1-0.7,2-1.5,2.8c-1.6,1.5-3.5,2.3-5.5,3c-4.5,1.4-9.2,1.7-13.8,1.4c-3.1-0.2-6.2-0.8-9.1-2.1
	c-1.3-0.6-2.6-1.3-3.6-2.3c-0.9-0.9-1.5-1.9-1.5-3.3c0-1.7,0-3.3,0-5C103.9,89.8,104.1,89.2,104.4,88.6z"/>
<path opacity="0.78" fill="#BFDAE8" d="M138.6,77.5c0.4,0.7,0.5,1.3,0.5,2c0,1.6,0,3.2,0,4.8c0,1.6-0.9,2.8-2.1,3.8
	c-1.4,1.1-2.9,1.8-4.6,2.3c-4.9,1.6-10,1.9-15.2,1.4c-2.7-0.3-5.4-0.8-8-1.9c-1.6-0.7-3.2-1.5-4.4-2.9c-0.6-0.7-1-1.6-1-2.6
	c0-1.8,0-3.5,0-5.3c0-0.6,0.1-1.2,0.5-1.7c0.4,0.5,0.8,0.9,1.2,1.3c0.9,0.9,2.1,1.5,3.2,2c3.1,1.4,6.4,1.9,9.8,2.2
	c2.9,0.2,5.8,0.1,8.7-0.3c2.4-0.4,4.8-0.9,7-2c1.3-0.6,2.6-1.4,3.6-2.5C138.2,78,138.3,77.8,138.6,77.5z"/>
<path opacity="0.78" fill="#BFDAE8" d="M104.4,66.9c0.5,1.6,1.8,2.3,3.2,2.9c2.5,1.2,5.2,1.7,8,2c3.3,0.4,6.5,0.5,9.8,0.2
	c3.3-0.3,6.5-0.7,9.6-2c1.1-0.5,2.3-1,3.1-2c0.3-0.3,0.5-0.7,0.7-1.1c0.3,0.5,0.4,1.1,0.4,1.7c0,1.7,0,3.3,0,5
	c0,1.7-0.9,2.9-2.2,3.8c-1.7,1.3-3.6,2-5.6,2.6c-4.1,1.2-8.3,1.5-12.6,1.2c-3-0.2-6-0.7-8.9-1.8c-1.6-0.6-3.1-1.4-4.4-2.6
	c-0.9-0.9-1.5-1.9-1.5-3.2c0-1.7,0-3.4,0-5.1C103.9,68,104,67.4,104.4,66.9z"/>
<g opacity="0.78">
	<path fill="#BFDAE8" d="M67.7,215.4c-5-2.9-10-5.7-15-8.6c-0.6-0.3-1.1-0.7-1.8-0.7c-0.3,0-0.6,0-0.9,0c-1.6,1.1-3.2,1.6-4.8,2.5
		c-4.5,2.6-8.9,5.1-13.4,7.7c-1.2,0.7-1.9,1.6-1.9,3c0,6.7,0,13.4,0,20.1c0,1.2,0.5,2.2,1.5,2.8c1.7,1.1,3.5,2.1,5.3,3
		c0.8,0.4,1.8,0.7,2.7,0.8c3.3,0.3,5.5-1.5,5.5-4.7c0-6.3,0-12.6,0-18.9c0-1.8,0.1-1.7-1.7-1.7c-1.2,0-1.3,0-1.3,1.3
		c0,5.9,0,11.7,0,17.6c0,0.5,0,0.9-0.1,1.4c-0.1,1.1-1,2.1-2.2,2c-0.7,0-1.5-0.2-2.1-0.6c-1.4-0.7-2.8-1.6-4.2-2.4
		c-0.5-0.3-0.7-0.6-0.7-1.2c0-6.4,0-12.7,0-19.1c0-0.6,0.2-0.9,0.7-1.2c5.4-3.1,10.9-6.3,16.3-9.4c0.5-0.3,1-0.3,1.5,0
		c5.5,3.2,10.9,6.3,16.4,9.5c0.5,0.3,0.6,0.6,0.6,1.1c0,6.4,0,12.7,0,19.1c0,0.6-0.2,0.9-0.7,1.2c-5.5,3.2-10.9,6.3-16.4,9.5
		c-0.5,0.3-1,0.3-1.5,0c-1.1-0.7-2.3-1.4-3.5-2.1c-0.2-0.1-0.5-0.3-0.7-0.3c-1,0.4-1.9,0.9-2.9,1.3c0.3,0.2,0.4,0.3,0.6,0.4
		c1.7,1,3.5,2.1,5.2,3.1c1.4,0.9,2.9,0.9,4.3,0c5.5-3.2,11.1-6.4,16.6-9.6c0.9-0.5,1.3-1.2,1.6-2.2c0-0.2,0.1-0.3,0.1-0.5
		c0-6.9,0-13.8,0-20.7C71,217.1,69.2,216.3,67.7,215.4z"/>
	<path fill="#BFDAE8" d="M59,235.7c-1.8,0.5-3.6,0.4-5.3,0.3c-2-0.2-3.5-1-3.8-3.2c0-0.2-0.4-0.4-0.6-0.5c-0.6-0.1-1.3-0.1-1.9,0
		c-0.2,0-0.5,0.4-0.5,0.6c0,0.5,0.1,0.9,0.2,1.4c0.6,2.3,2.3,3.5,4.4,4.1c1.9,0.6,3.9,0.6,5.8,0.5c1.7-0.1,3.4-0.5,4.9-1.5
		c1.9-1.4,2.4-3.3,2-5.5c-0.3-1.9-1.6-2.8-3.3-3.2c-1.5-0.4-3.1-0.6-4.7-0.9c-1.5-0.3-2.9-0.5-4.4-0.8c-0.7-0.2-1.2-0.6-1.3-1.4
		c0-0.8,0.2-1.5,0.9-1.9c0.4-0.2,0.7-0.4,1.1-0.5c1.8-0.4,3.5-0.4,5.3,0c1.1,0.3,2,0.9,2.4,2c0.4,1.4,0.4,1.2,1.8,1.2
		c0.1,0,0.3,0,0.4,0c1,0,1.1-0.1,1-1.1c-0.3-2-1.3-3.6-3.3-4.4c-1.6-0.7-3.3-0.8-4.8-0.8c-2.2,0-4.2,0.2-6,1.4
		c-1.5,1.1-2.1,2.6-2,4.4c0.1,1.9,1.1,3.3,3,3.8c1.5,0.4,3,0.7,4.6,1c1.6,0.3,3.2,0.5,4.8,0.9c1.6,0.5,1.9,2.2,0.7,3.4
		C60.1,235.3,59.5,235.6,59,235.7z"/>
</g>
<path fill="#ABBBC5" d="M521.8,76.3h41.1c9.9,0,18-8.1,18-18V19.7c0-9.9-8.1-18-18-18h-41.1c-9.9,0-18,8.1-18,18v38.6
	C503.9,68.3,511.9,76.3,521.8,76.3z"/>
<path fill="none" stroke="#FFFFFF" stroke-width="2" stroke-miterlimit="10" d="M568.6,43.4c-1.5-6.4-3-12.9-4.5-19.3
	c-0.3-1.2-0.9-2-2-2.6c-6-2.9-12.1-5.8-18.1-8.6c-1.1-0.5-2.2-0.5-3.3,0c-1.3,0.6-2.6,1.2-3.8,1.8c-4.8,2.3-9.5,4.5-14.3,6.8
	c-1,0.5-1.7,1.3-1.9,2.4c-1.5,6.5-3,12.9-4.5,19.4c-0.3,1.1,0,2.2,0.7,3.1c4,5,8.1,10,12.1,15.1c1.1,1.4,2.3,2,4.1,2
	c3.1-0.1,6.2,0,9.3,0c3.3,0,6.6,0,10,0c1.3,0,2.3-0.4,3-1.4c0.6-0.8,1.2-1.5,1.8-2.3c3.6-4.4,7.1-8.8,10.7-13.2
	C568.6,45.6,568.8,44.6,568.6,43.4z"/>
<path fill="#FFFFFF" d="M550.3,52.5c-0.2,1.7,0.8,2.8,1.6,4c0.2,0.4,0.4,0.8,0.4,1.3c0,0.4-0.3,1-0.8,0.9c-0.4-0.1-1-0.3-1.2-0.6
	c-0.4-0.8-0.7-1.6-0.9-2.5c-0.2-0.8-0.8-1.2-1.3-1.7c-0.1-0.1-0.3,0-0.5,0.1c-1.8,0.5-3.6,1-5.5,0.8c-1.4-0.1-2.8-0.4-4.1-0.6
	c-1-0.2-1.7,0-2.1,0.9c-0.3,0.8-0.6,1.6-0.9,2.4c-0.2,0.4-0.5,0.9-0.8,1.2c-0.3,0.4-0.9,0.3-1.2-0.1c-0.2-0.3-0.3-0.7-0.4-1.1
	c0-0.3,0.2-0.6,0.4-0.9c0.8-1.2,1.7-2.3,1.6-4c-1.6-1-3.1-2.2-4.2-3.8c-0.8-1.2-1.5-2.6-2.2-3.9c-0.2-0.3-0.2-0.8-0.4-0.8
	c-0.6-0.1-1.2-0.2-1.7-0.1c-0.8,0.2-1.6,0.6-2.4,0.8c-0.4,0.1-1,0.2-1.4,0.1c-0.3-0.1-0.6-0.6-0.6-0.9c0-0.3,0.3-0.8,0.6-1
	c0.4-0.2,0.8-0.3,1.3-0.3c0.8-0.1,1.7-0.2,2.5-0.3c1-0.2,1.4-1,1.3-1.9c-0.1-1.1,0-2.3,0.1-3.4c0.3-2.3,1.1-4.4,2.3-6.2
	c-0.5-1.7-2-2.2-3.2-3c-0.3-0.2-0.7-0.6-0.8-1c-0.2-0.4-0.1-1,0.4-1.2c0.4-0.1,1-0.1,1.3,0.1c0.6,0.4,1.1,1,1.6,1.5
	c0.6,0.6,1.2,1.2,2.1,1.2c0.2,0,0.5,0,0.6-0.2c2-2.1,4.6-3.4,7.4-4.1c0.3-0.1,0.7-0.1,1-0.2c0.4-0.1,1-0.1,1.2-0.4
	c0.4-0.7,0.7-1.4,0.5-2.3c-0.2-0.7-0.2-1.4-0.3-2.1c-0.1-0.8,0.5-1.6,1.1-1.5c0.6,0,1.1,0.7,1.1,1.5c0,0.7-0.1,1.3-0.2,2
	c-0.4,1.9,0.2,2.7,2,3c2.9,0.5,5.4,1.9,7.6,3.8c0.7,0.6,1.6,0.7,2.3,0c0.7-0.6,1.3-1.3,2-1.9c0.2-0.2,0.4-0.4,0.6-0.5
	c0.6-0.2,1.2-0.3,1.6,0.3c0.3,0.5,0.2,1.1-0.3,1.4c-0.8,0.6-1.6,1-2.4,1.6c-0.5,0.4-0.9,1-1.3,1.5c-0.1,0.1,0,0.4,0.1,0.6
	c1.2,1.7,1.8,3.7,2.2,5.7c0.2,1.2,0.1,2.5,0.1,3.7c0,0.8,0.2,1.3,1.1,1.6c0.9,0.2,1.8,0.3,2.8,0.5c0.4,0.1,0.9,0.1,1.2,0.3
	c0.3,0.2,0.6,0.8,0.5,1.1c-0.1,0.4-0.7,0.8-1,0.8c-0.7,0-1.3-0.3-2-0.5c-1-0.3-1.9-0.8-2.9-0.4c-0.2,0.1-0.4,0.2-0.5,0.4
	C555.7,47.9,553.5,50.6,550.3,52.5z M554.1,43.4c-1-0.2-1.9-0.3-2.8-0.5c-1.3-0.2-2.6-0.4-3.8-0.5c-0.7-0.1-1.1,0.4-1,1
	c0,0.3,0.2,0.7,0.3,1c0.7,1.8,1.5,3.6,2.2,5.4C551.5,48.3,553.1,46.2,554.1,43.4z M529.9,40.5c0.2,0,0.3,0,0.4,0
	c1.8-0.5,3.6-1.1,5.4-1.6c0.4-0.1,0.9-0.4,1-0.7c0.2-0.5,0-1.1-0.5-1.5c-0.7-0.6-1.4-1.2-2-1.8c-0.8-0.7-1.7-1.5-2.5-2.2
	C530.3,34.7,529.6,37.8,529.9,40.5z M533.5,30.4c1.8,1.3,3.4,2.5,5.2,3.6c0.3,0.2,0.9,0.2,1.3,0.1c0.5-0.1,0.5-0.5,0.6-0.9
	c0.1-2.1,0.3-4.1,0.4-6.3C538,27.2,535.5,28.3,533.5,30.4z M553,32.7c-0.1,0.1-0.2,0.1-0.3,0.1c-1.5,1.4-3.1,2.7-4.6,4.1
	c-0.6,0.5-0.3,1.7,0.4,1.9c2,0.6,4.1,1.2,6.3,1.8C555.1,37.7,554.4,35.2,553,32.7z M546.4,51c-1.1-2-2.1-3.9-3.2-5.7
	c-0.4-0.7-1.4-0.6-1.9,0.2c-0.5,0.9-1,1.8-1.5,2.6c-0.5,1-1.1,1.9-1.6,2.9C541.1,52,543.4,52,546.4,51z M530.6,43.5
	c0.8,2.5,2.7,4.8,5.1,6.3c0.8-2,1.7-4,2.5-6c0.3-0.6-0.2-1.4-0.9-1.4c-0.4,0-0.8,0-1.1,0.1c-1.1,0.2-2.2,0.3-3.4,0.5
	C532,43.1,531.3,43.3,530.6,43.5z M543.7,26.8c0.2,2.2,0.3,4.3,0.4,6.3c0.1,0.9,0.9,1.4,1.7,0.9c1.8-1.2,3.5-2.4,5.3-3.7
	C549,28.4,546.7,27.2,543.7,26.8z M542.4,37.1c-0.4,0.1-1,0.1-1.2,0.4c-0.4,0.4-0.9,1-0.9,1.5c-0.1,1.4,1,2.6,2.1,2.6
	c1.2,0,2.2-1.2,2.2-2.6C544.5,38.2,543.3,37.2,542.4,37.1z"/>
<g>
	<path fill="#ABBBC5" d="M268,315.9V314h-66v1.6c-1,2.8-3,4.9-5.6,4.9c0,0-0.4,0-0.4,0v3.5h10.4h57.1h9.5v-3.5
		C272,320.5,268.9,318.5,268,315.9z"/>
	<path fill="#ABBBC5" d="M273.5,320.5L273.5,320.5C273.5,320.5,273.5,320.5,273.5,320.5C273.6,320.5,273.5,320.5,273.5,320.5z"/>
</g>
<path opacity="0.11" fill="#ABBBC5" d="M205.3,314.1h-4.5c-2.8,0-5-2.2-5-5V185.2c0-2.8,2.2-5,5-5h4.5V314.1z"/>
<rect x="195.5" y="198" fill="#002441" width="36.1" height="6"/>
<rect x="195.6" y="215.6" fill="#002441" width="36.1" height="6"/>
<rect x="195.5" y="233.4" fill="#002441" width="36.1" height="6"/>
<rect x="195.6" y="251" fill="#002441" width="36.1" height="6"/>
<path opacity="0.41" fill="#ABBBC5" d="M270.2,313.9h-69.9c-2.7,0-4.8-2.2-4.8-4.8V304h79.6v5.1
	C275.1,311.8,272.9,313.9,270.2,313.9z"/>
<g opacity="0.16">
	<path fill="#002441" d="M268,315.9V314h-66v1.6c-1,2.8-3.2,5.1-6,4.9c0,0,0,0,0,0l77,0.1C271.6,320.1,268.9,318.5,268,315.9z"/>
	<path fill="#002441" d="M273.5,320.5L273.5,320.5C273.5,320.5,273.5,320.5,273.5,320.5C273.6,320.5,273.5,320.5,273.5,320.5z"/>
</g>
<path opacity="0.11" fill="#ABBBC5" d="M154.4,192c-3.2,0-5.4,3-5.4,6.2v112.9c0,3.2,2.2,5.9,5.4,5.9h3.6V192H154.4z"/>
<g opacity="0.44">
	<path fill="#114263" d="M226,131h-6.4c0-3,0-4.7,0-5.8c0-1.1,0-2.3,0-5.9c0-0.3,0-0.7,0-1c0.5-8.5,7.3-15.2,15.6-15.2
		c8.4,0,15.3,6.8,15.6,15.5c0,0.2,0,0.4,0,0.6c0,3.3,0.1,4.3,0.1,5.2c0.1,1.1,0.1,1.9,0,5.6l-6.4-0.1c0.1-3.4,0-4.1,0-5.1
		c-0.1-0.9-0.1-2.1-0.1-5.5c0-0.1,0-0.3,0-0.4c-0.2-5.2-4.2-9.3-9.2-9.3c-4.8,0-8.9,4-9.2,9.1c0,0.2,0,0.4,0,0.6c0,3.6,0,4.8,0,5.9
		C226.1,126.3,226,128,226,131z"/>
</g>
<path fill="#ABBBC5" d="M235.3,158L235.3,158c-10.5,0-19-8.5-19-19v-16.3h38V139C254.3,149.5,245.8,158,235.3,158z"/>
<path opacity="0.4" fill="#FFFFFF" d="M239.2,135.9c0-2.2-1.8-4-4-4c-2.2,0-4.3,1.8-4.3,4c0,1.6,2.1,3,2.1,3.6v5.5h4v-5.6
	C238,138.8,239.2,137.4,239.2,135.9z"/>
<path opacity="0.11" fill="#ABBBC5" d="M218.9,148.5c-1.6-2.8-2.5-6-2.5-9.5v-16.3h33.4L218.9,148.5z"/>
<g>
	<path fill="#114263" d="M362.6,157.9c1.1,0,2.2,0.1,3.3,0.3c0.2-15.4,12.7-27.8,28.1-27.8c15.5,0,28.1,12.6,28.1,28.1
		c0,0.1,0,0.2,0,0.2c8.5,2.5,14.8,10.4,14.8,19.7c0,11.4-9.2,20.5-20.6,20.5c-0.7,0-53,0-53.7,0c-11.4,0-20.6-9.2-20.6-20.6
		C341.9,167.1,351.2,157.9,362.6,157.9z"/>
	<g>
		<path opacity="0.78" fill="#BFDAE8" d="M409.3,168.6c-1.7-3.5-1.2-6.6,1-9.6c2,1.2,3.6,2.8,4.3,5.1c0.2,0.7,0.4,0.9,1.1,0.8
			c2.1-0.2,4.3-0.1,6,1.4c-0.6,2.7-3.2,4.8-6.2,5c-0.3,0-0.5,0-0.8,0c-0.8-0.1-1.2,0.2-1.5,0.9c-1.4,3.2-3.4,6.1-5.9,8.5
			c-4,3.8-8.9,6-14.4,6.9c-4.1,0.7-8.2,0.9-12.2-0.2c-6.1-1.5-10.5-6.6-11.3-12.8c-0.2-1.3-0.1-2.7-0.2-4c-0.1-0.9,0.3-1.2,1.2-1.2
			c11.7,0,23.4,0,35,0C406.8,169.5,408.1,169.2,409.3,168.6z"/>
	</g>
	<path opacity="0.78" fill="#BFDAE8" d="M377.4,168h-3.8c-0.4,0-0.7-0.3-0.7-0.7v-3.4c0-0.4,0.3-0.7,0.7-0.7h3.8
		c0.4,0,0.7,0.3,0.7,0.7v3.4C378.1,167.7,377.8,168,377.4,168z"/>
	<path opacity="0.78" fill="#BFDAE8" d="M383.8,168H380c-0.4,0-0.7-0.3-0.7-0.7v-3.4c0-0.4,0.3-0.7,0.7-0.7h3.8
		c0.4,0,0.7,0.3,0.7,0.7v3.4C384.5,167.7,384.1,168,383.8,168z"/>
	<path opacity="0.78" fill="#BFDAE8" d="M390.3,168h-3.8c-0.4,0-0.7-0.3-0.7-0.7v-3.4c0-0.4,0.3-0.7,0.7-0.7h3.8
		c0.4,0,0.7,0.3,0.7,0.7v3.4C391,167.7,390.6,168,390.3,168z"/>
	<path opacity="0.78" fill="#BFDAE8" d="M396.7,168h-3.8c-0.4,0-0.7-0.3-0.7-0.7v-3.4c0-0.4,0.3-0.7,0.7-0.7h3.8
		c0.4,0,0.7,0.3,0.7,0.7v3.4C397.4,167.7,397.1,168,396.7,168z"/>
	<path opacity="0.78" fill="#BFDAE8" d="M403.1,168h-3.8c-0.4,0-0.7-0.3-0.7-0.7v-3.4c0-0.4,0.3-0.7,0.7-0.7h3.8
		c0.4,0,0.7,0.3,0.7,0.7v3.4C403.8,167.7,403.5,168,403.1,168z"/>
	<path opacity="0.78" fill="#BFDAE8" d="M383.8,162.1H380c-0.4,0-0.7-0.3-0.7-0.7v-3.4c0-0.4,0.3-0.7,0.7-0.7h3.8
		c0.4,0,0.7,0.3,0.7,0.7v3.4C384.5,161.8,384.1,162.1,383.8,162.1z"/>
	<path opacity="0.78" fill="#BFDAE8" d="M390.3,162.1h-3.8c-0.4,0-0.7-0.3-0.7-0.7v-3.4c0-0.4,0.3-0.7,0.7-0.7h3.8
		c0.4,0,0.7,0.3,0.7,0.7v3.4C391,161.8,390.6,162.1,390.3,162.1z"/>
	<path opacity="0.78" fill="#BFDAE8" d="M396.7,162.1h-3.8c-0.4,0-0.7-0.3-0.7-0.7v-3.4c0-0.4,0.3-0.7,0.7-0.7h3.8
		c0.4,0,0.7,0.3,0.7,0.7v3.4C397.4,161.8,397.1,162.1,396.7,162.1z"/>
	<path opacity="0.78" fill="#BFDAE8" d="M396.7,156.1h-3.8c-0.4,0-0.7-0.3-0.7-0.7v-3.4c0-0.4,0.3-0.7,0.7-0.7h3.8
		c0.4,0,0.7,0.3,0.7,0.7v3.4C397.4,155.8,397.1,156.1,396.7,156.1z"/>
</g>
<path fill="#B2491B" d="M551.2,145.6c-3.6-4-9.9-3.7-10.2-4.2c-0.4-0.6,4.5-2.5,4.1-3.1c-2.1-3-4.9-5.7-9-8
	c-12.6-7.1-24.2-3.9-29.9-0.6c-5.6,3.3-6.2,6.6-6.2,6.6s-11.2-3-17.2,8.4c1.9-0.6,5.4-0.5,7.1-0.1c9.7,2.3,13,7.2,17,15
	c0.4-1.8,0.7-2.9,0.7-2.9c2.2-6,2.6,3.4,12.1,7.4c11.7,4.9,22.6,2.5,26.3,0.7C554.9,160.2,557.7,152.7,551.2,145.6z"/>
</svg>
