<?xml version="1.0" encoding="utf-8"?>
<!-- Generator: Adobe Illustrator 18.0.0, SVG Export Plug-In . SVG Version: 6.00 Build 0)  -->
<!DOCTYPE svg PUBLIC "-//W3C//DTD SVG 1.0//EN" "http://www.w3.org/TR/2001/REC-SVG-20010904/DTD/svg10.dtd">
<svg version="1.0" id="Layer_1" xmlns="http://www.w3.org/2000/svg" xmlns:xlink="http://www.w3.org/1999/xlink" x="0px" y="0px"
	 viewBox="0 0 141.3 125.2" enable-background="new 0 0 141.3 125.2" xml:space="preserve">
<g>
	<path fill="#FFFFFF" d="M19.2,122c0,0-0.1,3.2,3,3.2c3.9,0,35.6,0,35.6,0L57.8,96c0,0-0.5-4.8,4.2-4.8h14.8c5.5,0,5.2,4.8,5.2,4.8
		l-0.1,29.1h34.9c3.9,0,3.8-3.9,3.8-3.9V67.3L71.4,23.6L19.2,67.3V122z M19.2,122"/>
	<path fill="#FFFFFF" d="M0,63.3c0,0,4.4,8.2,14.1,0l57.7-48.8L126,63c11.2,8.1,15.4,0,15.4,0L71.8,0L0,63.3z M0,63.3"/>
	<path fill="#FFFFFF" d="M124.6,14.3h-13.9l0,16.9L124.6,43V14.3z M124.6,14.3"/>
</g>
</svg>
