<?xml version="1.0" encoding="utf-8"?>
<!-- Generator: Adobe Illustrator 18.0.0, SVG Export Plug-In . SVG Version: 6.00 Build 0)  -->
<!DOCTYPE svg PUBLIC "-//W3C//DTD SVG 1.1//EN" "http://www.w3.org/Graphics/SVG/1.1/DTD/svg11.dtd">
<svg version="1.1" id="Layer_1" xmlns="http://www.w3.org/2000/svg" xmlns:xlink="http://www.w3.org/1999/xlink" x="0px" y="0px"
	 viewBox="0 0 102 30" enable-background="new 0 0 102 30" xml:space="preserve">
<rect x="0.5" y="0.5" fill="#D5D5D5" stroke="#898989" stroke-miterlimit="10" width="101" height="29"/>
<rect x="0.5" y="0.5" fill="#FFFFFF" stroke="#898989" stroke-miterlimit="10" width="26.7" height="28.9"/>
<g enable-background="new    ">
	<path fill="#898989" d="M34.9,19.4v-4.5h-3.8v4.5h-0.9V9.6h0.9v4.5h3.8V9.6h0.9v9.8H34.9z"/>
	<path fill="#898989" d="M38.9,22.2h-0.8l1.2-3.4L37,12.4h0.8l1.8,5.3l0,0.4l0-0.4l1.8-5.3h0.8L38.9,22.2z"/>
	<path fill="#898989" d="M48.1,17.6c0,0.3-0.1,0.5-0.2,0.8c-0.1,0.2-0.3,0.4-0.5,0.6s-0.4,0.3-0.7,0.4c-0.3,0.1-0.5,0.1-0.8,0.1
		h-0.6c-0.3,0-0.6-0.1-0.8-0.2c-0.3-0.1-0.5-0.3-0.7-0.4s-0.3-0.4-0.5-0.7s-0.2-0.5-0.2-0.8v-0.3l0.8-0.1v0.5c0,0.2,0,0.3,0.1,0.5
		c0.1,0.1,0.2,0.3,0.3,0.4s0.3,0.2,0.4,0.3s0.3,0.1,0.5,0.1h0.6c0.2,0,0.3,0,0.5-0.1s0.3-0.1,0.4-0.2c0.1-0.1,0.2-0.2,0.3-0.3
		s0.1-0.3,0.1-0.5c0-0.3-0.1-0.5-0.2-0.6s-0.3-0.3-0.4-0.4c-0.2-0.1-0.4-0.2-0.6-0.3c-0.2-0.1-0.5-0.1-0.7-0.2
		c-0.2-0.1-0.5-0.2-0.7-0.2s-0.4-0.2-0.6-0.4c-0.2-0.1-0.3-0.3-0.4-0.6c-0.1-0.2-0.2-0.5-0.2-0.8c0-0.3,0.1-0.5,0.2-0.8
		c0.1-0.2,0.3-0.4,0.4-0.6s0.4-0.3,0.7-0.4c0.2-0.1,0.5-0.1,0.8-0.1h0.5c0.3,0,0.5,0.1,0.8,0.2c0.3,0.1,0.5,0.3,0.7,0.4
		s0.3,0.4,0.4,0.7s0.2,0.5,0.2,0.8v0l-0.8,0.1v-0.2c0-0.2,0-0.3-0.1-0.5c-0.1-0.1-0.2-0.3-0.3-0.4s-0.2-0.2-0.4-0.3
		s-0.3-0.1-0.5-0.1h-0.5c-0.2,0-0.3,0-0.5,0.1s-0.3,0.1-0.4,0.2c-0.1,0.1-0.2,0.2-0.3,0.3s-0.1,0.3-0.1,0.5c0,0.2,0.1,0.4,0.2,0.6
		c0.1,0.2,0.3,0.3,0.4,0.4s0.4,0.2,0.6,0.3c0.2,0.1,0.5,0.1,0.7,0.2c0.2,0.1,0.5,0.2,0.7,0.3s0.4,0.2,0.6,0.4s0.3,0.3,0.4,0.6
		C48,17,48.1,17.3,48.1,17.6z"/>
	<path fill="#898989" d="M52.2,19.4c-0.3,0-0.5,0-0.7-0.1s-0.4-0.2-0.6-0.4s-0.3-0.4-0.4-0.6s-0.1-0.5-0.1-0.7v-4.4h-1.3v-0.8h1.3
		v-1.7l0.8-0.1v1.8H53v0.8h-1.8v4.4c0,0.1,0,0.3,0.1,0.4c0.1,0.1,0.1,0.2,0.2,0.3c0.1,0.1,0.2,0.2,0.3,0.2c0.1,0.1,0.3,0.1,0.4,0.1
		H53v0.8H52.2z"/>
	<path fill="#898989" d="M56.6,13.2c-0.2,0-0.3,0-0.5,0.1c-0.1,0.1-0.3,0.2-0.4,0.3s-0.2,0.2-0.3,0.4c-0.1,0.1-0.1,0.3-0.1,0.5v5
		h-0.8v-7h0.3l0.5,0.7c0.2-0.3,0.4-0.5,0.7-0.6c0.3-0.2,0.6-0.2,0.9-0.2h0.5v0.9H56.6z"/>
	<path fill="#898989" d="M58.8,10.7V9.6h1v1.1H58.8z M58.8,19.4v-7h0.8v7H58.8z"/>
	<path fill="#898989" d="M65.3,19.4l-1.5-2.7l-1.5,2.7h-0.9l2-3.5l-2-3.5h0.9l1.5,2.7l1.5-2.7h0.9l-2,3.5l2,3.5H65.3z"/>
</g>
<g>
	<path d="M14.8,22c-0.1,0.2-0.2,0.4-0.3,0.1c-0.2-0.3-0.3-0.6-0.3-0.9c0-0.4-0.2-0.4-0.5-0.4s-0.6,0-0.5,0.4c0,0.4-0.1,0.8-0.5,1
		c-0.1-0.1-0.1-0.2-0.2-0.3c-0.2,0.4-0.2,0.4-0.5,0.1c0,0,0-0.1-0.1-0.1c-0.6-0.1-0.6-0.1-0.6-0.7c0-0.4-0.1-0.5-0.5-0.6
		c-2.6-0.5-4.5-2.9-4.3-5.6s2.3-4.9,5-5c1.4-0.1,2.8-0.1,4.2,0c2.7,0.1,4.8,2.3,5,4.9c0.2,2.7-1.7,5.1-4.3,5.7
		c-0.4,0.1-0.6,0.2-0.5,0.6c0,0.2-0.1,0.5-0.2,0.7c0,0.1-0.2,0-0.3,0.1h-0.1C15,22.4,15,22.4,14.8,22z M10.1,13.3L10.1,13.3
		L10.1,13.3l0.1,0.1c0.1,0.1,0.1,0.3,0.2,0.4l0.1-0.1c-0.1-0.1-0.2-0.2-0.3-0.3C10.2,13.4,10.1,13.3,10.1,13.3z M17.5,13.4l-0.1,0.1
		c-0.2,0.1-0.3,0.3-0.5,0.4L17,14c0.1-0.2,0.2-0.3,0.3-0.5C17.4,13.5,17.5,13.4,17.5,13.4S17.6,13.4,17.5,13.4
		C17.6,13.4,17.5,13.4,17.5,13.4z M17.1,19.7L17.1,19.7L17.1,19.7L17,19.6c0-0.1-0.1-0.2-0.1-0.3c0,0-0.1,0-0.1,0.1
		c0.1,0.1,0.1,0.1,0.2,0.2C17,19.6,17,19.7,17.1,19.7z M9.3,13.9L9.3,13.9L9.3,13.9L9.4,14c0.1,0.1,0.2,0.2,0.3,0.4l0.1-0.1
		c-0.1-0.1-0.3-0.2-0.4-0.3C9.4,14,9.4,14,9.3,13.9z M9.4,19l0.1-0.1c0.1,0,0.2-0.1,0.3-0.1c0-0.1-0.1-0.1-0.1-0.2
		c-0.1,0.1-0.1,0.2-0.2,0.3C9.5,18.9,9.5,19,9.4,19L9.4,19L9.4,19z M9,18.1c0.1,0,0.2-0.1,0.2-0.1h0.1v-0.1c0,0-0.1,0-0.1,0.1
		C9.1,18,9.1,18.1,9,18.1L9,18.1C8.9,18.1,8.9,18.2,9,18.1C8.9,18.1,9,18.1,9,18.1z M18.4,14.5c-0.1,0-0.2,0.1-0.2,0.1
		c-0.1,0.1-0.3,0.1-0.4,0.2c0,0,0,0.1,0.1,0.1c0.1-0.1,0.2-0.2,0.3-0.3C18.3,14.6,18.4,14.6,18.4,14.5
		C18.4,14.5,18.5,14.5,18.4,14.5C18.5,14.5,18.4,14.5,18.4,14.5z M16.4,19.9L16.4,19.9c0-0.1-0.1-0.1-0.1-0.2c0,0,0-0.1-0.1-0.1l0,0
		c0,0,0,0.1,0.1,0.1C16.3,19.8,16.4,19.8,16.4,19.9z M11.2,19.9C11.3,19.9,11.3,19.9,11.2,19.9C11.3,19.8,11.3,19.8,11.2,19.9
		C11.2,19.8,11.2,19.9,11.2,19.9S11.2,20,11.2,19.9C11.2,20,11.2,19.9,11.2,19.9z M16.1,20L16.1,20c0,0,0-0.1,0-0.2c0,0,0,0-0.1,0
		C16,19.9,16,20,16.1,20z M16.7,19.8L16.7,19.8L16.7,19.8c-0.1-0.1-0.1-0.2-0.2-0.3c0,0,0,0-0.1,0c0,0,0,0,0,0.1
		C16.6,19.6,16.7,19.7,16.7,19.8z M10.4,19.4c-0.1,0.1-0.2,0.2-0.2,0.3l0,0l0,0C10.3,19.6,10.4,19.5,10.4,19.4
		C10.5,19.3,10.5,19.3,10.4,19.4C10.5,19.3,10.5,19.3,10.4,19.4C10.5,19.3,10.4,19.3,10.4,19.4z M18.8,15.9c-0.1,0-0.3,0-0.4,0V16
		C18.5,15.9,18.6,15.9,18.8,15.9L18.8,15.9z M18.3,18.1C18.3,18.1,18.4,18.1,18.3,18.1C18.4,18.1,18.3,18.1,18.3,18.1
		C18.2,18,18.1,18,18,17.9V18C18.1,18,18.2,18.1,18.3,18.1z M9,15C9,14.9,8.9,14.9,9,15C8.9,14.9,8.9,14.9,9,15C8.9,15,8.9,15,9,15
		c0.1,0.1,0.2,0.1,0.3,0.2c0,0,0-0.1,0.1-0.1C9.2,15,9.1,15,9,15z M9.4,18.2c-0.2,0.1-0.3,0.2-0.5,0.2l0,0l0,0
		C9.1,18.4,9.3,18.3,9.4,18.2C9.5,18.2,9.5,18.2,9.4,18.2C9.5,18.2,9.4,18.2,9.4,18.2z M9.3,14.4c0-0.1-0.1-0.1-0.1-0.2l-0.1,0.1
		C9.2,14.3,9.3,14.4,9.3,14.4c0.1,0.1,0.2,0.2,0.2,0.3c-0.2-0.1-0.4-0.1-0.5-0.2c0.2,0.1,0.3,0.5,0.5,0.2
		C9.7,14.5,9.5,14.4,9.3,14.4z M18,18.7L18,18.7L18,18.7c-0.1-0.1-0.2-0.4-0.5-0.1c-0.2,0.4,0.2,0.3,0.3,0.4l0,0l0,0
		c-0.1-0.2-0.2-0.3-0.3-0.5C17.7,18.6,17.8,18.6,18,18.7z M10.6,19.8c0.1-0.1,0.2-0.2,0.2-0.3h-0.1C10.7,19.5,10.6,19.7,10.6,19.8
		L10.6,19.8C10.5,19.8,10.6,19.8,10.6,19.8z M18.2,18.5L18.2,18.5L18.2,18.5c-0.1-0.1-0.2-0.2-0.3-0.3c0,0,0,0.1-0.1,0.1
		C17.9,18.3,18.1,18.4,18.2,18.5z M17.3,19.5L17.3,19.5L17.3,19.5c-0.1-0.1-0.2-0.3-0.2-0.4c0,0-0.1,0-0.1,0.1
		C17.1,19.3,17.2,19.4,17.3,19.5z M9.3,18.7c0.1-0.1,0.2-0.1,0.3-0.2c0,0,0-0.1-0.1-0.1C9.5,18.5,9.4,18.6,9.3,18.7L9.3,18.7
		L9.3,18.7z M18.6,15.5c-0.2,0-0.3,0.1-0.5,0.1v0.1C18.4,15.7,18.5,15.6,18.6,15.5L18.6,15.5z M9.7,19.2c0.1-0.1,0.3-0.2,0.4-0.3
		L10,18.8C9.9,19,9.8,19.1,9.7,19.2C9.6,19.2,9.6,19.2,9.7,19.2C9.6,19.2,9.6,19.2,9.7,19.2z M11.4,12.7L11.4,12.7
		C11.4,12.7,11.4,12.6,11.4,12.7L11.4,12.7c0,0.2,0.1,0.4,0.1,0.6h0.1C11.6,13.1,11.5,12.9,11.4,12.7z M18.7,15.2
		c-0.2,0-0.4,0.1-0.6,0.1v0.1C18.3,15.4,18.5,15.3,18.7,15.2L18.7,15.2L18.7,15.2z M16.2,12.9c-0.1,0.2-0.2,0.3-0.3,0.5
		c0,0,0.1,0,0.2,0.1C16.1,13.2,16.1,13,16.2,12.9C16.2,12.8,16.2,12.8,16.2,12.9C16.2,12.8,16.2,12.8,16.2,12.9
		C16.2,12.8,16.2,12.8,16.2,12.9z M18.1,14.3c-0.2,0.1-0.4,0.2-0.6,0.2c0.2-0.2,0.3-0.4,0.5-0.6l0,0l0,0c-0.2,0.1-0.6,0.1-0.4,0.6
		C17.9,14.8,17.9,14.5,18.1,14.3C18.1,14.3,18.1,14.2,18.1,14.3C18.1,14.2,18.1,14.3,18.1,14.3z M18.5,14.9
		c-0.2,0.1-0.4,0.1-0.6,0.2c0,0,0,0.1,0.1,0.1C18.2,15.1,18.4,15,18.5,14.9L18.5,14.9L18.5,14.9z M16.5,13c-0.1,0.2-0.2,0.3-0.4,0.5
		c0,0,0.1,0,0.1,0.1C16.4,13.3,16.5,13.1,16.5,13S16.5,12.9,16.5,13C16.6,12.9,16.6,12.9,16.5,13C16.6,12.9,16.5,12.9,16.5,13z
		 M10.8,12.9L10.8,12.9L10.8,12.9c0.1,0.2,0.1,0.4,0.2,0.6c0,0,0.1,0,0.2-0.1C11,13.3,10.9,13.1,10.8,12.9z M11.1,12.8L11.1,12.8
		L11.1,12.8c0,0.2,0.1,0.4,0.1,0.6h0.1C11.3,13.2,11.2,13,11.1,12.8z M9.5,13.7L9.5,13.7L9.5,13.7c0.2,0.2,0.3,0.3,0.5,0.5l0.1-0.1
		C9.9,14,9.7,13.9,9.5,13.7z M15.8,12.6c-0.1,0.2-0.2,0.4-0.2,0.6c0,0,0.1,0,0.2,0C15.8,13.1,15.8,12.8,15.8,12.6L15.8,12.6
		L15.8,12.6z M17.2,13.2c-0.2,0.2-0.4,0.4-0.6,0.6c0.1-0.2,0.2-0.5,0.2-0.7l0,0c-0.1,0.2-0.3,0.3-0.4,0.5c0,0,0.1,0.1,0.1,0.2
		C17.1,13.8,17,13.4,17.2,13.2L17.2,13.2L17.2,13.2z M13.6,19.9L13.6,19.9c0.3,0,0.6,0,0.9,0c1.2,0,2-0.6,2.5-1.6
		c0.4-1,0.2-2-0.5-2.9c-0.2-0.2-0.3-0.3-0.2-0.6c0.1-0.1-0.1-0.5-0.2-0.5c-0.2-0.1-0.5,0-0.6,0.1c-0.2,0.2-0.3,0.2-0.6,0.2
		c-0.8,0-1.5,0-2.3,0c-0.3,0-0.5,0-0.7-0.2c-0.1-0.1-0.4-0.2-0.6-0.1c-0.1,0.1-0.3,0.4-0.2,0.5c0.1,0.3,0,0.5-0.2,0.7
		c-1.4,1.5-0.6,4,1.4,4.4C12.7,19.9,13.1,19.9,13.6,19.9z M14.2,13.2C14.2,13.2,14.3,13.2,14.2,13.2c0.1-0.2,0.1-0.4,0.1-0.6h-0.1
		C14.2,12.8,14.2,13,14.2,13.2z M15,13.2h0.1c0-0.2,0-0.4,0.1-0.6h-0.1C15,12.8,15,13,15,13.2z M12.5,13.2h0.1c0-0.2,0-0.3,0-0.5
		h-0.1C12.5,12.8,12.5,13,12.5,13.2z M12.2,12.6h-0.1c0,0.2,0,0.4,0.1,0.6c0.1,0,0.1,0,0.2,0C12.3,13,12.3,12.8,12.2,12.6z
		 M10.7,13.7c0,0,0.1,0,0.1-0.1c-0.1-0.2-0.2-0.3-0.3-0.5c0,0-0.1,0-0.1,0.1C10.5,13.3,10.6,13.5,10.7,13.7z M17.2,14.1
		C17.2,14.2,17.3,14.2,17.2,14.1c0.2-0.1,0.3-0.3,0.5-0.4c0,0,0,0-0.1-0.1C17.5,13.8,17.4,14,17.2,14.1z M15.5,12.7h-0.1
		c0,0.2-0.1,0.3-0.1,0.5h0.1C15.5,13,15.5,12.9,15.5,12.7z M10.2,13.9c0-0.1-0.1-0.3-0.2-0.4l-0.1,0.1C10,13.7,10.1,13.9,10.2,13.9z
		 M13.9,12.6C13.9,12.6,13.8,12.6,13.9,12.6c-0.1,0.2-0.1,0.4-0.1,0.6c0,0,0,0,0.1,0C13.9,12.9,13.9,12.8,13.9,12.6z M13,13.1h0.1
		c0-0.2,0-0.4-0.1-0.6c0,0,0,0-0.1,0C13,12.8,13,13,13,13.1z M18.6,16.6C18.6,16.5,18.6,16.5,18.6,16.6c-0.1-0.1-0.2-0.1-0.3-0.1
		c0,0,0,0,0,0.1C18.4,16.6,18.5,16.6,18.6,16.6z M18.4,17.9C18.5,17.9,18.5,17.8,18.4,17.9c-0.1-0.1-0.2-0.2-0.4-0.2c0,0,0,0,0,0.1
		C18.2,17.8,18.3,17.8,18.4,17.9z M11.9,12.7C11.8,12.7,11.8,12.7,11.9,12.7c-0.1,0.2,0,0.3,0,0.5H12C12,13,11.9,12.9,11.9,12.7z
		 M18.3,16.2C18.3,16.3,18.3,16.3,18.3,16.2c0.2,0,0.3,0,0.4,0c0,0,0,0,0-0.1C18.6,16.2,18.4,16.2,18.3,16.2z M13.5,12.6
		C13.4,12.6,13.4,12.6,13.5,12.6c-0.1,0.2-0.1,0.4-0.1,0.6h0.1C13.5,12.9,13.5,12.8,13.5,12.6z M14.7,12.6L14.7,12.6
		c-0.1,0.2-0.1,0.4-0.1,0.6c0,0,0,0,0.1,0C14.7,13,14.7,12.8,14.7,12.6z M8.9,16.6C8.9,16.6,8.9,16.5,8.9,16.6
		c-0.1-0.1-0.2-0.1-0.3-0.1c0,0,0,0,0,0.1C8.8,16.6,8.9,16.6,8.9,16.6z M17.3,18.8l-0.1,0.1c0.1,0.1,0.2,0.2,0.3,0.3c0,0,0,0,0-0.1
		C17.5,19.1,17.4,18.9,17.3,18.8z M10.9,19.9L10.9,19.9c0.1-0.1,0.2-0.2,0.2-0.3c0,0,0,0-0.1,0C11,19.6,10.9,19.8,10.9,19.9z
		 M9.2,17.7L9.2,17.7c-0.1,0-0.3,0-0.4,0.1v0.1C9,17.8,9.1,17.8,9.2,17.7z M10.3,19.2C10.3,19.1,10.3,19.1,10.3,19.2
		c-0.2,0-0.3,0.1-0.3,0.2l0,0C10.1,19.3,10.2,19.3,10.3,19.2z M9.2,15.4L9.2,15.4c-0.1-0.1-0.2-0.2-0.4-0.2v0.1
		C8.9,15.3,9,15.4,9.2,15.4z M18.2,17.4L18.2,17.4c0.1,0.1,0.2,0.2,0.3,0.2c0,0,0,0,0-0.1C18.4,17.4,18.3,17.4,18.2,17.4z M9.1,15.7
		L9.1,15.7c-0.1-0.1-0.2-0.2-0.3-0.2c0,0,0,0,0,0.1C8.9,15.6,9,15.7,9.1,15.7z M9.1,17.4L9.1,17.4c-0.2,0-0.3,0-0.4,0c0,0,0,0,0,0.1
		C8.9,17.5,9,17.5,9.1,17.4z M18.6,17.2L18.6,17.2c-0.1-0.1-0.2-0.1-0.3-0.1c0,0,0,0,0,0.1C18.4,17.2,18.5,17.2,18.6,17.2z
		 M8.7,15.9L8.7,15.9c0.1,0,0.2,0,0.3,0l0,0C8.9,15.9,8.8,15.9,8.7,15.9z M8.7,17.1C8.7,17.2,8.7,17.2,8.7,17.1c0.1,0,0.2,0,0.3,0
		c0,0,0,0,0-0.1C8.9,17.1,8.8,17.1,8.7,17.1z M18.6,16.9C18.6,16.9,18.6,16.8,18.6,16.9c-0.1-0.1-0.2-0.1-0.3-0.1l0,0
		C18.4,16.9,18.5,16.9,18.6,16.9z M9,16.9C9,16.8,9,16.8,9,16.9c-0.1,0-0.2,0-0.3,0c0,0,0,0,0,0.1C8.8,16.9,8.9,16.9,9,16.9z
		 M8.7,16.2C8.7,16.2,8.7,16.3,8.7,16.2c0.1,0.1,0.2,0.1,0.3,0.1l0,0C8.9,16.2,8.8,16.2,8.7,16.2z"/>
	<path d="M14,6.1c0,1.1,0.1,2.2,0.1,3.3c0,0.1-0.1,0.2-0.2,0.4c-0.1-0.1-0.2-0.3-0.2-0.4c0-1.1,0.1-2.2,0.1-3.3
		C14,6.1,14,6.1,14,6.1z"/>
	<path d="M14.8,6.3c0,1.1,0.1,2.1,0.1,3.2c0,0.1-0.1,0.1-0.2,0.2c-0.1-0.1-0.2-0.2-0.2-0.3c0-1,0.1-2.1,0.1-3.1
		C14.7,6.3,14.7,6.3,14.8,6.3z"/>
	<path d="M12.7,6.1c0,1.1,0.1,2.2,0.1,3.3c0,0.1-0.1,0.2-0.2,0.3c-0.1-0.1-0.2-0.2-0.2-0.3C12.5,8.3,12.5,7.2,12.7,6.1
		C12.6,6.1,12.6,6.1,12.7,6.1z"/>
	<path d="M13.4,6.2c0,1.1,0.1,2.1,0.1,3.2c0,0.1-0.1,0.2-0.2,0.3c-0.1-0.1-0.2-0.2-0.2-0.3c0-1.1,0.1-2.1,0.1-3.2
		C13.3,6.2,13.3,6.2,13.4,6.2z"/>
	<path d="M11.9,6.2c0.1,1.1,0.2,2.1,0.2,3.2c0,0.1-0.1,0.2-0.2,0.3c-0.1-0.1-0.2-0.2-0.2-0.3c0-1.1,0-2.2,0-3.2
		C11.8,6.2,11.9,6.2,11.9,6.2z"/>
	<path d="M15.5,6.2c0,1.1,0,2.1,0,3.2c0,0.1-0.1,0.2-0.2,0.3c0-0.1-0.1-0.2-0.1-0.3c0.1-1.1,0.2-2.1,0.2-3.2H15.5z"/>
	<path d="M16.3,6.2c-0.1,1.1-0.1,2.2-0.2,3.2c0,0.1-0.1,0.2-0.2,0.3c0-0.1-0.1-0.2-0.1-0.3C15.9,8.4,16,7.3,16.3,6.2
		C16.2,6.2,16.2,6.2,16.3,6.2z"/>
	<path d="M11.1,6.3c0.1,0.8,0.2,1.5,0.3,2.3c0,0.3,0.1,0.5,0.1,0.8c0,0.1-0.1,0.2-0.1,0.4c-0.1-0.1-0.2-0.2-0.2-0.3
		c-0.1-0.6-0.1-1.1-0.1-1.7C11.1,7.3,11.1,6.8,11.1,6.3L11.1,6.3z"/>
	<path d="M17.1,6.6c-0.1,1-0.3,1.9-0.4,2.9c0,0.1-0.2,0.2-0.2,0.4c0-0.1-0.1-0.3-0.1-0.4c0.2-1,0.4-1.9,0.6-2.9
		C17,6.5,17,6.5,17.1,6.6z"/>
	<path d="M10.3,6.5c0.2,1,0.4,2,0.7,3c0,0.1-0.1,0.2-0.1,0.3c-0.1-0.1-0.2-0.2-0.2-0.3C10.5,8.5,10.4,7.5,10.3,6.5L10.3,6.5z"/>
	<path d="M9.5,6.8c0.3,0.9,0.6,1.9,0.9,2.8c0,0.1-0.1,0.2-0.1,0.3c-0.1-0.1-0.2-0.2-0.2-0.3C9.9,8.7,9.7,7.7,9.5,6.8L9.5,6.8z"/>
	<path d="M17.8,6.8c-0.2,1-0.4,1.9-0.6,2.9c0,0.1-0.1,0.2-0.2,0.3c0-0.1-0.1-0.2-0.1-0.3C17.1,8.7,17.4,7.7,17.8,6.8L17.8,6.8z"/>
	<path d="M8.9,7.2C9.2,8.1,9.6,8.9,10,9.8c0,0.1-0.1,0.2-0.1,0.3C9.8,10,9.7,9.9,9.7,9.8C9.4,9,9.1,8.1,8.9,7.2L8.9,7.2z"/>
	<path d="M18.4,7.2c-0.3,0.9-0.5,1.8-0.8,2.6c0,0.1-0.2,0.2-0.2,0.2c0-0.1-0.1-0.2-0.1-0.3C17.7,8.9,18.1,8.1,18.4,7.2L18.4,7.2z"/>
	<path d="M19.1,7.5c-0.3,0.9-0.7,1.7-1,2.6c0,0.1-0.2,0.1-0.2,0.2c0-0.1-0.1-0.2-0.1-0.3C18.2,9.2,18.7,8.3,19.1,7.5L19.1,7.5z"/>
	<path d="M8.2,7.6C8.6,8.4,9.1,9.2,9.5,10c0,0.1,0,0.2-0.1,0.3c-0.1-0.1-0.2-0.1-0.2-0.2C8.9,9.2,8.5,8.4,8.2,7.6L8.2,7.6z"/>
	<path d="M7.6,8.1c0.5,0.7,1,1.4,1.4,2.1c0,0.1,0,0.2-0.1,0.3c-0.1,0-0.2-0.1-0.2-0.1C8.4,9.6,8,8.9,7.6,8.1L7.6,8.1z"/>
	<path d="M19.7,8.1c-0.4,0.8-0.7,1.5-1.1,2.2c0,0.1-0.2,0.1-0.2,0.2c0-0.1-0.1-0.2-0.1-0.3C18.7,9.5,19.2,8.8,19.7,8.1L19.7,8.1z"/>
	<path d="M21.4,9.5c-0.5,0.6-1.1,1.2-1.6,1.8c-0.1,0.1-0.2,0.1-0.3,0.1c0-0.1,0-0.3,0.1-0.4C20.2,10.5,20.8,10,21.4,9.5
		C21.4,9.4,21.4,9.5,21.4,9.5z"/>
	<path d="M20.9,8.9c-0.5,0.7-1,1.4-1.5,2.1c0,0.1-0.2,0.1-0.3,0.1c0-0.1,0-0.3,0.1-0.3C19.7,10.1,20.3,9.5,20.9,8.9L20.9,8.9z"/>
	<path d="M20.2,8.5c-0.4,0.7-0.8,1.4-1.2,2.1c0,0.1-0.2,0.1-0.3,0.1c0-0.1,0-0.3,0-0.3C19.2,9.8,19.7,9.2,20.2,8.5L20.2,8.5z"/>
	<path d="M6,9.5c0.6,0.5,1.2,1.1,1.8,1.6c0.1,0.1,0.1,0.2,0.1,0.3c-0.1,0-0.3,0-0.3-0.1C7,10.7,6.5,10.1,6,9.5C5.9,9.5,6,9.5,6,9.5z
		"/>
	<path d="M7.1,8.6c0.5,0.6,1,1.2,1.5,1.8c0.1,0.1,0,0.2,0.1,0.4c-0.1,0-0.2-0.1-0.3-0.2C7.9,9.9,7.5,9.2,7.1,8.6L7.1,8.6z"/>
	<path d="M6.5,9c0.5,0.6,1.1,1.1,1.6,1.7c0.1,0.1,0.1,0.2,0.1,0.4c-0.1,0-0.3-0.1-0.3-0.1C7.4,10.3,7,9.6,6.5,9L6.5,9z"/>
	<path d="M21.9,10c-0.6,0.6-1.2,1.1-1.8,1.7c-0.1,0.1-0.2,0.1-0.3,0.1c0-0.1,0-0.3,0.1-0.3C20.6,11,21.2,10.5,21.9,10L21.9,10z"/>
	<path d="M22.5,11.4c-0.6,0.4-1.2,0.8-1.8,1.2c-0.1,0-0.2,0-0.3,0c0-0.1,0.1-0.2,0.2-0.2C21.2,12,21.8,11.7,22.5,11.4L22.5,11.4z"/>
	<path d="M22,10.8c-0.6,0.5-1.1,0.9-1.7,1.4h-0.2c0-0.1,0.1-0.3,0.1-0.3C20.8,11.5,21.4,11.2,22,10.8L22,10.8z"/>
	<path d="M5.3,10.8c0.6,0.3,1.2,0.7,1.7,1c0.1,0.1,0.1,0.2,0.2,0.3c-0.1,0-0.3,0-0.4-0.1C6.3,11.7,5.8,11.2,5.3,10.8L5.3,10.8z"/>
	<path d="M5.1,11.5c0.5,0.3,1.1,0.5,1.7,0.8c0.1,0,0.1,0.2,0.2,0.3c-0.1,0-0.3,0-0.4-0.1C6,12.2,5.6,11.8,5.1,11.5L5.1,11.5z"/>
	<path d="M5.9,10.5c0.5,0.3,1,0.7,1.5,1c0.1,0,0.1,0.2,0.1,0.3c-0.1,0-0.2,0-0.3,0C6.8,11.3,6.4,10.9,5.9,10.5L5.9,10.5z"/>
	<path d="M23,13.4c-0.6,0.2-1.2,0.5-1.8,0.7c-0.1,0-0.2-0.1-0.3-0.1c0.1-0.1,0.1-0.2,0.2-0.2C21.8,13.6,22.4,13.5,23,13.4L23,13.4z"
		/>
	<path d="M22.5,12.1c-0.5,0.3-1,0.6-1.6,0.9c-0.1,0-0.2,0-0.3,0c0-0.1,0.1-0.2,0.2-0.2C21.3,12.6,21.9,12.4,22.5,12.1
		C22.5,12.2,22.5,12.1,22.5,12.1z"/>
	<path d="M4.8,12.2c0.6,0.2,1.1,0.4,1.7,0.6c0.1,0,0.1,0.2,0.2,0.2c-0.1,0-0.2,0.1-0.3,0C5.9,12.8,5.4,12.5,4.8,12.2L4.8,12.2z"/>
	<path d="M4.5,13.4c0.5,0.1,1.1,0.2,1.6,0.3c0.1,0,0.2,0.2,0.2,0.2C6.2,13.9,6.1,14,6,14C5.5,13.9,5,13.7,4.5,13.4
		C4.4,13.5,4.5,13.4,4.5,13.4z"/>
	<path d="M4.3,14.8c0.5,0,1.1,0,1.6,0c0.1,0,0.2,0.1,0.3,0.2c-0.1,0-0.2,0.1-0.4,0C5.3,15,4.8,14.9,4.3,14.8L4.3,14.8z"/>
	<path d="M23.1,14.8C22.6,14.9,22,15,21.5,15c-0.1,0-0.2-0.1-0.3-0.1c0.1-0.1,0.2-0.2,0.3-0.2C22,14.7,22.5,14.8,23.1,14.8
		C23,14.8,23,14.8,23.1,14.8z"/>
	<path d="M23.2,16.1c-0.6,0-1.2,0-1.8,0c-0.1,0-0.2-0.1-0.3-0.2c0.1,0,0.2-0.1,0.3-0.1C22,15.9,22.6,16,23.2,16.1L23.2,16.1
		C23.2,16.2,23.2,16.2,23.2,16.1L23.2,16.1z"/>
	<path d="M21.1,15.3c0.7,0,1.4,0.1,2.1,0.1C22,15.6,21.4,15.6,21.1,15.3z"/>
	<path d="M4.4,14.1c0.5,0.1,1,0.1,1.6,0.2c0.1,0,0.2,0.1,0.3,0.2c-0.1,0-0.2,0.1-0.3,0.1C5.4,14.4,4.9,14.3,4.4,14.1L4.4,14.1z"/>
	<path d="M23,14.2c-0.6,0.1-1.1,0.3-1.7,0.4c-0.1,0-0.2-0.1-0.3-0.1c0.1-0.1,0.1-0.2,0.2-0.2c0.6-0.1,1.1-0.1,1.7-0.2
		C23,14.1,23,14.1,23,14.2z"/>
	<path d="M22.6,12.8c-0.5,0.2-1,0.5-1.5,0.7c-0.1,0-0.2,0-0.2,0c0-0.1,0.1-0.2,0.1-0.2C21.5,13.1,22,13,22.6,12.8L22.6,12.8z"/>
	<path d="M4.7,12.8c0.5,0.1,1.1,0.3,1.6,0.4c0.1,0,0.1,0.2,0.2,0.2c-0.1,0-0.2,0.1-0.3,0C5.7,13.3,5.2,13.1,4.7,12.8L4.7,12.8z"/>
	<path d="M4.2,15.4c0.7-0.1,1.3-0.2,2.1-0.1c-0.1,0.1-0.1,0.2-0.2,0.2C5.5,15.5,4.8,15.5,4.2,15.4C4.2,15.5,4.2,15.5,4.2,15.4z"/>
	<path d="M11,21.1c-0.1,0.7-0.3,1.3-0.4,2h-0.1c0.1-0.7,0.2-1.4,0.3-2C10.8,21.1,10.9,21.1,11,21.1z"/>
	<path d="M16.7,23.1c-0.1-0.7-0.3-1.3-0.4-2c0.1,0,0.1,0,0.2,0C16.7,21.7,16.7,22.4,16.7,23.1z"/>
	<path d="M17.4,23c-0.2-0.7-0.4-1.3-0.6-2c0.1,0,0.2,0,0.2-0.1c0.2,0.7,0.3,1.3,0.5,2C17.5,23,17.4,23,17.4,23z"/>
	<path d="M22.9,16.8c-0.6,0-1.3-0.1-1.9-0.3C21.4,16.3,22.2,16.5,22.9,16.8L22.9,16.8z"/>
	<path d="M4.1,16.1C4.8,16,5.4,15.9,6,15.8c0.1,0,0.2,0.1,0.2,0.1C6.1,16,6,16.1,5.9,16.1C5.3,16.1,4.8,16.1,4.1,16.1z"/>
	<path d="M9.8,23c0.2-0.7,0.3-1.3,0.5-2c0.1,0,0.1,0,0.2,0C10.4,21.7,10.1,22.3,9.8,23z"/>
	<path d="M9.2,22.6c0.2-0.6,0.4-1.2,0.6-1.8c0.1,0,0.1,0,0.2,0.1c-0.1,0.6-0.4,1.2-0.7,1.7C9.3,22.6,9.3,22.6,9.2,22.6z"/>
	<path d="M22.9,17.4c-0.6-0.1-1.2-0.2-1.8-0.3c-0.1,0-0.1-0.1-0.2-0.2c0.1,0,0.2-0.1,0.2-0.1C21.8,17,22.3,17.2,22.9,17.4L22.9,17.4
		z"/>
	<path d="M18,22.6c-0.3-0.6-0.5-1.1-0.7-1.8c0.1,0,0.1-0.1,0.2-0.1C17.7,21.4,17.9,22,18,22.6C18.1,22.6,18,22.6,18,22.6z"/>
	<path d="M4.7,17.3C5.1,17.2,5.6,17,6,16.9c0.1,0,0.2,0,0.3,0.1c-0.1,0.1-0.1,0.2-0.2,0.2C5.6,17.2,5.2,17.3,4.7,17.3
		C4.7,17.4,4.7,17.4,4.7,17.3z"/>
	<path d="M4.4,16.8c0.6-0.3,1.2-0.3,1.8-0.4C5.7,16.8,5,16.7,4.4,16.8L4.4,16.8z"/>
	<path d="M18.7,22.4c-0.3-0.6-0.6-1.1-1-1.7c0.1,0,0.1-0.1,0.2-0.1C18.3,21.1,18.5,21.7,18.7,22.4L18.7,22.4z"/>
	<path d="M22.5,18c-0.6-0.1-1.2-0.3-1.8-0.5C21.1,17.3,21.8,17.6,22.5,18L22.5,18z"/>
	<path d="M21.7,19.8c-0.6-0.2-1.1-0.6-1.6-1.1C20.7,19,21.2,19.4,21.7,19.8L21.7,19.8z"/>
	<path d="M5.6,19.8c0.5-0.4,1-0.8,1.5-1.2c0,0.1,0.1,0.1,0.1,0.2C6.7,19.2,6.2,19.6,5.6,19.8L5.6,19.8z"/>
	<path d="M8.6,22.4c0.1-0.6,0.4-1.2,0.8-1.9C9.5,20.9,9.2,21.6,8.6,22.4L8.6,22.4z"/>
	<path d="M22.1,18.6c-0.5-0.2-1.1-0.4-1.6-0.5C20.9,17.8,21.4,18,22.1,18.6L22.1,18.6z"/>
	<path d="M5.2,18.6c0.4-0.3,0.9-0.5,1.3-0.8c0.1,0,0.2,0,0.2,0c0,0.1-0.1,0.2-0.1,0.2C6.1,18.2,5.6,18.4,5.2,18.6L5.2,18.6z"/>
	<path d="M20.1,21c-0.4-0.4-0.8-0.7-1.1-1.1C19.4,19.9,19.8,20.4,20.1,21L20.1,21z"/>
	<path d="M5.5,19.1c0.4-0.3,0.8-0.6,1.2-0.8c0.1,0,0.2,0,0.2,0c0,0.1-0.1,0.2-0.2,0.2C6.3,18.7,5.9,18.9,5.5,19.1L5.5,19.1z"/>
	<path d="M21.8,19.1c-0.4-0.2-0.9-0.4-1.3-0.6c-0.1,0-0.1-0.1-0.1-0.2c0.1,0,0.2-0.1,0.3,0C21,18.6,21.4,18.9,21.8,19.1L21.8,19.1z"
		/>
	<path d="M4.8,18c0.5-0.3,1.1-0.5,1.6-0.7c0,0.1,0.1,0.2,0.1,0.3C6,17.7,5.4,17.8,4.8,18L4.8,18z"/>
	<path d="M7.2,21c0.2-0.5,0.6-0.9,1-1.2C8,20.3,7.6,20.7,7.2,21L7.2,21z"/>
	<path d="M21,20.1c-0.5-0.2-0.9-0.6-1.3-0.9c0-0.1,0.1-0.1,0.1-0.2C20.3,19.3,20.7,19.7,21,20.1L21,20.1z"/>
	<path d="M19.1,21.8c-0.4-0.4-0.7-0.9-0.9-1.4c0.1,0,0.1-0.1,0.2-0.1C18.7,20.8,19,21.3,19.1,21.8L19.1,21.8z"/>
	<path d="M8.2,21.8c0.1-0.6,0.4-1,0.8-1.6C9,20.7,8.7,21.3,8.2,21.8L8.2,21.8z"/>
	<path d="M19.7,21.5c-0.3-0.4-0.7-0.7-1-1.1v-0.2c0.1,0,0.2,0.1,0.2,0.1C19.2,20.6,19.4,21.1,19.7,21.5L19.7,21.5z"/>
	<path d="M6.3,20.1c0.4-0.6,0.8-0.9,1.2-1C7.2,19.5,6.8,19.9,6.3,20.1L6.3,20.1z"/>
	<path d="M7.6,21.5c0.2-0.5,0.5-1,0.9-1.5C8.6,20.5,8.1,21.1,7.6,21.5L7.6,21.5z"/>
	<path d="M20.4,20.5c-0.4-0.3-0.7-0.6-1.1-0.9c0-0.1,0.1-0.1,0.2-0.2C19.9,19.7,20.2,20,20.4,20.5C20.5,20.5,20.4,20.5,20.4,20.5z"
		/>
	<path d="M6.8,20.5c0.2-0.4,0.6-0.7,1-1C7.6,19.9,7.3,20.2,6.8,20.5L6.8,20.5z"/>
	<path d="M21,20.1c0.2,0.1,0.3,0.2,0.5,0.3l0,0C21.3,20.3,21.2,20.2,21,20.1L21,20.1z"/>
	<path d="M5.8,10.3c-0.1-0.1-0.2-0.1-0.3-0.2l0,0C5.6,10.2,5.7,10.3,5.8,10.3L5.8,10.3z"/>
	<path d="M6.2,20.3c-0.1,0.1-0.2,0.1-0.3,0.2l0,0C6,20.4,6.1,20.3,6.2,20.3L6.2,20.3z"/>
	<path d="M22.9,16.8c0.1,0,0.2,0,0.3,0c0,0,0,0,0,0.1C23.1,16.8,23,16.8,22.9,16.8L22.9,16.8z"/>
	<path d="M6.9,21.3c-0.1,0.1-0.1,0.2-0.2,0.3l0,0C6.8,21.5,6.9,21.4,6.9,21.3L6.9,21.3z"/>
	<path d="M20.3,21.3c0.1,0.1,0.1,0.2,0.2,0.3l0,0C20.5,21.5,20.4,21.4,20.3,21.3C20.4,21.3,20.3,21.3,20.3,21.3z"/>
	<path d="M7.6,21.5c-0.1,0.1-0.1,0.2-0.2,0.3l0,0C7.5,21.7,7.6,21.6,7.6,21.5L7.6,21.5z"/>
	<path d="M19.7,21.5c0.1,0.1,0.1,0.2,0.2,0.3l0,0C19.8,21.7,19.7,21.6,19.7,21.5L19.7,21.5z"/>
	<path d="M19.4,22.1c-0.1-0.1-0.2-0.2-0.2-0.3l0,0C19.2,21.9,19.3,22,19.4,22.1L19.4,22.1z"/>
	<path d="M18.4,7.2c0-0.1,0.1-0.2,0.1-0.3l0,0C18.5,7,18.5,7.1,18.4,7.2L18.4,7.2z"/>
	<path d="M8.9,7.2c0,0,0-0.1-0.1-0.1C8.8,7.1,8.8,7.2,8.9,7.2L8.9,7.2z"/>
	<path d="M23,13.4h0.1C23.1,13.3,23.1,13.4,23,13.4L23,13.4z"/>
	<path d="M22.9,12.7c-0.1,0-0.2,0.1-0.3,0.1l0,0C22.7,12.8,22.8,12.8,22.9,12.7L22.9,12.7z"/>
	<path d="M22.8,18.1c-0.1,0-0.2-0.1-0.3-0.1l0,0C22.6,18,22.7,18.1,22.8,18.1L22.8,18.1z"/>
	<path d="M4.4,12.7c0.1,0,0.2,0.1,0.3,0.1l0,0C4.6,12.8,4.5,12.7,4.4,12.7L4.4,12.7z"/>
	<path d="M4.4,16.8L4.4,16.8C4.3,16.8,4.3,16.8,4.4,16.8L4.4,16.8z"/>
	<path d="M7.5,7.9C7.6,8,7.6,8,7.6,8.1l0,0C7.6,8,7.6,8,7.5,7.9L7.5,7.9z"/>
	<path d="M19.7,8.1c0-0.1,0.1-0.2,0.1-0.2l0,0C19.7,8,19.7,8,19.7,8.1L19.7,8.1z"/>
	<path d="M6.8,8.2c0,0.1,0.1,0.2,0.1,0.2l0,0C6.9,8.4,6.9,8.3,6.8,8.2L6.8,8.2z"/>
	<path d="M20.4,8.2c0,0.1-0.1,0.2-0.1,0.2l0,0C20.4,8.4,20.4,8.3,20.4,8.2L20.4,8.2z"/>
	<path d="M5,10.7c0.1,0,0.2,0.1,0.2,0.1l0,0C5.2,10.8,5.1,10.7,5,10.7L5,10.7z"/>
	<path d="M22,10.8c0.1,0,0.2-0.1,0.2-0.1l0,0C22.2,10.7,22.1,10.8,22,10.8L22,10.8z"/>
	<path d="M22.7,11.3c-0.1,0-0.2,0.1-0.3,0.1l0,0C22.5,11.3,22.6,11.3,22.7,11.3L22.7,11.3z"/>
	<path d="M4.8,11.4c0.1,0,0.2,0.1,0.2,0.1l0,0C5,11.4,4.9,11.4,4.8,11.4L4.8,11.4z"/>
	<path d="M4.6,12L4.6,12C4.5,12,4.6,12,4.6,12C4.6,12.1,4.6,12,4.6,12z"/>
	<path d="M22.7,12.1C22.7,12,22.8,12,22.7,12.1C22.8,12,22.8,12,22.7,12.1C22.7,12,22.7,12,22.7,12.1L22.7,12.1z"/>
	<path d="M4.8,12.1c-0.1,0-0.2-0.1-0.3-0.1l0,0C4.7,12.1,4.7,12.1,4.8,12.1C4.8,12.2,4.8,12.1,4.8,12.1z"/>
	<path d="M5.3,19.2c0.1,0,0.2-0.1,0.2-0.1l0,0C5.4,19.2,5.3,19.2,5.3,19.2L5.3,19.2z"/>
	<path d="M22,19.2c-0.1,0-0.2-0.1-0.2-0.1l0,0C21.9,19.2,21.9,19.2,22,19.2L22,19.2z"/>
	<path d="M22.5,12.2c0.1,0,0.2-0.1,0.2-0.1l0,0C22.6,12.1,22.6,12.1,22.5,12.2L22.5,12.2z"/>
	<path d="M22,19.2c0.1,0,0.2,0.1,0.2,0.1l0,0C22.2,19.3,22.1,19.3,22,19.2L22,19.2z"/>
	<path d="M4.4,12.7L4.4,12.7L4.4,12.7L4.4,12.7z"/>
	<path d="M22.9,12.7C22.9,12.7,23,12.7,22.9,12.7C23,12.7,23,12.7,22.9,12.7L22.9,12.7L22.9,12.7z"/>
	<path d="M21.8,19.9C21.9,20,22,20,22,20l0,0C22,20,21.9,19.9,21.8,19.9L21.8,19.9z"/>
	<path d="M22.1,18.6c0.1,0,0.1,0.1,0.2,0.1l0,0C22.3,18.6,22.2,18.6,22.1,18.6L22.1,18.6z"/>
	<path d="M22.9,17.4C22.9,17.5,23,17.5,22.9,17.4C23,17.5,23,17.5,22.9,17.4C22.9,17.5,22.9,17.5,22.9,17.4L22.9,17.4z"/>
	<path d="M4.8,18L4.8,18L4.8,18L4.8,18z"/>
	<path d="M5,18.7c0.1,0,0.1-0.1,0.2-0.1l0,0C5.1,18.6,5,18.6,5,18.7C4.9,18.7,5,18.7,5,18.7z"/>
	<path d="M9.5,6.8L9.5,6.8L9.5,6.8z"/>
	<path d="M17.8,6.8C17.8,6.8,17.8,6.7,17.8,6.8C17.8,6.7,17.8,6.8,17.8,6.8L17.8,6.8z"/>
	<path d="M4.9,18.7L4.9,18.7L4.9,18.7C5,18.7,4.9,18.7,4.9,18.7z"/>
	<path d="M8.1,7.3L8.1,7.3L8.1,7.3L8.1,7.3z"/>
	<path d="M19.2,7.3L19.2,7.3L19.2,7.3z"/>
	<path d="M22.3,18.7C22.4,18.7,22.4,18.7,22.3,18.7C22.4,18.7,22.4,18.7,22.3,18.7C22.4,18.7,22.4,18.7,22.3,18.7L22.3,18.7z"/>
	<path d="M8.1,22.1c0-0.1,0.1-0.2,0.1-0.2l0,0C8.2,21.9,8.1,22,8.1,22.1C8.1,22,8.1,22.1,8.1,22.1z"/>
	<path d="M8.2,7.6c0-0.1-0.1-0.2-0.1-0.3l0,0C8.1,7.4,8.2,7.5,8.2,7.6L8.2,7.6z"/>
	<path d="M19.1,7.6c0-0.1,0.1-0.2,0.1-0.3l0,0C19.2,7.4,19.1,7.5,19.1,7.6L19.1,7.6z"/>
	<path d="M8,22.2C7.9,22.2,7.9,22.2,8,22.2C7.9,22.2,8,22.2,8,22.2L8,22.2z"/>
	<path d="M19.3,22.1C19.4,22.2,19.4,22.2,19.3,22.1C19.4,22.2,19.4,22.2,19.3,22.1C19.4,22.1,19.3,22.1,19.3,22.1z"/>
	<path d="M8.6,22.4c0,0.1-0.1,0.2-0.1,0.2l0,0C8.6,22.5,8.6,22.5,8.6,22.4L8.6,22.4z"/>
	<path d="M18.8,22.6c0-0.1-0.1-0.1-0.1-0.2l0,0C18.7,22.5,18.7,22.5,18.8,22.6L18.8,22.6z"/>
	<path d="M18.8,22.6L18.8,22.6L18.8,22.6z"/>
	<path d="M22.4,10.6L22.4,10.6L22.4,10.6z"/>
	<path d="M6,10.5l-0.1-0.1l0,0C5.9,10.4,5.9,10.4,6,10.5L6,10.5z"/>
	<path d="M5.3,19.2L5.3,19.2L5.3,19.2z"/>
	<path d="M5.5,10.1L5.4,10l0,0C5.4,10.1,5.4,10.1,5.5,10.1L5.5,10.1z"/>
	<path d="M22.8,18.1L22.8,18.1L22.8,18.1z"/>
	<path d="M22.3,19.3v0.1V19.3z"/>
	<path d="M22,9.9L21.9,10l0,0C22,10,22,10,22,9.9L22,9.9z"/>
	<path d="M5.4,10L5.4,10L5.4,10z"/>
	<path d="M22,9.9L22,9.9L22,9.9z"/>
	<path d="M6.4,8.9L6.5,9l0,0L6.4,8.9L6.4,8.9z"/>
	<path d="M20.9,8.9L21,8.8l0,0C21,8.8,20.9,8.9,20.9,8.9L20.9,8.9z"/>
	<path d="M5.6,19.8l-0.1,0.1l0,0L5.6,19.8L5.6,19.8z"/>
	<path d="M6.3,8.8l0.1,0.1l0,0C6.4,8.9,6.3,8.8,6.3,8.8L6.3,8.8z"/>
	<path d="M21.1,8.7L21,8.8l0,0C21.1,8.8,21.1,8.7,21.1,8.7L21.1,8.7z"/>
	<path d="M21.8,19.9l-0.1-0.1l0,0C21.7,19.8,21.8,19.9,21.8,19.9L21.8,19.9z"/>
	<path d="M5.5,19.9L5.5,19.9L5.5,19.9z"/>
	<path d="M21.1,8.7l0.1-0.1L21.1,8.7z"/>
	<path d="M20.3,8.4l-0.1,0.1l0,0C20.3,8.5,20.3,8.5,20.3,8.4C20.4,8.4,20.3,8.4,20.3,8.4z"/>
	<path d="M22,20L22,20L22,20z"/>
	<path d="M6.3,20.1l-0.1,0.1l0,0C6.2,20.2,6.3,20.2,6.3,20.1L6.3,20.1z"/>
	<path d="M6.9,8.4L7,8.5l0,0C7,8.5,7,8.5,6.9,8.4L6.9,8.4z"/>
	<path d="M20.4,8.2l0.1-0.1l0,0C20.5,8.1,20.5,8.2,20.4,8.2L20.4,8.2z"/>
	<polygon points="6.9,8.2 6.8,8.2 6.8,8.2 	"/>
	<path d="M20.6,8.1L20.6,8.1L20.6,8.1z"/>
	<path d="M19.8,7.9L19.8,7.9L19.8,7.9z"/>
	<path d="M5.7,20.6l0.1-0.1l0,0C5.8,20.5,5.8,20.5,5.7,20.6L5.7,20.6z"/>
	<path d="M6.8,20.5l-0.1,0.1l0,0C6.8,20.6,6.8,20.5,6.8,20.5L6.8,20.5z"/>
	<path d="M20.6,20.6l-0.1-0.1l0,0C20.5,20.5,20.5,20.5,20.6,20.6L20.6,20.6z"/>
	<path d="M21.6,20.6l-0.1-0.1l0,0C21.5,20.5,21.5,20.5,21.6,20.6L21.6,20.6z"/>
	<path d="M5.7,20.6L5.7,20.6L5.7,20.6z"/>
	<path d="M6.6,20.7l0.1-0.1l0,0C6.7,20.6,6.7,20.7,6.6,20.7L6.6,20.7z"/>
	<path d="M7.5,7.9L7.5,7.9L7.5,7.9z"/>
	<path d="M20.7,20.7l-0.1-0.1l0,0C20.6,20.6,20.6,20.7,20.7,20.7L20.7,20.7z"/>
	<path d="M21.6,20.6l0.1,0.1l0,0L21.6,20.6L21.6,20.6z"/>
	<path d="M6.6,20.7l-0.1,0.1l0,0C6.5,20.8,6.6,20.7,6.6,20.7L6.6,20.7z"/>
	<path d="M20.8,20.8l-0.1-0.1l0,0C20.7,20.7,20.7,20.8,20.8,20.8L20.8,20.8z"/>
	<path d="M21.7,20.7L21.7,20.7L21.7,20.7z"/>
	<path d="M6.5,20.8l-0.1,0.1l0,0L6.5,20.8L6.5,20.8z"/>
	<path d="M18.5,6.9l0.1-0.1L18.5,6.9z"/>
	<path d="M20.9,20.9l-0.1-0.1l0,0L20.9,20.9L20.9,20.9z"/>
	<path d="M6.4,20.9L6.3,21l0,0C6.3,21,6.4,21,6.4,20.9L6.4,20.9z"/>
	<path d="M21,21l-0.1-0.1l0,0C20.9,21,21,21,21,21L21,21z"/>
	<path d="M6.2,21.1L6.3,21l0,0C6.2,21.1,6.2,21.1,6.2,21.1L6.2,21.1z"/>
	<path d="M7.1,21.1L7.2,21l0,0C7.1,21.1,7.1,21.1,7.1,21.1L7.1,21.1z"/>
	<path d="M20.2,21.1L20.1,21l0,0C20.2,21.1,20.2,21.1,20.2,21.1L20.2,21.1z"/>
	<path d="M21,21l0.1,0.1l0,0C21.1,21.1,21.1,21.1,21,21L21,21z"/>
	<path d="M6.2,21.1l-0.1,0.1L6.2,21.1z"/>
	<path d="M7.1,21.1L7,21.2l0,0C7,21.2,7,21.2,7.1,21.1L7.1,21.1z"/>
	<path d="M20.2,21.1l0.1,0.1l0,0C20.3,21.2,20.3,21.2,20.2,21.1L20.2,21.1z"/>
	<polygon points="21.1,21.1 21.1,21.2 21.1,21.2 	"/>
	<path d="M6.7,21.6L6.7,21.6L6.7,21.6z"/>
	<path d="M20.5,21.6l0.1,0.1l0,0C20.6,21.7,20.6,21.6,20.5,21.6L20.5,21.6z"/>
	<path d="M20.7,21.7L20.7,21.7L20.7,21.7z"/>
	<path d="M7.4,21.8L7.4,21.8L7.4,21.8z"/>
	<path d="M6.3,8.8L6.3,8.8L6.3,8.8z"/>
	<path d="M19.9,21.8L19.9,21.8L19.9,21.8z"/>
	<path d="M8.1,22L8,22.1l0,0C8,22.1,8,22.1,8.1,22C8.1,22.1,8.1,22,8.1,22z"/>
	<path d="M4.8,11.4L4.8,11.4L4.8,11.4z"/>
	<path d="M22.7,11.3v-0.1V11.3z"/>
	<path d="M22.4,10.6l-0.1,0.1l0,0C22.3,10.7,22.3,10.6,22.4,10.6L22.4,10.6z"/>
	<path d="M8.5,22.6L8.5,22.6L8.5,22.6z"/>
	<path d="M5,10.7L5,10.7L5,10.7z"/>
	<path fill="#FFFFFF" d="M13.6,19.9c-0.5,0-0.9,0-1.4-0.1c-2-0.4-2.8-2.9-1.4-4.4c0.2-0.2,0.4-0.3,0.2-0.7c0-0.1,0.1-0.4,0.2-0.5
		c0.2-0.1,0.5,0,0.6,0.1c0.2,0.3,0.4,0.2,0.7,0.2c0.8,0,1.5,0,2.3,0c0.2,0,0.4,0,0.6-0.2c0.1-0.1,0.5-0.2,0.6-0.1
		c0.1,0.1,0.3,0.4,0.2,0.5c-0.1,0.3,0,0.4,0.2,0.6c0.8,0.8,1,1.8,0.5,2.9c-0.4,1.1-1.3,1.6-2.5,1.6C14.2,19.9,13.9,19.9,13.6,19.9
		L13.6,19.9z M13.6,18.8c0.4,0,0.8-0.3,0.8-0.7c0-0.4-0.3-0.7-0.7-0.7s-0.8,0.4-0.8,0.7C12.9,18.4,13.3,18.8,13.6,18.8z M12.3,15.1
		c0,0.1-0.1,0.1-0.1,0.2c0.4,0.3,0.9,0.7,1.3,1c0.1,0,0.2,0.1,0.3,0c0.5-0.3,1-0.7,1.4-1c0,0,0-0.1-0.1-0.1c-0.4,0-0.7,0.3-1,0.5
		s-0.5,0.2-0.8,0C12.9,15.5,12.6,15.3,12.3,15.1z M15,16.7c-0.2-0.2-0.4-0.4-0.5-0.4c-0.2,0-0.3,0.2-0.4,0.4
		c0.1,0.1,0.2,0.3,0.4,0.3S14.8,16.9,15,16.7z M12.7,17.2c0.2-0.2,0.4-0.3,0.4-0.5s-0.2-0.3-0.4-0.4c-0.1,0.1-0.3,0.2-0.3,0.4
		C12.4,16.8,12.6,17,12.7,17.2z"/>
	<path fill="#FFFFFF" d="M14.2,13.2c0-0.2,0-0.4,0-0.6h0.1C14.3,12.8,14.3,13,14.2,13.2C14.3,13.2,14.2,13.2,14.2,13.2z"/>
	<path fill="#FFFFFF" d="M15,13.2c0-0.2,0.1-0.4,0.1-0.6h0.1c0,0.2,0,0.4-0.1,0.6C15,13.2,15,13.2,15,13.2z"/>
	<path fill="#FFFFFF" d="M12.5,13.2c0-0.2,0-0.3,0-0.5h0.1c0,0.2,0,0.3,0,0.5C12.6,13.2,12.6,13.2,12.5,13.2z"/>
	<path fill="#FFFFFF" d="M12.2,12.6c0,0.2,0.1,0.4,0.1,0.6c-0.1,0-0.1,0-0.2,0c0-0.2,0-0.4-0.1-0.6C12.2,12.6,12.2,12.6,12.2,12.6z"
		/>
	<path fill="#FFFFFF" d="M10.7,13.7c-0.1-0.2-0.2-0.3-0.3-0.5c0,0,0.1,0,0.1-0.1C10.6,13.3,10.7,13.5,10.7,13.7
		C10.8,13.6,10.8,13.7,10.7,13.7z"/>
	<path fill="#FFFFFF" d="M17.2,14.1c0.1-0.2,0.3-0.3,0.4-0.5c0,0,0,0,0.1,0.1C17.6,13.9,17.4,14,17.2,14.1
		C17.3,14.2,17.2,14.2,17.2,14.1z"/>
	<path fill="#FFFFFF" d="M16.8,13.1c-0.1,0.2-0.2,0.5-0.2,0.7l0,0c0-0.1-0.1-0.2-0.1-0.2C16.6,13.4,16.7,13.2,16.8,13.1L16.8,13.1z"
		/>
	<path fill="#FFFFFF" d="M16.6,13.7c0.2-0.2,0.4-0.4,0.6-0.6l0,0C17,13.4,17.1,13.8,16.6,13.7L16.6,13.7z"/>
	<path fill="#FFFFFF" d="M15.5,12.7c0,0.2-0.1,0.4-0.1,0.5h-0.1c0-0.2,0.1-0.3,0.1-0.5H15.5z"/>
	<path fill="#FFFFFF" d="M10.2,13.9c-0.1-0.1-0.2-0.2-0.3-0.3l0.1-0.1C10,13.7,10.1,13.9,10.2,13.9z"/>
	<path fill="#FFFFFF" d="M18,14c-0.2,0.2-0.3,0.4-0.5,0.6l0,0C17.4,14.1,17.8,14.1,18,14L18,14z"/>
	<path fill="#FFFFFF" d="M13.9,12.6c0,0.2,0,0.4,0,0.6c0,0,0,0-0.1,0C13.8,12.9,13.8,12.8,13.9,12.6L13.9,12.6z"/>
	<path fill="#FFFFFF" d="M13,13.1c0-0.2,0-0.4,0-0.6c0,0,0,0,0.1,0c0,0.2,0,0.4,0.1,0.6C13,13.2,13,13.2,13,13.1z"/>
	<path fill="#FFFFFF" d="M9.6,14.8c-0.3,0.3-0.4-0.1-0.5-0.2C9.2,14.6,9.4,14.7,9.6,14.8L9.6,14.8z"/>
	<path fill="#FFFFFF" d="M15.8,12.6c0,0.2-0.1,0.5-0.1,0.7c0,0-0.1,0-0.2,0C15.7,13,15.8,12.8,15.8,12.6L15.8,12.6z"/>
	<path fill="#FFFFFF" d="M9.5,13.7c0.2,0.1,0.4,0.2,0.6,0.4L10,14.2C9.8,14.1,9.7,13.9,9.5,13.7L9.5,13.7z"/>
	<path fill="#FFFFFF" d="M11.1,12.8c0.1,0.2,0.2,0.4,0.3,0.5h-0.1C11.2,13.2,11.2,13,11.1,12.8L11.1,12.8z"/>
	<path fill="#FFFFFF" d="M17.4,13.5c-0.1,0.2-0.2,0.3-0.3,0.5L17,13.9C17.1,13.8,17.3,13.6,17.4,13.5L17.4,13.5z"/>
	<path fill="#FFFFFF" d="M10.8,12.9c0.1,0.2,0.2,0.4,0.3,0.5c0,0-0.1,0-0.2,0.1C10.9,13.3,10.9,13.1,10.8,12.9L10.8,12.9z"/>
	<path fill="#FFFFFF" d="M18.6,16.6c-0.1,0-0.2,0-0.3,0c0,0,0,0,0-0.1C18.4,16.5,18.5,16.5,18.6,16.6C18.6,16.5,18.6,16.5,18.6,16.6
		z"/>
	<path fill="#FFFFFF" d="M16.5,13c-0.1,0.2-0.1,0.4-0.2,0.6c0,0-0.1,0-0.1-0.1C16.3,13.3,16.4,13.1,16.5,13L16.5,13z"/>
	<path fill="#FFFFFF" d="M18.5,14.9c-0.2,0.1-0.4,0.2-0.5,0.3c0,0,0-0.1-0.1-0.1C18.1,15,18.3,14.9,18.5,14.9L18.5,14.9z"/>
	<path fill="#FFFFFF" d="M18.4,17.9c-0.1-0.1-0.3-0.1-0.4-0.2c0,0,0,0,0-0.1C18.2,17.7,18.4,17.7,18.4,17.9
		C18.5,17.8,18.5,17.9,18.4,17.9z"/>
	<path fill="#FFFFFF" d="M11.9,12.7c0,0.2,0.1,0.3,0.1,0.5h-0.1C11.8,13.1,11.8,12.9,11.9,12.7C11.8,12.7,11.8,12.7,11.9,12.7z"/>
	<path fill="#FFFFFF" d="M18.3,16.2c0.1,0,0.3-0.1,0.4-0.1c0,0,0,0,0,0.1C18.6,16.2,18.5,16.3,18.3,16.2
		C18.3,16.3,18.3,16.3,18.3,16.2z"/>
	<path fill="#FFFFFF" d="M18.1,14.3c-0.1,0.2-0.2,0.5-0.5,0.2l0,0C17.7,14.4,17.9,14.4,18.1,14.3L18.1,14.3z"/>
	<path fill="#FFFFFF" d="M13.5,12.6c0,0.2,0,0.4,0,0.6h-0.1C13.4,12.9,13.4,12.8,13.5,12.6C13.4,12.6,13.4,12.6,13.5,12.6z"/>
	<path fill="#FFFFFF" d="M14.7,12.6c0,0.2,0,0.4,0,0.6c0,0,0,0-0.1,0c0-0.2,0-0.4,0-0.6C14.7,12.6,14.7,12.6,14.7,12.6z"/>
	<path fill="#FFFFFF" d="M8.9,16.6c-0.1,0-0.2,0-0.3,0c0,0,0,0,0-0.1C8.8,16.5,8.9,16.5,8.9,16.6C8.9,16.5,8.9,16.6,8.9,16.6z"/>
	<path fill="#FFFFFF" d="M16.2,12.8c-0.1,0.2-0.1,0.4-0.2,0.6c0,0-0.1,0-0.2-0.1C16,13.2,16.1,13,16.2,12.8L16.2,12.8z"/>
	<path fill="#FFFFFF" d="M17.3,18.8c0.1,0.1,0.2,0.2,0.3,0.3c0,0,0,0,0,0.1c-0.1-0.1-0.2-0.2-0.3-0.3C17.2,18.9,17.3,18.9,17.3,18.8
		z"/>
	<path fill="#FFFFFF" d="M18.7,15.2c-0.2,0.1-0.4,0.2-0.5,0.2v-0.1C18.3,15.3,18.5,15.2,18.7,15.2L18.7,15.2z"/>
	<path fill="#FFFFFF" d="M11.4,12.7c0.1,0.2,0.2,0.4,0.2,0.5h-0.1C11.5,13.1,11.5,12.9,11.4,12.7L11.4,12.7z"/>
	<path fill="#FFFFFF" d="M10.9,19.9c0.1-0.1,0.1-0.2,0.2-0.3c0,0,0,0,0.1,0C11,19.7,11,19.8,10.9,19.9L10.9,19.9z"/>
	<path fill="#FFFFFF" d="M9.6,19.2c0.1-0.1,0.2-0.3,0.3-0.4l0.1,0.1C9.9,19.1,9.8,19.1,9.6,19.2C9.7,19.2,9.6,19.2,9.6,19.2z"/>
	<path fill="#FFFFFF" d="M9.4,14.1c0.1,0.1,0.3,0.2,0.4,0.3l-0.1,0.1C9.7,14.3,9.5,14.2,9.4,14.1L9.4,14.1z"/>
	<path fill="#FFFFFF" d="M17.5,18.6c0.1,0.2,0.2,0.3,0.3,0.5l0,0C17.7,18.9,17.4,18.9,17.5,18.6L17.5,18.6z"/>
	<path fill="#FFFFFF" d="M9.2,17.7c-0.1,0-0.2,0.1-0.3,0.1v-0.1C8.9,17.7,9,17.7,9.2,17.7L9.2,17.7z"/>
	<path fill="#FFFFFF" d="M10.3,19.2c-0.1,0.1-0.2,0.1-0.3,0.2l0,0C10.1,19.3,10.2,19.2,10.3,19.2C10.3,19.1,10.3,19.2,10.3,19.2z"/>
	<path fill="#FFFFFF" d="M9.2,15.4c-0.1,0-0.3-0.1-0.4-0.1v-0.1C8.9,15.2,9.1,15.3,9.2,15.4L9.2,15.4z"/>
	<path fill="#FFFFFF" d="M18.2,17.4c0.1,0,0.2,0.1,0.3,0.1c0,0,0,0,0,0.1C18.4,17.5,18.3,17.5,18.2,17.4L18.2,17.4z"/>
	<path fill="#FFFFFF" d="M18.6,15.5c-0.1,0.1-0.3,0.2-0.4,0.2v-0.1C18.3,15.6,18.5,15.5,18.6,15.5L18.6,15.5z"/>
	<path fill="#FFFFFF" d="M9.3,18.7c0.1-0.1,0.2-0.2,0.3-0.3c0,0,0,0.1,0.1,0.1C9.6,18.6,9.4,18.6,9.3,18.7L9.3,18.7z"/>
	<path fill="#FFFFFF" d="M9.1,15.7c-0.1,0-0.2-0.1-0.4-0.1c0,0,0,0,0-0.1C8.9,15.6,9,15.6,9.1,15.7L9.1,15.7z"/>
	<path fill="#FFFFFF" d="M10.2,13.4c0.1,0.1,0.2,0.2,0.3,0.3l-0.1,0.1C10.4,13.6,10.3,13.5,10.2,13.4L10.2,13.4z"/>
	<path fill="#FFFFFF" d="M17.3,19.5c-0.1-0.1-0.2-0.2-0.3-0.3c0,0,0.1,0,0.1-0.1C17.1,19.2,17.2,19.4,17.3,19.5L17.3,19.5z"/>
	<path fill="#FFFFFF" d="M18.2,18.5c-0.1-0.1-0.2-0.1-0.4-0.2c0,0,0-0.1,0.1-0.1C18,18.3,18.1,18.4,18.2,18.5L18.2,18.5z"/>
	<path fill="#FFFFFF" d="M10.6,19.8c0-0.1,0.1-0.3,0.1-0.4h0.1C10.7,19.6,10.6,19.7,10.6,19.8L10.6,19.8z"/>
	<path fill="#FFFFFF" d="M17.5,18.6c0.2-0.3,0.3,0,0.5,0.1l0,0C17.8,18.6,17.7,18.6,17.5,18.6L17.5,18.6z"/>
	<path fill="#FFFFFF" d="M9.1,17.4c-0.1,0-0.2,0.1-0.3,0.1c0,0,0,0,0-0.1C8.9,17.4,9,17.4,9.1,17.4L9.1,17.4z"/>
	<path fill="#FFFFFF" d="M18.2,14.6c-0.1,0.1-0.2,0.2-0.3,0.3c0,0,0-0.1-0.1-0.1C17.9,14.7,18.1,14.7,18.2,14.6L18.2,14.6z"/>
	<path fill="#FFFFFF" d="M18.6,17.2c-0.1,0-0.2,0-0.3,0c0,0,0,0,0-0.1C18.4,17.1,18.5,17.1,18.6,17.2L18.6,17.2z"/>
	<path fill="#FFFFFF" d="M8.7,15.9c0.1,0,0.2,0,0.3,0l0,0C8.9,15.9,8.8,15.9,8.7,15.9L8.7,15.9z"/>
	<path fill="#FFFFFF" d="M8.7,17.1c0.1,0,0.2,0,0.3,0c0,0,0,0,0,0.1C8.9,17.2,8.8,17.2,8.7,17.1C8.7,17.2,8.7,17.2,8.7,17.1z"/>
	<path fill="#FFFFFF" d="M9.6,14.8c-0.1-0.1-0.2-0.2-0.2-0.4l0,0C9.5,14.4,9.7,14.5,9.6,14.8L9.6,14.8z"/>
	<path fill="#FFFFFF" d="M9,18.4c0.2-0.1,0.3-0.2,0.5-0.2l0,0C9.3,18.3,9.1,18.4,9,18.4L9,18.4z"/>
	<path fill="#FFFFFF" d="M9,15c0.1,0,0.3,0.1,0.4,0.1c0,0,0,0.1-0.1,0.1C9.2,15.1,9.1,15,9,15L9,15z"/>
	<path fill="#FFFFFF" d="M18.3,18.1c-0.1,0-0.2-0.1-0.4-0.1v-0.1C18.1,18,18.2,18.1,18.3,18.1L18.3,18.1z"/>
	<path fill="#FFFFFF" d="M18.6,16.9c-0.1,0-0.2,0-0.3,0l0,0C18.4,16.8,18.5,16.8,18.6,16.9C18.6,16.8,18.6,16.9,18.6,16.9z"/>
	<path fill="#FFFFFF" d="M9,16.9c-0.1,0-0.2,0-0.3,0c0,0,0,0,0-0.1C8.8,16.8,8.9,16.8,9,16.9C9,16.8,9,16.8,9,16.9z"/>
	<path fill="#FFFFFF" d="M18.8,15.9c-0.1,0-0.3,0.1-0.4,0.1v-0.1C18.5,15.9,18.6,15.9,18.8,15.9L18.8,15.9z"/>
	<path fill="#FFFFFF" d="M9.5,18.9c0.1-0.1,0.1-0.2,0.2-0.3c0,0.1,0.1,0.1,0.1,0.2C9.7,18.8,9.6,18.8,9.5,18.9L9.5,18.9z"/>
	<path fill="#FFFFFF" d="M8.7,16.2c0.1,0,0.2,0,0.3,0l0,0C8.9,16.3,8.8,16.3,8.7,16.2C8.7,16.3,8.7,16.2,8.7,16.2z"/>
	<path fill="#FFFFFF" d="M17,19.6c-0.1-0.1-0.1-0.1-0.2-0.2c0,0,0.1,0,0.1-0.1C16.9,19.4,16.9,19.5,17,19.6L17,19.6z"/>
	<path fill="#FFFFFF" d="M10.2,19.7c0.1-0.1,0.2-0.2,0.2-0.3l0,0C10.4,19.5,10.3,19.6,10.2,19.7L10.2,19.7z"/>
	<path fill="#FFFFFF" d="M9.3,14.4c-0.1,0-0.1-0.1-0.2-0.1l0.1-0.1C9.2,14.3,9.3,14.3,9.3,14.4L9.3,14.4z"/>
	<path fill="#FFFFFF" d="M16.7,19.8c-0.1-0.1-0.2-0.2-0.2-0.3l0,0C16.6,19.6,16.7,19.7,16.7,19.8L16.7,19.8z"/>
	<path fill="#FFFFFF" d="M16.1,20c0,0,0-0.1-0.1-0.1c0,0,0,0,0.1,0V20C16,20,16.1,20,16.1,20z"/>
	<path fill="#FFFFFF" d="M11.5,12.7C11.4,12.7,11.4,12.7,11.5,12.7C11.4,12.7,11.4,12.7,11.5,12.7C11.4,12.7,11.4,12.7,11.5,12.7
		L11.5,12.7z"/>
	<path fill="#FFFFFF" d="M11.1,12.8L11.1,12.8L11.1,12.8L11.1,12.8z"/>
	<path fill="#FFFFFF" d="M16.2,12.9C16.2,12.8,16.2,12.8,16.2,12.9C16.2,12.8,16.2,12.8,16.2,12.9C16.2,12.8,16.2,12.8,16.2,12.9
		L16.2,12.9z"/>
	<path fill="#FFFFFF" d="M16.3,19.7c0,0,0-0.1-0.1-0.1l0,0C16.3,19.6,16.3,19.6,16.3,19.7L16.3,19.7z"/>
	<path fill="#FFFFFF" d="M16.5,13C16.5,12.9,16.5,12.9,16.5,13C16.6,12.9,16.6,12.9,16.5,13C16.5,12.9,16.5,12.9,16.5,13L16.5,13z"
		/>
	<path fill="#FFFFFF" d="M11.2,19.9v-0.1C11.3,19.8,11.3,19.8,11.2,19.9C11.3,19.9,11.3,19.9,11.2,19.9L11.2,19.9z"/>
	<path fill="#FFFFFF" d="M16.4,19.9c0-0.1-0.1-0.1-0.1-0.2l0,0C16.3,19.8,16.4,19.8,16.4,19.9L16.4,19.9z"/>
	<path fill="#FFFFFF" d="M18.1,14.3C18.1,14.3,18.1,14.2,18.1,14.3C18.1,14.2,18.1,14.3,18.1,14.3L18.1,14.3z"/>
	<path fill="#FFFFFF" d="M11.2,19.9C11.2,19.9,11.2,20,11.2,19.9C11.2,20,11.2,19.9,11.2,19.9L11.2,19.9z"/>
	<path fill="#FFFFFF" d="M18.2,14.6c0.1,0,0.2-0.1,0.2-0.1l0,0C18.4,14.6,18.3,14.6,18.2,14.6L18.2,14.6z"/>
	<path fill="#FFFFFF" d="M9,15C8.9,15,8.9,14.9,9,15C8.9,14.9,8.9,14.9,9,15C8.9,14.9,9,14.9,9,15L9,15z"/>
	<path fill="#FFFFFF" d="M18.6,15.5L18.6,15.5L18.6,15.5z"/>
	<path fill="#FFFFFF" d="M9.2,18l0.1-0.1c0,0,0,0,0,0.1C9.3,18,9.3,18,9.2,18L9.2,18z"/>
	<path fill="#FFFFFF" d="M9.2,18C9.1,18,9,18.1,9,18.1l0,0C9.1,18.1,9.1,18,9.2,18L9.2,18z"/>
	<path fill="#FFFFFF" d="M9,18.1C9,18.1,8.9,18.1,9,18.1C8.9,18.1,8.9,18.1,9,18.1L9,18.1L9,18.1z"/>
	<path fill="#FFFFFF" d="M18.3,18.1C18.3,18.1,18.4,18.1,18.3,18.1C18.4,18.1,18.3,18.1,18.3,18.1L18.3,18.1z"/>
	<path fill="#FFFFFF" d="M18.2,18.5L18.2,18.5L18.2,18.5L18.2,18.5z"/>
	<path fill="#FFFFFF" d="M9.5,18.9L9.4,19l0,0C9.5,19,9.5,18.9,9.5,18.9L9.5,18.9z"/>
	<path fill="#FFFFFF" d="M18.7,15.2L18.7,15.2L18.7,15.2z"/>
	<path fill="#FFFFFF" d="M9.4,19L9.4,19L9.4,19L9.4,19z"/>
	<path fill="#FFFFFF" d="M18.5,14.9l0.1-0.1L18.5,14.9z"/>
	<path fill="#FFFFFF" d="M17.9,19L17.9,19L17.9,19z"/>
	<path fill="#FFFFFF" d="M18.4,14.5C18.4,14.5,18.5,14.5,18.4,14.5C18.5,14.5,18.4,14.5,18.4,14.5L18.4,14.5z"/>
	<path fill="#FFFFFF" d="M9.3,13.9L9.4,14l0,0C9.4,14,9.4,14,9.3,13.9L9.3,13.9z"/>
	<path fill="#FFFFFF" d="M9.7,19.2C9.6,19.2,9.6,19.2,9.7,19.2C9.6,19.2,9.6,19.2,9.7,19.2L9.7,19.2z"/>
	<path fill="#FFFFFF" d="M10.4,19.4C10.5,19.3,10.5,19.3,10.4,19.4C10.5,19.3,10.5,19.3,10.4,19.4C10.5,19.3,10.5,19.3,10.4,19.4
		C10.4,19.3,10.4,19.4,10.4,19.4z"/>
	<path fill="#FFFFFF" d="M9.4,18.2C9.4,18.2,9.5,18.2,9.4,18.2C9.5,18.2,9.5,18.2,9.4,18.2L9.4,18.2z"/>
	<path fill="#FFFFFF" d="M18,14L18,14L18,14z"/>
	<path fill="#FFFFFF" d="M16.5,19.5C16.5,19.5,16.5,19.4,16.5,19.5C16.5,19.4,16.5,19.4,16.5,19.5C16.5,19.4,16.5,19.5,16.5,19.5z"
		/>
	<path fill="#FFFFFF" d="M17.3,19.5L17.3,19.5L17.3,19.5z"/>
	<path fill="#FFFFFF" d="M16.9,19.6l0.1,0.1l0,0C17,19.7,17,19.6,16.9,19.6L16.9,19.6z"/>
	<path fill="#FFFFFF" d="M10.2,19.7L10.2,19.7L10.2,19.7L10.2,19.7z"/>
	<path fill="#FFFFFF" d="M9,18.4L9,18.4C9,18.5,9,18.4,9,18.4L9,18.4z"/>
	<polygon fill="#FFFFFF" points="9.3,14 9.3,13.9 9.3,13.9 	"/>
	<path fill="#FFFFFF" d="M17.5,13.4l-0.1,0.1l0,0L17.5,13.4L17.5,13.4z"/>
	<path fill="#FFFFFF" d="M17.1,19.7L17.1,19.7L17.1,19.7L17.1,19.7z"/>
	<path fill="#FFFFFF" d="M10.6,19.8h-0.1H10.6z"/>
	<path fill="#FFFFFF" d="M16.7,19.8L16.7,19.8L16.7,19.8z"/>
	<path fill="#FFFFFF" d="M9.5,13.7L9.5,13.7L9.5,13.7z"/>
	<path fill="#FFFFFF" d="M16.4,19.9L16.4,19.9L16.4,19.9z"/>
	<path fill="#FFFFFF" d="M16,20L16,20L16,20z"/>
	<path fill="#FFFFFF" d="M17.5,13.4C17.5,13.4,17.6,13.4,17.5,13.4C17.6,13.4,17.5,13.4,17.5,13.4L17.5,13.4z"/>
	<path fill="#FFFFFF" d="M10.1,13.3l0.1,0.1l0,0C10.2,13.4,10.1,13.3,10.1,13.3L10.1,13.3z"/>
	<path fill="#FFFFFF" d="M10.1,13.3L10.1,13.3L10.1,13.3z"/>
	<path fill="#FFFFFF" d="M17.2,13.2L17.2,13.2L17.2,13.2z"/>
	<path fill="#FFFFFF" d="M9.3,18.7L9.3,18.7L9.3,18.7z"/>
	<path fill="#FFFFFF" d="M18,18.7L18,18.7L18,18.7L18,18.7z"/>
	<path fill="#FFFFFF" d="M16.9,13.1L16.9,13.1L16.9,13.1z"/>
	<path fill="#FFFFFF" d="M10.8,12.9L10.8,12.9L10.8,12.9z"/>
	<path fill="#FFFFFF" d="M15.8,12.6L15.8,12.6L15.8,12.6z"/>
	<path fill="#FFFFFF" d="M18.8,15.9L18.8,15.9L18.8,15.9z"/>
	<path d="M13.6,18.8c-0.4,0-0.7-0.3-0.7-0.7c0-0.4,0.4-0.8,0.8-0.7c0.4,0,0.7,0.4,0.7,0.7C14.4,18.5,14,18.8,13.6,18.8z"/>
	<path d="M12.3,15.1c0.3,0.2,0.7,0.4,0.9,0.6c0.3,0.2,0.5,0.2,0.8,0s0.6-0.5,1-0.5c0,0,0,0.1,0.1,0.1c-0.5,0.3-1,0.7-1.4,1
		c-0.1,0-0.2,0-0.3,0c-0.5-0.3-0.9-0.7-1.3-1C12.2,15.2,12.2,15.2,12.3,15.1z"/>
	<path d="M15,16.7c-0.2,0.2-0.4,0.3-0.5,0.3s-0.3-0.2-0.4-0.3c0.1-0.1,0.3-0.3,0.4-0.4C14.7,16.3,14.8,16.5,15,16.7z"/>
	<path d="M12.7,17.2c-0.2-0.2-0.3-0.4-0.3-0.5s0.2-0.2,0.3-0.4c0.1,0.1,0.3,0.3,0.4,0.4C13.1,16.8,12.9,17,12.7,17.2z"/>
</g>
</svg>
