<?xml version="1.0" encoding="utf-8"?>
<!-- Generator: Adobe Illustrator 18.0.0, SVG Export Plug-In . SVG Version: 6.00 Build 0)  -->
<!DOCTYPE svg PUBLIC "-//W3C//DTD SVG 1.1//EN" "http://www.w3.org/Graphics/SVG/1.1/DTD/svg11.dtd">
<svg version="1.1" id="Layer_1" xmlns="http://www.w3.org/2000/svg" xmlns:xlink="http://www.w3.org/1999/xlink" x="0px" y="0px"
	 viewBox="0 0 323.6 355" enable-background="new 0 0 323.6 355" xml:space="preserve">
<path fill="#FFFFFF" d="M25.4,231.2c0-8,0.2-16-0.1-24c-0.2-6.6,2.7-10.9,8.2-14c10.4-5.9,20.8-11.8,31.2-17.8c1-0.6,1.8-1.9,2.1-3
	c0.1-0.5-1.3-1.5-2.2-2c-11-6.4-22.2-12.6-33.1-19.2c-3.9-2.3-6.2-5.9-6.1-10.8c0.1-17.3,0.1-34.5,0-51.8c0-5,2.4-8.6,6.4-11
	c15-9.1,30.2-17.9,45.3-26.9c5.5-3.3,10.8-2.1,16.1,0.7c8.1,4.3,8.3,4.2,8.1-4.8c-0.1-6.2,2.6-10.2,7.9-13.1
	c13.6-7.7,27.1-15.6,40.6-23.5c5.5-3.2,10.8-3.4,16.4-0.2c13.6,8,27.2,15.9,40.9,23.7c5.8,3.3,8.3,8.1,8.4,14.5c0,0.8,0,1.6,0,2.3
	c0.2,3.6,1.2,4.2,4.3,2.1c5.4-3.7,11.2-6,17.5-3c4.4,2,8.5,4.8,12.7,7.3c11.3,6.8,22.7,13.6,34,20.5c4.9,3,7.5,7.2,7.4,13.2
	c-0.2,16.1-0.1,32.3,0,48.4c0,6.1-2.6,10.3-7.8,13.3c-10.7,6.1-21.4,12.3-32,18.5c-2.4,1.4-2.3,3.5,0.4,5
	c7.9,4.5,15.8,8.9,23.7,13.6c4,2.4,8,4.8,11.7,7.6c3,2.3,4.1,5.6,4.1,9.4c-0.1,16.8,0,33.6,0,50.4c0,4.6-1.7,8.4-5.6,10.7
	c-7.8,4.8-15.8,9.4-23.8,14c-7.6,4.4-15.2,8.7-22.8,13.1c-3.6,2.1-7.2,1.9-10.7-0.3c-3-1.9-6-3.8-9.1-5.6c-2.2-1.3-3.7-0.7-3.7,2
	c-0.1,4.3-0.1,8.7,0,13c0,3.3-1.3,5.7-4.2,7.4c-15.7,9-31.3,18.2-47,27.1c-3.8,2.2-8.4,2.2-12.2,0c-15.8-8.9-31.3-18.1-47-27.1
	c-3.6-2.1-4.2-5.1-4-8.7c0.2-3.8,0.4-7.6,0.3-11.3c0-2.8-1.5-3.6-3.9-2.3c-2.9,1.6-5.8,3.3-8.6,5.1c-4,2.7-7.9,2.9-12.1,0.4
	c-14.6-8.5-29.2-16.8-43.8-25.3c-4.9-2.8-7.6-6.8-7.5-12.8C25.6,247.7,25.4,239.4,25.4,231.2z M155.5,185.8c0-7.2,0-14.5,0-21.7
	c0-2.5-0.8-4.2-3.3-5.6c-12.5-7.1-24.8-14.4-37.2-21.5c-1.2-0.7-2.7-0.8-4-1.2c-0.4,1.3-1,2.6-1.1,3.9c-0.1,12.2,0.3,24.5-0.2,36.7
	c-0.2,6.3,1.3,10.4,7.4,13.5c11.6,6,22.6,13.1,34,19.7c3,1.8,4.3,1,4.3-2.5C155.5,200.1,155.5,192.9,155.5,185.8z M201.8,246
	c-0.8-0.8-1.3-1.4-1.9-1.7c-12.7-7.4-25.5-14.8-38.3-22.2c-2.4-1.4-4.6-1.3-6.9,0c-12.4,7.2-24.7,14.4-37.1,21.6
	c-3.3,1.9-3.3,3.4-0.1,5.2c12.1,7,24.2,13.9,36.3,21c3,1.7,5.7,1.8,8.6-0.1c4.1-2.6,8.4-4.9,12.6-7.4c8-4.6,15.9-9.2,23.9-13.9
	C200,248,200.7,247,201.8,246z M158,155c1.1-0.5,2.1-0.8,2.9-1.2c12.7-7.3,25.4-14.6,38.1-21.9c0.8-0.5,1.6-1.6,1.7-2.5
	c0.1-0.7-0.9-1.8-1.6-2.2c-10.9-6.4-21.8-12.8-32.9-18.9c-9.6-5.4-6.3-5.6-15.9-0.1c-10.9,6.2-21.8,12.5-32.6,18.8
	c-0.9,0.5-1.9,1.6-2.1,2.6c-0.1,0.7,0.8,2,1.6,2.4c11.6,6.8,23.2,13.5,34.9,20.1C154.1,153.2,156.1,154,158,155z M160.7,185
	c0,7.6-0.1,15.1,0,22.7c0,3.1,0.9,3.6,3.7,2.2c1.4-0.7,2.7-1.5,4.1-2.3c11.5-6.7,23-13.3,34.4-20.2c1.3-0.8,2.6-2.7,2.7-4
	c0.2-14.8,0.2-29.6,0.1-44.4c0-3.2-1.5-3.8-4.3-2.2c-12.6,7.3-25.1,14.6-37.8,21.8c-2.2,1.3-2.9,2.7-2.9,5
	C160.8,170.8,160.7,177.9,160.7,185z M155.5,300.1c0-6.1-0.2-12.2,0.1-18.3c0.1-3.4-1.3-5.4-4.1-6.9c-4.2-2.3-8.3-4.7-12.4-7.1
	c-8.4-4.8-16.7-9.7-25.1-14.5c-3.2-1.8-4.2-1.2-4.1,2.4c0,12.7,0.1,25.4,0,38c0,3.3,1.2,5.4,4,7c12.3,7,24.6,14.2,36.9,21.3
	c3.3,1.9,4.7,1.3,4.7-2.5C155.6,313,155.5,306.6,155.5,300.1z M233.9,110.6c1.4-0.5,2.5-0.8,3.5-1.3c4.3-2.5,8.6-5,12.9-7.5
	c6.9-4,13.9-7.9,20.8-11.9c3.2-1.8,3.1-3.3,0.1-5.1c-12.1-7.3-24.2-14.5-36.2-21.9c-2.3-1.4-4.4-1.3-6.6-0.1
	c-11.9,6.7-23.7,13.5-35.5,20.3c-2.5,1.4-2.5,2.3-0.1,4c0.7,0.5,1.5,0.9,2.3,1.4c10.4,6,20.7,12.1,31.1,18
	C228.7,108,231.4,109.3,233.9,110.6z M85,62.1c-1.3,0.5-2.5,0.7-3.4,1.2c-12,7-23.9,14.1-35.8,21.2c-3.7,2.2-3.5,3.6,0.3,5.8
	c10.6,6.1,21.2,12.1,31.7,18.3c3,1.8,5.7,2,8.7,0.1c6.6-4,13.2-7.8,19.8-11.6c5.8-3.3,11.6-6.5,17.3-10c2.7-1.7,2.6-2.6-0.2-4.2
	c-9.8-5.5-19.5-10.9-29.3-16.3C91,65,87.9,63.6,85,62.1z M160.7,299.8c0,6.7,0,13.4,0,20c0,3.3,1.4,4.1,4.1,2.5
	c12.8-7.3,25.6-14.7,38.3-22.2c1.2-0.7,2.4-2.6,2.4-3.9c0.2-13.7,0.2-27.4,0.1-41.1c0-2.8-1.1-3.3-3.6-1.8
	c-12.9,7.4-25.8,14.9-38.7,22.2c-2,1.1-2.8,2.6-2.7,4.8C160.8,286.9,160.7,293.4,160.7,299.8z M233.6,227.3c1.7-0.6,3.1-1,4.3-1.7
	c10.6-6,21.2-12.1,31.7-18.2c1.4-0.8,2.6-2.2,3.8-3.3c-1.3-1.1-2.5-2.5-3.9-3.3c-11.5-6.7-23.1-13.3-34.6-20
	c-3.1-1.8-5.9-1.9-9.1-0.1c-6.3,3.8-12.6,7.4-19,11.1c-4.8,2.8-9.6,5.6-14.3,8.5c-1.7,1-2.4,2.4-0.1,3.7
	c10.8,6.2,21.5,12.4,32.3,18.6C227.8,224.3,230.7,225.8,233.6,227.3z M82.2,227.3c1.4-0.6,2.6-1,3.6-1.5c12.1-7,24.3-13.9,36.3-20.9
	c1.1-0.7,2.1-1.7,3.1-2.5c-1-1-1.8-2.3-3-3c-8.6-5.1-17.2-10.2-25.9-15c-11.3-6.2-7.8-7.6-20.1-0.4c-10.3,6-20.6,11.8-30.9,17.8
	c-3.4,2-3.4,3,0,5c10.3,6,20.5,12,30.8,17.9C78.2,225.6,80.2,226.4,82.2,227.3z M236.5,139.1c0,6.3,0,12.7,0,19c0,4.3,1.3,5,5,2.8
	c11.2-6.5,22.5-13,33.8-19.4c2.3-1.3,3.2-3.2,3.2-5.7c0-12.9,0-25.8,0-38.7c0-3.6-1.1-4.3-4.2-2.6c-11.7,6.7-23.2,13.4-34.9,20.1
	c-2.2,1.2-3,3-2.9,5.5C236.6,126.4,236.5,132.7,236.5,139.1z M236.5,256c0,6.1,0,12.2,0,18.4c0,5,1.1,5.7,5.4,3.2
	c11.1-6.3,22.1-12.8,33.1-19.2c2.4-1.4,3.5-3.4,3.5-6.3c-0.1-12.7,0-25.4-0.1-38c0-1.2-0.5-2.7-1.3-3.4c-0.5-0.4-2.2,0.3-3.2,0.8
	c-11.1,6.3-22,12.9-33.2,19c-3.1,1.7-4.3,3.7-4.3,7.1C236.6,243.7,236.5,249.8,236.5,256z M79.7,139.4
	C79.6,139.4,79.6,139.4,79.7,139.4c-0.1-5.5-0.4-10.9,0-16.4c0.4-5-1-8.1-5.8-10.5c-10.7-5.6-21-12-31.5-18
	c-3.2-1.8-4.4-1.2-4.4,2.2c0,13.2-0.1,26.5,0.1,39.7c0,1.6,1.4,3.9,2.9,4.7c11.5,6.9,23.2,13.5,34.9,20.2c2.7,1.5,3.9,0.8,3.9-2.3
	C79.7,152.5,79.7,145.9,79.7,139.4z M79.6,256.2C79.6,256.2,79.6,256.2,79.6,256.2c-0.1-6.7-0.1-13.3-0.1-20c0-2.3-0.7-4-2.8-5.2
	c-11.4-6.4-22.7-13-34.1-19.4c-1.1-0.6-2.8-1.3-3.5-0.8c-0.8,0.5-1.2,2.2-1.2,3.5c-0.1,12.6,0.1,25.1-0.1,37.7
	c0,3.4,1.5,5.3,4.2,6.9c6.4,3.6,12.7,7.3,19,10.9c4.9,2.8,9.8,5.7,14.7,8.4c2.9,1.6,3.9,0.9,3.9-2.3
	C79.6,269.3,79.6,262.8,79.6,256.2z M198.6,42.8c-1.2-0.4-1.9-0.6-2.6-1c-11.6-6.5-23.2-13-34.7-19.7c-2.2-1.3-4-1.3-6.2-0.1
	c-11.5,6.7-23.1,13.2-34.7,19.8c-2,1.1-1.7,3.3,0.6,4.7c11.1,6.4,22.3,12.8,33.4,19.3c2.6,1.5,4.8,1.5,7.4,0
	c11-6.5,22.1-12.7,33.1-19.2C196,46,196.7,44.8,198.6,42.8z M231.8,141.1c0-7-0.1-14,0.1-21c0.1-3-1.2-4.8-3.7-6.1
	c-0.9-0.5-1.8-0.9-2.6-1.4c-11.7-6.8-23.4-13.5-35.1-20.3c-2.8-1.6-4-1-4.1,2c-0.1,5.2-0.3,10.5,0.1,15.7c0.1,1.8,1.6,3.9,3.1,4.9
	c5.7,3.8,11.8,7.1,17.6,10.7c3.1,2,4.5,5,4.5,8.8c0,6.2,0,12.5,0,18.7c0,2.5,1,4.1,3.2,5.3c3.9,2.1,7.7,4.4,11.5,6.6
	c3.6,2.1,5.5,1.2,5.5-2.9C231.8,155.1,231.8,148.1,231.8,141.1z M84.8,140.7c0,7.1,0,14.2,0,21.4c0,4.2,1.5,5.1,5.1,3
	c3.8-2.2,7.7-4.5,11.5-6.6c2.3-1.3,3.6-3.1,3.5-5.9c-0.1-6.2,0-12.5,0-18.7c-0.1-4.4,2-7.3,5.7-9.4c5.5-3.1,11.1-6.2,16.4-9.6
	c1.4-0.9,2.9-3,3-4.7c0.4-5.3,0.2-10.7,0.1-16c-0.1-2.9-1.3-3.5-3.8-2c-12.8,7.4-25.5,14.8-38.3,22.1c-2.1,1.2-3.1,2.8-3.1,5.4
	C84.9,126.7,84.8,133.7,84.8,140.7z M231.8,256c0-6.5,0-12.9,0-19.4c0-2.4-0.6-4.2-2.9-5.5c-12.7-7.2-25.4-14.5-38.1-21.8
	c-3-1.7-4.4-1.3-4.5,1.8c-0.1,5.2-0.3,10.5,0.2,15.7c0.2,1.9,1.8,4.1,3.4,5.2c5.1,3.3,10.4,6.3,15.8,9.2c4.4,2.4,6.1,6.1,6,11
	c-0.1,4.6-0.1,9.1,0,13.7c0,1.3,0.4,3.2,1.4,3.8c4.9,3.1,9.9,5.9,15,8.6c2.8,1.5,3.7,0.7,3.7-2.6C231.8,269.1,231.8,262.5,231.8,256
	z M84.8,255.4C84.8,255.4,84.8,255.4,84.8,255.4c0,6.8,0,13.6,0,20.4c0,3.2,1.1,3.8,3.9,2.3c4.4-2.4,8.6-5.1,13-7.5
	c2.4-1.3,3.2-3.1,3.2-5.7c-0.1-3.8,0.3-7.6-0.1-11.3c-0.6-6.6,2.3-10.7,7.9-13.6c4.7-2.5,9.3-5.1,13.8-8c1.5-1,3.3-2.8,3.4-4.4
	c0.4-5.4,0.2-10.9,0.1-16.3c-0.1-2.9-1.5-3.6-3.9-2.2c-1.4,0.8-2.9,1.7-4.3,2.5c-10.8,6.3-21.6,12.8-32.6,18.8
	c-3.6,1.9-4.6,4.1-4.5,7.8C85,243.9,84.8,249.6,84.8,255.4z M201.9,60.9c0-2.4,0.1-4.9,0-7.3c-0.1-3.5-1.1-4-4-2.2
	c-0.9,0.6-1.9,1.2-2.8,1.7c-10.6,6.1-21.2,12.1-31.7,18.3c-1.2,0.7-2.4,2.5-2.5,3.8c-0.2,7-0.2,14,0,21c0,1.2,0.9,2.9,1.9,3.5
	c4.7,2.9,9.6,5.6,14.4,8.3c2.9,1.6,3.7,1.2,3.8-2.1c0.1-5.2,0.4-10.5-0.1-15.7c-0.4-5.1,0.8-8.6,6-10.2c2-0.6,3.7-1.9,5.6-3
	C201.9,71.5,201.9,71.5,201.9,60.9z M155.5,85.6C155.5,85.6,155.5,85.6,155.5,85.6c0-2.7-0.2-5.4,0.1-8c0.3-3.5-1.1-5.6-4.1-7.2
	c-10.9-6.2-21.7-12.5-32.5-18.8c-2.8-1.6-4.1-0.9-4.2,2.4c-0.1,5-0.1,10,0.1,15c0.1,1.3,1,3.1,2.2,3.8c4.8,3,9.8,5.7,14.8,8.3
	c2.8,1.4,4.2,3.3,4.2,6.5c-0.1,6-0.1,12,0,18c0.1,3.1,1,3.6,3.7,2.1c4.3-2.5,8.7-4.8,12.9-7.6c1.4-1,2.6-3,2.8-4.7
	C155.8,92.1,155.5,88.9,155.5,85.6z"/>
</svg>
