<?xml version="1.0" encoding="utf-8"?>
<!-- Generator: Adobe Illustrator 18.0.0, SVG Export Plug-In . SVG Version: 6.00 Build 0)  -->
<!DOCTYPE svg PUBLIC "-//W3C//DTD SVG 1.1//EN" "http://www.w3.org/Graphics/SVG/1.1/DTD/svg11.dtd">
<svg version="1.1" id="Layer_1" xmlns="http://www.w3.org/2000/svg" xmlns:xlink="http://www.w3.org/1999/xlink" x="0px" y="0px"
	 viewBox="0 0 523.2 104" enable-background="new 0 0 523.2 104" xml:space="preserve">
<path d="M183.3,77.4c-10.2,0-17.9-7.6-17.9-17.6c0-10.1,7.6-17.7,17.9-17.7c8.8,0,15.6,5.8,17,14.3h-9.4c-1.2-3.4-4.1-5.7-7.6-5.7
	c-4.8,0-8.2,3.8-8.2,9c0,5.2,3.5,9,8.2,9c3.7,0,6.7-2.4,7.6-6.2h9.5C199.1,71.4,192.3,77.4,183.3,77.4L183.3,77.4z"/>
<path d="M204.4,43h8.9l0,33.6h-8.9L204.4,43z"/>
<path d="M217.4,63.6c0-8,6.1-13.8,14.5-13.8c8.4,0,14.5,5.8,14.5,13.8c0,8-6.1,13.8-14.5,13.8C223.5,77.4,217.4,71.6,217.4,63.6z
	 M237.6,63.6c0-3.4-2.3-5.8-5.6-5.8c-3.3,0-5.6,2.4-5.6,5.8c0,3.4,2.3,5.8,5.6,5.8C235.2,69.4,237.6,67,237.6,63.6z"/>
<path d="M250.3,65.4V50.7h8.9v14.4c0,2.7,1.5,4.3,3.9,4.3s3.8-1.6,3.8-4.3V50.7h8.9v14.8c0,7.3-5.1,12-12.8,12
	C255.4,77.4,250.3,72.7,250.3,65.4z"/>
<path d="M308.5,43v33.6l-7.4-1.9c-2.1,1.8-4.8,2.8-7.8,2.8c-8,0-13.6-5.8-13.6-13.8c0-8.1,5.7-13.8,13.6-13.8c2.4,0,4.6,0.6,6.4,1.8
	V43H308.5z M300.2,63.6c0-3.4-2.5-5.9-5.8-5.9c-3.3,0-5.8,2.5-5.8,5.9c0,3.4,2.5,5.9,5.8,5.9C297.8,69.5,300.2,67,300.2,63.6z"/>
<path fill="#004E76" d="M345.3,59.7c0,9.8-7.2,16.8-17.3,16.8h-13.6V43H328C338.2,43,345.3,49.9,345.3,59.7z M335.8,59.7
	c0-5-3.3-8.3-8.3-8.3h-3.9v16.6h3.9C332.5,68.1,335.8,64.7,335.8,59.7z"/>
<path fill="#004E76" d="M376.4,63.4c0,0.8-0.1,1.6-0.2,2.4H357c0.6,3,2.5,4.5,5.3,4.5c2.1,0,3.8-0.9,4.7-2.4h8.9
	c-1.8,5.9-7.1,9.6-13.6,9.6c-8.1,0-14.1-5.9-14.1-13.8c0-7.9,5.9-13.8,14.1-13.8C370.6,49.8,376.4,55.8,376.4,63.4L376.4,63.4z
	 M357.1,60.8h10.5c-0.8-2.6-2.7-4-5.3-4C359.7,56.8,357.9,58.2,357.1,60.8z"/>
<path fill="#004E76" d="M405.6,50.7l-10.4,25.9h-8.1l-10.6-25.9h9.8l4.9,15.4l4.8-15.4H405.6z"/>
<path d="M430.3,68.1v8.5h-21.3V49.8V43h4h5.4v25.1H430.3z"/>
<path d="M461.3,50.6v25.9l-7.7-1.8c-2.1,1.7-4.8,2.7-7.8,2.7c-7.9,0-13.6-5.8-13.6-13.8c0-8,5.7-13.7,13.6-13.7c3.1,0,5.8,1,7.9,2.8
	l1.9-2L461.3,50.6z M452.8,63.6c0-3.4-2.5-5.9-5.8-5.9c-3.4,0-5.8,2.5-5.8,5.9c0,3.4,2.5,5.9,5.8,5.9
	C450.4,69.5,452.8,67,452.8,63.6z"/>
<path d="M495.8,63.6c0,8.1-5.6,13.8-13.6,13.8c-3,0-5.7-1-7.8-2.8l-7.4,1.9l0-33.6h8.8l0,8.7c1.9-1.1,4-1.8,6.4-1.8
	C490.2,49.8,495.8,55.6,495.8,63.6z M486.8,63.6c0-3.4-2.5-5.9-5.8-5.9c-3.3,0-5.8,2.5-5.8,5.9c0,3.4,2.5,5.9,5.8,5.9
	C484.4,69.5,486.8,67,486.8,63.6z"/>
<path d="M509.9,77.4c-7.1,0-11.4-3.7-11.4-9.3h8.6c0,1.9,1.3,2.8,3,2.8c1.3,0,2.5-0.7,2.5-2c0-1.5-2-1.9-4.5-2.3
	c-4-0.7-9.3-1.9-9.3-8.2c0-5.2,4.4-8.5,11.1-8.5c6.6,0,10.9,3.5,11,8.8h-8.4c0-1.7-1.1-2.4-2.7-2.4c-1.4,0-2.4,0.7-2.4,1.9
	c0,1.5,2,1.8,4.4,2.3c4.1,0.7,9.5,1.6,9.5,8.2C521.4,73.9,516.8,77.4,509.9,77.4L509.9,77.4z"/>
<path fill="#004E76" d="M139.8,70.2c0-0.1,0-0.3,0-0.4c0-0.2,0-0.3,0-0.5c-0.1-1.4-0.2-2.7-0.4-4.1c0,0,0-0.1,0-0.1c0,0,0-0.1,0-0.1
	c-0.3-1.6-0.7-3.1-1.2-4.6c0,0,0-0.1,0-0.1l0,0c0,0,0,0,0,0c-0.2-0.5-0.4-1.1-0.6-1.6l0,0l0,0c-0.7-1.7-1.5-3.3-2.4-4.8
	c-0.1-0.1-0.1-0.2-0.2-0.4c-0.1-0.2-0.3-0.4-0.4-0.6c0,0,0,0,0,0c0-0.1-0.1-0.1-0.1-0.2c-0.2-0.2-0.3-0.5-0.5-0.7l-0.3-0.4
	c-0.3-0.3-0.5-0.7-0.8-1.1c0-0.1-0.1-0.1-0.1-0.2c-0.3-0.4-0.7-0.8-1-1.2c-0.3-0.3-0.5-0.6-0.8-0.8c-0.1-0.1-0.3-0.3-0.4-0.4
	c-0.3-0.3-0.6-0.6-0.9-0.8c-0.1-0.1-0.2-0.2-0.3-0.3c-0.6-0.5-1.3-1.1-1.9-1.6c-0.1-0.1-0.2-0.1-0.3-0.2c-0.3-0.2-0.6-0.5-1-0.7
	c-0.2-0.1-0.4-0.2-0.5-0.4c-0.3-0.2-0.6-0.4-0.9-0.6c-0.3-0.2-0.6-0.4-0.9-0.5c-0.4-0.2-0.7-0.4-1.1-0.6c-0.4-0.2-0.7-0.4-1.1-0.5
	c-0.2-0.1-0.4-0.2-0.6-0.3c-0.5-0.2-0.9-0.4-1.4-0.6c-0.1,0-0.1-0.1-0.2-0.1l-0.2-0.1c0,0-0.1,0-0.1-0.1l-0.6-0.2l-0.8-0.2
	c-3-0.9-6.2-1.4-9.5-1.4c-0.1,0-0.3,0-0.4,0C106.4,18,89.1,1.4,67.9,1.4c-21.3,0-38.8,16.9-39.7,38c-0.6,0.1-1.1,0.2-1.7,0.3
	c0,0,0,0,0,0c-5.1,1.2-9.9,3.6-13.9,7.1c0,0,0,0,0,0c-5.7,5-9.6,12-10.6,20c0,0.2,0,0.3-0.1,0.5c-0.1,0.5-0.1,1-0.1,1.4
	c0,0.2,0,0.4,0,0.5c0,0.6,0,1.3,0,1.9c0,0.2,0,0.3,0,0.5C1.9,72.5,2,73.2,2,74c0,0,0,0,0,0c0,0.3,0,0.6,0.1,0.9
	c0.4,3.4,1.4,6.7,2.9,9.8c0,0,0.1,0,0.1,0c0.6,1.3,1.3,2.6,2.2,3.8c0,0,0.1,0,0.1,0c5.7,8.5,15.4,14.1,26.4,14.1
	c7.7,0,15.1-2.8,20.9-7.8c4.5-3.3,9.3-7.1,14.5-11.5l14.3-12.6l1.5-11.1L74.3,58c-10.9,9.4-24.2,21-25.2,21.7L49,79.8l0,0
	c-4.4,4-9.6,7.3-15.2,7.4c-9.1,0.1-16.5-7.4-16.5-16.5c0-3.3,1-6.4,2.6-9c2.4-3.6,6.1-6.2,10.6-7c2.5,6.9,6.9,12.9,12.5,17.5
	l10.9-9.4c-7.1-4.6-11.8-12.6-11.8-21.6c0-14.2,11.6-25.8,25.8-25.8s25.8,11.6,25.8,25.8c0,0.4,0,0.8,0,1.2
	c-2.8,1.4-5.3,3.2-7.4,5.2c-1.5,1.3-3.7,3.2-6.3,5.5l11.2,1.5l-1.4,10.3l2.7-2.4c0,0,0,0,0,0c0,0,0,0,0.1-0.1l5.6-4.9
	c0.2-0.1,0.4-0.3,0.6-0.4v0c0,0,0.1,0,0.1-0.1c1.4-0.8,2.7-1.5,3.9-1.9c1.9-0.6,3.9-0.9,5.8-0.9c0.2,0,0.3,0,0.5,0
	c0.5,0,1.1,0.1,1.6,0.2c0,0,0.1,0,0.1,0l0.1,0c3.1,0.5,6,2,8.4,4.1c0.1,0.1,0.2,0.1,0.2,0.2c0.2,0.2,0.4,0.4,0.6,0.6
	c0.2,0.2,0.3,0.3,0.4,0.5c0.2,0.2,0.4,0.5,0.6,0.7c0.1,0.2,0.2,0.3,0.3,0.5c0.2,0.3,0.4,0.6,0.6,0.9c0.1,0.2,0.2,0.3,0.3,0.5
	c0.2,0.3,0.3,0.6,0.5,0.9c0.1,0.2,0.2,0.3,0.2,0.5c0.2,0.4,0.3,0.8,0.5,1.1c0,0.1,0.1,0.2,0.1,0.4c0.1,0.3,0.2,0.5,0.2,0.8
	c0.1,0.2,0.1,0.5,0.2,0.7c0,0.2,0.1,0.4,0.1,0.6c0.1,0.4,0.1,0.8,0.2,1.2c0,0.1,0,0.2,0,0.2c0.1,0.5,0.1,1,0.1,1.6
	c0,0.1,0,0.2,0,0.2c0,0.3,0,0.5,0,0.8c0,0.1,0,0.1,0,0.2c-0.1,0.9-0.2,1.8-0.4,2.7c0,0.1,0,0.1,0,0.2c-0.3,1.3-0.8,2.6-1.5,3.7
	l-0.1,0.1c-1.8,3.2-4.6,5.8-8.1,7.3c-0.9,0.4-1.9,0.7-2.9,0.9l-0.2,0c-0.5,0.1-1,0.2-1.4,0.2l-0.3,0c-1.1,0.1-2,0.1-2.8,0l-0.1,0
	c-0.4,0-0.8-0.1-1.2-0.1c-0.1,0-0.1,0-0.2,0l-0.2,0c-0.3,0-0.5-0.1-0.8-0.2c-0.2,0-0.4-0.1-0.6-0.2c-0.2,0-0.4-0.1-0.5-0.2
	c-0.3-0.1-0.5-0.2-0.8-0.3L102,86c-0.3-0.1-0.6-0.3-0.9-0.4l-0.1-0.1c-0.7-0.3-1.4-0.7-2.1-1.2c-1.1-0.7-2.1-1.6-3.1-2.6
	c-0.3-0.3-0.5-0.6-0.7-0.8l-0.2-0.2c-0.2-0.2-0.4-0.5-0.5-0.7c-0.1-0.1-0.2-0.3-0.3-0.4c-0.1-0.2-0.2-0.4-0.3-0.6
	c-0.1-0.2-0.2-0.4-0.4-0.7c-0.1-0.1-0.1-0.3-0.2-0.4c-0.1-0.3-0.3-0.6-0.4-0.9l-0.1-0.3c-0.1-0.3-0.2-0.7-0.4-1c0,0,0-0.1,0-0.1
	L80.2,86c0.2,0.3,0.3,0.6,0.5,0.8l0.1,0.1c0.1,0.1,0.1,0.2,0.2,0.4c0.3,0.5,0.7,1.1,1,1.6c0.3,0.4,0.5,0.7,0.8,1.1l0.3,0.4
	c3,3.8,6.9,6.9,11.3,9l0.1,0c0.7,0.3,1.3,0.6,1.9,0.8l0.4,0.2c0.6,0.2,1.1,0.4,1.7,0.6c0.2,0.1,0.4,0.1,0.6,0.2l0.2,0.1
	c0.5,0.1,0.9,0.3,1.4,0.4c0.3,0.1,0.7,0.1,1,0.2l0.5,0.1c0.3,0.1,0.6,0.1,0.8,0.2c0.6,0.1,1.1,0.1,1.7,0.2l0.2,0
	c0.2,0,0.3,0,0.5,0.1c0.9,0.1,1.7,0.1,2.5,0.1h0c0.6,0,1.1,0,1.7,0l0.2,0c0.5,0,1-0.1,1.5-0.1l0.4-0.1c0.4,0,0.8-0.1,1.2-0.2
	l0.6-0.1c0.3-0.1,0.7-0.1,1-0.2c0.3-0.1,0.5-0.1,0.8-0.2c0.2-0.1,0.5-0.1,0.7-0.2c0.3-0.1,0.7-0.2,1-0.3l0.4-0.1
	c0.4-0.1,0.8-0.3,1.3-0.4c4.8-1.8,9.2-4.7,12.6-8.5l0,0c0.2-0.2,0.4-0.5,0.6-0.7l0.1-0.1c0.1-0.1,0.2-0.2,0.3-0.3
	c0.1-0.1,0.1-0.2,0.2-0.2l0.4-0.5l0.5-0.7l0,0c0,0,0.1-0.1,0.1-0.1c0.3-0.4,0.5-0.7,0.8-1.1l0.3-0.4c1.1-1.6,2-3.4,2.7-5.2
	c0,0,0-0.1,0.1-0.1c0.3-0.6,0.5-1.3,0.7-1.9c0.1-0.2,0.1-0.3,0.2-0.5c0.2-0.7,0.4-1.3,0.5-2c0-0.1,0-0.1,0-0.2
	c0.2-0.7,0.3-1.5,0.4-2.2c0-0.1,0-0.3,0.1-0.4c0.1-0.3,0.1-0.7,0.1-1l0-0.1c0.1-0.7,0.1-1.4,0.2-2.1l0-0.5c0-0.2,0-0.4,0-0.6
	c0-0.1,0-0.2,0-0.4C139.8,70.5,139.8,70.4,139.8,70.2z"/>
</svg>
