<svg width="509" height="131" xmlns="http://www.w3.org/2000/svg">

 <g>
  <title>background</title>
  <rect fill="none" id="canvas_background" height="133" width="511" y="-1" x="-1"/>
 </g>
 <g>
  <title>Layer 1</title>
  <g id="svg_1">
   <path id="svg_2" d="m110.400557,34.399988c-6.3,0 -12.1,2.8 -16.1,7.2c-9.9,-0.7 -23.8,-5.1 -32.3,-10.6c0.1,-1.1 0.3,-2.3 0.3,-3.4c0,-1.2 -0.1,-2.3 -0.4,-3.4c5.8,-3.2 18.1,-6.3 18.1,-6.3s3.5,6.2 9.9,6c6.2,-0.3 11,-5.1 11,-11.1c0.1,-6.3 -5,-11.3 -11,-11.3c-5.8,0 -10.7,5.9 -11,10.3c-4.8,3.5 -9.4,5.2 -19.5,6.2c-3.2,-5.2 -9,-8.6 -15.6,-8.6c-10.1,0.1 -18.3,8.3 -18.1,18.4c0.1,10.1 8.3,18.3 18.4,18.1c6.3,0 11.7,-3.2 15,-8.1c6.7,1.7 18.8,6.3 29.5,16.6c0,0.7 -0.1,1.3 -0.1,2c0,1.5 0.1,2.8 0.4,4.2c-5.2,4.3 -18.4,13.4 -36.9,15.3c-5.6,-5.4 -13.2,-8.6 -21.5,-8.6c-16.9,0.1 -30.6,14 -30.5,31c0.1,16.9 14.1,30.6 31,30.5c16.9,-0.1 30.6,-14 30.5,-31c0,-2.6 -0.4,-5.1 -0.9,-7.5c7.7,-8.6 21.6,-17.9 32.2,-21.1c4,5.5 10.6,9 18,9c12.2,-0.1 21.9,-10.1 21.9,-22.3c-0.2,-11.9 -10.2,-21.7 -22.3,-21.5z" fill="#034F7D"/>
   <polygon id="svg_3" points="143.90057373046875,0 143.90057373046875,118.5999755859375 146.50054931640625,118.5999755859375 146.50054931640625,0 " fill="#4D4D4E"/>
   <g id="svg_4">
    <path id="svg_5" d="m302.700557,41.599988l14.6,0c11.1,0 17.4,6.4 17.4,18c0,11.6 -6.3,18 -17.4,18l-14.6,0l0,-36zm13.6,29.4c7.3,0 10.4,-4.1 10.4,-11.4s-3.3,-11.4 -10.4,-11.4l-5.7,0l0,22.8l5.7,0z" fill="#034F7D"/>
    <path id="svg_6" d="m351.600557,78.299988c-8,0 -13.3,-5.4 -13.3,-13.6c0,-8.1 5.6,-14 13.1,-14c7.9,0 12.9,5.7 12.9,14.9l0,0.7l-18.7,0c0.1,4.4 2.3,6.9 6.1,6.9c2.6,0 4.3,-1.1 5.3,-3.9l6.9,0c-1.8,5.8 -6.5,9 -12.3,9zm-0.3,-22.4c-3.1,0 -5.4,2.3 -5.9,5.9l11.4,0c-0.2,-3.2 -2,-5.9 -5.5,-5.9z" fill="#034F7D"/>
    <path id="svg_7" d="m391.500557,51.399988l-8.9,26l-8,0l-9,-26l7.6,0l5.6,17.7l5.6,-17.7l7.1,0z" fill="#034F7D"/>
    <path id="svg_8" d="m420.700557,77.599988l-25.4,0l0,-36l7.9,0l0,29.1l17.6,0l0,6.9l-0.1,0z" fill="#1E1E1E"/>
    <path id="svg_9" d="m441.400557,77.599988c-0.3,-1 -0.4,-1.4 -0.6,-2.6c-2.3,2.3 -5.3,3.3 -8.4,3.3c-5.7,0 -9.3,-3 -9.3,-7.9c0,-6.9 6.1,-7.6 11.4,-8.3c4.7,-0.6 6.4,-1 6.4,-3.1c0,-2.4 -1.6,-3.4 -4.7,-3.4c-3.3,0 -4.7,1 -5.1,4l-6.7,0c0.4,-5.9 4.6,-8.9 12.1,-8.9c5.3,0 11.4,1.1 11.4,8.4l0,11.3c0,2.4 0,4.9 0.9,7l-7.4,0l0,0.2l0,0zm-5.6,-11.5c-2.4,0.4 -5.3,0.7 -5.3,3.9c0,2.1 1.4,3.4 4,3.4c3.7,0 6.4,-2 6.4,-5.9l0,-2.7c-1.7,1 -3.2,1 -5.1,1.3z" fill="#1E1E1E"/>
    <path id="svg_10" d="m460.500557,54.599988c2,-2.6 4.9,-3.9 8.3,-3.9c7.1,0 11.1,6 11.1,13.4c0,8.3 -4.7,14 -11.6,14c-3.4,0 -6.3,-1.1 -8.1,-4l0,3.3l-6.9,0l0,-35.8l7.1,0l0,13l0.1,0zm-0.3,9.7c0,5 2.4,8.1 6.3,8.1c3.7,0 6.1,-3.3 6.1,-8.1c0,-4.9 -2.4,-8 -6.1,-8c-3.8,0 -6.3,3.1 -6.3,8z" fill="#1E1E1E"/>
    <path id="svg_11" d="m499.600557,58.999988c-0.4,-2.7 -2,-3.6 -5,-3.6c-2.6,0 -4,1 -4,2.6c0,2.1 2.3,2.4 6.4,3.3c4.7,1 10.1,2.1 10.1,8.1c0,5.4 -4.4,8.9 -11.9,8.9c-6.6,0 -12.1,-2.6 -12.3,-9.3l6.9,0c0.3,3.1 2.3,4.3 5.6,4.3c3,0 4.7,-1.3 4.7,-3.3c0,-2.3 -2.1,-2.6 -5.9,-3.4c-4.7,-1 -10.7,-1.7 -10.7,-8c0,-5.1 4.1,-8 11.4,-8c6,0 11.1,2.3 11.3,8.3l-6.7,0l0,0.1l0.1,0z" fill="#1E1E1E"/>
    <path id="svg_12" d="m178.200557,78.599988c-10.7,0 -17.8,-7.7 -17.8,-19.3c0,-10.7 6.8,-19.2 18.1,-19.2c8.8,0 15.3,5.6 15.9,13.2l-7.9,0c-0.8,-4 -3.8,-6.4 -8.2,-6.4c-7.1,0 -9.8,6.3 -9.8,12.5c0,7.6 3.8,12.4 9.7,12.4c4.9,0 7.7,-2.9 8.4,-8.3l8,0c-0.7,9 -6.3,15.1 -16.4,15.1z"/>
    <path id="svg_13" d="m206.100557,77.599988l-7.3,0l0,-36.7l7.3,0l0,36.7z"/>
    <path id="svg_14" d="m237.700557,64.299988c0,8.6 -5.4,14.1 -13.7,14.1c-8.3,0 -13.8,-5.6 -13.8,-14.1s5.5,-14.1 13.9,-14.1c8.2,0 13.6,5.6 13.6,14.1zm-20.2,0c0,5.5 2.4,8.6 6.5,8.6c4,0 6.4,-3.2 6.4,-8.7c0,-5.3 -2.4,-8.5 -6.5,-8.5c-3.9,0.1 -6.4,3.3 -6.4,8.6z"/>
    <path id="svg_15" d="m266.600557,77.599988l-7,0l0,-3.8c-2,2.9 -4.9,4.5 -8.7,4.5c-5.7,0 -9.3,-3.1 -9.3,-9.5l0,-17.9l7.4,0l0,15.2c0,3.4 0.3,6 4.5,6c4.6,0 5.8,-3.5 5.8,-7.5l0,-13.7l7.3,0l0,26.7l0,0z"/>
    <path id="svg_16" d="m290.400557,77.599988l0,-3.4c-1.8,2.7 -4.4,4.1 -8,4.1c-7.4,0 -12.1,-5.5 -12.1,-14.1c0,-8.4 4.6,-13.9 11.7,-13.9c3.1,0 6.4,1.3 8.1,4l0,-12.7l7.3,0l0,36l-7,0zm-6.5,-21.6c-4,0 -6.3,3 -6.3,8.2c0,5.2 2.4,8.3 6.3,8.3c4,0 6.3,-3 6.3,-8.2c0.1,-5.3 -2.3,-8.3 -6.3,-8.3z"/>
   </g>
  </g>
 </g>
</svg>