<?xml version="1.0" encoding="utf-8"?>
<!-- Generator: Adobe Illustrator 18.0.0, SVG Export Plug-In . SVG Version: 6.00 Build 0)  -->
<!DOCTYPE svg PUBLIC "-//W3C//DTD SVG 1.1//EN" "http://www.w3.org/Graphics/SVG/1.1/DTD/svg11.dtd">
<svg version="1.1" id="Layer_1" xmlns="http://www.w3.org/2000/svg" xmlns:xlink="http://www.w3.org/1999/xlink" x="0px" y="0px"
	 viewBox="0 0 332.3 183" enable-background="new 0 0 332.3 183" xml:space="preserve">
<path fill="#FFFFFF" d="M17.8,180.2c-9.5,0-16.6-7-16.6-16.3c0-9.4,7.1-16.4,16.6-16.4c8.2,0,14.5,5.4,15.8,13.3h-8.7
	c-1.1-3.2-3.8-5.3-7-5.3c-4.4,0-7.6,3.5-7.6,8.4c0,4.8,3.2,8.3,7.6,8.3c3.5,0,6.2-2.3,7-5.7h8.8C32.5,174.6,26.1,180.2,17.8,180.2
	L17.8,180.2z"/>
<path fill="#FFFFFF" d="M37.3,148.2h8.3l0,31.1h-8.3L37.3,148.2z"/>
<path fill="#FFFFFF" d="M49.4,167.4c0-7.4,5.6-12.8,13.5-12.8c7.8,0,13.5,5.4,13.5,12.8c0,7.4-5.7,12.8-13.5,12.8
	C55.1,180.2,49.4,174.8,49.4,167.4z M68.1,167.4c0-3.2-2.2-5.4-5.2-5.4c-3,0-5.2,2.2-5.2,5.4c0,3.2,2.2,5.4,5.2,5.4
	C65.9,172.7,68.1,170.5,68.1,167.4z"/>
<path fill="#FFFFFF" d="M79.9,169.1v-13.7h8.3v13.4c0,2.5,1.4,4,3.6,4s3.5-1.5,3.5-4v-13.4h8.3v13.7c0,6.7-4.7,11.1-11.8,11.1
	C84.6,180.2,79.9,175.8,79.9,169.1z"/>
<path fill="#FFFFFF" d="M133.8,148.2v31.1l-6.9-1.8c-2,1.6-4.4,2.6-7.2,2.6c-7.4,0-12.6-5.4-12.6-12.8c0-7.5,5.3-12.8,12.6-12.8
	c2.2,0,4.2,0.6,6,1.7v-8H133.8z M126.1,167.4c0-3.1-2.3-5.5-5.4-5.5c-3.1,0-5.4,2.4-5.4,5.5c0,3.1,2.3,5.5,5.4,5.5
	C123.9,172.9,126.1,170.5,126.1,167.4z"/>
<path fill="#FFFFFF" d="M168,163.8c0,9.1-6.7,15.6-16.1,15.6h-12.6v-31.1h12.6C161.3,148.2,168,154.7,168,163.8z M159.2,163.8
	c0-4.6-3.1-7.7-7.7-7.7h-3.6v15.4h3.6C156.1,171.5,159.2,168.4,159.2,163.8z"/>
<path fill="#FFFFFF" d="M196.8,167.1c0,0.7-0.1,1.4-0.2,2.2h-17.8c0.5,2.8,2.3,4.2,4.9,4.2c1.9,0,3.5-0.8,4.3-2.3h8.2
	c-1.7,5.5-6.6,8.9-12.6,8.9c-7.5,0-13.1-5.5-13.1-12.8c0-7.4,5.5-12.8,13.1-12.8C191.4,154.6,196.8,160.1,196.8,167.1L196.8,167.1z
	 M178.9,164.7h9.7c-0.7-2.4-2.5-3.7-5-3.7C181.3,161.1,179.6,162.4,178.9,164.7z"/>
<path fill="#FFFFFF" d="M223.9,155.4l-9.7,24h-7.5l-9.8-24h9.1l4.5,14.2l4.5-14.2H223.9z"/>
<path fill="#FFFFFF" d="M246.7,171.5v7.9h-19.8v-24.8v-6.3h3.7h5v23.3H246.7z"/>
<path fill="#FFFFFF" d="M275.5,155.3v24l-7.1-1.7c-2,1.6-4.5,2.5-7.2,2.5c-7.3,0-12.6-5.4-12.6-12.8c0-7.4,5.3-12.7,12.6-12.7
	c2.8,0,5.4,0.9,7.3,2.6l1.8-1.9L275.5,155.3z M267.6,167.4c0-3.1-2.3-5.5-5.4-5.5c-3.1,0-5.4,2.3-5.4,5.5c0,3.1,2.3,5.5,5.4,5.5
	C265.4,172.8,267.6,170.5,267.6,167.4z"/>
<path fill="#FFFFFF" d="M307.5,167.4c0,7.5-5.2,12.8-12.6,12.8c-2.8,0-5.3-0.9-7.2-2.6l-6.9,1.8l0-31.1h8.2l0,8
	c1.7-1.1,3.7-1.7,6-1.7C302.3,154.6,307.5,159.9,307.5,167.4z M299.1,167.4c0-3.1-2.3-5.5-5.4-5.5c-3.1,0-5.4,2.3-5.4,5.5
	c0,3.1,2.3,5.5,5.4,5.5C296.8,172.8,299.1,170.5,299.1,167.4z"/>
<path fill="#FFFFFF" d="M320.6,180.2c-6.5,0-10.5-3.5-10.6-8.7h8c0,1.8,1.2,2.6,2.8,2.6c1.2,0,2.4-0.6,2.4-1.9
	c0-1.4-1.8-1.8-4.1-2.2c-3.7-0.6-8.7-1.7-8.7-7.6c0-4.8,4.1-7.9,10.3-7.9c6.1,0,10.1,3.3,10.2,8.1H323c0-1.5-1-2.2-2.5-2.2
	c-1.3,0-2.2,0.7-2.2,1.8c0,1.4,1.8,1.7,4.1,2.1c3.8,0.7,8.8,1.5,8.8,7.6C331.2,176.9,326.9,180.2,320.6,180.2L320.6,180.2z"/>
<path fill="#FFFFFF" d="M245.6,80.9c0-0.1,0-0.3,0-0.4c0-0.2,0-0.4,0-0.5c-0.1-1.6-0.2-3.1-0.5-4.7c0,0,0-0.1,0-0.1c0,0,0-0.1,0-0.1
	c-0.3-1.8-0.8-3.6-1.4-5.3c0,0,0-0.1,0-0.1l0,0c0,0,0,0,0,0c-0.2-0.6-0.4-1.2-0.7-1.8l0,0l0,0c-0.8-1.9-1.7-3.7-2.8-5.5
	c-0.1-0.1-0.2-0.3-0.3-0.4c-0.2-0.2-0.3-0.5-0.5-0.7c0,0,0,0,0,0c0-0.1-0.1-0.1-0.1-0.2c-0.2-0.3-0.4-0.5-0.6-0.8l-0.3-0.4
	c-0.3-0.4-0.6-0.8-1-1.2c-0.1-0.1-0.1-0.1-0.2-0.2c-0.4-0.5-0.8-0.9-1.2-1.4c-0.3-0.3-0.6-0.6-0.9-0.9c-0.2-0.2-0.3-0.3-0.5-0.5
	c-0.3-0.3-0.7-0.6-1-0.9c-0.1-0.1-0.2-0.2-0.3-0.3c-0.7-0.6-1.4-1.2-2.2-1.8c-0.1-0.1-0.2-0.2-0.3-0.2c-0.4-0.3-0.7-0.5-1.1-0.8
	c-0.2-0.1-0.4-0.3-0.6-0.4c-0.3-0.2-0.7-0.5-1.1-0.7c-0.4-0.2-0.7-0.4-1.1-0.6c-0.4-0.2-0.8-0.4-1.2-0.7c-0.4-0.2-0.8-0.4-1.2-0.6
	c-0.2-0.1-0.5-0.2-0.7-0.3c-0.5-0.2-1.1-0.5-1.6-0.7c-0.1,0-0.2-0.1-0.2-0.1l-0.2-0.1c-0.1,0-0.1,0-0.2-0.1l-0.7-0.3l-0.9-0.3
	c-3.4-1.1-7.1-1.6-10.8-1.6c-0.2,0-0.3,0-0.5,0c-1.3-23.8-21.2-42.8-45.3-42.8c-24.4,0-44.3,19.3-45.4,43.4
	c-0.6,0.1-1.3,0.2-1.9,0.4c0-0.1,0,0,0,0c-5.9,1.3-11.3,4.1-15.8,8.1c0,0,0,0,0,0C94,59.9,89.5,67.9,88.4,77c0,0.2,0,0.4-0.1,0.6
	c-0.1,0.6-0.1,1.1-0.2,1.7c0,0.2,0,0.4,0,0.6c0,0.7,0,1.4,0,2.1c0,0.2,0,0.4,0,0.6c0,0.9,0.1,1.7,0.2,2.6c0,0,0,0,0,0
	c0,0.3,0.1,0.7,0.1,1c0.5,3.9,1.6,7.7,3.3,11.2c0,0,0.1,0,0.1,0c0.7,1.5,1.5,2.9,2.5,4.3c0.1,0,0.1,0,0.2-0.1
	c6.5,9.7,17.6,16.1,30.1,16.1c8.8,0,17.3-3.2,23.8-8.9c5.2-3.8,10.6-8.1,16.5-13.2l16.3-14.4l1.7-12.6l-12.1-1.6
	c-12.4,10.8-27.7,24-28.8,24.8l-0.1,0.1l0,0c-5,4.5-11,8.4-17.4,8.4c-10.4,0.1-18.8-8.4-18.8-18.8c0-3.8,1.1-7.3,3-10.3
	c2.7-4.1,7-7,12.1-8c2.9,7.9,7.9,14.8,14.3,20l12.4-10.7c-8.1-5.2-13.4-14.3-13.4-24.7c0-16.2,13.2-29.4,29.4-29.4
	S193,31.5,193,47.7c0,0.5,0,0.9,0,1.4c-3.2,1.6-6,3.6-8.5,6c-1.7,1.5-4.2,3.7-7.2,6.3l12.8,1.7l-1.6,11.7l3.1-2.7c0,0,0,0,0,0
	c0,0,0-0.1,0.1-0.1l6.4-5.6c0.2-0.2,0.5-0.3,0.7-0.4v0c0,0,0.1-0.1,0.1-0.1c1.6-1,3.1-1.7,4.4-2.2c2.2-0.7,4.4-1.1,6.7-1
	c0.2,0,0.4,0,0.6,0c0.6,0,1.2,0.1,1.8,0.2c0,0,0.1,0,0.1,0l0.1,0c3.6,0.6,6.9,2.3,9.5,4.7c0.1,0.1,0.2,0.2,0.3,0.2
	c0.2,0.2,0.5,0.5,0.7,0.7c0.2,0.2,0.3,0.4,0.5,0.6c0.2,0.3,0.4,0.5,0.7,0.8c0.1,0.2,0.3,0.4,0.4,0.5c0.2,0.3,0.5,0.7,0.7,1
	c0.1,0.2,0.2,0.4,0.4,0.6c0.2,0.3,0.4,0.7,0.6,1.1c0.1,0.2,0.2,0.4,0.3,0.5c0.2,0.5,0.4,0.9,0.5,1.3c0.1,0.1,0.1,0.3,0.2,0.4
	c0.1,0.3,0.2,0.6,0.3,0.9c0.1,0.3,0.2,0.6,0.2,0.8c0.1,0.2,0.1,0.5,0.2,0.7c0.1,0.4,0.2,0.9,0.2,1.4c0,0.1,0,0.2,0,0.3
	c0.1,0.6,0.1,1.2,0.1,1.8c0,0.1,0,0.2,0,0.3c0,0.3,0,0.6,0,0.9c0,0.1,0,0.2,0,0.2c-0.1,1-0.2,2.1-0.5,3.1c0,0.1,0,0.2-0.1,0.2
	c-0.4,1.5-0.9,2.9-1.7,4.3l-0.1,0.1c-2,3.7-5.3,6.7-9.2,8.3c-1.1,0.4-2.2,0.8-3.4,1l-0.2,0.1c-0.5,0.1-1.1,0.2-1.6,0.3l-0.3,0
	c-1.2,0.1-2.3,0.1-3.2,0l-0.1,0c-0.4,0-0.9-0.1-1.3-0.2c-0.1,0-0.2,0-0.2,0l-0.2,0c-0.3-0.1-0.6-0.1-0.9-0.2
	c-0.2-0.1-0.4-0.1-0.7-0.2c-0.2-0.1-0.4-0.1-0.6-0.2c-0.3-0.1-0.6-0.2-0.9-0.3l-0.4-0.1c-0.4-0.1-0.7-0.3-1.1-0.5l-0.1-0.1
	c-0.8-0.4-1.6-0.8-2.4-1.3c-1.3-0.9-2.4-1.8-3.5-3c-0.3-0.3-0.6-0.6-0.8-1l-0.2-0.3c-0.2-0.3-0.4-0.5-0.6-0.8
	c-0.1-0.2-0.2-0.3-0.3-0.5c-0.1-0.2-0.3-0.4-0.4-0.6c-0.1-0.2-0.3-0.5-0.4-0.8c-0.1-0.2-0.2-0.3-0.2-0.5c-0.2-0.3-0.3-0.6-0.4-1
	l-0.1-0.3c-0.1-0.4-0.3-0.8-0.4-1.1c0-0.1,0-0.1,0-0.2L177.6,99c0.2,0.3,0.3,0.6,0.5,0.9l0.1,0.2c0.1,0.1,0.2,0.3,0.2,0.4
	c0.4,0.6,0.8,1.2,1.2,1.8c0.3,0.4,0.6,0.8,0.9,1.2l0.3,0.4c3.4,4.4,7.9,7.9,12.9,10.3l0.1,0c0.8,0.4,1.5,0.7,2.2,1l0.5,0.2
	c0.6,0.2,1.3,0.5,1.9,0.7c0.2,0.1,0.5,0.1,0.7,0.2l0.3,0.1c0.5,0.1,1.1,0.3,1.6,0.4c0.4,0.1,0.8,0.2,1.2,0.2l0.5,0.1
	c0.3,0.1,0.6,0.1,1,0.2c0.6,0.1,1.3,0.2,1.9,0.2l0.3,0c0.2,0,0.4,0,0.6,0.1c1,0.1,1.9,0.1,2.8,0.1h0c0.7,0,1.3,0,2-0.1l0.2,0
	c0.6,0,1.1-0.1,1.7-0.1l0.5-0.1c0.5-0.1,0.9-0.1,1.4-0.2l0.7-0.1c0.4-0.1,0.7-0.1,1.1-0.2c0.3-0.1,0.6-0.1,0.9-0.2
	c0.3-0.1,0.6-0.1,0.8-0.2c0.4-0.1,0.8-0.2,1.2-0.3l0.5-0.1c0.5-0.2,0.9-0.3,1.5-0.5c5.5-2,10.5-5.4,14.4-9.7l0,0
	c0.2-0.3,0.5-0.5,0.7-0.8l0.1-0.1c0.1-0.1,0.2-0.2,0.3-0.4c0.1-0.1,0.1-0.2,0.2-0.3l0.5-0.6l0.6-0.8l0,0c0,0,0.1-0.1,0.1-0.1
	c0.3-0.4,0.6-0.8,0.9-1.3l0.3-0.5c1.2-1.9,2.2-3.9,3.1-6c0-0.1,0-0.1,0.1-0.2c0.3-0.7,0.6-1.5,0.8-2.2c0.1-0.2,0.1-0.4,0.2-0.6
	c0.2-0.7,0.4-1.5,0.6-2.3c0-0.1,0-0.1,0.1-0.2c0.2-0.8,0.4-1.7,0.5-2.5c0-0.2,0-0.3,0.1-0.5c0.1-0.4,0.1-0.8,0.2-1.2l0-0.1
	c0.1-0.8,0.1-1.6,0.2-2.4l0-0.5c0-0.2,0-0.4,0-0.6c0-0.1,0-0.3,0-0.4C245.7,81.2,245.6,81,245.6,80.9z"/>
</svg>
