<?xml version="1.0" encoding="utf-8"?>
<!-- Generator: Adobe Illustrator 18.0.0, SVG Export Plug-In . SVG Version: 6.00 Build 0)  -->
<!DOCTYPE svg PUBLIC "-//W3C//DTD SVG 1.0//EN" "http://www.w3.org/TR/2001/REC-SVG-20010904/DTD/svg10.dtd">
<svg version="1.0" id="Layer_1" xmlns="http://www.w3.org/2000/svg" xmlns:xlink="http://www.w3.org/1999/xlink" x="0px" y="0px"
	 viewBox="0 0 141.7 91.2" enable-background="new 0 0 141.7 91.2" xml:space="preserve">
<g>
	<path fill="#FFFFFF" d="M4.8,8.5c3.8,2.1,57,30.6,59,31.7c2,1.1,4.5,1.6,7.1,1.6c2.6,0,5.1-0.5,7.1-1.6c2-1.1,55.2-29.6,59-31.7
		c3.8-2.1,7.5-8.5,0.4-8.5H4.4C-2.7,0,1,6.5,4.8,8.5L4.8,8.5z M138.7,24.3c-4.4,2.3-58,30.3-60.6,31.7c-2.7,1.4-4.5,1.6-7.1,1.6
		c-2.6,0-4.5-0.2-7.1-1.6C61.1,54.6,7.5,26.6,3.2,24.3c-3.1-1.6-3,0.3-3,1.7v57.7c0,3.3,4.4,7.5,7.8,7.5h126c3.4,0,7.8-4.2,7.8-7.5
		V26C141.7,24.6,141.8,22.7,138.7,24.3L138.7,24.3z M138.7,24.3"/>
</g>
</svg>
