<?xml version="1.0" encoding="utf-8"?>
<!-- Generator: Adobe Illustrator 18.0.0, SVG Export Plug-In . SVG Version: 6.00 Build 0)  -->
<!DOCTYPE svg PUBLIC "-//W3C//DTD SVG 1.0//EN" "http://www.w3.org/TR/2001/REC-SVG-20010904/DTD/svg10.dtd">
<svg version="1.0" id="Layer_1" xmlns="http://www.w3.org/2000/svg" xmlns:xlink="http://www.w3.org/1999/xlink" x="0px" y="0px"
	 viewBox="0 0 141.7 141.7" enable-background="new 0 0 141.7 141.7" xml:space="preserve">
<g>
	<g>
		<path fill="#FFFFFF" d="M140.4,111.5c0.3,2.3-0.4,4.3-2.1,5.9L118.6,137c-0.9,1-2.1,1.8-3.5,2.5c-1.4,0.7-2.8,1.1-4.2,1.3
			c-0.1,0-0.4,0-0.9,0.1c-0.5,0-1.1,0.1-1.9,0.1c-1.9,0-4.9-0.3-9.1-1c-4.2-0.6-9.3-2.2-15.4-4.7c-6.1-2.5-13-6.3-20.7-11.3
			c-7.7-5-15.9-12-24.6-20.8C31.3,96.4,25.6,89.8,21,83.6c-4.5-6.2-8.2-12-11-17.3C7.3,61,5.2,56.3,3.8,51.9
			c-1.4-4.3-2.3-8-2.8-11.1c-0.5-3.1-0.7-5.6-0.6-7.3c0.1-1.8,0.1-2.8,0.1-3c0.2-1.4,0.6-2.8,1.3-4.2c0.7-1.4,1.5-2.6,2.5-3.5
			L24.1,3.1c1.4-1.4,3-2.1,4.7-2.1c1.3,0,2.4,0.4,3.4,1.1c1,0.7,1.8,1.7,2.5,2.7L50.7,35c0.9,1.6,1.1,3.3,0.7,5.2
			c-0.4,1.9-1.2,3.5-2.5,4.7l-7.3,7.3c-0.2,0.2-0.4,0.5-0.5,1c-0.1,0.4-0.2,0.8-0.2,1.1c0.4,2.1,1.3,4.4,2.7,7.1
			c1.2,2.4,3,5.3,5.5,8.7c2.5,3.4,6,7.3,10.5,11.8c4.4,4.5,8.4,8.1,11.9,10.6c3.5,2.5,6.4,4.4,8.7,5.6c2.3,1.2,4.1,1.9,5.3,2.2
			l1.9,0.4c0.2,0,0.5-0.1,1-0.2c0.4-0.1,0.8-0.3,1-0.5l8.5-8.6c1.8-1.6,3.9-2.4,6.2-2.4c1.7,0,3,0.3,4,0.9h0.1l28.6,16.9
			C138.8,107.9,140,109.5,140.4,111.5L140.4,111.5z M140.4,111.5"/>
	</g>
</g>
</svg>
