<?xml version="1.0" encoding="utf-8"?>
<!-- Generator: Adobe Illustrator 18.0.0, SVG Export Plug-In . SVG Version: 6.00 Build 0)  -->
<!DOCTYPE svg PUBLIC "-//W3C//DTD SVG 1.1//EN" "http://www.w3.org/Graphics/SVG/1.1/DTD/svg11.dtd">
<svg version="1.1" id="Layer_1" xmlns="http://www.w3.org/2000/svg" xmlns:xlink="http://www.w3.org/1999/xlink" x="0px" y="0px"
	 viewBox="0 0 102 30" enable-background="new 0 0 102 30" xml:space="preserve">
<rect x="0.5" y="0.5" fill="#D5D5D5" stroke="#898989" stroke-miterlimit="10" width="101" height="29"/>
<rect x="0.5" y="0.5" fill="#FFFFFF" stroke="#898989" stroke-miterlimit="10" width="26.7" height="28.9"/>
<g enable-background="new    ">
	<path fill="#898989" d="M35.6,17.2c0,0.3-0.1,0.6-0.2,0.9s-0.3,0.5-0.5,0.8s-0.5,0.4-0.8,0.5c-0.3,0.1-0.6,0.2-0.9,0.2h-0.7
		c-0.3,0-0.6-0.1-0.9-0.2c-0.3-0.1-0.6-0.3-0.8-0.5s-0.4-0.5-0.5-0.8S30,17.5,30,17.2v-0.4l0.9-0.1v0.5c0,0.2,0,0.4,0.1,0.6
		c0.1,0.2,0.2,0.4,0.4,0.5c0.2,0.1,0.3,0.3,0.5,0.3s0.4,0.1,0.6,0.1h0.6c0.2,0,0.4,0,0.6-0.1s0.4-0.2,0.5-0.3
		c0.2-0.1,0.3-0.3,0.4-0.5c0.1-0.2,0.1-0.4,0.1-0.6v-0.3c0-0.3-0.1-0.6-0.2-0.8s-0.3-0.4-0.5-0.6c-0.2-0.2-0.5-0.3-0.7-0.4
		c-0.3-0.1-0.6-0.2-0.9-0.3s-0.6-0.2-0.9-0.4s-0.5-0.3-0.7-0.5c-0.2-0.2-0.4-0.4-0.5-0.7s-0.2-0.6-0.2-1.1v-0.2
		c0-0.3,0.1-0.6,0.2-0.9s0.3-0.5,0.5-0.8s0.5-0.4,0.8-0.5c0.3-0.1,0.6-0.2,0.9-0.2h0.6c0.3,0,0.6,0.1,0.9,0.2
		c0.3,0.1,0.5,0.3,0.8,0.5s0.4,0.5,0.5,0.8s0.2,0.6,0.2,0.9v0.3l-0.9,0.1v-0.4c0-0.2,0-0.4-0.1-0.6c-0.1-0.2-0.2-0.4-0.3-0.5
		s-0.3-0.3-0.5-0.3s-0.4-0.1-0.6-0.1h-0.5c-0.2,0-0.4,0-0.6,0.1s-0.4,0.2-0.5,0.3s-0.3,0.3-0.3,0.5C31,11.5,31,11.7,31,11.9v0.2
		c0,0.3,0.1,0.6,0.2,0.8s0.3,0.4,0.5,0.5c0.2,0.2,0.5,0.3,0.7,0.4c0.3,0.1,0.6,0.2,0.9,0.3c0.3,0.1,0.6,0.2,0.9,0.4
		c0.3,0.1,0.5,0.3,0.7,0.5c0.2,0.2,0.4,0.4,0.5,0.7s0.2,0.6,0.2,1.1V17.2z"/>
	<path fill="#898989" d="M41.8,18.3c-0.1,0.3-0.3,0.5-0.4,0.7s-0.4,0.3-0.7,0.4c-0.3,0.1-0.5,0.2-0.8,0.2h-0.2
		c-0.3,0-0.6-0.1-0.9-0.2s-0.5-0.3-0.7-0.5v3.4h-0.8v-9.8h0.3l0.5,0.7c0.2-0.3,0.4-0.5,0.7-0.6c0.3-0.2,0.6-0.2,0.9-0.2h0.2
		c0.3,0,0.5,0.1,0.8,0.2c0.3,0.1,0.5,0.3,0.7,0.4s0.3,0.4,0.4,0.7s0.2,0.5,0.2,0.8v3.2C41.9,17.8,41.9,18.1,41.8,18.3z M41.1,14.3
		c0-0.2,0-0.3-0.1-0.5c-0.1-0.1-0.2-0.3-0.3-0.4s-0.2-0.2-0.4-0.3s-0.3-0.1-0.5-0.1h-0.6c-0.2,0-0.3,0-0.5,0.1s-0.3,0.2-0.4,0.3
		s-0.2,0.2-0.3,0.4c-0.1,0.1-0.1,0.3-0.1,0.5v3.3c0,0.2,0,0.3,0.1,0.5c0.1,0.1,0.2,0.3,0.3,0.4s0.2,0.2,0.4,0.3s0.3,0.1,0.5,0.1h0.6
		c0.2,0,0.3,0,0.5-0.1s0.3-0.2,0.4-0.3s0.2-0.2,0.3-0.4c0.1-0.1,0.1-0.3,0.1-0.5V14.3z"/>
	<path fill="#898989" d="M45.7,13.2c-0.2,0-0.3,0-0.5,0.1s-0.3,0.2-0.4,0.3s-0.2,0.2-0.3,0.4c-0.1,0.1-0.1,0.3-0.1,0.5v5h-0.8v-7
		h0.3l0.5,0.7c0.2-0.3,0.4-0.5,0.7-0.6c0.3-0.2,0.6-0.2,0.9-0.2h0.5v0.9H45.7z"/>
	<path fill="#898989" d="M47.8,10.7V9.6h1v1.1H47.8z M47.9,19.4v-7h0.8v7H47.9z"/>
	<path fill="#898989" d="M54.5,19.4v-5.1c0-0.2,0-0.3-0.1-0.5c-0.1-0.1-0.2-0.3-0.3-0.4s-0.2-0.2-0.4-0.3c-0.1-0.1-0.3-0.1-0.5-0.1
		h-0.6c-0.2,0-0.3,0-0.5,0.1c-0.1,0.1-0.3,0.2-0.4,0.3s-0.2,0.2-0.3,0.4c-0.1,0.1-0.1,0.3-0.1,0.5v5.1h-0.8v-7H51l0.5,0.7
		c0.2-0.3,0.4-0.5,0.7-0.6c0.3-0.2,0.6-0.2,0.9-0.2h0.2c0.3,0,0.5,0.1,0.8,0.2c0.3,0.1,0.5,0.3,0.7,0.4c0.2,0.2,0.3,0.4,0.4,0.7
		c0.1,0.3,0.2,0.5,0.2,0.8v5.1H54.5z"/>
	<path fill="#898989" d="M61.6,21.1c-0.1,0.2-0.3,0.4-0.4,0.6c-0.2,0.2-0.4,0.3-0.7,0.4c-0.3,0.1-0.5,0.1-0.8,0.1h-0.3
		c-0.3,0-0.5,0-0.8-0.1c-0.3-0.1-0.5-0.2-0.7-0.4c-0.2-0.2-0.3-0.4-0.4-0.6c-0.1-0.2-0.2-0.5-0.2-0.8v0c0-0.3,0-0.5,0.2-0.8
		c0.1-0.2,0.2-0.4,0.4-0.6c-0.2-0.1-0.4-0.3-0.5-0.5c-0.1-0.2-0.2-0.5-0.2-0.7c0-0.2,0.1-0.5,0.2-0.7c0.1-0.2,0.2-0.4,0.4-0.5
		c-0.2-0.2-0.4-0.4-0.5-0.7c-0.1-0.3-0.2-0.6-0.2-0.9v-0.5c0-0.3,0.1-0.5,0.2-0.8c0.1-0.3,0.3-0.5,0.4-0.7c0.2-0.2,0.4-0.3,0.7-0.4
		c0.3-0.1,0.5-0.2,0.8-0.2h0.3c0.3,0,0.7,0.1,0.9,0.2c0.3,0.2,0.5,0.4,0.7,0.6l0.5-0.7h0.3v2.4c0,0.3-0.1,0.5-0.2,0.8
		c-0.1,0.3-0.3,0.5-0.4,0.7c-0.2,0.2-0.4,0.3-0.7,0.4c-0.3,0.1-0.5,0.2-0.8,0.2h-1.2c-0.1,0-0.2,0-0.3,0.1c-0.1,0-0.2,0.1-0.2,0.2
		c-0.1,0.1-0.1,0.1-0.2,0.2c0,0.1-0.1,0.2-0.1,0.3s0,0.2,0.1,0.3c0,0.1,0.1,0.2,0.2,0.2c0.1,0.1,0.1,0.1,0.2,0.2
		c0.1,0,0.2,0.1,0.3,0.1h1.1c0.3,0,0.5,0,0.8,0.1c0.3,0.1,0.5,0.2,0.7,0.4c0.2,0.2,0.3,0.4,0.4,0.6c0.1,0.2,0.2,0.5,0.2,0.8v0
		C61.8,20.6,61.8,20.8,61.6,21.1z M61,14.3c0-0.2,0-0.3-0.1-0.5c-0.1-0.1-0.2-0.3-0.3-0.4c-0.1-0.1-0.2-0.2-0.4-0.3
		c-0.1-0.1-0.3-0.1-0.5-0.1h-0.7c-0.2,0-0.3,0-0.5,0.1c-0.1,0.1-0.3,0.2-0.4,0.3s-0.2,0.2-0.3,0.4c-0.1,0.1-0.1,0.3-0.1,0.5v0.6
		c0,0.2,0,0.3,0.1,0.5c0.1,0.1,0.2,0.3,0.3,0.4s0.2,0.2,0.4,0.3c0.1,0.1,0.3,0.1,0.5,0.1h0.7c0.2,0,0.3,0,0.5-0.1
		c0.1-0.1,0.3-0.2,0.4-0.3c0.1-0.1,0.2-0.2,0.3-0.4c0.1-0.1,0.1-0.3,0.1-0.5V14.3z M61,20.2c0-0.2,0-0.3-0.1-0.5
		c-0.1-0.1-0.2-0.2-0.3-0.3s-0.2-0.2-0.4-0.2c-0.1,0-0.3-0.1-0.5-0.1h-0.4c-0.2,0-0.3,0-0.5,0.1c-0.1,0-0.3,0.1-0.4,0.2
		s-0.2,0.2-0.3,0.3c-0.1,0.1-0.1,0.3-0.1,0.5v0.1c0,0.2,0,0.3,0.1,0.5c0.1,0.1,0.2,0.2,0.3,0.3c0.1,0.1,0.2,0.2,0.4,0.2
		c0.1,0,0.3,0.1,0.5,0.1h0.4c0.2,0,0.3,0,0.5-0.1c0.1,0,0.3-0.1,0.4-0.2c0.1-0.1,0.2-0.2,0.3-0.3c0.1-0.1,0.1-0.3,0.1-0.5V20.2z"/>
</g>
<g>
	<path fill="#6AB445" d="M24,14c0,4.5-1.6,7.5-4.8,9.6c-3.4,2.2-8.1,2-11.3-0.5c-0.1,0-0.2-0.1-0.3-0.1c0,0-0.1-0.1-0.1-0.2
		c0.1,0,0.1-0.1,0.2-0.1s0.3,0,0.4-0.1c0.4-0.2,0.6-0.6,0.4-1c-0.1-0.4-0.5-0.6-1-0.5c-0.4,0.1-0.7,0.4-0.7,0.8c0,0.1,0,0.2,0,0.4
		c-0.1-0.1-0.2-0.1-0.3-0.2c-1.6-1.7-2.6-3.8-2.8-6.2C3.5,12.8,4.4,10.2,6.6,8c1.7-1.8,3.9-2.8,6.4-3c3-0.2,5.5,0.7,7.7,2.7
		C21,8,21.1,7.9,21.3,7.6c0.2-0.4,0.4-0.7,0.6-1.1c0.1-0.1,0.2-0.2,0.2-0.3c0.1,0.1,0.1,0.2,0.2,0.3c0.4,1.4,0.9,2.9,1.2,4.3
		C23.7,12.1,23.9,13.3,24,14z M23.6,14.5h-0.1c0-2.4-0.6-4.6-1.3-6.9c0-0.1-0.1-0.2-0.2-0.2c-0.1,0.1-0.2,0.2-0.2,0.3
		c-1.5,2.3-3.7,3.6-6.4,4.1C14.3,12,13.2,12,12,12.1c-2.7,0.3-5,2.1-5.2,4.9c-0.1,1.2,0.2,2.3,1.1,3.2c0.3,0.3,0.6,0.5,1,0.4
		c1.7-0.4,3.5-0.8,5.1-1.4c2.9-1,5.2-2.9,6.7-5.7c0.1-0.1,0.2-0.2,0.2-0.3c0,0.1,0,0.3-0.1,0.4c0,0.1-0.1,0.2-0.1,0.3
		c-1.3,3.1-3.5,5.4-6.7,6.6c-1.3,0.5-2.6,0.8-3.9,1.3c-0.1,0-0.1,0.1-0.2,0.1c0.1,0,0.1,0,0.2,0c1.2,0,2.5-0.1,3.7,0
		c1.5,0.1,3.1,0,4.6-0.3c2.4-0.5,3.9-1.9,4.6-4.2C23.3,16.4,23.4,15.4,23.6,14.5z"/>
	<path fill="#FFFFFF" d="M23.6,14.5c-0.2,1-0.2,1.9-0.5,2.8c-0.6,2.3-2.2,3.7-4.6,4.2c-1.5,0.3-3,0.3-4.6,0.3c-1.2-0.1-2.4,0-3.7,0
		c-0.1,0-0.1,0-0.2,0c0.1,0,0.1-0.1,0.2-0.1c1.3-0.4,2.6-0.8,3.9-1.3c3.2-1.3,5.4-3.5,6.7-6.6c0-0.1,0.1-0.2,0.1-0.3s0-0.3,0.1-0.4
		c-0.1,0.1-0.2,0.2-0.2,0.3c-1.5,2.7-3.8,4.6-6.7,5.7c-1.7,0.6-3.4,0.9-5.1,1.4c-0.4,0.1-0.7-0.1-1-0.4c-0.9-0.9-1.2-2-1.1-3.2
		C7,14,9.3,12.2,12,12c1.1-0.1,2.3-0.1,3.4-0.3c2.7-0.4,4.9-1.8,6.4-4.1c0.1-0.1,0.1-0.2,0.2-0.3c0.1,0.1,0.1,0.2,0.2,0.2
		c0.7,2.2,1.3,4.5,1.3,6.9C23.5,14.4,23.5,14.5,23.6,14.5z"/>
	<circle fill="#FFFFFF" cx="7.8" cy="21.8" r="1"/>
</g>
</svg>
